<svg width="167" height="51" viewBox="0 0 167 51" fill="none" xmlns="http://www.w3.org/2000/svg">
<g clip-path="url(#clip0_4220_17439)">
<g clip-path="url(#clip1_4220_17439)">
<g clip-path="url(#clip2_4220_17439)">
<path d="M17.8811 28.4578C16.8608 27.8183 15.8405 27.6987 10.6219 27.5327C7.27782 27.4375 5.97193 27.3667 5.54477 27.2471C5.04683 27.13 4.83203 26.82 4.83203 26.2268C4.83203 25.0649 5.16399 24.9697 9.24519 24.9697C12.66 24.9697 13.2532 25.0161 13.6584 25.2529C14.0147 25.4677 14.0855 25.68 14.1319 26.5588H18.7818C18.8062 26.2512 18.8062 25.9193 18.8062 25.8241C18.8062 23.9495 18.4254 22.9537 17.4784 22.3141C16.3629 21.555 14.7031 21.3427 10.0995 21.3427C6.3039 21.3427 4.12172 21.4378 3.19662 21.6282C1.01444 22.1018 0.16013 23.454 0.16013 26.4685C0.16013 29.9565 1.25121 30.9524 5.16643 31.072L6.44791 31.1208L9.01086 31.238L12.8065 31.3796C14.3491 31.404 14.7055 31.6407 14.7055 32.5903C14.7055 33.9889 14.7055 33.9889 9.53322 33.9889C6.14036 33.9889 5.618 33.9425 5.16887 33.6569C4.79053 33.4202 4.69534 33.1126 4.69534 32.1631H0.0209961V32.9222C0.0209961 35.1044 0.377366 36.0295 1.46845 36.7178C2.58395 37.4306 4.50495 37.6429 9.41606 37.6429C14.1368 37.6429 16.1286 37.5258 17.0781 37.1694C18.7159 36.5519 19.3798 35.1996 19.3798 32.4487C19.375 30.2372 18.9722 29.1705 17.8811 28.4578Z" fill="white"/>
<path d="M20.1365 25.6117H27.1833V37.4013H32.236V25.6117H39.2829V21.5793H20.1365V25.6117Z" fill="white"/>
<path d="M60.5408 22.4337C59.3301 21.5086 57.8607 21.3427 51.2409 21.3427C44.6212 21.3427 43.1518 21.5086 41.9411 22.4337C40.7304 23.3588 40.3765 24.9722 40.3765 29.3853C40.3765 34.0353 40.7084 35.5999 41.9411 36.5494C43.1518 37.4745 44.6212 37.6405 51.2873 37.6405C57.8338 37.6405 59.3301 37.4745 60.5384 36.5494C61.7491 35.6243 62.1054 34.0353 62.1054 29.4805C62.1054 24.9478 61.7491 23.3588 60.5408 22.4337ZM56.5792 32.9662C55.9397 33.4397 55.1562 33.5349 51.2873 33.5349C47.3013 33.5349 46.5422 33.4641 45.9027 32.9662C45.334 32.5146 45.1899 31.8751 45.1899 29.9053C45.1899 27.8891 45.2851 26.9884 45.5707 26.4416C46.0443 25.5165 46.4958 25.4457 51.2409 25.4457C55.6541 25.4457 56.1765 25.5165 56.7208 26.1585C57.1479 26.6808 57.2895 27.5815 57.2895 29.9297C57.2895 31.8507 57.1235 32.539 56.5792 32.9662Z" fill="white"/>
<path d="M79.0259 31.3063C79.0015 33.6545 78.9307 33.6789 73.6413 33.6789C68.5642 33.6789 68.4934 33.6301 68.4934 29.5733C68.4934 27.1763 68.6838 26.2512 69.2525 25.7777C69.7261 25.3969 70.6048 25.3041 73.6169 25.3041C76.6534 25.3041 78.0544 25.4457 78.4084 25.7557C78.694 25.9925 78.7403 26.2073 78.7892 27.2496H83.6051V26.466C83.6051 23.9276 83.1315 22.7657 81.7793 22.0774C80.6882 21.5086 79.2163 21.3427 74.9935 21.3427C66.714 21.3427 64.9834 21.7454 64.1291 23.8812C63.7727 24.7598 63.6775 26.0633 63.6775 29.5977C63.6775 31.6139 63.7239 32.9198 63.7946 33.6301C63.985 35.2435 64.4586 36.1198 65.5033 36.7154C66.7848 37.4501 68.7765 37.6405 74.9691 37.6405C78.4792 37.6405 80.2122 37.4989 81.4937 37.0937C83.2487 36.525 83.9126 35.3631 83.9126 32.8002C83.9126 32.5634 83.8882 32.207 83.8638 31.3063H79.0259Z" fill="white"/>
<path d="M114.778 13.7879L114.031 13.1996L93.0002 27.3203H90.3689V21.5793H85.553V37.4013H90.3689V31.3527H93.0002L100.096 37.4013H107.402L97.4841 29.3365L114.778 13.7879Z" fill="#14A800"/>
<path d="M130.558 33.415H129.658L126.055 21.5791H120.241L116.657 33.415H115.779L111.61 21.6743L107.909 24.8475L112.576 37.401H120.048L123.18 25.7994L126.36 37.401H133.788L139.929 21.5791H134.828L130.558 33.415Z" fill="white"/>
<path d="M145.795 21.5791H140.742V37.4035H145.795V21.5791Z" fill="white"/>
<path d="M155.024 33.6054L166.601 25.2087V21.5791H147.647V25.5407L158.819 25.3747L147.386 33.7006V37.401H166.957V33.4395L155.024 33.6054Z" fill="white"/>
<path d="M117.343 20.9348L116.687 14.3077C116.548 14.3077 116.406 14.3004 116.267 14.2833L114.854 20.7932C115.676 20.9372 116.511 20.9861 117.343 20.9348Z" fill="#14A800"/>
<path d="M113.24 8.95476L107.487 5.59851C107.091 6.33567 106.789 7.1192 106.581 7.93202L113.091 9.33798C113.135 9.20617 113.184 9.07925 113.24 8.95476Z" fill="#14A800"/>
<path d="M114.326 7.55868C114.48 7.43419 114.646 7.32191 114.819 7.22184L112.129 1.12933C111.358 1.50523 110.638 1.97389 109.979 2.52797L112.342 5.06163L114.326 7.55868Z" fill="#14A800"/>
<path d="M117.111 6.7531L118.515 0.24076C117.692 0.0943052 116.857 0.0479281 116.025 0.101628L116.694 6.72869C116.833 6.72869 116.972 6.73601 117.111 6.7531Z" fill="#14A800"/>
<path d="M112.981 11.281L106.354 11.9449C106.469 12.7748 106.681 13.5852 106.989 14.3639L113.086 11.6813C113.045 11.5495 113.008 11.4177 112.981 11.281Z" fill="#14A800"/>
<path d="M124.207 3.27471C123.626 2.66937 122.977 2.13968 122.272 1.69543L118.923 7.45355C119.035 7.5341 119.142 7.62197 119.242 7.71717L124.207 3.27471Z" fill="#14A800"/>
<path d="M120.148 12.0743L125.908 15.4184C126.301 14.6812 126.602 13.9001 126.809 13.0849L120.297 11.6887C120.253 11.8205 120.204 11.9498 120.148 12.0743Z" fill="#14A800"/>
<path d="M120.402 9.74565L127.029 9.0744C126.914 8.24449 126.699 7.43411 126.389 6.65546L120.297 9.34778C120.338 9.47715 120.375 9.6114 120.402 9.74565Z" fill="#14A800"/>
<path d="M123.399 18.5133L121.171 16.0919L118.971 13.5436C118.84 13.6437 118.7 13.734 118.559 13.8146L121.237 19.9144C122.013 19.5385 122.738 19.0699 123.399 18.5133Z" fill="#14A800"/>
</g>
</g>
</g>
<defs>
<clipPath id="clip0_4220_17439">
<rect width="167" height="37.59" fill="white" transform="translate(0 0.0800171)"/>
</clipPath>
<clipPath id="clip1_4220_17439">
<rect width="167" height="37.59" fill="white" transform="translate(0 0.0800171)"/>
</clipPath>
<clipPath id="clip2_4220_17439">
<rect width="166.958" height="37.59" fill="white" transform="translate(0.0209961 0.0800171)"/>
</clipPath>
</defs>
</svg>
