<svg width="245" height="245" viewBox="0 0 245 245" fill="none" xmlns="http://www.w3.org/2000/svg">
<g filter="url(#filter0_dii_4743_34350)">
<circle cx="122.5" cy="123.5" r="83.5" fill="url(#paint0_linear_4743_34350)"/>
</g>
<path fill-rule="evenodd" clip-rule="evenodd" d="M125.635 143.372L140.742 111.27L142.38 111.499L131.661 150.153L131.664 150.153L131.61 150.336L131.61 150.336L118.806 150.336L110.97 129.112L110.917 129.125C110.226 128.709 101.098 128.626 95.2462 128.626C88.2499 128.626 87.6845 128.791 87.6845 130.821C87.6845 131.859 88.0524 132.394 88.9051 132.604C89.6366 132.81 91.8714 132.938 97.6067 133.103C106.551 133.391 108.301 133.601 110.051 134.717C111.922 135.96 112.613 137.826 112.613 141.676C112.613 146.481 111.474 148.841 108.669 149.92C107.044 150.542 103.625 150.747 95.5334 150.747C87.1145 150.747 83.8206 150.377 81.9133 149.133C80.042 147.931 79.4316 146.317 79.4316 142.503V141.177H87.4421C87.4421 142.833 87.6037 143.372 88.2544 143.788C89.0263 144.287 89.9238 144.369 95.7353 144.369C104.598 144.369 104.598 144.369 104.598 141.923C104.598 140.268 103.988 139.851 101.345 139.81L94.8378 139.563L90.4444 139.358L88.2499 139.275C81.5408 139.07 79.6695 137.328 79.6695 131.237C79.6695 125.975 81.1325 123.615 84.8752 122.783C86.4593 122.449 98.9216 122.285 105.424 122.285C113.314 122.285 115.162 122.66 117.074 123.986C117.074 123.986 117.47 124.471 118.044 125.796H118.106L124.295 143.372H125.635ZM166.447 122.705L155.919 150.336H143.192L138.543 133.039L141.406 122.705H142.663L148.842 143.372H150.391L157.705 122.705H166.447Z" fill="white"/>
<path d="M151.063 121.22L145.44 110.946C145.216 111.042 144.992 111.128 144.758 111.202L147.007 122.742C148.416 122.399 149.776 121.892 151.063 121.22Z" fill="#58FF29"/>
<path d="M136.263 104.704L124.797 103.319C124.681 104.791 124.739 106.273 124.968 107.736L136.29 105.431C136.272 105.184 136.263 104.947 136.263 104.704Z" fill="#58FF29"/>
<path d="M137.031 101.677C137.193 101.366 137.377 101.069 137.583 100.786L129.097 92.8071C128.132 93.9594 127.306 95.2259 126.642 96.5884L132.148 99.03L137.031 101.677Z" fill="#58FF29"/>
<path d="M140.899 98.4082L138.633 86.8723C137.224 87.2152 135.864 87.7273 134.576 88.3995L140.217 98.6643C140.442 98.5683 140.67 98.4814 140.899 98.4082Z" fill="#58FF29"/>
<path d="M137.462 108.655L127.382 114.393C128.136 115.66 129.034 116.821 130.061 117.863L137.901 109.226C137.749 109.043 137.601 108.856 137.462 108.655Z" fill="#58FF29"/>
<path d="M149.776 87.7822C148.434 87.2106 147.038 86.8128 145.607 86.5842L144.26 98.271C144.494 98.3259 144.722 98.3899 144.951 98.4722L149.776 87.7822Z" fill="#58FF29"/>
<path d="M149.403 104.896L160.874 106.259C160.991 104.787 160.928 103.31 160.694 101.847L149.376 104.169C149.394 104.412 149.408 104.654 149.403 104.896Z" fill="#58FF29"/>
<path d="M148.201 100.941L158.271 95.1892C157.513 93.9272 156.615 92.7613 155.583 91.7234L147.756 100.374C147.913 100.553 148.062 100.745 148.201 100.941Z" fill="#58FF29"/>
<path d="M159.02 113.035L153.806 110.68L148.551 108.097C148.412 108.353 148.255 108.595 148.084 108.828L156.552 116.825C157.526 115.673 158.352 114.402 159.02 113.035Z" fill="#58FF29"/>
<defs>
<filter id="filter0_dii_4743_34350" x="0.599998" y="0.599998" width="243.8" height="243.8" filterUnits="userSpaceOnUse" color-interpolation-filters="sRGB">
<feFlood flood-opacity="0" result="BackgroundImageFix"/>
<feColorMatrix in="SourceAlpha" type="matrix" values="0 0 0 0 0 0 0 0 0 0 0 0 0 0 0 0 0 0 127 0" result="hardAlpha"/>
<feOffset dy="-1"/>
<feGaussianBlur stdDeviation="19.2"/>
<feColorMatrix type="matrix" values="0 0 0 0 0.0209069 0 0 0 0 0.0197304 0 0 0 0 0.0256127 0 0 0 0.8 0"/>
<feBlend mode="normal" in2="BackgroundImageFix" result="effect1_dropShadow_4743_34350"/>
<feBlend mode="normal" in="SourceGraphic" in2="effect1_dropShadow_4743_34350" result="shape"/>
<feColorMatrix in="SourceAlpha" type="matrix" values="0 0 0 0 0 0 0 0 0 0 0 0 0 0 0 0 0 0 127 0" result="hardAlpha"/>
<feOffset dy="7"/>
<feGaussianBlur stdDeviation="6.4"/>
<feComposite in2="hardAlpha" operator="arithmetic" k2="-1" k3="1"/>
<feColorMatrix type="matrix" values="0 0 0 0 0.154711 0 0 0 0 0.146005 0 0 0 0 0.189534 0 0 0 1 0"/>
<feBlend mode="normal" in2="shape" result="effect2_innerShadow_4743_34350"/>
<feColorMatrix in="SourceAlpha" type="matrix" values="0 0 0 0 0 0 0 0 0 0 0 0 0 0 0 0 0 0 127 0" result="hardAlpha"/>
<feOffset dy="-9"/>
<feGaussianBlur stdDeviation="6.2"/>
<feComposite in2="hardAlpha" operator="arithmetic" k2="-1" k3="1"/>
<feColorMatrix type="matrix" values="0 0 0 0 0.0418137 0 0 0 0 0.0394608 0 0 0 0 0.0512255 0 0 0 1 0"/>
<feBlend mode="normal" in2="effect2_innerShadow_4743_34350" result="effect3_innerShadow_4743_34350"/>
</filter>
<linearGradient id="paint0_linear_4743_34350" x1="122.5" y1="40" x2="122.5" y2="207" gradientUnits="userSpaceOnUse">
<stop stop-color="#0E0D11"/>
<stop offset="1" stop-color="#24222C"/>
</linearGradient>
</defs>
</svg>
