<svg width="54" height="54" viewBox="0 0 54 54" fill="none" xmlns="http://www.w3.org/2000/svg">
<rect x="5.33" y="5.33" width="43.34" height="43.34" rx="8.47" stroke="white" stroke-opacity="0.5" stroke-width="0.66"/>
<g filter="url(#filter0_f_5680_18985)">
<rect x="5.33" y="5.33" width="43.34" height="43.34" rx="5.67" stroke="white" stroke-opacity="0.5" stroke-width="0.66"/>
</g>
<g clip-path="url(#clip0_5680_18985)">
<path d="M39.88 13H14.12C13.5014 13 13 13.5014 13 14.12V39.88C13 40.4986 13.5014 41 14.12 41H39.88C40.4986 41 41 40.4986 41 39.88V14.12C41 13.5014 40.4986 13 39.88 13Z" fill="white"/>
<mask id="mask0_5680_18985" style="mask-type:luminance" maskUnits="userSpaceOnUse" x="15" y="22" width="24" height="8">
<path d="M37.204 24.6667V29.3597C37.204 29.6877 37.4773 29.9531 37.7857 29.9531C38.1137 29.9531 38.3675 29.6877 38.3675 29.3597V24.6667C38.3675 24.3387 38.102 24.0732 37.7857 24.0732C37.4539 24.0732 37.204 24.3387 37.204 24.6667ZM16.144 28.0556C16.144 27.5286 16.6242 27.2318 17.2958 27.2318C17.7877 27.2318 18.143 27.2982 18.6232 27.4192V28.6374C18.5139 28.7233 18.1079 28.9771 17.3504 28.9771C16.5735 28.9771 16.144 28.6491 16.144 28.0556ZM15.7926 24.3036C15.4959 24.4363 15.4061 24.655 15.4061 24.8424C15.4061 25.182 15.7262 25.4358 16.2064 25.2796C16.5149 25.1703 16.9522 25.0376 17.4012 25.0376C18.2562 25.0376 18.6193 25.3538 18.6193 26.1035V26.4666C18.1157 26.3455 17.7408 26.2831 17.2255 26.2831C15.7418 26.2831 15.0469 27.0913 15 28.0049V28.2079C15.0469 29.2308 15.7926 30 17.245 30C18.389 30 19.2206 29.5939 19.529 29.387C19.693 29.2777 19.736 29.1567 19.736 28.9575V26.1035C19.736 24.6237 18.8692 23.9756 17.4636 23.9756C16.8038 23.9756 16.1127 24.1474 15.7926 24.3036ZM27.1464 28.0556C27.1464 27.5286 27.6306 27.2318 28.2982 27.2318C28.794 27.2318 29.1415 27.2982 29.6257 27.4192V28.6374C29.5164 28.7233 29.1103 28.9771 28.3529 28.9771C27.5759 28.9771 27.1464 28.6491 27.1464 28.0556ZM26.795 24.3036C26.4983 24.4363 26.4085 24.655 26.4085 24.8424C26.4085 25.182 26.7286 25.4358 27.2089 25.2796C27.5173 25.1703 27.9546 25.0376 28.4036 25.0376C29.2587 25.0376 29.6218 25.3538 29.6218 26.1035V26.4666C29.1142 26.3455 28.7433 26.2831 28.2279 26.2831C26.6935 26.2831 25.9985 27.1498 25.9985 28.1025C25.9985 29.1762 26.7443 30 28.2474 30C29.3875 30 30.223 29.5939 30.5315 29.387C30.6955 29.2777 30.7384 29.1567 30.7384 28.9575V26.1035C30.7384 24.6237 29.8716 23.9756 28.4661 23.9756C27.8062 23.9756 27.1152 24.1474 26.795 24.3036ZM31.7535 24.5769C31.5896 24.6862 31.5232 24.7994 31.5232 25.0259V29.3363C31.5232 29.6642 31.7965 29.9297 32.1049 29.9297C32.4329 29.9297 32.6867 29.6642 32.6867 29.3363V25.4007C32.9366 25.2445 33.4558 25.0922 33.9907 25.0922C34.674 25.0922 35.2635 25.4671 35.2635 26.3455V29.3402C35.2635 29.6681 35.5368 29.9336 35.8453 29.9336C36.185 29.9336 36.427 29.6681 36.427 29.3402V26.2909C36.427 24.8072 35.6149 23.9756 34.0259 23.9756C32.8741 23.9756 32.0698 24.3348 31.7535 24.5769ZM21.5944 27.5949C21.5632 27.2552 21.5749 26.6071 21.5944 26.3104C21.6413 25.51 22.0356 25.0922 22.8673 25.0922C23.4373 25.0922 23.9878 25.2914 24.2182 25.4319V28.4812C23.9995 28.6452 23.4295 28.8755 22.9571 28.8755C22.1137 28.8755 21.6647 28.4383 21.5944 27.5949ZM24.2182 22.6442V24.2879C23.8551 24.124 23.3084 23.9717 22.7814 23.9717C21.368 23.9717 20.5559 24.815 20.4348 26.1776C20.4036 26.572 20.4036 27.3529 20.4348 27.7355C20.5559 29.0825 21.4539 29.9961 22.9375 29.9961C23.9995 29.9961 24.8897 29.5237 25.1747 29.3128C25.3504 29.1918 25.3856 29.0708 25.3856 28.8755V22.6442C25.3856 22.3163 25.1318 22.0508 24.8038 22.0508C24.4837 22.0547 24.2182 22.3163 24.2182 22.6442ZM37.1259 22.6481C37.1259 23.0112 37.3992 23.3197 37.7857 23.3197C38.1489 23.3197 38.4339 23.0112 38.4339 22.6481C38.4339 22.285 38.1489 22 37.7857 22C37.3992 22 37.1259 22.285 37.1259 22.6481Z" fill="white"/>
</mask>
<g mask="url(#mask0_5680_18985)">
<path d="M15.1836 32.0302L39.1289 29.9375L38.2544 19.9658L14.3129 22.0625L15.1836 32.0302Z" fill="url(#paint0_linear_5680_18985)"/>
</g>
</g>
<defs>
<filter id="filter0_f_5680_18985" x="0.599998" y="0.599998" width="52.8" height="52.8" filterUnits="userSpaceOnUse" color-interpolation-filters="sRGB">
<feFlood flood-opacity="0" result="BackgroundImageFix"/>
<feBlend mode="normal" in="SourceGraphic" in2="BackgroundImageFix" result="shape"/>
<feGaussianBlur stdDeviation="2.2" result="effect1_foregroundBlur_5680_18985"/>
</filter>
<linearGradient id="paint0_linear_5680_18985" x1="4.0243" y1="27.9849" x2="47.6891" y2="24.1647" gradientUnits="userSpaceOnUse">
<stop stop-color="#00B16B"/>
<stop offset="0.0694383" stop-color="#00A17C"/>
<stop offset="0.2548" stop-color="#007CA6"/>
<stop offset="0.35" stop-color="#006DB6"/>
<stop offset="0.3983" stop-color="#205DAD"/>
<stop offset="0.4798" stop-color="#4F46A0"/>
<stop offset="0.5519" stop-color="#713597"/>
<stop offset="0.6111" stop-color="#862B91"/>
<stop offset="0.65" stop-color="#8E278F"/>
<stop offset="0.725" stop-color="#A83172"/>
<stop offset="0.8868" stop-color="#EA4A29"/>
<stop offset="0.9" stop-color="#F04C23"/>
<stop offset="1" stop-color="#F04C23"/>
</linearGradient>
<clipPath id="clip0_5680_18985">
<rect x="13" y="13" width="28" height="28" rx="14" fill="white"/>
</clipPath>
</defs>
</svg>
