<svg width="54" height="54" viewBox="0 0 54 54" fill="none" xmlns="http://www.w3.org/2000/svg">
<rect x="5.33" y="5.33" width="43.34" height="43.34" rx="8.47" stroke="white" stroke-opacity="0.5" stroke-width="0.66"/>
<g filter="url(#filter0_f_5687_19327)">
<rect x="5.33" y="5.33" width="43.34" height="43.34" rx="5.67" stroke="white" stroke-opacity="0.5" stroke-width="0.66"/>
</g>
<rect x="12.9917" y="12.9927" width="28" height="28" rx="14" fill="white"/>
<path d="M29.3396 19.0294C29.2744 19.0486 29.1206 19.0678 28.9994 19.0727C28.5148 19.0823 26.949 19.4903 26.3804 19.7495C26.3292 19.7735 26.1847 19.8359 26.0542 19.8888C25.714 20.0232 24.8146 20.4648 24.6748 20.5704C24.6096 20.6137 24.5024 20.6713 24.4325 20.6857C24.3626 20.7049 24.3067 20.7385 24.3067 20.7577C24.3067 20.7769 24.2694 20.8057 24.2275 20.8249C24.1809 20.8393 24.083 20.8969 24.0038 20.9497C23.9292 21.0025 23.8174 21.0649 23.7568 21.0937C23.6962 21.1177 23.5797 21.1945 23.4958 21.2617C23.4119 21.3289 23.3281 21.3818 23.3141 21.3818C23.2069 21.3818 21.7063 22.5051 21.2823 22.8987C20.9374 23.2204 20.299 23.9213 20.299 23.9789C20.299 23.9933 20.257 24.0605 20.2011 24.1229C20.0613 24.2861 19.6419 24.9678 19.5207 25.2223C19.4695 25.3423 19.367 25.5535 19.3017 25.6975C19.0734 26.1776 18.9802 26.7008 19.0035 27.3105C19.0314 27.9106 19.1619 28.2226 19.558 28.6355C19.9728 29.0628 20.4155 29.25 21.1145 29.2884C21.5945 29.3124 21.9393 29.274 22.4193 29.1348C22.5731 29.0916 22.7782 29.0387 22.876 29.0099C22.9739 28.9859 23.0857 28.9475 23.1323 28.9187C23.2395 28.8611 23.8407 28.5827 23.8686 28.5827C23.9525 28.5827 24.9358 27.9634 25.8445 27.3393C26.4457 26.9265 26.9723 26.5664 27.0189 26.5424C27.0608 26.5136 27.3451 26.3408 27.648 26.1536C27.9509 25.9711 28.3237 25.7503 28.4775 25.6687C28.6313 25.5871 28.8503 25.4671 28.9668 25.4047C29.0833 25.3471 29.3023 25.2415 29.4561 25.1838C29.6099 25.1214 29.801 25.0398 29.8755 25.0062C29.9547 24.9726 30.0666 24.9198 30.1318 24.891C30.3136 24.8142 30.7237 24.7374 31.1244 24.7086C31.9912 24.651 32.597 25.0446 32.9093 25.8703C32.9838 26.0672 32.9978 26.2304 32.9978 26.8065C32.9978 27.5073 32.9372 27.8914 32.7555 28.3427C32.7182 28.4339 32.6669 28.5635 32.639 28.6307C32.406 29.2068 31.926 30.0325 31.3761 30.7814C30.8541 31.5015 29.7311 32.6968 28.9901 33.3257C28.7338 33.5465 28.4495 33.7866 28.361 33.8634C28.1653 34.0314 27.9369 34.1994 27.6853 34.3722C27.5827 34.4395 27.415 34.5547 27.3125 34.6315C27.0235 34.8331 26.2546 35.2556 25.8212 35.4476C25.6954 35.5052 25.523 35.582 25.4391 35.6204C25.3599 35.6588 25.2527 35.6876 25.2014 35.6876C25.1548 35.6876 25.0476 35.7116 24.9638 35.7404C24.6609 35.8508 24.3533 35.6396 24.3533 35.318C24.3533 34.9243 24.535 34.6747 25.6814 33.5033C26.921 32.236 27.0562 32.0487 27.0562 31.5687C27.0562 31.0742 26.8278 30.7382 26.3152 30.4693C26.0915 30.3493 26.0076 30.3349 25.6162 30.3349C25.1595 30.3349 24.8939 30.4021 24.563 30.6086C24.4884 30.6566 24.3719 30.719 24.3067 30.7526C24.2414 30.7862 24.1809 30.8246 24.1669 30.839C24.1529 30.8534 24.0597 30.9254 23.9572 31.007C23.7102 31.199 23.2768 31.6551 23.0298 31.9863C22.8574 32.2168 22.7316 32.4328 22.438 32.9993C22.1957 33.4697 21.9766 34.3434 21.9766 34.8523C21.9766 35.8844 22.4986 36.7101 23.3048 36.9454C23.5471 37.0174 24.535 37.0174 24.8752 36.9502C25.2107 36.8782 26.0868 36.5997 26.1428 36.5469C26.1707 36.5229 26.2173 36.5037 26.2546 36.5037C26.3758 36.5037 27.7598 35.7788 28.2352 35.462C28.3423 35.39 28.4635 35.3084 28.5101 35.2796C28.552 35.2556 28.7711 35.1163 28.9994 34.9723C29.2231 34.8283 29.4188 34.6939 29.4328 34.6795C29.4468 34.6603 29.6052 34.5403 29.7823 34.4154C29.9641 34.2858 30.1738 34.137 30.2483 34.0842C30.3275 34.0266 30.5466 33.8538 30.7376 33.6954C31.9493 32.7016 33.0211 31.6407 33.6455 30.815C33.7481 30.6854 33.8413 30.5653 33.8553 30.5509C33.8925 30.5221 34.2094 30.0517 34.4285 29.6964C34.5263 29.5476 34.6754 29.2836 34.7593 29.1108C34.8479 28.9379 34.969 28.7027 35.0296 28.5827C35.0902 28.4627 35.2207 28.1506 35.3232 27.8866C35.4211 27.6226 35.5189 27.3633 35.5376 27.3105C35.668 26.9697 35.8684 26.0912 35.957 25.4623C36.0548 24.7518 35.9803 23.5852 35.7892 22.942C35.71 22.6779 35.6913 22.6299 35.5189 22.2459C35.1461 21.4202 34.5496 20.6713 33.8646 20.1816C33.7714 20.1144 33.6549 20.0232 33.6036 19.9704C33.4358 19.8167 32.583 19.4231 32.0844 19.2743C31.8188 19.1927 31.4227 19.1063 31.2037 19.0727C30.7004 19.0054 29.4934 18.9718 29.3396 19.0294Z" fill="#FF0000"/>
<defs>
<filter id="filter0_f_5687_19327" x="0.599998" y="0.599998" width="52.8" height="52.8" filterUnits="userSpaceOnUse" color-interpolation-filters="sRGB">
<feFlood flood-opacity="0" result="BackgroundImageFix"/>
<feBlend mode="normal" in="SourceGraphic" in2="BackgroundImageFix" result="shape"/>
<feGaussianBlur stdDeviation="2.2" result="effect1_foregroundBlur_5687_19327"/>
</filter>
</defs>
</svg>
