<svg width="54" height="54" viewBox="0 0 54 54" fill="none" xmlns="http://www.w3.org/2000/svg">
<rect x="5.33" y="5.33" width="43.34" height="43.34" rx="8.47" stroke="white" stroke-opacity="0.5" stroke-width="0.66"/>
<g filter="url(#filter0_f_5680_18998)">
<rect x="5.33" y="5.33" width="43.34" height="43.34" rx="5.67" stroke="white" stroke-opacity="0.5" stroke-width="0.66"/>
</g>
<path d="M21.3816 18.8951C27.8032 12.5207 35.5936 10.8664 38.7112 15.2111C41.8287 19.5559 39.0888 28.3375 32.6672 34.7119C26.2456 41.1334 18.4552 42.7855 15.2905 38.3935C12.2225 34.0039 14.9624 25.2671 21.3816 18.8951Z" fill="#F06321"/>
<path d="M25.632 15.4945C24.924 16.0137 24.216 16.6273 23.508 17.2905C17.8888 22.8601 15.5264 30.5089 18.3136 34.3344C21.1928 38.1576 28.0864 36.7416 33.8472 31.1225C36.9647 28.1017 39.0415 24.6065 39.8911 21.3497C40.1271 18.9425 39.7968 16.8161 38.7112 15.2113C36.2567 11.8129 30.968 12.0937 25.632 15.4945Z" fill="#AE282E"/>
<path d="M33.7526 16.2021V16.3437C33.7055 17.1461 33.2334 18.1373 32.3838 18.9869C31.1094 20.2141 29.4102 20.6861 28.6998 19.9804C27.8974 19.2252 28.3718 17.5709 29.6462 16.2493C30.9678 14.9749 32.667 14.5501 33.375 15.3053C33.611 15.5413 33.7526 15.8245 33.7526 16.2021ZM28.8438 37.874C25.8206 40.1396 22.7054 41.2748 19.6822 40.8028C20.9566 40.85 21.9974 39.4316 22.847 37.5436C23.6966 35.6084 24.1686 33.8148 24.5934 32.1132C25.207 29.4228 25.2542 27.5348 24.9238 27.11C24.4046 26.4469 23.2718 26.5908 21.9478 27.346C21.287 27.7236 20.4374 27.4876 21.431 26.2604C22.4694 25.0332 26.4814 22.1045 27.8974 21.6325C29.5045 21.2077 31.2982 21.8213 30.6846 23.5677C30.2574 24.8421 24.6878 39.3844 28.8438 37.874Z" fill="white"/>
<defs>
<filter id="filter0_f_5680_18998" x="0.599998" y="0.599998" width="52.8" height="52.8" filterUnits="userSpaceOnUse" color-interpolation-filters="sRGB">
<feFlood flood-opacity="0" result="BackgroundImageFix"/>
<feBlend mode="normal" in="SourceGraphic" in2="BackgroundImageFix" result="shape"/>
<feGaussianBlur stdDeviation="2.2" result="effect1_foregroundBlur_5680_18998"/>
</filter>
</defs>
</svg>
