<svg width="54" height="54" viewBox="0 0 54 54" fill="none" xmlns="http://www.w3.org/2000/svg">
<rect x="5.33" y="5.33" width="43.34" height="43.34" rx="8.47" stroke="white" stroke-opacity="0.5" stroke-width="0.66"/>
<g filter="url(#filter0_f_5687_19315)">
<rect x="5.33" y="5.33" width="43.34" height="43.34" rx="5.67" stroke="white" stroke-opacity="0.5" stroke-width="0.66"/>
</g>
<rect x="12.9917" y="12.9927" width="28" height="28" rx="14" fill="white"/>
<path fill-rule="evenodd" clip-rule="evenodd" d="M38.6569 23C38.4624 23.0004 38.2761 23.0778 38.1385 23.2153C38.001 23.3528 37.9236 23.5391 37.9231 23.7335C37.9231 24.1428 38.2549 24.4742 38.6569 24.4742C38.8533 24.4737 39.0415 24.3955 39.1804 24.2567C39.3192 24.1179 39.3975 23.9298 39.398 23.7335C39.398 23.3277 39.0631 23 38.6569 23ZM38.6569 23.1101C39.0021 23.1101 39.2881 23.3887 39.2881 23.7335C39.2881 24.0783 39.0021 24.3644 38.6569 24.3644C38.312 24.3644 38.0333 24.078 38.0333 23.7335C38.0332 23.6516 38.0493 23.5705 38.0806 23.4948C38.1119 23.4192 38.1579 23.3504 38.2158 23.2925C38.2737 23.2346 38.3425 23.1887 38.4182 23.1574C38.4939 23.1261 38.575 23.11 38.6569 23.1101ZM23.277 23.1615C22.3645 23.1615 21.6977 23.767 21.604 24.8338H20.8996V25.3619H21.5967V30.4373H22.3892V25.3619H24.1575C23.5001 25.8933 23.0788 26.7615 23.0788 27.7311C23.0788 29.3398 24.2395 30.6398 25.6765 30.6577C25.6835 30.6612 25.6948 30.665 25.7058 30.665C27.1572 30.665 28.3254 29.3506 28.3254 27.7311C28.3254 27.5407 28.3063 27.3497 28.2739 27.1664C28.5362 27.583 29.0368 27.7921 29.7049 28.0831C30.4987 28.4171 30.9376 28.7061 30.9376 29.2055C30.9376 29.8052 30.3773 30.111 29.7415 30.1075C29.1199 30.1075 28.6294 29.8552 28.0906 29.3668V30.3056C28.4209 30.5178 28.9314 30.6431 29.4848 30.6431C29.9087 30.6391 30.6103 30.5427 31.0916 30.1369C31.3969 29.882 31.6127 29.4977 31.6127 28.934C31.6089 28.4709 31.4044 28.1512 31.0916 27.8998C30.8188 27.6811 30.4673 27.5114 30.101 27.3569C29.1453 26.8828 28.7842 26.7842 28.795 26.2421C28.795 25.5201 29.4182 25.3032 29.9103 25.3032C30.1223 25.3032 30.3027 25.3377 30.4753 25.3987C30.7986 25.5173 30.9033 25.7529 31.0184 26.0149C31.0541 26.094 31.0773 26.144 31.0916 26.1761C31.0987 26.1869 31.1029 26.1984 31.1064 26.2055C31.1116 26.2195 31.1092 26.2205 31.1064 26.2127L32.596 29.7921C32.3443 30.3631 32.0635 30.9663 31.8696 31.347L31.8623 31.3545C31.8334 31.412 31.8066 31.4653 31.7815 31.5085C31.7559 31.5581 31.7289 31.607 31.7007 31.6552L31.5173 32H32.2877C32.6256 31.2529 34.0627 27.7592 34.3717 27.0124C34.5727 27.551 35.0665 27.7712 35.8247 28.0979C36.615 28.4322 37.0644 28.7211 37.0644 29.2201C37.0644 29.8162 36.4972 30.1296 35.8613 30.1223C35.2182 30.1223 34.7192 29.8543 34.1517 29.3302L34.1 29.286V30.2397C34.4163 30.5051 34.9829 30.6577 35.6044 30.6577C36.2976 30.6577 37.7325 30.4068 37.7325 28.956C37.729 28.0869 37.0039 27.7057 36.2208 27.3717C35.2651 26.8978 34.9406 26.8028 34.9514 26.2641C34.9514 25.5424 35.5412 25.3253 36.0301 25.3253C36.5904 25.3253 36.9393 25.5309 37.4315 25.89V25.0467C37.033 24.9063 36.6956 24.8559 36.2429 24.8559C35.3377 24.8559 34.5215 25.184 34.313 25.9489L33.1903 28.7213L33.0729 29.0734L32.9701 28.7213L31.4586 25.0392C31.3544 25.0105 31.2283 24.9727 31.0916 24.9439C30.8115 24.8829 30.4884 24.8378 30.2405 24.8413C30.2048 24.8378 30.17 24.8338 30.1303 24.8338C29.0817 24.8338 28.0687 25.2739 28.0687 26.3155C28.0687 26.3766 28.072 26.4378 28.0758 26.4916C27.6555 25.4931 26.7585 24.8045 25.7058 24.8045H25.6765C25.561 24.8069 25.4458 24.8167 25.3316 24.8338H22.3744C22.2558 24.0907 22.5984 23.6602 23.123 23.6602C23.7804 23.6602 24.0645 23.8602 24.3482 24.1226H24.3778C24.3778 24.1226 24.3815 24.0884 24.3848 24.0344V23.3155C24.1946 23.2291 23.8729 23.1612 23.277 23.1612V23.1615ZM15 23.1831V30.4373H15.8733V23.1831H15ZM38.3855 23.3298V24.1078H38.525V23.7922H38.6863L38.8109 24.1076H38.9725L38.8257 23.7701C38.876 23.745 38.9577 23.7194 38.9577 23.5795C38.9577 23.3638 38.8006 23.33 38.6569 23.33L38.3855 23.3298ZM38.525 23.4619H38.679C38.7614 23.4619 38.8109 23.4962 38.8109 23.5645C38.8109 23.6325 38.7581 23.6673 38.6935 23.6673H38.5247L38.525 23.4619ZM19.2411 24.8115C18.2819 24.8115 17.8804 25.1561 17.5608 25.5008C17.5443 25.5201 17.5318 25.5426 17.5242 25.5668H17.5094L17.5023 24.8847H16.7315V30.4373H17.524V26.381C17.5453 25.8855 18.2544 25.3908 18.8008 25.3908C19.4583 25.3908 19.9967 25.8367 19.9967 26.447V30.4371H20.7819V26.0879C20.7605 25.5957 20.1611 24.8115 19.2411 24.8115ZM25.6326 25.3835H25.6765C26.6465 25.3943 27.438 26.4345 27.4594 27.7306C27.4812 29.0485 26.7047 30.1333 25.7131 30.1512H25.6765C24.703 30.1401 23.9039 29.0966 23.8786 27.7966C23.857 26.4822 24.6445 25.4013 25.6326 25.3837V25.3835Z" fill="#2A7CC9"/>
<defs>
<filter id="filter0_f_5687_19315" x="0.599998" y="0.599998" width="52.8" height="52.8" filterUnits="userSpaceOnUse" color-interpolation-filters="sRGB">
<feFlood flood-opacity="0" result="BackgroundImageFix"/>
<feBlend mode="normal" in="SourceGraphic" in2="BackgroundImageFix" result="shape"/>
<feGaussianBlur stdDeviation="2.2" result="effect1_foregroundBlur_5687_19315"/>
</filter>
</defs>
</svg>
