<svg width="54" height="54" viewBox="0 0 54 54" fill="none" xmlns="http://www.w3.org/2000/svg">
<rect x="5.33" y="5.33" width="43.34" height="43.34" rx="8.47" stroke="white" stroke-opacity="0.5" stroke-width="0.66"/>
<g filter="url(#filter0_f_5680_19015)">
<rect x="5.33" y="5.33" width="43.34" height="43.34" rx="5.67" stroke="white" stroke-opacity="0.5" stroke-width="0.66"/>
</g>
<rect x="12.9917" y="12.9927" width="28" height="28" rx="14" fill="white"/>
<g clip-path="url(#clip0_5680_19015)">
<path d="M17 30.3965H21.8149V31.9121H20.4336V35.5546H18.4273V31.9121H17V30.3965ZM24.2533 32.4806L23.2396 35.5546H21.3128L23.2026 30.3965H25.2951L27.2303 35.5546H25.2799L24.2533 32.4806ZM26.77 30.3965H31.5847V31.9121H30.2039V35.5546H28.1976V31.9121H26.77V30.3965ZM34.0241 32.4806L33.0099 35.5546H31.0832L32.9735 30.3965H35.0654L37 35.5546H35.0502L34.0241 32.4806Z" fill="#486AAE"/>
<path fill-rule="evenodd" clip-rule="evenodd" d="M34.0951 20.9218C33.9153 20.5561 33.6785 20.2056 33.384 19.8769C32.7221 19.1379 31.7882 18.523 30.683 18.0989C29.5687 17.6715 28.2978 17.4453 27.0063 17.4453C25.7147 17.4453 24.4438 17.6715 23.3301 18.0989C22.2243 18.523 21.2904 19.138 20.6285 19.8769C20.3341 20.2056 20.0966 20.5565 19.9169 20.9224C21.3557 20.5625 23.8168 20.0873 26.1021 20.0371C26.3225 20.0322 26.4743 20.1052 26.5742 20.2362C26.6959 20.3958 26.6868 20.9645 26.6838 21.2189L26.6188 27.7952C26.7475 27.7996 26.8768 27.8024 27.0063 27.8024C27.1367 27.8024 27.2668 27.8002 27.3955 27.7958L27.3305 21.2189C27.3271 20.9645 27.3177 20.3957 27.4399 20.2362C27.54 20.1052 27.6913 20.0322 27.9117 20.037C30.196 20.0869 32.6566 20.5622 34.0951 20.9218Z" fill="#486AAE"/>
<path fill-rule="evenodd" clip-rule="evenodd" d="M34.4023 21.7772C32.2964 21.2847 30.8901 21.1936 29.5025 21.114C28.293 21.0444 28.2772 21.4912 28.398 22.345C28.4059 22.3971 28.4156 22.4628 28.4271 22.5377C28.8328 25.0233 29.338 27.1623 29.4248 27.5253C32.3735 26.8281 34.5001 24.895 34.5001 22.6242C34.5001 22.3382 34.4667 22.0549 34.4023 21.7772ZM25.6157 22.345C25.7366 21.4913 25.7211 21.0444 24.5117 21.114C23.1236 21.1936 21.717 21.2847 19.6103 21.7775C19.546 22.0552 19.5122 22.3382 19.5122 22.6241C19.5122 23.6056 19.8981 24.5553 20.6285 25.3712C21.2904 26.1102 22.2244 26.7252 23.3301 27.1496C23.7303 27.3028 24.1527 27.4285 24.5877 27.5289C24.6693 27.1888 25.1861 25.0053 25.5963 22.4753C25.6038 22.4268 25.6108 22.382 25.6157 22.345Z" fill="#486AAE"/>
</g>
<defs>
<filter id="filter0_f_5680_19015" x="0.599998" y="0.599998" width="52.8" height="52.8" filterUnits="userSpaceOnUse" color-interpolation-filters="sRGB">
<feFlood flood-opacity="0" result="BackgroundImageFix"/>
<feBlend mode="normal" in="SourceGraphic" in2="BackgroundImageFix" result="shape"/>
<feGaussianBlur stdDeviation="2.2" result="effect1_foregroundBlur_5680_19015"/>
</filter>
<clipPath id="clip0_5680_19015">
<rect width="20" height="19" fill="white" transform="translate(17 17)"/>
</clipPath>
</defs>
</svg>
