<svg width="54" height="54" viewBox="0 0 54 54" fill="none" xmlns="http://www.w3.org/2000/svg">
<rect x="5.33" y="5.33" width="43.34" height="43.34" rx="8.47" stroke="white" stroke-opacity="0.5" stroke-width="0.66"/>
<g filter="url(#filter0_f_5680_18902)">
<rect x="5.33" y="5.33" width="43.34" height="43.34" rx="5.67" stroke="white" stroke-opacity="0.5" stroke-width="0.66"/>
</g>
<g clip-path="url(#clip0_5680_18902)">
<path d="M39.88 13H14.12C13.5014 13 13 13.5014 13 14.12V39.88C13 40.4986 13.5014 41 14.12 41H39.88C40.4986 41 41 40.4986 41 39.88V14.12C41 13.5014 40.4986 13 39.88 13Z" fill="#E23744"/>
<path d="M18.5944 25.1803L18.573 25.8616L16.7972 27.7929C17.5376 27.7929 18.0097 27.7876 18.2779 27.7715C18.1974 28.1363 18.133 28.4367 18.0687 28.8873C17.7146 28.8551 17.1567 28.8498 16.5987 28.8498C15.9764 28.8498 15.4345 28.8551 15 28.8873L15.0161 28.2006L16.7918 26.28C16.0139 26.28 15.7296 26.2854 15.4077 26.2961C15.4775 25.9528 15.5311 25.5719 15.5794 25.191C16.1481 25.2017 16.3734 25.2124 17.103 25.2124C17.7843 25.2124 18.1652 25.2017 18.5944 25.1803ZM19.8552 27.3155C19.8552 27.7715 20.0054 28.0021 20.2629 28.0021C20.6062 28.0021 20.8745 27.4496 20.8745 26.7736C20.8745 26.3122 20.7242 26.0869 20.4775 26.0869C20.1341 26.0869 19.8552 26.6341 19.8552 27.3155ZM22.1888 26.72C22.1888 27.9592 21.3144 28.9946 20.1502 28.9946C19.1094 28.9946 18.573 28.2865 18.573 27.3584C18.573 26.1245 19.4582 25.0944 20.6116 25.0944C21.6685 25.0944 22.1888 25.8026 22.1888 26.72ZM36.1534 27.3155C36.1534 27.7715 36.3036 28.0021 36.5612 28.0021C36.9045 28.0021 37.1727 27.4496 37.1727 26.7736C37.1727 26.3122 37.0225 26.0869 36.7757 26.0869C36.4324 26.0869 36.1534 26.6341 36.1534 27.3155ZM38.53 26.6985C38.53 27.9539 37.6395 29 36.4646 29C35.4077 29 34.8712 28.2811 34.8712 27.3423C34.8712 26.0923 35.7672 25.0461 36.9367 25.0461C38.0043 25.0461 38.53 25.765 38.53 26.6985ZM28.1813 26.2961C28.2725 25.6577 28.2242 25.0837 27.5161 25.0837C27.0011 25.0837 26.4485 25.5182 26.0569 26.2425C26.1427 25.6416 26.0944 25.0837 25.3916 25.0837C24.8659 25.0837 24.2918 25.5397 23.9002 26.2961C24.0021 25.8026 23.9807 25.2393 23.9485 25.1212C23.5408 25.191 23.1867 25.2285 22.6878 25.2393C22.7039 25.5826 22.6824 26.0333 22.618 26.4571L22.4517 27.5783C22.3873 28.0182 22.3176 28.5279 22.2425 28.8498H23.5676C23.573 28.6567 23.6266 28.3509 23.6588 28.0773L23.7715 27.3047C23.8627 26.8058 24.265 26.2103 24.5708 26.2103C24.7479 26.2103 24.7425 26.382 24.6942 26.7039L24.5654 27.573C24.5011 28.0129 24.4313 28.5225 24.3562 28.8444H25.6974C25.7028 28.6513 25.7457 28.3455 25.7833 28.0719L25.8959 27.2994C25.9871 26.8004 26.3895 26.2049 26.6953 26.2049C26.8723 26.2049 26.867 26.3712 26.8401 26.5912L26.5182 28.8337H27.7414L28.1813 26.2961ZM34.5815 27.7983L34.4367 28.6835C34.2167 28.8015 33.8036 28.9732 33.3262 28.9732C32.5161 28.9732 32.3498 28.5386 32.4785 27.6212L32.6878 26.1406H32.2854L32.3981 25.1803L32.8326 25.1588L32.9989 24.4614L34.2328 24L34.0773 25.1588H34.9249C34.8981 25.2768 34.7961 25.9367 34.7693 26.1406H33.9431L33.7554 27.5086C33.7071 27.8627 33.7339 27.9861 33.9753 27.9861C34.1577 27.9861 34.4206 27.8788 34.5815 27.7983Z" fill="white"/>
<path d="M29.9085 28.2166C30.3591 28.163 30.6649 27.7284 30.74 27.2993L30.7508 27.1812C30.5576 27.1383 30.2787 27.1061 30.0104 27.1383C29.7529 27.1705 29.5383 27.2778 29.4257 27.4334C29.3398 27.546 29.2969 27.6802 29.313 27.8357C29.3398 28.0718 29.6027 28.2542 29.9085 28.2166ZM29.5222 28.9033C28.8892 28.9838 28.4707 28.7317 28.3473 28.1576C28.2669 27.7982 28.3795 27.3905 28.5673 27.1437C28.8248 26.8218 29.2379 26.6179 29.7475 26.5535C30.1553 26.5053 30.4986 26.5267 30.8205 26.5911L30.8366 26.5374C30.8473 26.4516 30.8527 26.3604 30.842 26.2531C30.8098 25.9849 30.5952 25.8186 30.0694 25.8829C29.7154 25.9259 29.372 26.0546 29.1091 26.1995L28.8516 25.4269C29.2057 25.2231 29.6563 25.0675 30.1714 25.0031C31.1531 24.8797 31.8452 25.1962 31.931 25.9151C31.9525 26.1083 31.9578 26.3121 31.931 26.4945C31.8023 27.3851 31.7218 28.0557 31.6896 28.5063C31.6842 28.5761 31.6842 28.6941 31.6896 28.8658H30.4718C30.4986 28.796 30.5201 28.6995 30.5415 28.5814C30.5576 28.501 30.563 28.4044 30.5737 28.281C30.3216 28.6351 29.9675 28.8497 29.5222 28.9033Z" fill="white"/>
</g>
<defs>
<filter id="filter0_f_5680_18902" x="0.599998" y="0.599998" width="52.8" height="52.8" filterUnits="userSpaceOnUse" color-interpolation-filters="sRGB">
<feFlood flood-opacity="0" result="BackgroundImageFix"/>
<feBlend mode="normal" in="SourceGraphic" in2="BackgroundImageFix" result="shape"/>
<feGaussianBlur stdDeviation="2.2" result="effect1_foregroundBlur_5680_18902"/>
</filter>
<clipPath id="clip0_5680_18902">
<rect x="13" y="13" width="28" height="28" rx="14" fill="white"/>
</clipPath>
</defs>
</svg>
