<svg width="270" height="235" viewBox="0 0 270 235" fill="none" xmlns="http://www.w3.org/2000/svg">
<g style="mix-blend-mode:hard-light" filter="url(#filter0_f_4743_34753)">
<circle cx="135" cy="100.268" r="70" fill="#8F00FF" fill-opacity="0.17"/>
</g>
<g style="mix-blend-mode:hard-light" filter="url(#filter1_f_4743_34753)">
<mask id="path-2-inside-1_4743_34753" fill="white">
<path d="M176.665 67.3225L156.336 57.242C156.318 57.2335 156.3 57.2269 156.283 57.219C156.235 57.1967 156.187 57.1751 156.138 57.156C156.106 57.1436 156.075 57.1317 156.043 57.1212C155.998 57.1055 155.953 57.0911 155.907 57.0779C155.868 57.0668 155.83 57.0569 155.791 57.0477C155.752 57.0386 155.712 57.03 155.673 57.0228C155.626 57.0143 155.58 57.0071 155.533 57.0018C155.499 56.9972 155.466 56.9933 155.431 56.9906C155.379 56.9861 155.326 56.9834 155.274 56.9828C155.254 56.9821 155.235 56.9795 155.216 56.9795C155.204 56.9795 155.192 56.9815 155.18 56.9815C155.129 56.9821 155.078 56.9854 155.026 56.9893C154.992 56.992 154.957 56.9939 154.923 56.9979C154.88 57.0031 154.837 57.0103 154.795 57.0176C154.753 57.0248 154.712 57.0313 154.671 57.0399C154.637 57.0477 154.604 57.0569 154.57 57.0661C154.524 57.0786 154.477 57.0904 154.431 57.1055C154.402 57.1153 154.374 57.1265 154.345 57.137C154.298 57.1547 154.251 57.1718 154.205 57.1921C154.175 57.2053 154.145 57.221 154.116 57.2354C154.074 57.2558 154.032 57.2755 153.992 57.2984C153.955 57.3181 153.921 57.3398 153.887 57.3614C153.854 57.3818 153.821 57.4015 153.789 57.4231C153.749 57.4507 153.711 57.4809 153.673 57.5104C153.648 57.5295 153.623 57.5478 153.599 57.5682C153.56 57.601 153.522 57.6364 153.484 57.6725C153.463 57.6922 153.442 57.7119 153.421 57.7322C153.386 57.7677 153.354 57.8044 153.321 57.8418C153.299 57.8674 153.277 57.8924 153.255 57.9186C153.229 57.9514 153.204 57.9862 153.179 58.021C153.154 58.0551 153.129 58.0893 153.106 58.1247C153.087 58.1542 153.069 58.1844 153.051 58.2146C153.025 58.2586 153 58.3026 152.976 58.3485C152.971 58.359 152.964 58.3688 152.959 58.38C152.95 58.3971 152.944 58.4148 152.936 58.4325C152.913 58.4804 152.892 58.5283 152.873 58.5775C152.86 58.6097 152.849 58.6412 152.838 58.6734C152.822 58.718 152.808 58.7626 152.794 58.8086C152.783 58.8473 152.773 58.886 152.764 58.9254C152.756 58.9641 152.747 59.0028 152.74 59.0422C152.731 59.0894 152.724 59.1367 152.718 59.1839C152.714 59.2168 152.71 59.2502 152.707 59.2837C152.703 59.3369 152.701 59.39 152.699 59.4425C152.699 59.4622 152.696 59.4806 152.696 59.4996V92.5973H122.286C116.728 92.5973 112.206 97.1191 112.206 102.678C112.206 104.513 112.701 106.234 113.562 107.718H112.206C106.647 107.718 102.125 112.24 102.125 117.799C102.125 119.634 102.621 121.355 103.481 122.839H102.125C96.5667 122.839 92.0449 127.361 92.0449 132.919C92.0449 138.478 96.5667 143 102.125 143H150.569C151.96 143 153.089 141.872 153.089 140.48C153.089 139.088 151.96 137.96 150.569 137.96H150.176C147.397 137.96 145.136 135.699 145.136 132.919C145.136 130.14 147.397 127.879 150.176 127.879H160.65C162.041 127.879 163.17 126.751 163.17 125.359C163.17 123.967 162.041 122.839 160.65 122.839H160.256C157.477 122.839 155.216 120.578 155.216 117.799C155.216 115.019 157.477 112.758 160.256 112.758H170.73C172.121 112.758 173.25 111.63 173.25 110.238C173.25 108.846 172.121 107.718 170.73 107.718H170.337C167.558 107.718 165.297 105.457 165.297 102.678C165.297 99.8985 167.558 97.6376 170.337 97.6376H170.73C172.121 97.6376 173.25 96.5094 173.25 95.1174C173.25 93.7255 172.121 92.5973 170.73 92.5973H157.736V81.2239L176.665 71.8378C177.523 71.4125 178.065 70.5377 178.065 69.5801C178.065 68.6226 177.523 67.7478 176.665 67.3225ZM141.448 137.96H102.125C99.3461 137.96 97.0852 135.699 97.0852 132.919C97.0852 130.14 99.3461 127.846 102.125 127.846H141.448C140.588 129.329 140.095 131.084 140.095 132.919C140.095 134.754 140.588 136.476 141.448 137.96ZM151.528 122.839C149.703 122.839 114.101 122.839 112.206 122.839C109.427 122.839 107.166 120.578 107.166 117.799C107.166 115.019 109.427 112.725 112.206 112.725H151.528C150.669 114.208 150.176 115.964 150.176 117.799C150.176 119.634 150.669 121.356 151.528 122.839ZM161.609 107.718C159.784 107.718 124.182 107.718 122.286 107.718C119.507 107.718 117.246 105.457 117.246 102.678C117.246 99.8985 119.507 97.6041 122.286 97.6041H161.609C160.749 99.0873 160.256 100.843 160.256 102.678C160.256 104.513 160.749 106.235 161.609 107.718ZM157.736 75.5983V63.562L169.872 69.5801L157.736 75.5983Z"/>
</mask>
<path d="M176.665 67.3225L156.336 57.242C156.318 57.2335 156.3 57.2269 156.283 57.219C156.235 57.1967 156.187 57.1751 156.138 57.156C156.106 57.1436 156.075 57.1317 156.043 57.1212C155.998 57.1055 155.953 57.0911 155.907 57.0779C155.868 57.0668 155.83 57.0569 155.791 57.0477C155.752 57.0386 155.712 57.03 155.673 57.0228C155.626 57.0143 155.58 57.0071 155.533 57.0018C155.499 56.9972 155.466 56.9933 155.431 56.9906C155.379 56.9861 155.326 56.9834 155.274 56.9828C155.254 56.9821 155.235 56.9795 155.216 56.9795C155.204 56.9795 155.192 56.9815 155.18 56.9815C155.129 56.9821 155.078 56.9854 155.026 56.9893C154.992 56.992 154.957 56.9939 154.923 56.9979C154.88 57.0031 154.837 57.0103 154.795 57.0176C154.753 57.0248 154.712 57.0313 154.671 57.0399C154.637 57.0477 154.604 57.0569 154.57 57.0661C154.524 57.0786 154.477 57.0904 154.431 57.1055C154.402 57.1153 154.374 57.1265 154.345 57.137C154.298 57.1547 154.251 57.1718 154.205 57.1921C154.175 57.2053 154.145 57.221 154.116 57.2354C154.074 57.2558 154.032 57.2755 153.992 57.2984C153.955 57.3181 153.921 57.3398 153.887 57.3614C153.854 57.3818 153.821 57.4015 153.789 57.4231C153.749 57.4507 153.711 57.4809 153.673 57.5104C153.648 57.5295 153.623 57.5478 153.599 57.5682C153.56 57.601 153.522 57.6364 153.484 57.6725C153.463 57.6922 153.442 57.7119 153.421 57.7322C153.386 57.7677 153.354 57.8044 153.321 57.8418C153.299 57.8674 153.277 57.8924 153.255 57.9186C153.229 57.9514 153.204 57.9862 153.179 58.021C153.154 58.0551 153.129 58.0893 153.106 58.1247C153.087 58.1542 153.069 58.1844 153.051 58.2146C153.025 58.2586 153 58.3026 152.976 58.3485C152.971 58.359 152.964 58.3688 152.959 58.38C152.95 58.3971 152.944 58.4148 152.936 58.4325C152.913 58.4804 152.892 58.5283 152.873 58.5775C152.86 58.6097 152.849 58.6412 152.838 58.6734C152.822 58.718 152.808 58.7626 152.794 58.8086C152.783 58.8473 152.773 58.886 152.764 58.9254C152.756 58.9641 152.747 59.0028 152.74 59.0422C152.731 59.0894 152.724 59.1367 152.718 59.1839C152.714 59.2168 152.71 59.2502 152.707 59.2837C152.703 59.3369 152.701 59.39 152.699 59.4425C152.699 59.4622 152.696 59.4806 152.696 59.4996V92.5973H122.286C116.728 92.5973 112.206 97.1191 112.206 102.678C112.206 104.513 112.701 106.234 113.562 107.718H112.206C106.647 107.718 102.125 112.24 102.125 117.799C102.125 119.634 102.621 121.355 103.481 122.839H102.125C96.5667 122.839 92.0449 127.361 92.0449 132.919C92.0449 138.478 96.5667 143 102.125 143H150.569C151.96 143 153.089 141.872 153.089 140.48C153.089 139.088 151.96 137.96 150.569 137.96H150.176C147.397 137.96 145.136 135.699 145.136 132.919C145.136 130.14 147.397 127.879 150.176 127.879H160.65C162.041 127.879 163.17 126.751 163.17 125.359C163.17 123.967 162.041 122.839 160.65 122.839H160.256C157.477 122.839 155.216 120.578 155.216 117.799C155.216 115.019 157.477 112.758 160.256 112.758H170.73C172.121 112.758 173.25 111.63 173.25 110.238C173.25 108.846 172.121 107.718 170.73 107.718H170.337C167.558 107.718 165.297 105.457 165.297 102.678C165.297 99.8985 167.558 97.6376 170.337 97.6376H170.73C172.121 97.6376 173.25 96.5094 173.25 95.1174C173.25 93.7255 172.121 92.5973 170.73 92.5973H157.736V81.2239L176.665 71.8378C177.523 71.4125 178.065 70.5377 178.065 69.5801C178.065 68.6226 177.523 67.7478 176.665 67.3225ZM141.448 137.96H102.125C99.3461 137.96 97.0852 135.699 97.0852 132.919C97.0852 130.14 99.3461 127.846 102.125 127.846H141.448C140.588 129.329 140.095 131.084 140.095 132.919C140.095 134.754 140.588 136.476 141.448 137.96ZM151.528 122.839C149.703 122.839 114.101 122.839 112.206 122.839C109.427 122.839 107.166 120.578 107.166 117.799C107.166 115.019 109.427 112.725 112.206 112.725H151.528C150.669 114.208 150.176 115.964 150.176 117.799C150.176 119.634 150.669 121.356 151.528 122.839ZM161.609 107.718C159.784 107.718 124.182 107.718 122.286 107.718C119.507 107.718 117.246 105.457 117.246 102.678C117.246 99.8985 119.507 97.6041 122.286 97.6041H161.609C160.749 99.0873 160.256 100.843 160.256 102.678C160.256 104.513 160.749 106.235 161.609 107.718ZM157.736 75.5983V63.562L169.872 69.5801L157.736 75.5983Z" stroke="#CC00FF" stroke-width="5.41667" mask="url(#path-2-inside-1_4743_34753)"/>
</g>
<g style="mix-blend-mode:hard-light" filter="url(#filter2_f_4743_34753)">
<mask id="path-3-inside-2_4743_34753" fill="white">
<path d="M176.665 67.3225L156.336 57.242C156.318 57.2335 156.3 57.2269 156.283 57.219C156.235 57.1967 156.187 57.1751 156.138 57.156C156.106 57.1436 156.075 57.1317 156.043 57.1212C155.998 57.1055 155.953 57.0911 155.907 57.0779C155.868 57.0668 155.83 57.0569 155.791 57.0477C155.752 57.0386 155.712 57.03 155.673 57.0228C155.626 57.0143 155.58 57.0071 155.533 57.0018C155.499 56.9972 155.466 56.9933 155.431 56.9906C155.379 56.9861 155.326 56.9834 155.274 56.9828C155.254 56.9821 155.235 56.9795 155.216 56.9795C155.204 56.9795 155.192 56.9815 155.18 56.9815C155.129 56.9821 155.078 56.9854 155.026 56.9893C154.992 56.992 154.957 56.9939 154.923 56.9979C154.88 57.0031 154.837 57.0103 154.795 57.0176C154.753 57.0248 154.712 57.0313 154.671 57.0399C154.637 57.0477 154.604 57.0569 154.57 57.0661C154.524 57.0786 154.477 57.0904 154.431 57.1055C154.402 57.1153 154.374 57.1265 154.345 57.137C154.298 57.1547 154.251 57.1718 154.205 57.1921C154.175 57.2053 154.145 57.221 154.116 57.2354C154.074 57.2558 154.032 57.2755 153.992 57.2984C153.955 57.3181 153.921 57.3398 153.887 57.3614C153.854 57.3818 153.821 57.4015 153.789 57.4231C153.749 57.4507 153.711 57.4809 153.673 57.5104C153.648 57.5295 153.623 57.5478 153.599 57.5682C153.56 57.601 153.522 57.6364 153.484 57.6725C153.463 57.6922 153.442 57.7119 153.421 57.7322C153.386 57.7677 153.354 57.8044 153.321 57.8418C153.299 57.8674 153.277 57.8924 153.255 57.9186C153.229 57.9514 153.204 57.9862 153.179 58.021C153.154 58.0551 153.129 58.0893 153.106 58.1247C153.087 58.1542 153.069 58.1844 153.051 58.2146C153.025 58.2586 153 58.3026 152.976 58.3485C152.971 58.359 152.964 58.3688 152.959 58.38C152.95 58.3971 152.944 58.4148 152.936 58.4325C152.913 58.4804 152.892 58.5283 152.873 58.5775C152.86 58.6097 152.849 58.6412 152.838 58.6734C152.822 58.718 152.808 58.7626 152.794 58.8086C152.783 58.8473 152.773 58.886 152.764 58.9254C152.756 58.9641 152.747 59.0028 152.74 59.0422C152.731 59.0894 152.724 59.1367 152.718 59.1839C152.714 59.2168 152.71 59.2502 152.707 59.2837C152.703 59.3369 152.701 59.39 152.699 59.4425C152.699 59.4622 152.696 59.4806 152.696 59.4996V92.5973H122.286C116.728 92.5973 112.206 97.1191 112.206 102.678C112.206 104.513 112.701 106.234 113.562 107.718H112.206C106.647 107.718 102.125 112.24 102.125 117.799C102.125 119.634 102.621 121.355 103.481 122.839H102.125C96.5667 122.839 92.0449 127.361 92.0449 132.919C92.0449 138.478 96.5667 143 102.125 143H150.569C151.96 143 153.089 141.872 153.089 140.48C153.089 139.088 151.96 137.96 150.569 137.96H150.176C147.397 137.96 145.136 135.699 145.136 132.919C145.136 130.14 147.397 127.879 150.176 127.879H160.65C162.041 127.879 163.17 126.751 163.17 125.359C163.17 123.967 162.041 122.839 160.65 122.839H160.256C157.477 122.839 155.216 120.578 155.216 117.799C155.216 115.019 157.477 112.758 160.256 112.758H170.73C172.121 112.758 173.25 111.63 173.25 110.238C173.25 108.846 172.121 107.718 170.73 107.718H170.337C167.558 107.718 165.297 105.457 165.297 102.678C165.297 99.8985 167.558 97.6376 170.337 97.6376H170.73C172.121 97.6376 173.25 96.5094 173.25 95.1174C173.25 93.7255 172.121 92.5973 170.73 92.5973H157.736V81.2239L176.665 71.8378C177.523 71.4125 178.065 70.5377 178.065 69.5801C178.065 68.6226 177.523 67.7478 176.665 67.3225ZM141.448 137.96H102.125C99.3461 137.96 97.0852 135.699 97.0852 132.919C97.0852 130.14 99.3461 127.846 102.125 127.846H141.448C140.588 129.329 140.095 131.084 140.095 132.919C140.095 134.754 140.588 136.476 141.448 137.96ZM151.528 122.839C149.703 122.839 114.101 122.839 112.206 122.839C109.427 122.839 107.166 120.578 107.166 117.799C107.166 115.019 109.427 112.725 112.206 112.725H151.528C150.669 114.208 150.176 115.964 150.176 117.799C150.176 119.634 150.669 121.356 151.528 122.839ZM161.609 107.718C159.784 107.718 124.182 107.718 122.286 107.718C119.507 107.718 117.246 105.457 117.246 102.678C117.246 99.8985 119.507 97.6041 122.286 97.6041H161.609C160.749 99.0873 160.256 100.843 160.256 102.678C160.256 104.513 160.749 106.235 161.609 107.718ZM157.736 75.5983V63.562L169.872 69.5801L157.736 75.5983Z"/>
</mask>
<path d="M176.665 67.3225L156.336 57.242C156.318 57.2335 156.3 57.2269 156.283 57.219C156.235 57.1967 156.187 57.1751 156.138 57.156C156.106 57.1436 156.075 57.1317 156.043 57.1212C155.998 57.1055 155.953 57.0911 155.907 57.0779C155.868 57.0668 155.83 57.0569 155.791 57.0477C155.752 57.0386 155.712 57.03 155.673 57.0228C155.626 57.0143 155.58 57.0071 155.533 57.0018C155.499 56.9972 155.466 56.9933 155.431 56.9906C155.379 56.9861 155.326 56.9834 155.274 56.9828C155.254 56.9821 155.235 56.9795 155.216 56.9795C155.204 56.9795 155.192 56.9815 155.18 56.9815C155.129 56.9821 155.078 56.9854 155.026 56.9893C154.992 56.992 154.957 56.9939 154.923 56.9979C154.88 57.0031 154.837 57.0103 154.795 57.0176C154.753 57.0248 154.712 57.0313 154.671 57.0399C154.637 57.0477 154.604 57.0569 154.57 57.0661C154.524 57.0786 154.477 57.0904 154.431 57.1055C154.402 57.1153 154.374 57.1265 154.345 57.137C154.298 57.1547 154.251 57.1718 154.205 57.1921C154.175 57.2053 154.145 57.221 154.116 57.2354C154.074 57.2558 154.032 57.2755 153.992 57.2984C153.955 57.3181 153.921 57.3398 153.887 57.3614C153.854 57.3818 153.821 57.4015 153.789 57.4231C153.749 57.4507 153.711 57.4809 153.673 57.5104C153.648 57.5295 153.623 57.5478 153.599 57.5682C153.56 57.601 153.522 57.6364 153.484 57.6725C153.463 57.6922 153.442 57.7119 153.421 57.7322C153.386 57.7677 153.354 57.8044 153.321 57.8418C153.299 57.8674 153.277 57.8924 153.255 57.9186C153.229 57.9514 153.204 57.9862 153.179 58.021C153.154 58.0551 153.129 58.0893 153.106 58.1247C153.087 58.1542 153.069 58.1844 153.051 58.2146C153.025 58.2586 153 58.3026 152.976 58.3485C152.971 58.359 152.964 58.3688 152.959 58.38C152.95 58.3971 152.944 58.4148 152.936 58.4325C152.913 58.4804 152.892 58.5283 152.873 58.5775C152.86 58.6097 152.849 58.6412 152.838 58.6734C152.822 58.718 152.808 58.7626 152.794 58.8086C152.783 58.8473 152.773 58.886 152.764 58.9254C152.756 58.9641 152.747 59.0028 152.74 59.0422C152.731 59.0894 152.724 59.1367 152.718 59.1839C152.714 59.2168 152.71 59.2502 152.707 59.2837C152.703 59.3369 152.701 59.39 152.699 59.4425C152.699 59.4622 152.696 59.4806 152.696 59.4996V92.5973H122.286C116.728 92.5973 112.206 97.1191 112.206 102.678C112.206 104.513 112.701 106.234 113.562 107.718H112.206C106.647 107.718 102.125 112.24 102.125 117.799C102.125 119.634 102.621 121.355 103.481 122.839H102.125C96.5667 122.839 92.0449 127.361 92.0449 132.919C92.0449 138.478 96.5667 143 102.125 143H150.569C151.96 143 153.089 141.872 153.089 140.48C153.089 139.088 151.96 137.96 150.569 137.96H150.176C147.397 137.96 145.136 135.699 145.136 132.919C145.136 130.14 147.397 127.879 150.176 127.879H160.65C162.041 127.879 163.17 126.751 163.17 125.359C163.17 123.967 162.041 122.839 160.65 122.839H160.256C157.477 122.839 155.216 120.578 155.216 117.799C155.216 115.019 157.477 112.758 160.256 112.758H170.73C172.121 112.758 173.25 111.63 173.25 110.238C173.25 108.846 172.121 107.718 170.73 107.718H170.337C167.558 107.718 165.297 105.457 165.297 102.678C165.297 99.8985 167.558 97.6376 170.337 97.6376H170.73C172.121 97.6376 173.25 96.5094 173.25 95.1174C173.25 93.7255 172.121 92.5973 170.73 92.5973H157.736V81.2239L176.665 71.8378C177.523 71.4125 178.065 70.5377 178.065 69.5801C178.065 68.6226 177.523 67.7478 176.665 67.3225ZM141.448 137.96H102.125C99.3461 137.96 97.0852 135.699 97.0852 132.919C97.0852 130.14 99.3461 127.846 102.125 127.846H141.448C140.588 129.329 140.095 131.084 140.095 132.919C140.095 134.754 140.588 136.476 141.448 137.96ZM151.528 122.839C149.703 122.839 114.101 122.839 112.206 122.839C109.427 122.839 107.166 120.578 107.166 117.799C107.166 115.019 109.427 112.725 112.206 112.725H151.528C150.669 114.208 150.176 115.964 150.176 117.799C150.176 119.634 150.669 121.356 151.528 122.839ZM161.609 107.718C159.784 107.718 124.182 107.718 122.286 107.718C119.507 107.718 117.246 105.457 117.246 102.678C117.246 99.8985 119.507 97.6041 122.286 97.6041H161.609C160.749 99.0873 160.256 100.843 160.256 102.678C160.256 104.513 160.749 106.235 161.609 107.718ZM157.736 75.5983V63.562L169.872 69.5801L157.736 75.5983Z" stroke="#CC00FF" stroke-width="7.08333" mask="url(#path-3-inside-2_4743_34753)"/>
</g>
<g style="mix-blend-mode:hard-light" filter="url(#filter3_ddi_4743_34753)">
<mask id="path-4-inside-3_4743_34753" fill="white">
<path d="M176.665 67.3225L156.336 57.242C156.318 57.2335 156.3 57.2269 156.283 57.219C156.235 57.1967 156.187 57.1751 156.138 57.156C156.106 57.1436 156.075 57.1317 156.043 57.1212C155.998 57.1055 155.953 57.0911 155.907 57.0779C155.868 57.0668 155.83 57.0569 155.791 57.0477C155.752 57.0386 155.712 57.03 155.673 57.0228C155.626 57.0143 155.58 57.0071 155.533 57.0018C155.499 56.9972 155.466 56.9933 155.431 56.9906C155.379 56.9861 155.326 56.9834 155.274 56.9828C155.254 56.9821 155.235 56.9795 155.216 56.9795C155.204 56.9795 155.192 56.9815 155.18 56.9815C155.129 56.9821 155.078 56.9854 155.026 56.9893C154.992 56.992 154.957 56.9939 154.923 56.9979C154.88 57.0031 154.837 57.0103 154.795 57.0176C154.753 57.0248 154.712 57.0313 154.671 57.0399C154.637 57.0477 154.604 57.0569 154.57 57.0661C154.524 57.0786 154.477 57.0904 154.431 57.1055C154.402 57.1153 154.374 57.1265 154.345 57.137C154.298 57.1547 154.251 57.1718 154.205 57.1921C154.175 57.2053 154.145 57.221 154.116 57.2354C154.074 57.2558 154.032 57.2755 153.992 57.2984C153.955 57.3181 153.921 57.3398 153.887 57.3614C153.854 57.3818 153.821 57.4015 153.789 57.4231C153.749 57.4507 153.711 57.4809 153.673 57.5104C153.648 57.5295 153.623 57.5478 153.599 57.5682C153.56 57.601 153.522 57.6364 153.484 57.6725C153.463 57.6922 153.442 57.7119 153.421 57.7322C153.386 57.7677 153.354 57.8044 153.321 57.8418C153.299 57.8674 153.277 57.8924 153.255 57.9186C153.229 57.9514 153.204 57.9862 153.179 58.021C153.154 58.0551 153.129 58.0893 153.106 58.1247C153.087 58.1542 153.069 58.1844 153.051 58.2146C153.025 58.2586 153 58.3026 152.976 58.3485C152.971 58.359 152.964 58.3688 152.959 58.38C152.95 58.3971 152.944 58.4148 152.936 58.4325C152.913 58.4804 152.892 58.5283 152.873 58.5775C152.86 58.6097 152.849 58.6412 152.838 58.6734C152.822 58.718 152.808 58.7626 152.794 58.8086C152.783 58.8473 152.773 58.886 152.764 58.9254C152.756 58.9641 152.747 59.0028 152.74 59.0422C152.731 59.0894 152.724 59.1367 152.718 59.1839C152.714 59.2168 152.71 59.2502 152.707 59.2837C152.703 59.3369 152.701 59.39 152.699 59.4425C152.699 59.4622 152.696 59.4806 152.696 59.4996V92.5973H122.286C116.728 92.5973 112.206 97.1191 112.206 102.678C112.206 104.513 112.701 106.234 113.562 107.718H112.206C106.647 107.718 102.125 112.24 102.125 117.799C102.125 119.634 102.621 121.355 103.481 122.839H102.125C96.5667 122.839 92.0449 127.361 92.0449 132.919C92.0449 138.478 96.5667 143 102.125 143H150.569C151.96 143 153.089 141.872 153.089 140.48C153.089 139.088 151.96 137.96 150.569 137.96H150.176C147.397 137.96 145.136 135.699 145.136 132.919C145.136 130.14 147.397 127.879 150.176 127.879H160.65C162.041 127.879 163.17 126.751 163.17 125.359C163.17 123.967 162.041 122.839 160.65 122.839H160.256C157.477 122.839 155.216 120.578 155.216 117.799C155.216 115.019 157.477 112.758 160.256 112.758H170.73C172.121 112.758 173.25 111.63 173.25 110.238C173.25 108.846 172.121 107.718 170.73 107.718H170.337C167.558 107.718 165.297 105.457 165.297 102.678C165.297 99.8985 167.558 97.6376 170.337 97.6376H170.73C172.121 97.6376 173.25 96.5094 173.25 95.1174C173.25 93.7255 172.121 92.5973 170.73 92.5973H157.736V81.2239L176.665 71.8378C177.523 71.4125 178.065 70.5377 178.065 69.5801C178.065 68.6226 177.523 67.7478 176.665 67.3225ZM141.448 137.96H102.125C99.3461 137.96 97.0852 135.699 97.0852 132.919C97.0852 130.14 99.3461 127.846 102.125 127.846H141.448C140.588 129.329 140.095 131.084 140.095 132.919C140.095 134.754 140.588 136.476 141.448 137.96ZM151.528 122.839C149.703 122.839 114.101 122.839 112.206 122.839C109.427 122.839 107.166 120.578 107.166 117.799C107.166 115.019 109.427 112.725 112.206 112.725H151.528C150.669 114.208 150.176 115.964 150.176 117.799C150.176 119.634 150.669 121.356 151.528 122.839ZM161.609 107.718C159.784 107.718 124.182 107.718 122.286 107.718C119.507 107.718 117.246 105.457 117.246 102.678C117.246 99.8985 119.507 97.6041 122.286 97.6041H161.609C160.749 99.0873 160.256 100.843 160.256 102.678C160.256 104.513 160.749 106.235 161.609 107.718ZM157.736 75.5983V63.562L169.872 69.5801L157.736 75.5983Z"/>
</mask>
<path d="M176.665 67.3225L156.336 57.242C156.318 57.2335 156.3 57.2269 156.283 57.219C156.235 57.1967 156.187 57.1751 156.138 57.156C156.106 57.1436 156.075 57.1317 156.043 57.1212C155.998 57.1055 155.953 57.0911 155.907 57.0779C155.868 57.0668 155.83 57.0569 155.791 57.0477C155.752 57.0386 155.712 57.03 155.673 57.0228C155.626 57.0143 155.58 57.0071 155.533 57.0018C155.499 56.9972 155.466 56.9933 155.431 56.9906C155.379 56.9861 155.326 56.9834 155.274 56.9828C155.254 56.9821 155.235 56.9795 155.216 56.9795C155.204 56.9795 155.192 56.9815 155.18 56.9815C155.129 56.9821 155.078 56.9854 155.026 56.9893C154.992 56.992 154.957 56.9939 154.923 56.9979C154.88 57.0031 154.837 57.0103 154.795 57.0176C154.753 57.0248 154.712 57.0313 154.671 57.0399C154.637 57.0477 154.604 57.0569 154.57 57.0661C154.524 57.0786 154.477 57.0904 154.431 57.1055C154.402 57.1153 154.374 57.1265 154.345 57.137C154.298 57.1547 154.251 57.1718 154.205 57.1921C154.175 57.2053 154.145 57.221 154.116 57.2354C154.074 57.2558 154.032 57.2755 153.992 57.2984C153.955 57.3181 153.921 57.3398 153.887 57.3614C153.854 57.3818 153.821 57.4015 153.789 57.4231C153.749 57.4507 153.711 57.4809 153.673 57.5104C153.648 57.5295 153.623 57.5478 153.599 57.5682C153.56 57.601 153.522 57.6364 153.484 57.6725C153.463 57.6922 153.442 57.7119 153.421 57.7322C153.386 57.7677 153.354 57.8044 153.321 57.8418C153.299 57.8674 153.277 57.8924 153.255 57.9186C153.229 57.9514 153.204 57.9862 153.179 58.021C153.154 58.0551 153.129 58.0893 153.106 58.1247C153.087 58.1542 153.069 58.1844 153.051 58.2146C153.025 58.2586 153 58.3026 152.976 58.3485C152.971 58.359 152.964 58.3688 152.959 58.38C152.95 58.3971 152.944 58.4148 152.936 58.4325C152.913 58.4804 152.892 58.5283 152.873 58.5775C152.86 58.6097 152.849 58.6412 152.838 58.6734C152.822 58.718 152.808 58.7626 152.794 58.8086C152.783 58.8473 152.773 58.886 152.764 58.9254C152.756 58.9641 152.747 59.0028 152.74 59.0422C152.731 59.0894 152.724 59.1367 152.718 59.1839C152.714 59.2168 152.71 59.2502 152.707 59.2837C152.703 59.3369 152.701 59.39 152.699 59.4425C152.699 59.4622 152.696 59.4806 152.696 59.4996V92.5973H122.286C116.728 92.5973 112.206 97.1191 112.206 102.678C112.206 104.513 112.701 106.234 113.562 107.718H112.206C106.647 107.718 102.125 112.24 102.125 117.799C102.125 119.634 102.621 121.355 103.481 122.839H102.125C96.5667 122.839 92.0449 127.361 92.0449 132.919C92.0449 138.478 96.5667 143 102.125 143H150.569C151.96 143 153.089 141.872 153.089 140.48C153.089 139.088 151.96 137.96 150.569 137.96H150.176C147.397 137.96 145.136 135.699 145.136 132.919C145.136 130.14 147.397 127.879 150.176 127.879H160.65C162.041 127.879 163.17 126.751 163.17 125.359C163.17 123.967 162.041 122.839 160.65 122.839H160.256C157.477 122.839 155.216 120.578 155.216 117.799C155.216 115.019 157.477 112.758 160.256 112.758H170.73C172.121 112.758 173.25 111.63 173.25 110.238C173.25 108.846 172.121 107.718 170.73 107.718H170.337C167.558 107.718 165.297 105.457 165.297 102.678C165.297 99.8985 167.558 97.6376 170.337 97.6376H170.73C172.121 97.6376 173.25 96.5094 173.25 95.1174C173.25 93.7255 172.121 92.5973 170.73 92.5973H157.736V81.2239L176.665 71.8378C177.523 71.4125 178.065 70.5377 178.065 69.5801C178.065 68.6226 177.523 67.7478 176.665 67.3225ZM141.448 137.96H102.125C99.3461 137.96 97.0852 135.699 97.0852 132.919C97.0852 130.14 99.3461 127.846 102.125 127.846H141.448C140.588 129.329 140.095 131.084 140.095 132.919C140.095 134.754 140.588 136.476 141.448 137.96ZM151.528 122.839C149.703 122.839 114.101 122.839 112.206 122.839C109.427 122.839 107.166 120.578 107.166 117.799C107.166 115.019 109.427 112.725 112.206 112.725H151.528C150.669 114.208 150.176 115.964 150.176 117.799C150.176 119.634 150.669 121.356 151.528 122.839ZM161.609 107.718C159.784 107.718 124.182 107.718 122.286 107.718C119.507 107.718 117.246 105.457 117.246 102.678C117.246 99.8985 119.507 97.6041 122.286 97.6041H161.609C160.749 99.0873 160.256 100.843 160.256 102.678C160.256 104.513 160.749 106.235 161.609 107.718ZM157.736 75.5983V63.562L169.872 69.5801L157.736 75.5983Z" stroke="#6100FF" stroke-opacity="0.2" stroke-width="5.41667" mask="url(#path-4-inside-3_4743_34753)"/>
</g>
<g filter="url(#filter4_f_4743_34753)">
<mask id="path-5-inside-4_4743_34753" fill="white">
<path d="M176.665 67.3225L156.336 57.242C156.318 57.2335 156.3 57.2269 156.283 57.219C156.235 57.1967 156.187 57.1751 156.138 57.156C156.106 57.1436 156.075 57.1317 156.043 57.1212C155.998 57.1055 155.953 57.0911 155.907 57.0779C155.868 57.0668 155.83 57.0569 155.791 57.0477C155.752 57.0386 155.712 57.03 155.673 57.0228C155.626 57.0143 155.58 57.0071 155.533 57.0018C155.499 56.9972 155.466 56.9933 155.431 56.9906C155.379 56.9861 155.326 56.9834 155.274 56.9828C155.254 56.9821 155.235 56.9795 155.216 56.9795C155.204 56.9795 155.192 56.9815 155.18 56.9815C155.129 56.9821 155.078 56.9854 155.026 56.9893C154.992 56.992 154.957 56.9939 154.923 56.9979C154.88 57.0031 154.837 57.0103 154.795 57.0176C154.753 57.0248 154.712 57.0313 154.671 57.0399C154.637 57.0477 154.604 57.0569 154.57 57.0661C154.524 57.0786 154.477 57.0904 154.431 57.1055C154.402 57.1153 154.374 57.1265 154.345 57.137C154.298 57.1547 154.251 57.1718 154.205 57.1921C154.175 57.2053 154.145 57.221 154.116 57.2354C154.074 57.2558 154.032 57.2755 153.992 57.2984C153.955 57.3181 153.921 57.3398 153.887 57.3614C153.854 57.3818 153.821 57.4015 153.789 57.4231C153.749 57.4507 153.711 57.4809 153.673 57.5104C153.648 57.5295 153.623 57.5478 153.599 57.5682C153.56 57.601 153.522 57.6364 153.484 57.6725C153.463 57.6922 153.442 57.7119 153.421 57.7322C153.386 57.7677 153.354 57.8044 153.321 57.8418C153.299 57.8674 153.277 57.8924 153.255 57.9186C153.229 57.9514 153.204 57.9862 153.179 58.021C153.154 58.0551 153.129 58.0893 153.106 58.1247C153.087 58.1542 153.069 58.1844 153.051 58.2146C153.025 58.2586 153 58.3026 152.976 58.3485C152.971 58.359 152.964 58.3688 152.959 58.38C152.95 58.3971 152.944 58.4148 152.936 58.4325C152.913 58.4804 152.892 58.5283 152.873 58.5775C152.86 58.6097 152.849 58.6412 152.838 58.6734C152.822 58.718 152.808 58.7626 152.794 58.8086C152.783 58.8473 152.773 58.886 152.764 58.9254C152.756 58.9641 152.747 59.0028 152.74 59.0422C152.731 59.0894 152.724 59.1367 152.718 59.1839C152.714 59.2168 152.71 59.2502 152.707 59.2837C152.703 59.3369 152.701 59.39 152.699 59.4425C152.699 59.4622 152.696 59.4806 152.696 59.4996V92.5973H122.286C116.728 92.5973 112.206 97.1191 112.206 102.678C112.206 104.513 112.701 106.234 113.562 107.718H112.206C106.647 107.718 102.125 112.24 102.125 117.799C102.125 119.634 102.621 121.355 103.481 122.839H102.125C96.5667 122.839 92.0449 127.361 92.0449 132.919C92.0449 138.478 96.5667 143 102.125 143H150.569C151.96 143 153.089 141.872 153.089 140.48C153.089 139.088 151.96 137.96 150.569 137.96H150.176C147.397 137.96 145.136 135.699 145.136 132.919C145.136 130.14 147.397 127.879 150.176 127.879H160.65C162.041 127.879 163.17 126.751 163.17 125.359C163.17 123.967 162.041 122.839 160.65 122.839H160.256C157.477 122.839 155.216 120.578 155.216 117.799C155.216 115.019 157.477 112.758 160.256 112.758H170.73C172.121 112.758 173.25 111.63 173.25 110.238C173.25 108.846 172.121 107.718 170.73 107.718H170.337C167.558 107.718 165.297 105.457 165.297 102.678C165.297 99.8985 167.558 97.6376 170.337 97.6376H170.73C172.121 97.6376 173.25 96.5094 173.25 95.1174C173.25 93.7255 172.121 92.5973 170.73 92.5973H157.736V81.2239L176.665 71.8378C177.523 71.4125 178.065 70.5377 178.065 69.5801C178.065 68.6226 177.523 67.7478 176.665 67.3225ZM141.448 137.96H102.125C99.3461 137.96 97.0852 135.699 97.0852 132.919C97.0852 130.14 99.3461 127.846 102.125 127.846H141.448C140.588 129.329 140.095 131.084 140.095 132.919C140.095 134.754 140.588 136.476 141.448 137.96ZM151.528 122.839C149.703 122.839 114.101 122.839 112.206 122.839C109.427 122.839 107.166 120.578 107.166 117.799C107.166 115.019 109.427 112.725 112.206 112.725H151.528C150.669 114.208 150.176 115.964 150.176 117.799C150.176 119.634 150.669 121.356 151.528 122.839ZM161.609 107.718C159.784 107.718 124.182 107.718 122.286 107.718C119.507 107.718 117.246 105.457 117.246 102.678C117.246 99.8985 119.507 97.6041 122.286 97.6041H161.609C160.749 99.0873 160.256 100.843 160.256 102.678C160.256 104.513 160.749 106.235 161.609 107.718ZM157.736 75.5983V63.562L169.872 69.5801L157.736 75.5983Z"/>
</mask>
<path d="M176.665 67.3225L156.336 57.242C156.318 57.2335 156.3 57.2269 156.283 57.219C156.235 57.1967 156.187 57.1751 156.138 57.156C156.106 57.1436 156.075 57.1317 156.043 57.1212C155.998 57.1055 155.953 57.0911 155.907 57.0779C155.868 57.0668 155.83 57.0569 155.791 57.0477C155.752 57.0386 155.712 57.03 155.673 57.0228C155.626 57.0143 155.58 57.0071 155.533 57.0018C155.499 56.9972 155.466 56.9933 155.431 56.9906C155.379 56.9861 155.326 56.9834 155.274 56.9828C155.254 56.9821 155.235 56.9795 155.216 56.9795C155.204 56.9795 155.192 56.9815 155.18 56.9815C155.129 56.9821 155.078 56.9854 155.026 56.9893C154.992 56.992 154.957 56.9939 154.923 56.9979C154.88 57.0031 154.837 57.0103 154.795 57.0176C154.753 57.0248 154.712 57.0313 154.671 57.0399C154.637 57.0477 154.604 57.0569 154.57 57.0661C154.524 57.0786 154.477 57.0904 154.431 57.1055C154.402 57.1153 154.374 57.1265 154.345 57.137C154.298 57.1547 154.251 57.1718 154.205 57.1921C154.175 57.2053 154.145 57.221 154.116 57.2354C154.074 57.2558 154.032 57.2755 153.992 57.2984C153.955 57.3181 153.921 57.3398 153.887 57.3614C153.854 57.3818 153.821 57.4015 153.789 57.4231C153.749 57.4507 153.711 57.4809 153.673 57.5104C153.648 57.5295 153.623 57.5478 153.599 57.5682C153.56 57.601 153.522 57.6364 153.484 57.6725C153.463 57.6922 153.442 57.7119 153.421 57.7322C153.386 57.7677 153.354 57.8044 153.321 57.8418C153.299 57.8674 153.277 57.8924 153.255 57.9186C153.229 57.9514 153.204 57.9862 153.179 58.021C153.154 58.0551 153.129 58.0893 153.106 58.1247C153.087 58.1542 153.069 58.1844 153.051 58.2146C153.025 58.2586 153 58.3026 152.976 58.3485C152.971 58.359 152.964 58.3688 152.959 58.38C152.95 58.3971 152.944 58.4148 152.936 58.4325C152.913 58.4804 152.892 58.5283 152.873 58.5775C152.86 58.6097 152.849 58.6412 152.838 58.6734C152.822 58.718 152.808 58.7626 152.794 58.8086C152.783 58.8473 152.773 58.886 152.764 58.9254C152.756 58.9641 152.747 59.0028 152.74 59.0422C152.731 59.0894 152.724 59.1367 152.718 59.1839C152.714 59.2168 152.71 59.2502 152.707 59.2837C152.703 59.3369 152.701 59.39 152.699 59.4425C152.699 59.4622 152.696 59.4806 152.696 59.4996V92.5973H122.286C116.728 92.5973 112.206 97.1191 112.206 102.678C112.206 104.513 112.701 106.234 113.562 107.718H112.206C106.647 107.718 102.125 112.24 102.125 117.799C102.125 119.634 102.621 121.355 103.481 122.839H102.125C96.5667 122.839 92.0449 127.361 92.0449 132.919C92.0449 138.478 96.5667 143 102.125 143H150.569C151.96 143 153.089 141.872 153.089 140.48C153.089 139.088 151.96 137.96 150.569 137.96H150.176C147.397 137.96 145.136 135.699 145.136 132.919C145.136 130.14 147.397 127.879 150.176 127.879H160.65C162.041 127.879 163.17 126.751 163.17 125.359C163.17 123.967 162.041 122.839 160.65 122.839H160.256C157.477 122.839 155.216 120.578 155.216 117.799C155.216 115.019 157.477 112.758 160.256 112.758H170.73C172.121 112.758 173.25 111.63 173.25 110.238C173.25 108.846 172.121 107.718 170.73 107.718H170.337C167.558 107.718 165.297 105.457 165.297 102.678C165.297 99.8985 167.558 97.6376 170.337 97.6376H170.73C172.121 97.6376 173.25 96.5094 173.25 95.1174C173.25 93.7255 172.121 92.5973 170.73 92.5973H157.736V81.2239L176.665 71.8378C177.523 71.4125 178.065 70.5377 178.065 69.5801C178.065 68.6226 177.523 67.7478 176.665 67.3225ZM141.448 137.96H102.125C99.3461 137.96 97.0852 135.699 97.0852 132.919C97.0852 130.14 99.3461 127.846 102.125 127.846H141.448C140.588 129.329 140.095 131.084 140.095 132.919C140.095 134.754 140.588 136.476 141.448 137.96ZM151.528 122.839C149.703 122.839 114.101 122.839 112.206 122.839C109.427 122.839 107.166 120.578 107.166 117.799C107.166 115.019 109.427 112.725 112.206 112.725H151.528C150.669 114.208 150.176 115.964 150.176 117.799C150.176 119.634 150.669 121.356 151.528 122.839ZM161.609 107.718C159.784 107.718 124.182 107.718 122.286 107.718C119.507 107.718 117.246 105.457 117.246 102.678C117.246 99.8985 119.507 97.6041 122.286 97.6041H161.609C160.749 99.0873 160.256 100.843 160.256 102.678C160.256 104.513 160.749 106.235 161.609 107.718ZM157.736 75.5983V63.562L169.872 69.5801L157.736 75.5983Z" stroke="#C882FF" stroke-width="3.33333" mask="url(#path-5-inside-4_4743_34753)"/>
</g>
<g filter="url(#filter5_f_4743_34753)">
<mask id="path-6-inside-5_4743_34753" fill="white">
<path d="M176.665 67.3225L156.336 57.242C156.318 57.2335 156.3 57.2269 156.283 57.219C156.235 57.1967 156.187 57.1751 156.138 57.156C156.106 57.1436 156.075 57.1317 156.043 57.1212C155.998 57.1055 155.953 57.0911 155.907 57.0779C155.868 57.0668 155.83 57.0569 155.791 57.0477C155.752 57.0386 155.712 57.03 155.673 57.0228C155.626 57.0143 155.58 57.0071 155.533 57.0018C155.499 56.9972 155.466 56.9933 155.431 56.9906C155.379 56.9861 155.326 56.9834 155.274 56.9828C155.254 56.9821 155.235 56.9795 155.216 56.9795C155.204 56.9795 155.192 56.9815 155.18 56.9815C155.129 56.9821 155.078 56.9854 155.026 56.9893C154.992 56.992 154.957 56.9939 154.923 56.9979C154.88 57.0031 154.837 57.0103 154.795 57.0176C154.753 57.0248 154.712 57.0313 154.671 57.0399C154.637 57.0477 154.604 57.0569 154.57 57.0661C154.524 57.0786 154.477 57.0904 154.431 57.1055C154.402 57.1153 154.374 57.1265 154.345 57.137C154.298 57.1547 154.251 57.1718 154.205 57.1921C154.175 57.2053 154.145 57.221 154.116 57.2354C154.074 57.2558 154.032 57.2755 153.992 57.2984C153.955 57.3181 153.921 57.3398 153.887 57.3614C153.854 57.3818 153.821 57.4015 153.789 57.4231C153.749 57.4507 153.711 57.4809 153.673 57.5104C153.648 57.5295 153.623 57.5478 153.599 57.5682C153.56 57.601 153.522 57.6364 153.484 57.6725C153.463 57.6922 153.442 57.7119 153.421 57.7322C153.386 57.7677 153.354 57.8044 153.321 57.8418C153.299 57.8674 153.277 57.8924 153.255 57.9186C153.229 57.9514 153.204 57.9862 153.179 58.021C153.154 58.0551 153.129 58.0893 153.106 58.1247C153.087 58.1542 153.069 58.1844 153.051 58.2146C153.025 58.2586 153 58.3026 152.976 58.3485C152.971 58.359 152.964 58.3688 152.959 58.38C152.95 58.3971 152.944 58.4148 152.936 58.4325C152.913 58.4804 152.892 58.5283 152.873 58.5775C152.86 58.6097 152.849 58.6412 152.838 58.6734C152.822 58.718 152.808 58.7626 152.794 58.8086C152.783 58.8473 152.773 58.886 152.764 58.9254C152.756 58.9641 152.747 59.0028 152.74 59.0422C152.731 59.0894 152.724 59.1367 152.718 59.1839C152.714 59.2168 152.71 59.2502 152.707 59.2837C152.703 59.3369 152.701 59.39 152.699 59.4425C152.699 59.4622 152.696 59.4806 152.696 59.4996V92.5973H122.286C116.728 92.5973 112.206 97.1191 112.206 102.678C112.206 104.513 112.701 106.234 113.562 107.718H112.206C106.647 107.718 102.125 112.24 102.125 117.799C102.125 119.634 102.621 121.355 103.481 122.839H102.125C96.5667 122.839 92.0449 127.361 92.0449 132.919C92.0449 138.478 96.5667 143 102.125 143H150.569C151.96 143 153.089 141.872 153.089 140.48C153.089 139.088 151.96 137.96 150.569 137.96H150.176C147.397 137.96 145.136 135.699 145.136 132.919C145.136 130.14 147.397 127.879 150.176 127.879H160.65C162.041 127.879 163.17 126.751 163.17 125.359C163.17 123.967 162.041 122.839 160.65 122.839H160.256C157.477 122.839 155.216 120.578 155.216 117.799C155.216 115.019 157.477 112.758 160.256 112.758H170.73C172.121 112.758 173.25 111.63 173.25 110.238C173.25 108.846 172.121 107.718 170.73 107.718H170.337C167.558 107.718 165.297 105.457 165.297 102.678C165.297 99.8985 167.558 97.6376 170.337 97.6376H170.73C172.121 97.6376 173.25 96.5094 173.25 95.1174C173.25 93.7255 172.121 92.5973 170.73 92.5973H157.736V81.2239L176.665 71.8378C177.523 71.4125 178.065 70.5377 178.065 69.5801C178.065 68.6226 177.523 67.7478 176.665 67.3225ZM141.448 137.96H102.125C99.3461 137.96 97.0852 135.699 97.0852 132.919C97.0852 130.14 99.3461 127.846 102.125 127.846H141.448C140.588 129.329 140.095 131.084 140.095 132.919C140.095 134.754 140.588 136.476 141.448 137.96ZM151.528 122.839C149.703 122.839 114.101 122.839 112.206 122.839C109.427 122.839 107.166 120.578 107.166 117.799C107.166 115.019 109.427 112.725 112.206 112.725H151.528C150.669 114.208 150.176 115.964 150.176 117.799C150.176 119.634 150.669 121.356 151.528 122.839ZM161.609 107.718C159.784 107.718 124.182 107.718 122.286 107.718C119.507 107.718 117.246 105.457 117.246 102.678C117.246 99.8985 119.507 97.6041 122.286 97.6041H161.609C160.749 99.0873 160.256 100.843 160.256 102.678C160.256 104.513 160.749 106.235 161.609 107.718ZM157.736 75.5983V63.562L169.872 69.5801L157.736 75.5983Z"/>
</mask>
<path d="M176.665 67.3225L156.336 57.242C156.318 57.2335 156.3 57.2269 156.283 57.219C156.235 57.1967 156.187 57.1751 156.138 57.156C156.106 57.1436 156.075 57.1317 156.043 57.1212C155.998 57.1055 155.953 57.0911 155.907 57.0779C155.868 57.0668 155.83 57.0569 155.791 57.0477C155.752 57.0386 155.712 57.03 155.673 57.0228C155.626 57.0143 155.58 57.0071 155.533 57.0018C155.499 56.9972 155.466 56.9933 155.431 56.9906C155.379 56.9861 155.326 56.9834 155.274 56.9828C155.254 56.9821 155.235 56.9795 155.216 56.9795C155.204 56.9795 155.192 56.9815 155.18 56.9815C155.129 56.9821 155.078 56.9854 155.026 56.9893C154.992 56.992 154.957 56.9939 154.923 56.9979C154.88 57.0031 154.837 57.0103 154.795 57.0176C154.753 57.0248 154.712 57.0313 154.671 57.0399C154.637 57.0477 154.604 57.0569 154.57 57.0661C154.524 57.0786 154.477 57.0904 154.431 57.1055C154.402 57.1153 154.374 57.1265 154.345 57.137C154.298 57.1547 154.251 57.1718 154.205 57.1921C154.175 57.2053 154.145 57.221 154.116 57.2354C154.074 57.2558 154.032 57.2755 153.992 57.2984C153.955 57.3181 153.921 57.3398 153.887 57.3614C153.854 57.3818 153.821 57.4015 153.789 57.4231C153.749 57.4507 153.711 57.4809 153.673 57.5104C153.648 57.5295 153.623 57.5478 153.599 57.5682C153.56 57.601 153.522 57.6364 153.484 57.6725C153.463 57.6922 153.442 57.7119 153.421 57.7322C153.386 57.7677 153.354 57.8044 153.321 57.8418C153.299 57.8674 153.277 57.8924 153.255 57.9186C153.229 57.9514 153.204 57.9862 153.179 58.021C153.154 58.0551 153.129 58.0893 153.106 58.1247C153.087 58.1542 153.069 58.1844 153.051 58.2146C153.025 58.2586 153 58.3026 152.976 58.3485C152.971 58.359 152.964 58.3688 152.959 58.38C152.95 58.3971 152.944 58.4148 152.936 58.4325C152.913 58.4804 152.892 58.5283 152.873 58.5775C152.86 58.6097 152.849 58.6412 152.838 58.6734C152.822 58.718 152.808 58.7626 152.794 58.8086C152.783 58.8473 152.773 58.886 152.764 58.9254C152.756 58.9641 152.747 59.0028 152.74 59.0422C152.731 59.0894 152.724 59.1367 152.718 59.1839C152.714 59.2168 152.71 59.2502 152.707 59.2837C152.703 59.3369 152.701 59.39 152.699 59.4425C152.699 59.4622 152.696 59.4806 152.696 59.4996V92.5973H122.286C116.728 92.5973 112.206 97.1191 112.206 102.678C112.206 104.513 112.701 106.234 113.562 107.718H112.206C106.647 107.718 102.125 112.24 102.125 117.799C102.125 119.634 102.621 121.355 103.481 122.839H102.125C96.5667 122.839 92.0449 127.361 92.0449 132.919C92.0449 138.478 96.5667 143 102.125 143H150.569C151.96 143 153.089 141.872 153.089 140.48C153.089 139.088 151.96 137.96 150.569 137.96H150.176C147.397 137.96 145.136 135.699 145.136 132.919C145.136 130.14 147.397 127.879 150.176 127.879H160.65C162.041 127.879 163.17 126.751 163.17 125.359C163.17 123.967 162.041 122.839 160.65 122.839H160.256C157.477 122.839 155.216 120.578 155.216 117.799C155.216 115.019 157.477 112.758 160.256 112.758H170.73C172.121 112.758 173.25 111.63 173.25 110.238C173.25 108.846 172.121 107.718 170.73 107.718H170.337C167.558 107.718 165.297 105.457 165.297 102.678C165.297 99.8985 167.558 97.6376 170.337 97.6376H170.73C172.121 97.6376 173.25 96.5094 173.25 95.1174C173.25 93.7255 172.121 92.5973 170.73 92.5973H157.736V81.2239L176.665 71.8378C177.523 71.4125 178.065 70.5377 178.065 69.5801C178.065 68.6226 177.523 67.7478 176.665 67.3225ZM141.448 137.96H102.125C99.3461 137.96 97.0852 135.699 97.0852 132.919C97.0852 130.14 99.3461 127.846 102.125 127.846H141.448C140.588 129.329 140.095 131.084 140.095 132.919C140.095 134.754 140.588 136.476 141.448 137.96ZM151.528 122.839C149.703 122.839 114.101 122.839 112.206 122.839C109.427 122.839 107.166 120.578 107.166 117.799C107.166 115.019 109.427 112.725 112.206 112.725H151.528C150.669 114.208 150.176 115.964 150.176 117.799C150.176 119.634 150.669 121.356 151.528 122.839ZM161.609 107.718C159.784 107.718 124.182 107.718 122.286 107.718C119.507 107.718 117.246 105.457 117.246 102.678C117.246 99.8985 119.507 97.6041 122.286 97.6041H161.609C160.749 99.0873 160.256 100.843 160.256 102.678C160.256 104.513 160.749 106.235 161.609 107.718ZM157.736 75.5983V63.562L169.872 69.5801L157.736 75.5983Z" stroke="white" stroke-width="1.66667" mask="url(#path-6-inside-5_4743_34753)"/>
</g>
<defs>
<filter id="filter0_f_4743_34753" x="0.5" y="-34.2324" width="269" height="269" filterUnits="userSpaceOnUse" color-interpolation-filters="sRGB">
<feFlood flood-opacity="0" result="BackgroundImageFix"/>
<feBlend mode="normal" in="SourceGraphic" in2="BackgroundImageFix" result="shape"/>
<feGaussianBlur stdDeviation="32.25" result="effect1_foregroundBlur_4743_34753"/>
</filter>
<filter id="filter1_f_4743_34753" x="77.7324" y="42.667" width="114.646" height="114.646" filterUnits="userSpaceOnUse" color-interpolation-filters="sRGB">
<feFlood flood-opacity="0" result="BackgroundImageFix"/>
<feBlend mode="normal" in="SourceGraphic" in2="BackgroundImageFix" result="shape"/>
<feGaussianBlur stdDeviation="7.15625" result="effect1_foregroundBlur_4743_34753"/>
</filter>
<filter id="filter2_f_4743_34753" x="87.2741" y="52.2087" width="95.5622" height="95.5622" filterUnits="userSpaceOnUse" color-interpolation-filters="sRGB">
<feFlood flood-opacity="0" result="BackgroundImageFix"/>
<feBlend mode="normal" in="SourceGraphic" in2="BackgroundImageFix" result="shape"/>
<feGaussianBlur stdDeviation="2.38542" result="effect1_foregroundBlur_4743_34753"/>
</filter>
<filter id="filter3_ddi_4743_34753" x="85.8428" y="55.5482" width="98.4247" height="98.4247" filterUnits="userSpaceOnUse" color-interpolation-filters="sRGB">
<feFlood flood-opacity="0" result="BackgroundImageFix"/>
<feColorMatrix in="SourceAlpha" type="matrix" values="0 0 0 0 0 0 0 0 0 0 0 0 0 0 0 0 0 0 127 0" result="hardAlpha"/>
<feOffset dy="2.70833"/>
<feGaussianBlur stdDeviation="1.04167"/>
<feColorMatrix type="matrix" values="0 0 0 0 0.055 0 0 0 0 0 0 0 0 0 0.082 0 0 0 0.7 0"/>
<feBlend mode="multiply" in2="BackgroundImageFix" result="effect1_dropShadow_4743_34753"/>
<feColorMatrix in="SourceAlpha" type="matrix" values="0 0 0 0 0 0 0 0 0 0 0 0 0 0 0 0 0 0 127 0" result="hardAlpha"/>
<feOffset dy="4.77083"/>
<feGaussianBlur stdDeviation="3.10104"/>
<feColorMatrix type="matrix" values="0 0 0 0 0.514 0 0 0 0 0 0 0 0 0 0.756 0 0 0 1 0"/>
<feBlend mode="color-dodge" in2="effect1_dropShadow_4743_34753" result="effect2_dropShadow_4743_34753"/>
<feBlend mode="normal" in="SourceGraphic" in2="effect2_dropShadow_4743_34753" result="shape"/>
<feColorMatrix in="SourceAlpha" type="matrix" values="0 0 0 0 0 0 0 0 0 0 0 0 0 0 0 0 0 0 127 0" result="hardAlpha"/>
<feOffset dx="-0.270833" dy="0.541667"/>
<feGaussianBlur stdDeviation="0.135417"/>
<feComposite in2="hardAlpha" operator="arithmetic" k2="-1" k3="1"/>
<feColorMatrix type="matrix" values="0 0 0 0 1 0 0 0 0 1 0 0 0 0 1 0 0 0 0.5 0"/>
<feBlend mode="normal" in2="shape" result="effect3_innerShadow_4743_34753"/>
</filter>
<filter id="filter4_f_4743_34753" x="91.6283" y="56.5628" width="86.8538" height="86.8538" filterUnits="userSpaceOnUse" color-interpolation-filters="sRGB">
<feFlood flood-opacity="0" result="BackgroundImageFix"/>
<feBlend mode="normal" in="SourceGraphic" in2="BackgroundImageFix" result="shape"/>
<feGaussianBlur stdDeviation="0.208333" result="effect1_foregroundBlur_4743_34753"/>
</filter>
<filter id="filter5_f_4743_34753" x="91.7671" y="56.7017" width="86.5761" height="86.5761" filterUnits="userSpaceOnUse" color-interpolation-filters="sRGB">
<feFlood flood-opacity="0" result="BackgroundImageFix"/>
<feBlend mode="normal" in="SourceGraphic" in2="BackgroundImageFix" result="shape"/>
<feGaussianBlur stdDeviation="0.138889" result="effect1_foregroundBlur_4743_34753"/>
</filter>
</defs>
</svg>
