<svg width="16" height="12" viewBox="0 0 16 12" fill="none" xmlns="http://www.w3.org/2000/svg">
<path d="M13.6122 11.7676H2.38776C1.94463 11.7682 1.51038 11.6526 1.13526 11.4343C0.760154 11.216 0.459523 10.9039 0.268171 10.534C0.0441716 10.0952 -0.0421037 9.60696 0.0191762 9.12497C0.0804561 8.64297 0.286827 8.1866 0.614771 7.80786L6.22701 1.51673C6.44726 1.28157 6.71956 1.09298 7.02546 0.963726C7.33136 0.834472 7.66372 0.767578 8 0.767578C8.33628 0.767578 8.66864 0.834472 8.97454 0.963726C9.28044 1.09298 9.55274 1.28157 9.77299 1.51673L15.3852 7.80786C15.7132 8.1866 15.9195 8.64297 15.9808 9.12497C16.0421 9.60696 15.9558 10.0952 15.7318 10.534C15.5405 10.9039 15.2398 11.216 14.8647 11.4343C14.4896 11.6526 14.0554 11.7682 13.6122 11.7676ZM2.6677 9.30046H13.199L8 3.35472L2.6677 9.30046Z" fill="#BCBCBC"/>
</svg>
