<svg width="323" height="323" viewBox="0 0 323 323" fill="none" xmlns="http://www.w3.org/2000/svg">
<g style="mix-blend-mode:hard-light" filter="url(#filter0_f_4678_5904)">
<circle cx="161.5" cy="161.5" r="95.5" fill="#BDFF31" fill-opacity="0.103"/>
</g>
<g style="mix-blend-mode:hard-light" filter="url(#filter1_f_4678_5904)">
<mask id="path-2-inside-1_4678_5904" fill="white">
<path d="M211.917 183.258H210.202V133.77C210.202 131.296 208.198 129.292 205.725 129.292H195.722C193.267 129.292 191.245 131.296 191.245 133.77V183.258H187.742V149.423C187.742 146.95 185.738 144.946 183.265 144.946H173.262C170.807 144.946 168.785 146.95 168.785 149.423V183.276H165.282V156.121C165.282 153.648 163.278 151.644 160.805 151.644H150.802C148.347 151.644 146.325 153.648 146.325 156.121V160.671C142.082 157.62 136.972 155.941 131.682 155.941C117.889 155.941 106.677 167.171 106.677 180.965C106.677 194.758 117.889 205.97 131.682 205.97C138.778 205.97 145.44 202.955 150.17 197.755H211.917C214.535 197.755 216.648 195.625 216.648 193.025V188.024C216.684 185.388 214.535 183.258 211.917 183.258ZM195.722 133.77H205.725V183.258H195.722V133.77ZM173.262 149.423H183.265V183.276H173.262V149.423ZM160.823 156.121V183.276H156.616C156.688 182.517 156.742 181.759 156.742 180.983C156.742 175.043 154.63 169.355 150.82 164.86V156.139H160.823V156.121ZM131.7 201.493C120.38 201.493 111.172 192.285 111.172 180.965C111.172 169.626 120.38 160.4 131.7 160.4C137.46 160.4 143.021 162.856 146.921 167.135C150.369 170.908 152.409 175.819 152.265 180.965C152.03 189.631 148.347 193.097 147.498 194.09C143.58 198.803 137.821 201.493 131.7 201.493ZM212.206 193.007C212.206 193.151 212.08 193.278 211.935 193.278H153.492C153.492 193.26 153.51 193.242 153.529 193.224C154.522 191.472 155.28 189.613 155.803 187.735H211.935C212.098 187.735 212.224 187.843 212.224 188.006V193.007H212.206Z"/>
<path d="M138.961 173.51H137.351C137.132 172.41 136.647 171.416 136.001 170.552H138.961C139.768 170.552 140.422 169.889 140.422 169.073C140.422 168.256 139.768 167.593 138.961 167.593H124.351C123.544 167.593 122.89 168.256 122.89 169.073C122.89 169.889 123.544 170.552 124.351 170.552H130.195C132.097 170.552 133.704 171.791 134.309 173.51H124.351C123.544 173.51 122.89 174.173 122.89 174.989C122.89 175.806 123.544 176.468 124.351 176.468H134.309C133.704 178.187 132.097 179.427 130.195 179.427H124.351C124.161 179.427 123.971 179.465 123.793 179.539C123.436 179.69 123.15 179.977 123.001 180.341C122.852 180.702 122.852 181.11 123.001 181.471C123.074 181.654 123.182 181.817 123.319 181.953L135.005 193.783C135.291 194.073 135.665 194.218 136.039 194.218C136.413 194.218 136.787 194.073 137.073 193.786C137.643 193.209 137.643 192.271 137.073 191.695L127.878 182.385H130.195C133.725 182.385 136.673 179.841 137.351 176.468H138.961C139.768 176.468 140.422 175.806 140.422 174.989C140.422 174.173 139.768 173.51 138.961 173.51Z"/>
<path d="M125.345 139.042C125.67 139.06 127.169 139.15 129.57 139.15C141.197 139.15 173.948 136.984 197.347 114.524L196.264 121.204C196.065 122.413 196.896 123.569 198.105 123.768C198.232 123.786 198.34 123.804 198.467 123.804C199.55 123.804 200.489 123.027 200.669 121.926L202.908 108.132C203.016 107.428 202.782 106.706 202.276 106.2C201.771 105.695 201.066 105.46 200.344 105.568L186.55 107.807C185.341 108.006 184.51 109.161 184.709 110.371C184.908 111.581 186.027 112.411 187.273 112.213L194.513 111.039C167.593 137.038 126.085 134.618 125.652 134.6C124.479 134.528 123.359 135.449 123.269 136.677C123.197 137.886 124.118 138.951 125.345 139.042Z"/>
</mask>
<path d="M211.917 183.258H210.202V133.77C210.202 131.296 208.198 129.292 205.725 129.292H195.722C193.267 129.292 191.245 131.296 191.245 133.77V183.258H187.742V149.423C187.742 146.95 185.738 144.946 183.265 144.946H173.262C170.807 144.946 168.785 146.95 168.785 149.423V183.276H165.282V156.121C165.282 153.648 163.278 151.644 160.805 151.644H150.802C148.347 151.644 146.325 153.648 146.325 156.121V160.671C142.082 157.62 136.972 155.941 131.682 155.941C117.889 155.941 106.677 167.171 106.677 180.965C106.677 194.758 117.889 205.97 131.682 205.97C138.778 205.97 145.44 202.955 150.17 197.755H211.917C214.535 197.755 216.648 195.625 216.648 193.025V188.024C216.684 185.388 214.535 183.258 211.917 183.258ZM195.722 133.77H205.725V183.258H195.722V133.77ZM173.262 149.423H183.265V183.276H173.262V149.423ZM160.823 156.121V183.276H156.616C156.688 182.517 156.742 181.759 156.742 180.983C156.742 175.043 154.63 169.355 150.82 164.86V156.139H160.823V156.121ZM131.7 201.493C120.38 201.493 111.172 192.285 111.172 180.965C111.172 169.626 120.38 160.4 131.7 160.4C137.46 160.4 143.021 162.856 146.921 167.135C150.369 170.908 152.409 175.819 152.265 180.965C152.03 189.631 148.347 193.097 147.498 194.09C143.58 198.803 137.821 201.493 131.7 201.493ZM212.206 193.007C212.206 193.151 212.08 193.278 211.935 193.278H153.492C153.492 193.26 153.51 193.242 153.529 193.224C154.522 191.472 155.28 189.613 155.803 187.735H211.935C212.098 187.735 212.224 187.843 212.224 188.006V193.007H212.206Z" stroke="#BDFF31" stroke-width="8" mask="url(#path-2-inside-1_4678_5904)"/>
<path d="M138.961 173.51H137.351C137.132 172.41 136.647 171.416 136.001 170.552H138.961C139.768 170.552 140.422 169.889 140.422 169.073C140.422 168.256 139.768 167.593 138.961 167.593H124.351C123.544 167.593 122.89 168.256 122.89 169.073C122.89 169.889 123.544 170.552 124.351 170.552H130.195C132.097 170.552 133.704 171.791 134.309 173.51H124.351C123.544 173.51 122.89 174.173 122.89 174.989C122.89 175.806 123.544 176.468 124.351 176.468H134.309C133.704 178.187 132.097 179.427 130.195 179.427H124.351C124.161 179.427 123.971 179.465 123.793 179.539C123.436 179.69 123.15 179.977 123.001 180.341C122.852 180.702 122.852 181.11 123.001 181.471C123.074 181.654 123.182 181.817 123.319 181.953L135.005 193.783C135.291 194.073 135.665 194.218 136.039 194.218C136.413 194.218 136.787 194.073 137.073 193.786C137.643 193.209 137.643 192.271 137.073 191.695L127.878 182.385H130.195C133.725 182.385 136.673 179.841 137.351 176.468H138.961C139.768 176.468 140.422 175.806 140.422 174.989C140.422 174.173 139.768 173.51 138.961 173.51Z" stroke="#BDFF31" stroke-width="8" mask="url(#path-2-inside-1_4678_5904)"/>
<path d="M125.345 139.042C125.67 139.06 127.169 139.15 129.57 139.15C141.197 139.15 173.948 136.984 197.347 114.524L196.264 121.204C196.065 122.413 196.896 123.569 198.105 123.768C198.232 123.786 198.34 123.804 198.467 123.804C199.55 123.804 200.489 123.027 200.669 121.926L202.908 108.132C203.016 107.428 202.782 106.706 202.276 106.2C201.771 105.695 201.066 105.46 200.344 105.568L186.55 107.807C185.341 108.006 184.51 109.161 184.709 110.371C184.908 111.581 186.027 112.411 187.273 112.213L194.513 111.039C167.593 137.038 126.085 134.618 125.652 134.6C124.479 134.528 123.359 135.449 123.269 136.677C123.197 137.886 124.118 138.951 125.345 139.042Z" stroke="#BDFF31" stroke-width="8" mask="url(#path-2-inside-1_4678_5904)"/>
</g>
<g style="mix-blend-mode:hard-light" filter="url(#filter2_f_4678_5904)">
<mask id="path-3-inside-2_4678_5904" fill="white">
<path d="M211.917 183.258H210.202V133.77C210.202 131.296 208.198 129.292 205.725 129.292H195.722C193.267 129.292 191.245 131.296 191.245 133.77V183.258H187.742V149.423C187.742 146.95 185.738 144.946 183.265 144.946H173.262C170.807 144.946 168.785 146.95 168.785 149.423V183.276H165.282V156.121C165.282 153.648 163.278 151.644 160.805 151.644H150.802C148.347 151.644 146.325 153.648 146.325 156.121V160.671C142.082 157.62 136.972 155.941 131.682 155.941C117.889 155.941 106.677 167.171 106.677 180.965C106.677 194.758 117.889 205.97 131.682 205.97C138.778 205.97 145.44 202.955 150.17 197.755H211.917C214.535 197.755 216.648 195.625 216.648 193.025V188.024C216.684 185.388 214.535 183.258 211.917 183.258ZM195.722 133.77H205.725V183.258H195.722V133.77ZM173.262 149.423H183.265V183.276H173.262V149.423ZM160.823 156.121V183.276H156.616C156.688 182.517 156.742 181.759 156.742 180.983C156.742 175.043 154.63 169.355 150.82 164.86V156.139H160.823V156.121ZM131.7 201.493C120.38 201.493 111.172 192.285 111.172 180.965C111.172 169.626 120.38 160.4 131.7 160.4C137.46 160.4 143.021 162.856 146.921 167.135C150.369 170.908 152.409 175.819 152.265 180.965C152.03 189.631 148.347 193.097 147.498 194.09C143.58 198.803 137.821 201.493 131.7 201.493ZM212.206 193.007C212.206 193.151 212.08 193.278 211.935 193.278H153.492C153.492 193.26 153.51 193.242 153.529 193.224C154.522 191.472 155.28 189.613 155.803 187.735H211.935C212.098 187.735 212.224 187.843 212.224 188.006V193.007H212.206Z"/>
<path d="M138.961 173.51H137.351C137.132 172.41 136.647 171.416 136.001 170.552H138.961C139.768 170.552 140.422 169.889 140.422 169.073C140.422 168.256 139.768 167.593 138.961 167.593H124.351C123.544 167.593 122.89 168.256 122.89 169.073C122.89 169.889 123.544 170.552 124.351 170.552H130.195C132.097 170.552 133.704 171.791 134.309 173.51H124.351C123.544 173.51 122.89 174.173 122.89 174.989C122.89 175.806 123.544 176.468 124.351 176.468H134.309C133.704 178.187 132.097 179.427 130.195 179.427H124.351C124.161 179.427 123.971 179.465 123.793 179.539C123.436 179.69 123.15 179.977 123.001 180.341C122.852 180.702 122.852 181.11 123.001 181.471C123.074 181.654 123.182 181.817 123.319 181.953L135.005 193.783C135.291 194.073 135.665 194.218 136.039 194.218C136.413 194.218 136.787 194.073 137.073 193.786C137.643 193.209 137.643 192.271 137.073 191.695L127.878 182.385H130.195C133.725 182.385 136.673 179.841 137.351 176.468H138.961C139.768 176.468 140.422 175.806 140.422 174.989C140.422 174.173 139.768 173.51 138.961 173.51Z"/>
<path d="M125.345 139.042C125.67 139.06 127.169 139.15 129.57 139.15C141.197 139.15 173.948 136.984 197.347 114.524L196.264 121.204C196.065 122.413 196.896 123.569 198.105 123.768C198.232 123.786 198.34 123.804 198.467 123.804C199.55 123.804 200.489 123.027 200.669 121.926L202.908 108.132C203.016 107.428 202.782 106.706 202.276 106.2C201.771 105.695 201.066 105.46 200.344 105.568L186.55 107.807C185.341 108.006 184.51 109.161 184.709 110.371C184.908 111.581 186.027 112.411 187.273 112.213L194.513 111.039C167.593 137.038 126.085 134.618 125.652 134.6C124.479 134.528 123.359 135.449 123.269 136.677C123.197 137.886 124.118 138.951 125.345 139.042Z"/>
</mask>
<path d="M211.917 183.258H210.202V133.77C210.202 131.296 208.198 129.292 205.725 129.292H195.722C193.267 129.292 191.245 131.296 191.245 133.77V183.258H187.742V149.423C187.742 146.95 185.738 144.946 183.265 144.946H173.262C170.807 144.946 168.785 146.95 168.785 149.423V183.276H165.282V156.121C165.282 153.648 163.278 151.644 160.805 151.644H150.802C148.347 151.644 146.325 153.648 146.325 156.121V160.671C142.082 157.62 136.972 155.941 131.682 155.941C117.889 155.941 106.677 167.171 106.677 180.965C106.677 194.758 117.889 205.97 131.682 205.97C138.778 205.97 145.44 202.955 150.17 197.755H211.917C214.535 197.755 216.648 195.625 216.648 193.025V188.024C216.684 185.388 214.535 183.258 211.917 183.258ZM195.722 133.77H205.725V183.258H195.722V133.77ZM173.262 149.423H183.265V183.276H173.262V149.423ZM160.823 156.121V183.276H156.616C156.688 182.517 156.742 181.759 156.742 180.983C156.742 175.043 154.63 169.355 150.82 164.86V156.139H160.823V156.121ZM131.7 201.493C120.38 201.493 111.172 192.285 111.172 180.965C111.172 169.626 120.38 160.4 131.7 160.4C137.46 160.4 143.021 162.856 146.921 167.135C150.369 170.908 152.409 175.819 152.265 180.965C152.03 189.631 148.347 193.097 147.498 194.09C143.58 198.803 137.821 201.493 131.7 201.493ZM212.206 193.007C212.206 193.151 212.08 193.278 211.935 193.278H153.492C153.492 193.26 153.51 193.242 153.529 193.224C154.522 191.472 155.28 189.613 155.803 187.735H211.935C212.098 187.735 212.224 187.843 212.224 188.006V193.007H212.206Z" stroke="#BDFF31" stroke-width="10" mask="url(#path-3-inside-2_4678_5904)"/>
<path d="M138.961 173.51H137.351C137.132 172.41 136.647 171.416 136.001 170.552H138.961C139.768 170.552 140.422 169.889 140.422 169.073C140.422 168.256 139.768 167.593 138.961 167.593H124.351C123.544 167.593 122.89 168.256 122.89 169.073C122.89 169.889 123.544 170.552 124.351 170.552H130.195C132.097 170.552 133.704 171.791 134.309 173.51H124.351C123.544 173.51 122.89 174.173 122.89 174.989C122.89 175.806 123.544 176.468 124.351 176.468H134.309C133.704 178.187 132.097 179.427 130.195 179.427H124.351C124.161 179.427 123.971 179.465 123.793 179.539C123.436 179.69 123.15 179.977 123.001 180.341C122.852 180.702 122.852 181.11 123.001 181.471C123.074 181.654 123.182 181.817 123.319 181.953L135.005 193.783C135.291 194.073 135.665 194.218 136.039 194.218C136.413 194.218 136.787 194.073 137.073 193.786C137.643 193.209 137.643 192.271 137.073 191.695L127.878 182.385H130.195C133.725 182.385 136.673 179.841 137.351 176.468H138.961C139.768 176.468 140.422 175.806 140.422 174.989C140.422 174.173 139.768 173.51 138.961 173.51Z" stroke="#BDFF31" stroke-width="10" mask="url(#path-3-inside-2_4678_5904)"/>
<path d="M125.345 139.042C125.67 139.06 127.169 139.15 129.57 139.15C141.197 139.15 173.948 136.984 197.347 114.524L196.264 121.204C196.065 122.413 196.896 123.569 198.105 123.768C198.232 123.786 198.34 123.804 198.467 123.804C199.55 123.804 200.489 123.027 200.669 121.926L202.908 108.132C203.016 107.428 202.782 106.706 202.276 106.2C201.771 105.695 201.066 105.46 200.344 105.568L186.55 107.807C185.341 108.006 184.51 109.161 184.709 110.371C184.908 111.581 186.027 112.411 187.273 112.213L194.513 111.039C167.593 137.038 126.085 134.618 125.652 134.6C124.479 134.528 123.359 135.449 123.269 136.677C123.197 137.886 124.118 138.951 125.345 139.042Z" stroke="#BDFF31" stroke-width="10" mask="url(#path-3-inside-2_4678_5904)"/>
</g>
<g style="mix-blend-mode:hard-light" filter="url(#filter3_ddi_4678_5904)">
<mask id="path-4-inside-3_4678_5904" fill="white">
<path d="M211.917 183.258H210.202V133.77C210.202 131.296 208.198 129.292 205.725 129.292H195.722C193.267 129.292 191.245 131.296 191.245 133.77V183.258H187.742V149.423C187.742 146.95 185.738 144.946 183.265 144.946H173.262C170.807 144.946 168.785 146.95 168.785 149.423V183.276H165.282V156.121C165.282 153.648 163.278 151.644 160.805 151.644H150.802C148.347 151.644 146.325 153.648 146.325 156.121V160.671C142.082 157.62 136.972 155.941 131.682 155.941C117.889 155.941 106.677 167.171 106.677 180.965C106.677 194.758 117.889 205.97 131.682 205.97C138.778 205.97 145.44 202.955 150.17 197.755H211.917C214.535 197.755 216.648 195.625 216.648 193.025V188.024C216.684 185.388 214.535 183.258 211.917 183.258ZM195.722 133.77H205.725V183.258H195.722V133.77ZM173.262 149.423H183.265V183.276H173.262V149.423ZM160.823 156.121V183.276H156.616C156.688 182.517 156.742 181.759 156.742 180.983C156.742 175.043 154.63 169.355 150.82 164.86V156.139H160.823V156.121ZM131.7 201.493C120.38 201.493 111.172 192.285 111.172 180.965C111.172 169.626 120.38 160.4 131.7 160.4C137.46 160.4 143.021 162.856 146.921 167.135C150.369 170.908 152.409 175.819 152.265 180.965C152.03 189.631 148.347 193.097 147.498 194.09C143.58 198.803 137.821 201.493 131.7 201.493ZM212.206 193.007C212.206 193.151 212.08 193.278 211.935 193.278H153.492C153.492 193.26 153.51 193.242 153.529 193.224C154.522 191.472 155.28 189.613 155.803 187.735H211.935C212.098 187.735 212.224 187.843 212.224 188.006V193.007H212.206Z"/>
<path d="M138.961 173.51H137.351C137.132 172.41 136.647 171.416 136.001 170.552H138.961C139.768 170.552 140.422 169.889 140.422 169.073C140.422 168.256 139.768 167.593 138.961 167.593H124.351C123.544 167.593 122.89 168.256 122.89 169.073C122.89 169.889 123.544 170.552 124.351 170.552H130.195C132.097 170.552 133.704 171.791 134.309 173.51H124.351C123.544 173.51 122.89 174.173 122.89 174.989C122.89 175.806 123.544 176.468 124.351 176.468H134.309C133.704 178.187 132.097 179.427 130.195 179.427H124.351C124.161 179.427 123.971 179.465 123.793 179.539C123.436 179.69 123.15 179.977 123.001 180.341C122.852 180.702 122.852 181.11 123.001 181.471C123.074 181.654 123.182 181.817 123.319 181.953L135.005 193.783C135.291 194.073 135.665 194.218 136.039 194.218C136.413 194.218 136.787 194.073 137.073 193.786C137.643 193.209 137.643 192.271 137.073 191.695L127.878 182.385H130.195C133.725 182.385 136.673 179.841 137.351 176.468H138.961C139.768 176.468 140.422 175.806 140.422 174.989C140.422 174.173 139.768 173.51 138.961 173.51Z"/>
<path d="M125.345 139.042C125.67 139.06 127.169 139.15 129.57 139.15C141.197 139.15 173.948 136.984 197.347 114.524L196.264 121.204C196.065 122.413 196.896 123.569 198.105 123.768C198.232 123.786 198.34 123.804 198.467 123.804C199.55 123.804 200.489 123.027 200.669 121.926L202.908 108.132C203.016 107.428 202.782 106.706 202.276 106.2C201.771 105.695 201.066 105.46 200.344 105.568L186.55 107.807C185.341 108.006 184.51 109.161 184.709 110.371C184.908 111.581 186.027 112.411 187.273 112.213L194.513 111.039C167.593 137.038 126.085 134.618 125.652 134.6C124.479 134.528 123.359 135.449 123.269 136.677C123.197 137.886 124.118 138.951 125.345 139.042Z"/>
</mask>
<path d="M211.917 183.258H210.202V133.77C210.202 131.296 208.198 129.292 205.725 129.292H195.722C193.267 129.292 191.245 131.296 191.245 133.77V183.258H187.742V149.423C187.742 146.95 185.738 144.946 183.265 144.946H173.262C170.807 144.946 168.785 146.95 168.785 149.423V183.276H165.282V156.121C165.282 153.648 163.278 151.644 160.805 151.644H150.802C148.347 151.644 146.325 153.648 146.325 156.121V160.671C142.082 157.62 136.972 155.941 131.682 155.941C117.889 155.941 106.677 167.171 106.677 180.965C106.677 194.758 117.889 205.97 131.682 205.97C138.778 205.97 145.44 202.955 150.17 197.755H211.917C214.535 197.755 216.648 195.625 216.648 193.025V188.024C216.684 185.388 214.535 183.258 211.917 183.258ZM195.722 133.77H205.725V183.258H195.722V133.77ZM173.262 149.423H183.265V183.276H173.262V149.423ZM160.823 156.121V183.276H156.616C156.688 182.517 156.742 181.759 156.742 180.983C156.742 175.043 154.63 169.355 150.82 164.86V156.139H160.823V156.121ZM131.7 201.493C120.38 201.493 111.172 192.285 111.172 180.965C111.172 169.626 120.38 160.4 131.7 160.4C137.46 160.4 143.021 162.856 146.921 167.135C150.369 170.908 152.409 175.819 152.265 180.965C152.03 189.631 148.347 193.097 147.498 194.09C143.58 198.803 137.821 201.493 131.7 201.493ZM212.206 193.007C212.206 193.151 212.08 193.278 211.935 193.278H153.492C153.492 193.26 153.51 193.242 153.529 193.224C154.522 191.472 155.28 189.613 155.803 187.735H211.935C212.098 187.735 212.224 187.843 212.224 188.006V193.007H212.206Z" stroke="#BDFF31" stroke-opacity="0.1" stroke-width="6" mask="url(#path-4-inside-3_4678_5904)"/>
<path d="M138.961 173.51H137.351C137.132 172.41 136.647 171.416 136.001 170.552H138.961C139.768 170.552 140.422 169.889 140.422 169.073C140.422 168.256 139.768 167.593 138.961 167.593H124.351C123.544 167.593 122.89 168.256 122.89 169.073C122.89 169.889 123.544 170.552 124.351 170.552H130.195C132.097 170.552 133.704 171.791 134.309 173.51H124.351C123.544 173.51 122.89 174.173 122.89 174.989C122.89 175.806 123.544 176.468 124.351 176.468H134.309C133.704 178.187 132.097 179.427 130.195 179.427H124.351C124.161 179.427 123.971 179.465 123.793 179.539C123.436 179.69 123.15 179.977 123.001 180.341C122.852 180.702 122.852 181.11 123.001 181.471C123.074 181.654 123.182 181.817 123.319 181.953L135.005 193.783C135.291 194.073 135.665 194.218 136.039 194.218C136.413 194.218 136.787 194.073 137.073 193.786C137.643 193.209 137.643 192.271 137.073 191.695L127.878 182.385H130.195C133.725 182.385 136.673 179.841 137.351 176.468H138.961C139.768 176.468 140.422 175.806 140.422 174.989C140.422 174.173 139.768 173.51 138.961 173.51Z" stroke="#BDFF31" stroke-opacity="0.1" stroke-width="6" mask="url(#path-4-inside-3_4678_5904)"/>
<path d="M125.345 139.042C125.67 139.06 127.169 139.15 129.57 139.15C141.197 139.15 173.948 136.984 197.347 114.524L196.264 121.204C196.065 122.413 196.896 123.569 198.105 123.768C198.232 123.786 198.34 123.804 198.467 123.804C199.55 123.804 200.489 123.027 200.669 121.926L202.908 108.132C203.016 107.428 202.782 106.706 202.276 106.2C201.771 105.695 201.066 105.46 200.344 105.568L186.55 107.807C185.341 108.006 184.51 109.161 184.709 110.371C184.908 111.581 186.027 112.411 187.273 112.213L194.513 111.039C167.593 137.038 126.085 134.618 125.652 134.6C124.479 134.528 123.359 135.449 123.269 136.677C123.197 137.886 124.118 138.951 125.345 139.042Z" stroke="#BDFF31" stroke-opacity="0.1" stroke-width="6" mask="url(#path-4-inside-3_4678_5904)"/>
</g>
<g filter="url(#filter4_f_4678_5904)">
<mask id="path-5-inside-4_4678_5904" fill="white">
<path d="M211.917 183.258H210.202V133.77C210.202 131.296 208.198 129.292 205.725 129.292H195.722C193.267 129.292 191.245 131.296 191.245 133.77V183.258H187.742V149.423C187.742 146.95 185.738 144.946 183.265 144.946H173.262C170.807 144.946 168.785 146.95 168.785 149.423V183.276H165.282V156.121C165.282 153.648 163.278 151.644 160.805 151.644H150.802C148.347 151.644 146.325 153.648 146.325 156.121V160.671C142.082 157.62 136.972 155.941 131.682 155.941C117.889 155.941 106.677 167.171 106.677 180.965C106.677 194.758 117.889 205.97 131.682 205.97C138.778 205.97 145.44 202.955 150.17 197.755H211.917C214.535 197.755 216.648 195.625 216.648 193.025V188.024C216.684 185.388 214.535 183.258 211.917 183.258ZM195.722 133.77H205.725V183.258H195.722V133.77ZM173.262 149.423H183.265V183.276H173.262V149.423ZM160.823 156.121V183.276H156.616C156.688 182.517 156.742 181.759 156.742 180.983C156.742 175.043 154.63 169.355 150.82 164.86V156.139H160.823V156.121ZM131.7 201.493C120.38 201.493 111.172 192.285 111.172 180.965C111.172 169.626 120.38 160.4 131.7 160.4C137.46 160.4 143.021 162.856 146.921 167.135C150.369 170.908 152.409 175.819 152.265 180.965C152.03 189.631 148.347 193.097 147.498 194.09C143.58 198.803 137.821 201.493 131.7 201.493ZM212.206 193.007C212.206 193.151 212.08 193.278 211.935 193.278H153.492C153.492 193.26 153.51 193.242 153.529 193.224C154.522 191.472 155.28 189.613 155.803 187.735H211.935C212.098 187.735 212.224 187.843 212.224 188.006V193.007H212.206Z"/>
<path d="M138.961 173.51H137.351C137.132 172.41 136.647 171.416 136.001 170.552H138.961C139.768 170.552 140.422 169.889 140.422 169.073C140.422 168.256 139.768 167.593 138.961 167.593H124.351C123.544 167.593 122.89 168.256 122.89 169.073C122.89 169.889 123.544 170.552 124.351 170.552H130.195C132.097 170.552 133.704 171.791 134.309 173.51H124.351C123.544 173.51 122.89 174.173 122.89 174.989C122.89 175.806 123.544 176.468 124.351 176.468H134.309C133.704 178.187 132.097 179.427 130.195 179.427H124.351C124.161 179.427 123.971 179.465 123.793 179.539C123.436 179.69 123.15 179.977 123.001 180.341C122.852 180.702 122.852 181.11 123.001 181.471C123.074 181.654 123.182 181.817 123.319 181.953L135.005 193.783C135.291 194.073 135.665 194.218 136.039 194.218C136.413 194.218 136.787 194.073 137.073 193.786C137.643 193.209 137.643 192.271 137.073 191.695L127.878 182.385H130.195C133.725 182.385 136.673 179.841 137.351 176.468H138.961C139.768 176.468 140.422 175.806 140.422 174.989C140.422 174.173 139.768 173.51 138.961 173.51Z"/>
<path d="M125.345 139.042C125.67 139.06 127.169 139.15 129.57 139.15C141.197 139.15 173.948 136.984 197.347 114.524L196.264 121.204C196.065 122.413 196.896 123.569 198.105 123.768C198.232 123.786 198.34 123.804 198.467 123.804C199.55 123.804 200.489 123.027 200.669 121.926L202.908 108.132C203.016 107.428 202.782 106.706 202.276 106.2C201.771 105.695 201.066 105.46 200.344 105.568L186.55 107.807C185.341 108.006 184.51 109.161 184.709 110.371C184.908 111.581 186.027 112.411 187.273 112.213L194.513 111.039C167.593 137.038 126.085 134.618 125.652 134.6C124.479 134.528 123.359 135.449 123.269 136.677C123.197 137.886 124.118 138.951 125.345 139.042Z"/>
</mask>
<path d="M211.917 183.258H210.202V133.77C210.202 131.296 208.198 129.292 205.725 129.292H195.722C193.267 129.292 191.245 131.296 191.245 133.77V183.258H187.742V149.423C187.742 146.95 185.738 144.946 183.265 144.946H173.262C170.807 144.946 168.785 146.95 168.785 149.423V183.276H165.282V156.121C165.282 153.648 163.278 151.644 160.805 151.644H150.802C148.347 151.644 146.325 153.648 146.325 156.121V160.671C142.082 157.62 136.972 155.941 131.682 155.941C117.889 155.941 106.677 167.171 106.677 180.965C106.677 194.758 117.889 205.97 131.682 205.97C138.778 205.97 145.44 202.955 150.17 197.755H211.917C214.535 197.755 216.648 195.625 216.648 193.025V188.024C216.684 185.388 214.535 183.258 211.917 183.258ZM195.722 133.77H205.725V183.258H195.722V133.77ZM173.262 149.423H183.265V183.276H173.262V149.423ZM160.823 156.121V183.276H156.616C156.688 182.517 156.742 181.759 156.742 180.983C156.742 175.043 154.63 169.355 150.82 164.86V156.139H160.823V156.121ZM131.7 201.493C120.38 201.493 111.172 192.285 111.172 180.965C111.172 169.626 120.38 160.4 131.7 160.4C137.46 160.4 143.021 162.856 146.921 167.135C150.369 170.908 152.409 175.819 152.265 180.965C152.03 189.631 148.347 193.097 147.498 194.09C143.58 198.803 137.821 201.493 131.7 201.493ZM212.206 193.007C212.206 193.151 212.08 193.278 211.935 193.278H153.492C153.492 193.26 153.51 193.242 153.529 193.224C154.522 191.472 155.28 189.613 155.803 187.735H211.935C212.098 187.735 212.224 187.843 212.224 188.006V193.007H212.206Z" stroke="#BDFF31" stroke-width="6" mask="url(#path-5-inside-4_4678_5904)"/>
<path d="M138.961 173.51H137.351C137.132 172.41 136.647 171.416 136.001 170.552H138.961C139.768 170.552 140.422 169.889 140.422 169.073C140.422 168.256 139.768 167.593 138.961 167.593H124.351C123.544 167.593 122.89 168.256 122.89 169.073C122.89 169.889 123.544 170.552 124.351 170.552H130.195C132.097 170.552 133.704 171.791 134.309 173.51H124.351C123.544 173.51 122.89 174.173 122.89 174.989C122.89 175.806 123.544 176.468 124.351 176.468H134.309C133.704 178.187 132.097 179.427 130.195 179.427H124.351C124.161 179.427 123.971 179.465 123.793 179.539C123.436 179.69 123.15 179.977 123.001 180.341C122.852 180.702 122.852 181.11 123.001 181.471C123.074 181.654 123.182 181.817 123.319 181.953L135.005 193.783C135.291 194.073 135.665 194.218 136.039 194.218C136.413 194.218 136.787 194.073 137.073 193.786C137.643 193.209 137.643 192.271 137.073 191.695L127.878 182.385H130.195C133.725 182.385 136.673 179.841 137.351 176.468H138.961C139.768 176.468 140.422 175.806 140.422 174.989C140.422 174.173 139.768 173.51 138.961 173.51Z" stroke="#BDFF31" stroke-width="6" mask="url(#path-5-inside-4_4678_5904)"/>
<path d="M125.345 139.042C125.67 139.06 127.169 139.15 129.57 139.15C141.197 139.15 173.948 136.984 197.347 114.524L196.264 121.204C196.065 122.413 196.896 123.569 198.105 123.768C198.232 123.786 198.34 123.804 198.467 123.804C199.55 123.804 200.489 123.027 200.669 121.926L202.908 108.132C203.016 107.428 202.782 106.706 202.276 106.2C201.771 105.695 201.066 105.46 200.344 105.568L186.55 107.807C185.341 108.006 184.51 109.161 184.709 110.371C184.908 111.581 186.027 112.411 187.273 112.213L194.513 111.039C167.593 137.038 126.085 134.618 125.652 134.6C124.479 134.528 123.359 135.449 123.269 136.677C123.197 137.886 124.118 138.951 125.345 139.042Z" stroke="#BDFF31" stroke-width="6" mask="url(#path-5-inside-4_4678_5904)"/>
</g>
<g filter="url(#filter5_f_4678_5904)">
<mask id="path-6-inside-5_4678_5904" fill="white">
<path d="M211.917 183.258H210.202V133.77C210.202 131.296 208.198 129.292 205.725 129.292H195.722C193.267 129.292 191.245 131.296 191.245 133.77V183.258H187.742V149.423C187.742 146.95 185.738 144.946 183.265 144.946H173.262C170.807 144.946 168.785 146.95 168.785 149.423V183.276H165.282V156.121C165.282 153.648 163.278 151.644 160.805 151.644H150.802C148.347 151.644 146.325 153.648 146.325 156.121V160.671C142.082 157.62 136.972 155.941 131.682 155.941C117.889 155.941 106.677 167.171 106.677 180.965C106.677 194.758 117.889 205.97 131.682 205.97C138.778 205.97 145.44 202.955 150.17 197.755H211.917C214.535 197.755 216.648 195.625 216.648 193.025V188.024C216.684 185.388 214.535 183.258 211.917 183.258ZM195.722 133.77H205.725V183.258H195.722V133.77ZM173.262 149.423H183.265V183.276H173.262V149.423ZM160.823 156.121V183.276H156.616C156.688 182.517 156.742 181.759 156.742 180.983C156.742 175.043 154.63 169.355 150.82 164.86V156.139H160.823V156.121ZM131.7 201.493C120.38 201.493 111.172 192.285 111.172 180.965C111.172 169.626 120.38 160.4 131.7 160.4C137.46 160.4 143.021 162.856 146.921 167.135C150.369 170.908 152.409 175.819 152.265 180.965C152.03 189.631 148.347 193.097 147.498 194.09C143.58 198.803 137.821 201.493 131.7 201.493ZM212.206 193.007C212.206 193.151 212.08 193.278 211.935 193.278H153.492C153.492 193.26 153.51 193.242 153.529 193.224C154.522 191.472 155.28 189.613 155.803 187.735H211.935C212.098 187.735 212.224 187.843 212.224 188.006V193.007H212.206Z"/>
<path d="M138.961 173.51H137.351C137.132 172.41 136.647 171.416 136.001 170.552H138.961C139.768 170.552 140.422 169.889 140.422 169.073C140.422 168.256 139.768 167.593 138.961 167.593H124.351C123.544 167.593 122.89 168.256 122.89 169.073C122.89 169.889 123.544 170.552 124.351 170.552H130.195C132.097 170.552 133.704 171.791 134.309 173.51H124.351C123.544 173.51 122.89 174.173 122.89 174.989C122.89 175.806 123.544 176.468 124.351 176.468H134.309C133.704 178.187 132.097 179.427 130.195 179.427H124.351C124.161 179.427 123.971 179.465 123.793 179.539C123.436 179.69 123.15 179.977 123.001 180.341C122.852 180.702 122.852 181.11 123.001 181.471C123.074 181.654 123.182 181.817 123.319 181.953L135.005 193.783C135.291 194.073 135.665 194.218 136.039 194.218C136.413 194.218 136.787 194.073 137.073 193.786C137.643 193.209 137.643 192.271 137.073 191.695L127.878 182.385H130.195C133.725 182.385 136.673 179.841 137.351 176.468H138.961C139.768 176.468 140.422 175.806 140.422 174.989C140.422 174.173 139.768 173.51 138.961 173.51Z"/>
<path d="M125.345 139.042C125.67 139.06 127.169 139.15 129.57 139.15C141.197 139.15 173.948 136.984 197.347 114.524L196.264 121.204C196.065 122.413 196.896 123.569 198.105 123.768C198.232 123.786 198.34 123.804 198.467 123.804C199.55 123.804 200.489 123.027 200.669 121.926L202.908 108.132C203.016 107.428 202.782 106.706 202.276 106.2C201.771 105.695 201.066 105.46 200.344 105.568L186.55 107.807C185.341 108.006 184.51 109.161 184.709 110.371C184.908 111.581 186.027 112.411 187.273 112.213L194.513 111.039C167.593 137.038 126.085 134.618 125.652 134.6C124.479 134.528 123.359 135.449 123.269 136.677C123.197 137.886 124.118 138.951 125.345 139.042Z"/>
</mask>
<path d="M211.917 183.258H210.202V133.77C210.202 131.296 208.198 129.292 205.725 129.292H195.722C193.267 129.292 191.245 131.296 191.245 133.77V183.258H187.742V149.423C187.742 146.95 185.738 144.946 183.265 144.946H173.262C170.807 144.946 168.785 146.95 168.785 149.423V183.276H165.282V156.121C165.282 153.648 163.278 151.644 160.805 151.644H150.802C148.347 151.644 146.325 153.648 146.325 156.121V160.671C142.082 157.62 136.972 155.941 131.682 155.941C117.889 155.941 106.677 167.171 106.677 180.965C106.677 194.758 117.889 205.97 131.682 205.97C138.778 205.97 145.44 202.955 150.17 197.755H211.917C214.535 197.755 216.648 195.625 216.648 193.025V188.024C216.684 185.388 214.535 183.258 211.917 183.258ZM195.722 133.77H205.725V183.258H195.722V133.77ZM173.262 149.423H183.265V183.276H173.262V149.423ZM160.823 156.121V183.276H156.616C156.688 182.517 156.742 181.759 156.742 180.983C156.742 175.043 154.63 169.355 150.82 164.86V156.139H160.823V156.121ZM131.7 201.493C120.38 201.493 111.172 192.285 111.172 180.965C111.172 169.626 120.38 160.4 131.7 160.4C137.46 160.4 143.021 162.856 146.921 167.135C150.369 170.908 152.409 175.819 152.265 180.965C152.03 189.631 148.347 193.097 147.498 194.09C143.58 198.803 137.821 201.493 131.7 201.493ZM212.206 193.007C212.206 193.151 212.08 193.278 211.935 193.278H153.492C153.492 193.26 153.51 193.242 153.529 193.224C154.522 191.472 155.28 189.613 155.803 187.735H211.935C212.098 187.735 212.224 187.843 212.224 188.006V193.007H212.206Z" stroke="white" stroke-width="2.6" mask="url(#path-6-inside-5_4678_5904)"/>
<path d="M138.961 173.51H137.351C137.132 172.41 136.647 171.416 136.001 170.552H138.961C139.768 170.552 140.422 169.889 140.422 169.073C140.422 168.256 139.768 167.593 138.961 167.593H124.351C123.544 167.593 122.89 168.256 122.89 169.073C122.89 169.889 123.544 170.552 124.351 170.552H130.195C132.097 170.552 133.704 171.791 134.309 173.51H124.351C123.544 173.51 122.89 174.173 122.89 174.989C122.89 175.806 123.544 176.468 124.351 176.468H134.309C133.704 178.187 132.097 179.427 130.195 179.427H124.351C124.161 179.427 123.971 179.465 123.793 179.539C123.436 179.69 123.15 179.977 123.001 180.341C122.852 180.702 122.852 181.11 123.001 181.471C123.074 181.654 123.182 181.817 123.319 181.953L135.005 193.783C135.291 194.073 135.665 194.218 136.039 194.218C136.413 194.218 136.787 194.073 137.073 193.786C137.643 193.209 137.643 192.271 137.073 191.695L127.878 182.385H130.195C133.725 182.385 136.673 179.841 137.351 176.468H138.961C139.768 176.468 140.422 175.806 140.422 174.989C140.422 174.173 139.768 173.51 138.961 173.51Z" stroke="white" stroke-width="2.6" mask="url(#path-6-inside-5_4678_5904)"/>
<path d="M125.345 139.042C125.67 139.06 127.169 139.15 129.57 139.15C141.197 139.15 173.948 136.984 197.347 114.524L196.264 121.204C196.065 122.413 196.896 123.569 198.105 123.768C198.232 123.786 198.34 123.804 198.467 123.804C199.55 123.804 200.489 123.027 200.669 121.926L202.908 108.132C203.016 107.428 202.782 106.706 202.276 106.2C201.771 105.695 201.066 105.46 200.344 105.568L186.55 107.807C185.341 108.006 184.51 109.161 184.709 110.371C184.908 111.581 186.027 112.411 187.273 112.213L194.513 111.039C167.593 137.038 126.085 134.618 125.652 134.6C124.479 134.528 123.359 135.449 123.269 136.677C123.197 137.886 124.118 138.951 125.345 139.042Z" stroke="white" stroke-width="2.6" mask="url(#path-6-inside-5_4678_5904)"/>
</g>
<defs>
<filter id="filter0_f_4678_5904" x="0" y="0" width="323" height="323" filterUnits="userSpaceOnUse" color-interpolation-filters="sRGB">
<feFlood flood-opacity="0" result="BackgroundImageFix"/>
<feBlend mode="normal" in="SourceGraphic" in2="BackgroundImageFix" result="shape"/>
<feGaussianBlur stdDeviation="33" result="effect1_foregroundBlur_4678_5904"/>
</filter>
<filter id="filter1_f_4678_5904" x="64.9616" y="63.8273" width="193.402" height="183.858" filterUnits="userSpaceOnUse" color-interpolation-filters="sRGB">
<feFlood flood-opacity="0" result="BackgroundImageFix"/>
<feBlend mode="normal" in="SourceGraphic" in2="BackgroundImageFix" result="shape"/>
<feGaussianBlur stdDeviation="20.8576" result="effect1_foregroundBlur_4678_5904"/>
</filter>
<filter id="filter2_f_4678_5904" x="92.7717" y="91.6374" width="137.781" height="128.238" filterUnits="userSpaceOnUse" color-interpolation-filters="sRGB">
<feFlood flood-opacity="0" result="BackgroundImageFix"/>
<feBlend mode="normal" in="SourceGraphic" in2="BackgroundImageFix" result="shape"/>
<feGaussianBlur stdDeviation="6.95253" result="effect1_foregroundBlur_4678_5904"/>
</filter>
<filter id="filter3_ddi_4678_5904" x="88.6002" y="101.371" width="146.124" height="136.581" filterUnits="userSpaceOnUse" color-interpolation-filters="sRGB">
<feFlood flood-opacity="0" result="BackgroundImageFix"/>
<feColorMatrix in="SourceAlpha" type="matrix" values="0 0 0 0 0 0 0 0 0 0 0 0 0 0 0 0 0 0 127 0" result="hardAlpha"/>
<feOffset dy="8.77504"/>
<feGaussianBlur stdDeviation="3.37502"/>
<feColorMatrix type="matrix" values="0 0 0 0 0.293184 0 0 0 0 0.416667 0 0 0 0 0.03125 0 0 0 0.7 0"/>
<feBlend mode="multiply" in2="BackgroundImageFix" result="effect1_dropShadow_4678_5904"/>
<feColorMatrix in="SourceAlpha" type="matrix" values="0 0 0 0 0 0 0 0 0 0 0 0 0 0 0 0 0 0 127 0" result="hardAlpha"/>
<feOffset dy="13.9051"/>
<feGaussianBlur stdDeviation="9.03829"/>
<feColorMatrix type="matrix" values="0 0 0 0 0.271626 0 0 0 0 0.3875 0 0 0 0 0.0258333 0 0 0 1 0"/>
<feBlend mode="color-dodge" in2="effect1_dropShadow_4678_5904" result="effect2_dropShadow_4678_5904"/>
<feBlend mode="normal" in="SourceGraphic" in2="effect2_dropShadow_4678_5904" result="shape"/>
<feColorMatrix in="SourceAlpha" type="matrix" values="0 0 0 0 0 0 0 0 0 0 0 0 0 0 0 0 0 0 127 0" result="hardAlpha"/>
<feOffset dx="-0.877504" dy="1.75501"/>
<feGaussianBlur stdDeviation="0.438752"/>
<feComposite in2="hardAlpha" operator="arithmetic" k2="-1" k3="1"/>
<feColorMatrix type="matrix" values="0 0 0 0 1 0 0 0 0 1 0 0 0 0 1 0 0 0 0.5 0"/>
<feBlend mode="normal" in2="shape" result="effect3_innerShadow_4678_5904"/>
</filter>
<filter id="filter4_f_4678_5904" x="105.327" y="104.192" width="112.671" height="103.128" filterUnits="userSpaceOnUse" color-interpolation-filters="sRGB">
<feFlood flood-opacity="0" result="BackgroundImageFix"/>
<feBlend mode="normal" in="SourceGraphic" in2="BackgroundImageFix" result="shape"/>
<feGaussianBlur stdDeviation="0.675003" result="effect1_foregroundBlur_4678_5904"/>
</filter>
<filter id="filter5_f_4678_5904" x="105.777" y="104.642" width="111.771" height="102.228" filterUnits="userSpaceOnUse" color-interpolation-filters="sRGB">
<feFlood flood-opacity="0" result="BackgroundImageFix"/>
<feBlend mode="normal" in="SourceGraphic" in2="BackgroundImageFix" result="shape"/>
<feGaussianBlur stdDeviation="0.450002" result="effect1_foregroundBlur_4678_5904"/>
</filter>
</defs>
</svg>
