<svg width="91" height="84" viewBox="0 0 91 84" fill="none" xmlns="http://www.w3.org/2000/svg">
<g style="mix-blend-mode:hard-light" filter="url(#filter0_f_4678_6026)">
<path d="M75.3301 30.41H59.9642C61.2745 29.8587 62.9018 29.0646 64.3829 27.9476C64.5569 27.8163 64.7296 27.6801 64.9002 27.5387H75.3288C76.5852 27.5402 77.7898 28.04 78.6782 28.9284C79.5666 29.8168 80.0664 31.0214 80.0679 32.2778V38.8798C80.0664 40.1362 79.5666 41.3407 78.6782 42.2292C77.7898 43.1176 76.5852 43.6174 75.3288 43.6189H75.2834C74.978 42.5488 74.4129 41.5605 73.6271 40.7476L75.3301 40.7476L75.3321 40.7476C75.8263 40.7467 76.3 40.5499 76.6495 40.2004C76.9989 39.851 77.1957 39.3773 77.1966 38.883V38.881V32.2765V32.2746C77.1957 31.7803 76.9989 31.3066 76.6495 30.9571C76.3 30.6077 75.8263 30.4109 75.3321 30.41H75.3301ZM72.0737 42.1374C72.5035 42.5672 72.8424 43.071 73.0779 43.6189H68.7292C68.7287 43.6189 68.7281 43.6189 68.7276 43.6189H68.7256L49.1276 43.6189V42.3961C49.1276 41.8161 48.9844 41.2508 48.7175 40.7476H68.7269C69.9824 40.7498 71.1859 41.2495 72.0737 42.1374ZM70.5922 45.701H73.4635V68.5999C73.4619 69.8563 72.9621 71.0609 72.0737 71.9493C71.1853 72.8377 69.9807 73.3375 68.7243 73.3391H22.4955C21.2391 73.3375 20.0345 72.8377 19.1461 71.9493C18.2578 71.061 17.758 69.8566 17.7563 68.6003C17.7563 68.6002 17.7563 68.6 17.7563 68.5999L17.7563 45.701H20.6276L20.6276 68.6012L20.6276 68.6032C20.6286 69.0974 20.8253 69.5711 21.1748 69.9206C21.5243 70.2701 21.998 70.4668 22.4922 70.4678H22.4942L68.7256 70.4678L68.7276 70.4678C69.2218 70.4668 69.6955 70.2701 70.045 69.9206C70.3945 69.5711 70.5912 69.0974 70.5922 68.6032V68.6012V45.701ZM47.0456 42.3961V43.6189H44.1743V42.3961C44.1743 42.0153 44.3255 41.6502 44.5948 41.3809C44.864 41.1117 45.2291 40.9604 45.6099 40.9604C45.9907 40.9604 46.3558 41.1117 46.6251 41.3809C46.8943 41.6502 47.0456 42.0153 47.0456 42.3961ZM42.0922 42.3961V43.6189L22.4942 43.6189L22.4922 43.6189C22.4917 43.6189 22.4912 43.6189 22.4906 43.6189H18.1419C18.3774 43.071 18.7163 42.5672 19.1461 42.1374C20.0339 41.2495 21.2374 40.7498 22.4929 40.7476H42.5024C42.2355 41.2508 42.0922 41.8161 42.0922 42.3961ZM17.5928 40.7476C16.8069 41.5605 16.2418 42.5488 15.9364 43.6189H15.891C14.6346 43.6174 13.4301 43.1176 12.5416 42.2292C11.6533 41.3409 11.1535 40.1366 11.1519 38.8803V32.2773C11.1535 31.021 11.6533 29.8167 12.5416 28.9284C13.4301 28.04 14.6346 27.5402 15.891 27.5387H26.3566C27.611 28.5858 29.2359 29.5598 31.3178 30.41L15.8898 30.41L15.8878 30.41C15.3935 30.4109 14.9198 30.6077 14.5703 30.9571C14.2209 31.3066 14.0241 31.7803 14.0232 32.2746V32.2765L14.0232 38.881L14.0232 38.883C14.0241 39.3773 14.2209 39.851 14.5703 40.2004C14.9198 40.5499 15.3935 40.7467 15.8878 40.7476H15.8898H17.5928ZM33.6878 29.0696C32.2846 28.5969 31.0963 28.0804 30.091 27.5387H42.6904C42.6688 27.5952 42.6472 27.6517 42.6256 27.7082L42.6254 27.7088C42.4236 28.236 42.3516 28.8041 42.4155 29.365C42.4565 29.7246 42.5525 30.0744 42.6992 30.4026C39.655 30.3186 36.6297 29.8715 33.6878 29.0696ZM44.5699 28.453C44.6865 28.1487 44.8019 27.8439 44.9161 27.5387H46.4077C46.5047 27.8832 46.5987 28.2285 46.6897 28.5748L46.6897 28.5748L46.6921 28.5838C46.7493 28.7938 46.7582 29.014 46.718 29.2279C46.6779 29.4418 46.5897 29.6438 46.4602 29.8187C46.3307 29.9936 46.1632 30.1369 45.9703 30.2377C45.8539 30.2985 45.7301 30.343 45.6024 30.3701C45.4706 30.341 45.3431 30.2934 45.2238 30.2283C45.0214 30.1179 44.8486 29.9604 44.7198 29.7691C44.5911 29.5779 44.5103 29.3584 44.4842 29.1294C44.4581 28.9003 44.4875 28.6683 44.5699 28.453ZM45.7825 25.4566H45.6725C45.6917 25.4021 45.7109 25.3476 45.7301 25.2931C45.7476 25.3476 45.7651 25.4021 45.7825 25.4566ZM44.6087 22.1121C44.2451 23.2283 43.8624 24.3447 43.4622 25.4566H42.772C42.2843 23.8791 41.6946 22.3347 41.0065 20.8332L40.9925 20.8026L40.9765 20.7729C39.995 18.9526 39.0574 17.2909 38.0353 16.0802C37.0025 14.8569 35.755 13.9417 34.1354 13.9024V13.9024L34.1295 13.9022L34.0392 13.9006L34.0012 13.8999L33.9631 13.9019C32.2485 13.9954 30.6322 14.7305 29.4351 15.9604C28.874 16.4731 28.4183 17.0903 28.0935 17.7777L29.0347 18.2225L28.0935 17.7777C27.7634 18.4762 27.5752 19.2331 27.5396 20.0048L27.5381 20.0361L27.5386 20.0675C27.5589 21.5073 28.3656 22.7544 29.5828 23.7685C30.3248 24.3867 31.2542 24.9502 32.3452 25.4566H27.1486C26.8425 25.1645 26.5734 24.8718 26.3372 24.581C25.0726 23.0247 24.6896 21.4511 24.6673 20.1282C24.6857 18.9708 24.9349 17.8286 25.4004 16.7687C25.8679 15.7041 26.544 14.744 27.3889 13.9451L27.4028 13.932L27.4163 13.9183C28.3073 13.0113 29.3688 12.2893 30.5397 11.7938C31.7057 11.3004 32.9572 11.0411 34.2231 11.0309C36.5753 11.0935 38.3688 12.2084 39.8541 13.8178C41.3564 15.4457 42.4786 17.5082 43.4837 19.373C43.8805 20.2773 44.2555 21.1906 44.6087 22.1121ZM47.9646 25.4566C47.6124 24.3134 47.2285 23.1803 46.8133 22.0587C47.0774 21.2303 47.3309 20.4025 47.5733 19.5769C47.9127 18.5012 48.7301 16.3278 50.2567 14.4393C51.7715 12.5653 53.9315 11.0275 57.0162 11.0275H57.0265L57.0369 11.0273C59.5082 10.978 61.8983 11.9106 63.6832 13.6205C65.4653 15.3276 66.4991 17.6705 66.5591 20.1373C66.5555 22.3754 65.5475 24.1024 64.1142 25.4566H58.9015C59.4729 25.1861 60.0689 24.8718 60.6339 24.5134C62.0678 23.6036 63.6878 22.1659 63.6878 20.1253V20.1024L63.6868 20.0796C63.6117 18.3719 62.8638 16.7633 61.6064 15.6053L60.9012 16.371L61.6064 15.6053C60.3539 14.4517 58.6972 13.8388 56.996 13.8988C54.7298 13.907 53.1483 15.2984 52.1405 16.6854C51.1267 18.0807 50.566 19.6343 50.3409 20.3499L50.338 20.3593L50.3352 20.3688C49.8378 22.0613 49.2947 23.7621 48.7126 25.4566H47.9646ZM48.5679 27.5387H61.1586C59.8115 28.2677 58.5029 28.7634 57.6084 29.0984C54.6948 29.8926 51.6983 30.3324 48.6839 30.41H48.5135C48.6281 30.1558 48.7125 29.888 48.7643 29.6122C48.8623 29.0906 48.8411 28.5535 48.7023 28.0412C48.6581 27.8735 48.6134 27.706 48.5679 27.5387ZM44.1743 55.3919V45.701H47.0456V55.3919C47.0456 55.392 47.0456 55.3921 47.0456 55.3922C47.0454 55.7729 46.8941 56.138 46.6249 56.4072C46.3557 56.6764 45.9906 56.8277 45.6099 56.8279C45.2292 56.8277 44.8641 56.6764 44.5949 56.4072C44.3257 56.138 44.1744 55.7729 44.1743 55.3922C44.1743 55.3921 44.1743 55.392 44.1743 55.3919Z" stroke="#FFAB2D" stroke-width="2.08206"/>
</g>
<g style="mix-blend-mode:hard-light" filter="url(#filter1_f_4678_6026)">
<path d="M29.8071 30.0896L15.8898 30.0896L15.8871 30.0896C15.3082 30.0908 14.7532 30.3212 14.3438 30.7306C13.9344 31.14 13.704 31.695 13.7028 32.2739V32.2765L13.7028 38.881L13.7029 38.8836C13.704 39.4626 13.9344 40.0175 14.3438 40.4269C14.7532 40.8363 15.3082 41.0668 15.8871 41.0679H15.8898H16.8881C16.3611 41.7365 15.9601 42.491 15.7004 43.2942C14.5983 43.2453 13.5514 42.786 12.7681 42.0027C11.9398 41.1744 11.4738 40.0515 11.4722 38.8801V32.2775C11.4738 31.1061 11.9398 29.9832 12.7681 29.1549L11.8163 28.2031L12.7681 29.1549C13.5963 28.3268 14.7189 27.8608 15.89 27.859C15.8905 27.859 15.8909 27.859 15.8914 27.859L26.2412 27.859C27.2112 28.6551 28.3886 29.4053 29.8071 30.0896ZM33.7811 28.763C32.9297 28.4759 32.1601 28.1731 31.4645 27.859H42.2358C42.0856 28.3574 42.0381 28.8822 42.0972 29.4013L43.4391 29.2484L42.0972 29.4013C42.123 29.6273 42.1687 29.8499 42.2334 30.0664C39.3781 29.9518 36.5426 29.515 33.7811 28.763ZM44.869 28.5675C44.9594 28.3316 45.0491 28.0955 45.1381 27.859H46.1646C46.2382 28.1242 46.3099 28.39 46.3799 28.6562L46.3799 28.6562L46.3831 28.668C46.4276 28.8313 46.4345 29.0025 46.4032 29.1688L47.7412 29.4201L46.4032 29.1688C46.372 29.3351 46.3034 29.4921 46.2028 29.6281C46.1021 29.7641 45.9718 29.8754 45.8219 29.9538C45.7522 29.9903 45.679 30.0191 45.6037 30.0401C45.5253 30.0176 45.4493 29.9865 45.3772 29.9471C45.2199 29.8613 45.0856 29.7389 44.9856 29.5903C44.8855 29.4417 44.8227 29.2711 44.8024 29.0931C44.7821 28.9151 44.805 28.7348 44.869 28.5675ZM49.0118 27.9589C49.0031 27.9256 48.9943 27.8923 48.9855 27.859H59.7976C58.9281 28.2586 58.1265 28.5623 57.5099 28.7933C54.7232 29.5516 51.8603 29.9831 48.9787 30.0807C49.0196 29.9465 49.0531 29.8099 49.0791 29.6714C49.1859 29.1027 49.1629 28.5173 49.0118 27.9589ZM64.5758 28.2033C64.7231 28.0922 64.8697 27.9775 65.0149 27.859L75.3284 27.859C75.3289 27.859 75.3293 27.859 75.3298 27.859C76.5009 27.8608 77.6236 28.3268 78.4517 29.1549C79.2802 29.9834 79.7462 31.1066 79.7476 32.2782V38.8794C79.7462 40.051 79.2802 41.1742 78.4517 42.0027C77.6684 42.786 76.6215 43.2453 75.5194 43.2942C75.2597 42.491 74.8587 41.7365 74.3317 41.0679L75.3301 41.0679L75.3327 41.0679C75.9117 41.0668 76.4666 40.8363 76.876 40.4269C77.2853 40.0176 77.5159 39.4626 77.517 38.8836V38.881V32.2765L77.517 32.2739C77.5159 31.6949 77.2853 31.14 76.876 30.7306C76.4666 30.3212 75.9117 30.0908 75.3327 30.0896H75.3301H61.4483C62.4587 29.5965 63.5509 28.9762 64.5758 28.2033ZM72.5609 43.2986H68.7298C68.7293 43.2986 68.7287 43.2986 68.7282 43.2986H68.7256L49.4479 43.2986V42.3961C49.4479 41.9384 49.3662 41.4892 49.2108 41.0679H68.7275C69.8978 41.0703 71.0196 41.5362 71.8472 42.3639C72.1281 42.6448 72.3673 42.9595 72.5609 43.2986ZM19.3726 42.3639C20.2002 41.5362 21.322 41.0703 22.4923 41.0679H42.009C41.8536 41.4892 41.7719 41.9384 41.7719 42.3961V43.2986L22.4942 43.2986L22.4916 43.2986C22.4911 43.2986 22.4905 43.2986 22.49 43.2986H18.6589C18.8525 42.9595 19.0917 42.6448 19.3726 42.3639ZM18.0767 46.0213H20.3073L20.3073 68.6012L20.3073 68.6038C20.3084 69.1828 20.5389 69.7377 20.9483 70.1471C21.3577 70.5565 21.9126 70.787 22.4916 70.7881H22.4942L68.7256 70.7881L68.7282 70.7881C69.3072 70.787 69.8621 70.5565 70.2715 70.1471C70.6809 69.7377 70.9114 69.1828 70.9125 68.6038V68.6012V46.0213H73.1431V68.5995C73.1417 69.7711 72.6757 70.8944 71.8472 71.7228C71.0188 72.5513 69.8955 73.0173 68.7239 73.0187H22.4959C21.3243 73.0173 20.2011 72.5513 19.3726 71.7228C18.5443 70.8945 18.0783 69.7716 18.0767 68.6003V46.0213ZM44.4946 46.0213H46.7252V55.3919C46.7252 55.392 46.7252 55.3921 46.7252 55.3922C46.7251 55.688 46.6075 55.9716 46.3984 56.1807C46.1892 56.3898 45.9057 56.5074 45.6099 56.5076C45.3142 56.5074 45.0306 56.3898 44.8214 56.1807C44.6123 55.9716 44.4948 55.688 44.4946 55.3922C44.4946 55.3921 44.4946 55.392 44.4946 55.3919V46.0213ZM46.7252 42.3961V43.2986H44.4946V42.3961C44.4946 42.1003 44.6121 41.8166 44.8213 41.6074C45.0304 41.3983 45.3141 41.2808 45.6099 41.2808C45.9057 41.2808 46.1894 41.3983 46.3986 41.6074C46.6077 41.8166 46.7252 42.1003 46.7252 42.3961ZM47.1519 22.051C47.4044 21.2563 47.6472 20.4622 47.8798 19.6701C48.2145 18.6101 49.0169 16.4825 50.5058 14.6407C51.9793 12.8177 54.0555 11.3478 57.0162 11.3478H57.0297L57.0433 11.3475C59.4298 11.3 61.7379 12.2005 63.4616 13.8518C65.1816 15.4994 66.1798 17.7603 66.2387 20.141C66.2342 22.2177 65.3232 23.8403 63.9859 25.1363H60.2177C60.4156 25.0239 60.6123 24.9064 60.8055 24.7838C62.2504 23.8671 64.0081 22.346 64.0081 20.1253V20.0954L64.0068 20.0655C63.928 18.2732 63.1431 16.585 61.8234 15.3696L60.9012 16.371L61.8234 15.3696C60.5101 14.1601 58.7735 13.5169 56.9898 13.5785C54.5806 13.5892 52.9171 15.0717 51.8814 16.4972C50.838 17.9332 50.2647 19.5246 50.0354 20.2538L50.0315 20.2661L50.0279 20.2784C49.5531 21.8942 49.0364 23.5178 48.4837 25.1363H48.2006C47.877 24.0992 47.5273 23.0704 47.1519 22.051ZM44.2689 22.1209C43.94 23.1271 43.5956 24.1334 43.2369 25.1363H43.0075C42.5297 23.6239 41.9587 22.1422 41.2977 20.6998L41.2793 20.6597L41.2584 20.6209C40.2791 18.8046 39.3269 17.1135 38.2801 15.8735C37.2192 14.617 35.8934 13.6246 34.1431 13.5821V13.5821L34.1355 13.582L34.0452 13.5803L33.9954 13.5794L33.9457 13.5821C32.1538 13.6798 30.4646 14.4468 29.2121 15.7303C28.6234 16.2698 28.1451 16.9186 27.8038 17.6408C27.4557 18.3776 27.2571 19.1761 27.2196 19.9901L27.2177 20.031L27.2183 20.072C27.2404 21.6383 28.1187 22.9656 29.3778 24.0146C29.8553 24.4124 30.4051 24.7863 31.0201 25.1363H27.2781C27.0192 24.8827 26.7894 24.6297 26.5857 24.379C25.374 22.8878 25.0098 21.3882 24.9877 20.128C25.0061 19.015 25.2461 17.9168 25.6937 16.8974C26.144 15.872 26.7952 14.9473 27.609 14.1779L27.6272 14.1607L27.6447 14.1428C28.5062 13.2659 29.5325 12.5679 30.6646 12.0888C31.7901 11.6124 32.9982 11.3619 34.2202 11.3512C36.4581 11.4125 38.1737 12.4693 39.6187 14.0351C41.0863 15.6254 42.1892 17.6466 43.1956 19.5136C43.5732 20.3747 43.931 21.244 44.2689 22.1209Z" stroke="#FFAB2D" stroke-width="2.7227"/>
</g>
<g style="mix-blend-mode:hard-light" filter="url(#filter2_ddi_4678_6026)">
<path d="M75.3301 30.41H59.9642C61.2745 29.8587 62.9018 29.0646 64.3829 27.9476C64.5569 27.8163 64.7296 27.6801 64.9002 27.5387H75.3288C76.5852 27.5402 77.7898 28.04 78.6782 28.9284C79.5666 29.8168 80.0664 31.0214 80.0679 32.2778V38.8798C80.0664 40.1362 79.5666 41.3407 78.6782 42.2292C77.7898 43.1176 76.5852 43.6174 75.3288 43.6189H75.2834C74.978 42.5488 74.4129 41.5605 73.6271 40.7476L75.3301 40.7476L75.3321 40.7476C75.8263 40.7467 76.3 40.5499 76.6495 40.2004C76.9989 39.851 77.1957 39.3773 77.1966 38.883V38.881V32.2765V32.2746C77.1957 31.7803 76.9989 31.3066 76.6495 30.9571C76.3 30.6077 75.8263 30.4109 75.3321 30.41H75.3301ZM72.0737 42.1374C72.5035 42.5672 72.8424 43.071 73.0779 43.6189H68.7292C68.7287 43.6189 68.7281 43.6189 68.7276 43.6189H68.7256L49.1276 43.6189V42.3961C49.1276 41.8161 48.9844 41.2508 48.7175 40.7476H68.7269C69.9824 40.7498 71.1859 41.2495 72.0737 42.1374ZM70.5922 45.701H73.4635V68.5999C73.4619 69.8563 72.9621 71.0609 72.0737 71.9493C71.1853 72.8377 69.9807 73.3375 68.7243 73.3391H22.4955C21.2391 73.3375 20.0345 72.8377 19.1461 71.9493C18.2578 71.061 17.758 69.8566 17.7563 68.6003C17.7563 68.6002 17.7563 68.6 17.7563 68.5999L17.7563 45.701H20.6276L20.6276 68.6012L20.6276 68.6032C20.6286 69.0974 20.8253 69.5711 21.1748 69.9206C21.5243 70.2701 21.998 70.4668 22.4922 70.4678H22.4942L68.7256 70.4678L68.7276 70.4678C69.2218 70.4668 69.6955 70.2701 70.045 69.9206C70.3945 69.5711 70.5912 69.0974 70.5922 68.6032V68.6012V45.701ZM47.0456 42.3961V43.6189H44.1743V42.3961C44.1743 42.0153 44.3255 41.6502 44.5948 41.3809C44.864 41.1117 45.2291 40.9604 45.6099 40.9604C45.9907 40.9604 46.3558 41.1117 46.6251 41.3809C46.8943 41.6502 47.0456 42.0153 47.0456 42.3961ZM42.0922 42.3961V43.6189L22.4942 43.6189L22.4922 43.6189C22.4917 43.6189 22.4912 43.6189 22.4906 43.6189H18.1419C18.3774 43.071 18.7163 42.5672 19.1461 42.1374C20.0339 41.2495 21.2374 40.7498 22.4929 40.7476H42.5024C42.2355 41.2508 42.0922 41.8161 42.0922 42.3961ZM17.5928 40.7476C16.8069 41.5605 16.2418 42.5488 15.9364 43.6189H15.891C14.6346 43.6174 13.4301 43.1176 12.5416 42.2292C11.6533 41.3409 11.1535 40.1366 11.1519 38.8803V32.2773C11.1535 31.021 11.6533 29.8167 12.5416 28.9284C13.4301 28.04 14.6346 27.5402 15.891 27.5387H26.3566C27.611 28.5858 29.2359 29.5598 31.3178 30.41L15.8898 30.41L15.8878 30.41C15.3935 30.4109 14.9198 30.6077 14.5703 30.9571C14.2209 31.3066 14.0241 31.7803 14.0232 32.2746V32.2765L14.0232 38.881L14.0232 38.883C14.0241 39.3773 14.2209 39.851 14.5703 40.2004C14.9198 40.5499 15.3935 40.7467 15.8878 40.7476H15.8898H17.5928ZM33.6878 29.0696C32.2846 28.5969 31.0963 28.0804 30.091 27.5387H42.6904C42.6688 27.5952 42.6472 27.6517 42.6256 27.7082L42.6254 27.7088C42.4236 28.236 42.3516 28.8041 42.4155 29.365C42.4565 29.7246 42.5525 30.0744 42.6992 30.4026C39.655 30.3186 36.6297 29.8715 33.6878 29.0696ZM44.5699 28.453C44.6865 28.1487 44.8019 27.8439 44.9161 27.5387H46.4077C46.5047 27.8832 46.5987 28.2285 46.6897 28.5748L46.6897 28.5748L46.6921 28.5838C46.7493 28.7938 46.7582 29.014 46.718 29.2279C46.6779 29.4418 46.5897 29.6438 46.4602 29.8187C46.3307 29.9936 46.1632 30.1369 45.9703 30.2377C45.8539 30.2985 45.7301 30.343 45.6024 30.3701C45.4706 30.341 45.3431 30.2934 45.2238 30.2283C45.0214 30.1179 44.8486 29.9604 44.7198 29.7691C44.5911 29.5779 44.5103 29.3584 44.4842 29.1294C44.4581 28.9003 44.4875 28.6683 44.5699 28.453ZM45.7825 25.4566H45.6725C45.6917 25.4021 45.7109 25.3476 45.7301 25.2931C45.7476 25.3476 45.7651 25.4021 45.7825 25.4566ZM44.6087 22.1121C44.2451 23.2283 43.8624 24.3447 43.4622 25.4566H42.772C42.2843 23.8791 41.6946 22.3347 41.0065 20.8332L40.9925 20.8026L40.9765 20.7729C39.995 18.9526 39.0574 17.2909 38.0353 16.0802C37.0025 14.8569 35.755 13.9417 34.1354 13.9024V13.9024L34.1295 13.9022L34.0392 13.9006L34.0012 13.8999L33.9631 13.9019C32.2485 13.9954 30.6322 14.7305 29.4351 15.9604C28.874 16.4731 28.4183 17.0903 28.0935 17.7777L29.0347 18.2225L28.0935 17.7777C27.7634 18.4762 27.5752 19.2331 27.5396 20.0048L27.5381 20.0361L27.5386 20.0675C27.5589 21.5073 28.3656 22.7544 29.5828 23.7685C30.3248 24.3867 31.2542 24.9502 32.3452 25.4566H27.1486C26.8425 25.1645 26.5734 24.8718 26.3372 24.581C25.0726 23.0247 24.6896 21.4511 24.6673 20.1282C24.6857 18.9708 24.9349 17.8286 25.4004 16.7687C25.8679 15.7041 26.544 14.744 27.3889 13.9451L27.4028 13.932L27.4163 13.9183C28.3073 13.0113 29.3688 12.2893 30.5397 11.7938C31.7057 11.3004 32.9572 11.0411 34.2231 11.0309C36.5753 11.0935 38.3688 12.2084 39.8541 13.8178C41.3564 15.4457 42.4786 17.5082 43.4837 19.373C43.8805 20.2773 44.2555 21.1906 44.6087 22.1121ZM47.9646 25.4566C47.6124 24.3134 47.2285 23.1803 46.8133 22.0587C47.0774 21.2303 47.3309 20.4025 47.5733 19.5769C47.9127 18.5012 48.7301 16.3278 50.2567 14.4393C51.7715 12.5653 53.9315 11.0275 57.0162 11.0275H57.0265L57.0369 11.0273C59.5082 10.978 61.8983 11.9106 63.6832 13.6205C65.4653 15.3276 66.4991 17.6705 66.5591 20.1373C66.5555 22.3754 65.5475 24.1024 64.1142 25.4566H58.9015C59.4729 25.1861 60.0689 24.8718 60.6339 24.5134C62.0678 23.6036 63.6878 22.1659 63.6878 20.1253V20.1024L63.6868 20.0796C63.6117 18.3719 62.8638 16.7633 61.6064 15.6053L60.9012 16.371L61.6064 15.6053C60.3539 14.4517 58.6972 13.8388 56.996 13.8988C54.7298 13.907 53.1483 15.2984 52.1405 16.6854C51.1267 18.0807 50.566 19.6343 50.3409 20.3499L50.338 20.3593L50.3352 20.3688C49.8378 22.0613 49.2947 23.7621 48.7126 25.4566H47.9646ZM48.5679 27.5387H61.1586C59.8115 28.2677 58.5029 28.7634 57.6084 29.0984C54.6948 29.8926 51.6983 30.3324 48.6839 30.41H48.5135C48.6281 30.1558 48.7125 29.888 48.7643 29.6122C48.8623 29.0906 48.8411 28.5535 48.7023 28.0412C48.6581 27.8735 48.6134 27.706 48.5679 27.5387ZM44.1743 55.3919V45.701H47.0456V55.3919C47.0456 55.392 47.0456 55.3921 47.0456 55.3922C47.0454 55.7729 46.8941 56.138 46.6249 56.4072C46.3557 56.6764 45.9906 56.8277 45.6099 56.8279C45.2292 56.8277 44.8641 56.6764 44.5949 56.4072C44.3257 56.138 44.1744 55.7729 44.1743 55.3922C44.1743 55.3921 44.1743 55.392 44.1743 55.3919Z" stroke="#FFC940" stroke-opacity="0.2" stroke-width="2.08206"/>
</g>
<g filter="url(#filter3_f_4678_6026)">
<path d="M57.7168 30.8104H75.3301H75.3313C75.7196 30.8111 76.0918 30.9657 76.3663 31.2403C76.6409 31.5148 76.7955 31.887 76.7962 32.2753V32.2765V38.881V38.8823C76.7955 39.2706 76.6409 39.6428 76.3663 39.9173C76.0918 40.1919 75.7196 40.3465 75.3313 40.3472L75.3301 40.3472L72.5691 40.3472C72.813 40.5297 73.0449 40.7304 73.2628 40.9482C74.1144 41.7998 74.7023 42.8658 74.974 44.0193L75.3293 44.0193L75.3301 44.0193M57.7168 30.8104L81.109 38.881C81.1071 40.4131 80.4977 41.8819 79.4143 42.9653C78.331 44.0486 76.8621 44.6581 75.3301 44.6599V44.0193M57.7168 30.8104C57.844 30.7769 57.9711 30.7427 58.098 30.708L58.1261 30.7003L58.1534 30.6901L58.1723 30.683C59.4956 30.1876 61.9819 29.2568 64.1418 27.6279C64.3489 27.4717 64.5537 27.3086 64.7547 27.1383H75.3293C76.6917 27.1399 77.9979 27.6819 78.9613 28.6453C79.9247 29.6087 80.4667 30.9149 80.4683 32.2773V38.8803M57.7168 30.8104L80.4683 38.8803M75.3301 44.0193C76.6922 44.0174 77.9981 43.4755 78.9613 42.5123C79.9247 41.5489 80.4667 40.2427 80.4683 38.8803M75.3301 44.0193L80.4683 38.8803M70.1799 45.3006H73.8603C73.8626 45.3621 73.8638 45.4237 73.8639 45.4855C73.8639 45.4858 73.8639 45.486 73.8639 45.4863L70.1799 45.3006ZM70.1799 45.3006C70.1876 45.3612 70.1917 45.4225 70.1918 45.4843L70.1918 45.4855V68.6012V68.6024C70.191 68.9907 70.0364 69.3629 69.7619 69.6375C69.4873 69.912 69.1151 70.0666 68.7268 70.0674L68.7256 70.0674H22.4942H22.493C22.1047 70.0666 21.7325 69.912 21.4579 69.6375C21.1834 69.3629 21.0288 68.9907 21.028 68.6024L21.028 68.6012L21.028 45.4855V45.4843C21.0282 45.4225 21.0322 45.3612 21.0399 45.3006M68.7248 73.7395H22.495L22.4942 73.7395L68.7248 73.7395ZM68.7248 73.7395L68.7256 73.7395C68.7253 73.7395 68.7251 73.7395 68.7248 73.7395ZM72.3568 41.8542C72.9657 42.4631 73.4063 43.2089 73.6485 44.0193L68.7268 44.0193H68.7256L48.7272 44.0193V42.3961C48.7272 41.6405 48.4529 40.9131 47.9593 40.3472H68.7274C70.0889 40.3496 71.394 40.8915 72.3568 41.8542ZM73.8639 68.6004L73.8639 68.6012C73.8639 68.6009 73.8639 68.6007 73.8639 68.6004ZM47.4459 42.3961V44.0193H43.7739V42.3961C43.7739 41.9091 43.9673 41.4421 44.3116 41.0978C44.656 40.7535 45.123 40.5601 45.6099 40.5601C46.0969 40.5601 46.5639 40.7535 46.9082 41.0978C47.2525 41.4421 47.4459 41.9091 47.4459 42.3961ZM42.4926 42.3961V44.0193L22.4942 44.0193L22.493 44.0193H17.5714C17.8136 43.2089 18.2541 42.4631 18.863 41.8542C19.8258 40.8915 21.1309 40.3496 22.4924 40.3472H43.2605C42.7669 40.9131 42.4926 41.6405 42.4926 42.3961Z" stroke="#FFD56A" stroke-width="1.28127"/>
</g>
<g filter="url(#filter4_f_4678_6026)">
<path d="M46.9512 26.8179H44.415C44.2451 27.2782 44.0723 27.7375 43.8967 28.1955M46.9512 26.8179L44.8052 31.1307C45.1166 31.128 45.3126 31.1227 45.3641 31.1213L45.3683 31.1212C45.4458 31.1189 45.5229 31.1124 45.5994 31.1018M46.9512 26.8179C47.1031 27.3405 47.2483 27.865 47.3867 28.3915L47.3875 28.3943C47.4734 28.7094 47.4867 29.0399 47.4264 29.3609C47.3661 29.6819 47.2338 29.9851 47.0394 30.2476C46.845 30.5101 46.5937 30.7251 46.3042 30.8764C46.0835 30.9918 45.845 31.0678 45.5994 31.1018M46.9512 26.8179L45.8669 31.1241C45.7771 31.1222 45.6878 31.1148 45.5994 31.1018M43.8967 28.1955L43.5976 28.0809L43.8968 28.1954C43.8968 28.1954 43.8967 28.1955 43.8967 28.1955ZM43.8967 28.1955C43.773 28.5188 43.7289 28.8671 43.7681 29.2109C43.8073 29.5549 43.9286 29.8844 44.1219 30.1716C44.3152 30.4588 44.5748 30.6952 44.8787 30.861C45.1034 30.9836 45.3475 31.0649 45.5994 31.1018M36.6179 31.1307H15.8898L15.8891 31.1307C15.5856 31.1313 15.2946 31.2521 15.08 31.4668C14.8653 31.6814 14.7445 31.9724 14.7439 32.2759V32.2765L14.7439 38.881L14.7439 38.8816C14.7445 39.1852 14.8653 39.4762 15.08 39.6908C15.2946 39.9055 15.5856 40.0263 15.8891 40.0269H15.8898H19.7785C19.1937 40.3182 18.6541 40.7041 18.1835 41.1747C17.314 42.0443 16.7337 43.1491 16.5048 44.3396H15.8901C14.4429 44.3379 13.0554 43.7622 12.032 42.7388C11.0087 41.7155 10.433 40.328 10.4312 38.8808V32.2767C10.433 30.8295 11.0087 29.4421 12.032 28.4188L11.8055 28.1923L12.032 28.4188C13.0553 27.3955 14.4426 26.8198 15.8898 26.8179C15.8899 26.8179 15.89 26.8179 15.8901 26.8179M36.6179 31.1307L15.8901 26.8179M36.6179 31.1307C35.5028 30.9266 34.3958 30.6745 33.3 30.3749L33.2912 30.3725L33.2826 30.3696C30.2805 29.3616 28.135 28.1339 26.622 26.8179L15.8901 26.8179M36.6179 31.1307L15.8901 26.8179M64.6365 26.8179C64.4122 27.0115 64.1824 27.1961 63.949 27.3721C61.8262 28.973 59.3753 29.8906 58.0523 30.3859L58.0411 30.3901L58.0275 30.3952L58.0134 30.399C56.9591 30.6878 55.8942 30.9318 54.8216 31.1307H75.3301H75.3307C75.6342 31.1313 75.9252 31.2521 76.1398 31.4668C76.3545 31.6814 76.4753 31.9724 76.4759 32.2759V32.2765V38.881V38.8816C76.4753 39.1852 76.3545 39.4762 76.1398 39.6908C75.9252 39.9055 75.6342 40.0263 75.3307 40.0269L75.3301 40.0269H71.4413C72.0261 40.3182 72.5657 40.7041 73.0363 41.1747C73.9059 42.0443 74.4861 43.1491 74.715 44.3396H75.3297C76.7769 44.3379 78.1644 43.7622 79.1878 42.7388C80.2112 41.7154 80.7869 40.3279 80.7887 38.8806V32.2769C80.7869 30.8297 80.2112 29.4422 79.1878 28.4188C78.1645 27.3955 76.7772 26.8198 75.3301 26.8179M64.6365 26.8179L75.3297 26.8179M64.6365 26.8179L75.3297 26.8179M64.6365 26.8179H75.3301M75.3301 26.8179C75.3299 26.8179 75.3298 26.8179 75.3297 26.8179M75.3301 26.8179L75.3297 26.8179M43.4535 44.9803V55.3921C43.4535 55.3922 43.4535 55.3922 43.4535 55.3922C43.4537 55.9641 43.681 56.5124 44.0853 56.9168C44.4897 57.3212 45.038 57.5484 45.6098 57.5486L43.4535 44.9803ZM43.4535 44.9803H47.7663M43.4535 44.9803H47.7663M47.7663 44.9803V55.3921C47.7663 55.3922 47.7663 55.3922 47.7663 55.3922C47.7661 55.9641 47.5389 56.5124 47.1345 56.9168C46.7301 57.3211 46.1818 57.5484 45.61 57.5486L47.7663 44.9803ZM44.1376 31.1307H43.0026C39.785 31.0685 36.5857 30.6083 33.4778 29.7594C30.922 28.9004 29.0283 27.8883 27.6344 26.8179H43.7318C43.5894 27.2015 43.4449 27.5843 43.2985 27.9662L43.2985 27.9664C43.138 28.3857 43.0808 28.8374 43.1316 29.2835C43.1824 29.7295 43.3398 30.1568 43.5905 30.5293C43.7431 30.7561 43.9276 30.9585 44.1376 31.1307ZM36.9078 26.1773H26.8654C26.449 25.8001 26.0888 25.4182 25.7778 25.0355C24.3944 23.3329 23.969 21.5926 23.9465 20.1285C23.9649 18.8712 24.2349 17.6302 24.7405 16.4789C25.2467 15.3261 25.9789 14.2865 26.8937 13.4215L26.8939 13.4216L26.9021 13.4132C27.8597 12.4385 29.0005 11.6626 30.2588 11.1301C31.5157 10.5982 32.8651 10.3195 34.2298 10.3101C36.8389 10.3757 38.8078 11.6215 40.3837 13.329C41.9646 15.042 43.1304 17.1982 44.132 19.0567C44.5719 20.0582 44.9855 21.0706 45.3726 22.093C44.9318 23.4565 44.4625 24.8208 43.9677 26.1773H42.2365C41.7301 24.453 41.1001 22.7674 40.3513 21.1335L40.347 21.1241L40.3421 21.1149C39.3557 19.2856 38.451 17.6898 37.4846 16.5451C36.5149 15.3965 35.4434 14.655 34.1179 14.6229L34.1161 14.6228L34.0258 14.6212L34.0141 14.6209L34.0024 14.6216C32.4614 14.7056 31.0092 15.3689 29.9368 16.4783C29.4378 16.9305 29.0328 17.4767 28.7451 18.0856C28.4558 18.6979 28.2907 19.3615 28.2595 20.038L28.2591 20.0477L28.2592 20.0573C28.2755 21.2125 28.9212 22.2791 30.0441 23.2147C31.167 24.1502 32.7958 24.9811 34.8595 25.6742L34.8666 25.6766L34.8738 25.6786C35.546 25.8699 36.2245 26.0362 36.9078 26.1773ZM44.6493 26.1773C45.0249 25.1415 45.3855 24.1015 45.73 23.0608C46.1006 24.0904 46.4445 25.1296 46.7612 26.1773H44.6493ZM47.4302 26.1773C47.0169 24.795 46.5569 23.4273 46.0509 22.0765C46.3414 21.1721 46.6193 20.2681 46.8838 19.367C47.2339 18.2557 48.0848 15.9796 49.6962 13.9862C51.304 11.9972 53.6525 10.3068 57.0162 10.3068V10.3068L57.0225 10.3067C59.6846 10.2537 62.2591 11.2581 64.1818 13.1C66.1036 14.941 67.2176 17.4685 67.2798 20.1291C67.2786 22.7388 66.0397 24.7005 64.395 26.1773H54.6075C55.1538 26.0609 55.6967 25.9269 56.2353 25.7756L56.2482 25.772L56.2608 25.7673C57.1629 25.4305 58.8174 24.8124 60.2478 23.9048C61.6571 23.0106 62.9671 21.7606 62.9671 20.1253H62.9674L62.9668 20.1112C62.9001 18.5938 62.2355 17.1644 61.1182 16.1354C60.0024 15.1078 58.5257 14.563 57.01 14.6195C55.0657 14.622 53.6687 15.8082 52.7236 17.1091C51.7765 18.4126 51.2439 19.881 51.0284 20.5662L51.0284 20.5662L51.0267 20.572C50.4785 22.4374 49.8752 24.3123 49.2259 26.1773H47.4302ZM47.6181 26.8179H63.6196C63.6008 26.8322 63.582 26.8465 63.5632 26.8607C61.5244 28.3982 59.1569 29.2883 57.8302 29.785C54.8476 30.6007 51.7796 31.052 48.6932 31.1307H47.0758C47.2549 30.9843 47.4157 30.8159 47.5542 30.6288C47.8063 30.2885 47.9778 29.8954 48.056 29.4792C48.1341 29.0634 48.117 28.6353 48.0059 28.2271C47.882 27.7558 47.7527 27.2861 47.6181 26.8179ZM72.5833 41.6277C73.3321 42.3765 73.8412 43.3202 74.0612 44.3396H68.7277C68.7272 44.3396 68.7267 44.3396 68.7262 44.3396H68.7256L48.4069 44.3396V42.3961C48.4069 41.6543 48.1122 40.9429 47.5877 40.4183C47.438 40.2686 47.2731 40.1377 47.0966 40.0269H68.7289C70.1748 40.0296 71.5608 40.6052 72.5833 41.6277ZM47.7663 42.3961V44.3396H43.4535V42.3961C43.4535 41.8242 43.6807 41.2757 44.0851 40.8713C44.4895 40.4669 45.038 40.2397 45.6099 40.2397C46.1818 40.2397 46.7303 40.4669 47.1347 40.8713C47.5391 41.2757 47.7663 41.8242 47.7663 42.3961ZM42.8129 42.3961V44.3396L22.4942 44.3396H22.4936C22.4931 44.3396 22.4926 44.3396 22.4921 44.3396H17.1586C17.3786 43.3202 17.8877 42.3765 18.6365 41.6277C19.659 40.6052 21.045 40.0296 22.4909 40.0269H44.1232C43.9467 40.1377 43.7818 40.2686 43.6321 40.4183C43.1076 40.9429 42.8129 41.6543 42.8129 42.3961ZM21.4664 44.9803C21.3898 45.1358 21.3487 45.3082 21.3484 45.4849V45.4855L21.3484 68.6012L21.3484 68.6018C21.3489 68.9054 21.4698 69.1963 21.6844 69.411C21.8991 69.6256 22.1901 69.7465 22.4936 69.7471H22.4942H68.7256H68.7262C69.0298 69.7465 69.3207 69.6256 69.5354 69.411C69.75 69.1963 69.8709 68.9054 69.8715 68.6018V68.6012V45.4855V45.4849C69.8711 45.3082 69.83 45.1358 69.7535 44.9803H74.1601C74.1759 45.1477 74.184 45.3164 74.1842 45.4859V68.6008C74.1824 70.0481 73.6067 71.4356 72.5833 72.4589C71.56 73.4823 70.1725 74.058 68.7252 74.0598H22.4946C21.0473 74.058 19.6599 73.4823 18.6365 72.4589C17.6131 71.4356 17.0374 70.0481 17.0356 68.6008V45.4859C17.0358 45.3164 17.0439 45.1477 17.0597 44.9803H21.4664ZM38.67 31.451H15.8898C15.6709 31.4514 15.4612 31.5385 15.3065 31.6933C15.1517 31.848 15.0646 32.0577 15.0642 32.2765V38.881C15.0646 39.0999 15.1517 39.3096 15.3065 39.4643C15.4612 39.6191 15.6709 39.7062 15.8898 39.7066H20.5495L38.67 31.451Z" stroke="white" stroke-width="0.640635"/>
</g>
<defs>
<filter id="filter0_f_4678_6026" x="0.501318" y="0.374853" width="90.2171" height="83.6146" filterUnits="userSpaceOnUse" color-interpolation-filters="sRGB">
<feFlood flood-opacity="0" result="BackgroundImageFix"/>
<feBlend mode="normal" in="SourceGraphic" in2="BackgroundImageFix" result="shape"/>
<feGaussianBlur stdDeviation="4.80476" result="effect1_foregroundBlur_4678_6026"/>
</filter>
<filter id="filter1_f_4678_6026" x="6.90767" y="6.7812" width="77.4044" height="70.8019" filterUnits="userSpaceOnUse" color-interpolation-filters="sRGB">
<feFlood flood-opacity="0" result="BackgroundImageFix"/>
<feBlend mode="normal" in="SourceGraphic" in2="BackgroundImageFix" result="shape"/>
<feGaussianBlur stdDeviation="1.60159" result="effect1_foregroundBlur_4678_6026"/>
</filter>
<filter id="filter2_ddi_4678_6026" x="5.94671" y="9.02342" width="79.3263" height="72.7238" filterUnits="userSpaceOnUse" color-interpolation-filters="sRGB">
<feFlood flood-opacity="0" result="BackgroundImageFix"/>
<feColorMatrix in="SourceAlpha" type="matrix" values="0 0 0 0 0 0 0 0 0 0 0 0 0 0 0 0 0 0 127 0" result="hardAlpha"/>
<feOffset dy="2.08206"/>
<feGaussianBlur stdDeviation="0.800793"/>
<feColorMatrix type="matrix" values="0 0 0 0 0.224 0 0 0 0 0.15 0 0 0 0 0 0 0 0 0.7 0"/>
<feBlend mode="multiply" in2="BackgroundImageFix" result="effect1_dropShadow_4678_6026"/>
<feColorMatrix in="SourceAlpha" type="matrix" values="0 0 0 0 0 0 0 0 0 0 0 0 0 0 0 0 0 0 127 0" result="hardAlpha"/>
<feOffset dy="3.20317"/>
<feGaussianBlur stdDeviation="2.08206"/>
<feColorMatrix type="matrix" values="0 0 0 0 0.56 0 0 0 0 0.44 0 0 0 0 0 0 0 0 1 0"/>
<feBlend mode="color-dodge" in2="effect1_dropShadow_4678_6026" result="effect2_dropShadow_4678_6026"/>
<feBlend mode="normal" in="SourceGraphic" in2="effect2_dropShadow_4678_6026" result="shape"/>
<feColorMatrix in="SourceAlpha" type="matrix" values="0 0 0 0 0 0 0 0 0 0 0 0 0 0 0 0 0 0 127 0" result="hardAlpha"/>
<feOffset dx="-0.208206" dy="0.416413"/>
<feGaussianBlur stdDeviation="0.104103"/>
<feComposite in2="hardAlpha" operator="arithmetic" k2="-1" k3="1"/>
<feColorMatrix type="matrix" values="0 0 0 0 1 0 0 0 0 1 0 0 0 0 1 0 0 0 0.5 0"/>
<feBlend mode="normal" in2="shape" result="effect3_innerShadow_4678_6026"/>
</filter>
<filter id="filter3_f_4678_6026" x="9.79052" y="9.66406" width="71.6387" height="65.0361" filterUnits="userSpaceOnUse" color-interpolation-filters="sRGB">
<feFlood flood-opacity="0" result="BackgroundImageFix"/>
<feBlend mode="normal" in="SourceGraphic" in2="BackgroundImageFix" result="shape"/>
<feGaussianBlur stdDeviation="0.160159" result="effect1_foregroundBlur_4678_6026"/>
</filter>
<filter id="filter4_f_4678_6026" x="9.89729" y="9.77083" width="71.4251" height="64.8226" filterUnits="userSpaceOnUse" color-interpolation-filters="sRGB">
<feFlood flood-opacity="0" result="BackgroundImageFix"/>
<feBlend mode="normal" in="SourceGraphic" in2="BackgroundImageFix" result="shape"/>
<feGaussianBlur stdDeviation="0.106772" result="effect1_foregroundBlur_4678_6026"/>
</filter>
</defs>
</svg>
