<svg width="36" height="37" viewBox="0 0 36 37" fill="none" xmlns="http://www.w3.org/2000/svg">
<path d="M33.1593 26.611C33.0299 25.5591 32.4336 24.6423 31.5224 24.0966L27.4611 21.661C26.1111 20.851 24.3955 21.0647 23.2818 22.1729C22.2861 23.1685 20.773 23.3597 19.603 22.6454C18.5118 21.9816 17.4036 21.0985 16.4024 20.0916C15.4011 19.0848 14.5124 17.9766 13.8486 16.891C13.1343 15.721 13.3255 14.2079 14.3211 13.2122C15.4349 12.0985 15.643 10.3829 14.833 9.03287L12.3974 4.97162C11.8518 4.06037 10.9349 3.46412 9.88301 3.33475C8.83114 3.20537 7.79614 3.55975 7.04801 4.3135L3.98239 7.37912C3.11614 8.24537 2.68864 9.47162 2.83489 10.6585C3.48176 15.8616 6.36739 21.3573 10.7493 25.7391C15.1311 30.121 20.6324 33.0066 25.8355 33.6535C25.9874 33.6704 26.1449 33.6816 26.3024 33.6816C27.3374 33.6816 28.3668 33.2598 29.1149 32.506L32.1805 29.4404C32.9286 28.6923 33.2886 27.6572 33.1593 26.6054V26.611ZM30.5943 27.8541L27.5286 30.9198C27.1518 31.2966 26.623 31.4879 26.1168 31.426C21.403 30.841 16.3799 28.186 12.3468 24.1529C8.31364 20.1141 5.65864 15.0966 5.07364 10.3829C5.01176 9.87662 5.19739 9.3535 5.57989 8.971L8.64551 5.90537C8.87051 5.686 9.16301 5.56225 9.47239 5.56225C9.52301 5.56225 9.56801 5.56225 9.61864 5.5735C9.97864 5.6185 10.2936 5.821 10.4793 6.13037L12.9149 10.1916C13.1905 10.6529 13.1174 11.2435 12.7405 11.6204C11.008 13.3529 10.6818 15.9966 11.9361 18.061C12.7011 19.321 13.6743 20.536 14.8161 21.6835C15.9636 22.831 17.1786 23.7985 18.4386 24.5635C20.503 25.8235 23.1468 25.4916 24.8793 23.7591C25.2618 23.3766 25.8468 23.3091 26.308 23.5848L30.3693 26.0204C30.6786 26.206 30.8868 26.521 30.9261 26.881C30.9711 27.241 30.8474 27.5954 30.5943 27.8541Z" fill="white" fill-opacity="0.43"/>
<path d="M25.3124 17.3753C24.8174 17.3753 24.3674 17.0491 24.2267 16.5485C23.5799 14.2085 21.7236 12.3522 19.3892 11.711C18.793 11.5478 18.4386 10.9235 18.6017 10.3272C18.7649 9.73097 19.3892 9.37659 19.9855 9.53972C23.0849 10.3947 25.5374 12.8528 26.398 15.9522C26.5611 16.5485 26.2124 17.1728 25.6105 17.336C25.5092 17.3641 25.408 17.3753 25.3124 17.3753Z" fill="white" fill-opacity="0.43"/>
<path d="M30.9377 17.3751C30.3921 17.3751 29.9196 16.9813 29.8296 16.4301C28.9746 11.1088 24.829 6.96322 19.5133 6.11384C18.9002 6.01822 18.484 5.43884 18.5796 4.82572C18.6752 4.21259 19.249 3.79072 19.8677 3.89197C26.1508 4.89884 31.0446 9.79259 32.0515 16.0757C32.1471 16.6888 31.7308 17.2682 31.1177 17.3638C31.0558 17.3751 30.9996 17.3807 30.9377 17.3807V17.3751Z" fill="white" fill-opacity="0.43"/>
</svg>
