<svg width="36" height="37" viewBox="0 0 36 37" fill="none" xmlns="http://www.w3.org/2000/svg">
<g clip-path="url(#clip0_5110_2606)">
<path d="M12.3514 7.3252H15.7404C17.1398 7.26944 17.1387 5.27102 15.7404 5.21582H12.3514C10.952 5.27151 10.9531 7.26993 12.3514 7.3252Z" fill="white" fill-opacity="0.43"/>
<path d="M17.4352 30.0693H10.657C9.25767 30.1251 9.25873 32.1235 10.657 32.1787H17.4352C18.8345 32.123 18.8335 30.1246 17.4352 30.0693Z" fill="white" fill-opacity="0.43"/>
<path d="M16.3055 15.3828H14.0462C12.6468 15.4386 12.6479 17.437 14.0462 17.4922H16.3055C17.7049 17.4364 17.7039 15.438 16.3055 15.3828Z" fill="white" fill-opacity="0.43"/>
<path d="M16.3055 19.9023H14.0462C12.6468 19.9581 12.6479 21.9565 14.0462 22.0117H16.3055C17.7049 21.956 17.7039 19.9576 16.3055 19.9023Z" fill="white" fill-opacity="0.43"/>
<path d="M32.121 10.8645H25.268V6.27073C25.268 3.18738 22.7729 0.697266 19.6945 0.697266H8.39761C5.31434 0.697266 2.82422 3.19245 2.82422 6.27073V31.1239C2.82422 34.2072 5.31933 36.6973 8.39768 36.6973H19.6945C22.7778 36.6973 25.268 34.2023 25.268 31.1239V26.5301H32.121C32.7035 26.5301 33.1757 26.0579 33.1757 25.4754V11.9191C33.1757 11.3367 32.7035 10.8645 32.121 10.8645ZM19.6945 34.5879H8.39761C6.48124 34.5879 4.93352 33.0371 4.93352 31.1238V6.27073C4.93359 4.35457 6.48405 2.80664 8.39761 2.80664H19.6945C21.6107 2.80664 23.1586 4.3571 23.1586 6.27073V10.9916C22.2327 11.217 21.4208 11.7309 20.8242 12.434C20.0097 11.4742 18.7951 10.8645 17.4352 10.8645H9.52732C8.94485 10.8645 8.47263 11.3367 8.47263 11.9191V25.4754C8.47263 26.0579 8.94485 26.5301 9.52732 26.5301H17.4351C18.7223 26.5301 19.7695 27.5773 19.7695 28.8645C19.7695 29.4469 20.2417 29.9191 20.8241 29.9191C21.4066 29.9191 21.8788 29.4469 21.8788 28.8645C21.8788 27.9567 22.4 27.1689 23.1585 26.7829V31.1238C23.1586 33.0402 21.608 34.5879 19.6945 34.5879ZM19.7695 15.3082V25.0845C19.0907 24.6638 18.2907 24.4207 17.4352 24.4207H10.582V12.9738H17.4351C18.7255 12.9738 19.7695 14.0173 19.7695 15.3082ZM31.0664 24.4207H24.2133C23.3577 24.4207 22.5577 24.6638 21.8789 25.0845V15.3082C21.8789 14.0173 22.923 12.9738 24.2133 12.9738H31.0664V24.4207Z" fill="white" fill-opacity="0.43"/>
<path d="M25.3431 17.4922H27.6024C29.0018 17.4364 29.0007 15.438 27.6024 15.3828H25.3431C23.9437 15.4385 23.9448 17.4369 25.3431 17.4922Z" fill="white" fill-opacity="0.43"/>
<path d="M25.3431 22.0117H27.6024C29.0018 21.956 29.0007 19.9575 27.6024 19.9023H25.3431C23.9437 19.9581 23.9448 21.9565 25.3431 22.0117Z" fill="white" fill-opacity="0.43"/>
</g>
<defs>
<clipPath id="clip0_5110_2606">
<rect width="36" height="36" fill="white" transform="translate(0 0.697266)"/>
</clipPath>
</defs>
</svg>
