<svg width="55" height="55" viewBox="0 0 55 55" fill="none" xmlns="http://www.w3.org/2000/svg">
<g style="mix-blend-mode:hard-light" filter="url(#filter0_f_6223_1713)">
<mask id="path-1-inside-1_6223_1713" fill="white">
<path d="M47.2307 12.073L37.6082 7.3015C37.5998 7.29747 37.5914 7.29436 37.5833 7.29063C37.5607 7.28007 37.5377 7.26982 37.5144 7.26081C37.4995 7.25491 37.4845 7.24932 37.4696 7.24435C37.4482 7.23689 37.4271 7.23006 37.4053 7.22384C37.387 7.21856 37.3687 7.2139 37.3503 7.20955C37.3317 7.2052 37.3131 7.20117 37.2944 7.19775C37.2724 7.19371 37.2503 7.19029 37.2283 7.18781C37.2121 7.18563 37.1963 7.18377 37.1801 7.18253C37.1553 7.18035 37.1304 7.17911 37.1056 7.1788C37.0962 7.17849 37.0872 7.17725 37.0782 7.17725C37.0723 7.17725 37.0667 7.17818 37.0611 7.17818C37.0369 7.17849 37.0127 7.18004 36.9884 7.18191C36.972 7.18315 36.9555 7.18408 36.9394 7.18594C36.9192 7.18843 36.899 7.19185 36.8791 7.19526C36.8592 7.19868 36.8396 7.20179 36.8204 7.20583C36.8042 7.20955 36.7884 7.2139 36.7725 7.21825C36.7505 7.22415 36.7284 7.22975 36.7067 7.23689C36.693 7.24155 36.6797 7.24683 36.666 7.2518C36.6436 7.26019 36.6213 7.26827 36.5995 7.2779C36.5852 7.28411 36.5712 7.29156 36.5573 7.2984C36.5374 7.30803 36.5175 7.31735 36.4986 7.32822C36.4815 7.33754 36.4653 7.34779 36.4492 7.35804C36.4336 7.36767 36.4178 7.37699 36.4029 7.38724C36.3839 7.40029 36.3659 7.41458 36.3479 7.42856C36.3361 7.43757 36.3243 7.44626 36.3128 7.45589C36.2942 7.47143 36.2761 7.4882 36.2584 7.50529C36.2485 7.51461 36.2382 7.52393 36.2286 7.53356C36.2121 7.55033 36.1966 7.56773 36.1814 7.58543C36.1708 7.59755 36.1603 7.60935 36.15 7.62178C36.1376 7.63731 36.1258 7.65378 36.114 7.67024C36.1022 7.68639 36.0904 7.70255 36.0792 7.71932C36.0702 7.7333 36.0621 7.74759 36.0534 7.76188C36.0413 7.78269 36.0292 7.80351 36.018 7.82525C36.0155 7.83022 36.0121 7.83488 36.0096 7.84016C36.0056 7.84824 36.0028 7.85663 35.9987 7.86501C35.9882 7.88769 35.9782 7.91037 35.9689 7.93367C35.963 7.94889 35.9577 7.9638 35.9524 7.97902C35.945 8.00015 35.9382 8.02127 35.9319 8.04301C35.9267 8.06134 35.922 8.07967 35.9176 8.09831C35.9136 8.11664 35.9096 8.13497 35.9062 8.1536C35.9021 8.17597 35.8987 8.19834 35.8959 8.2207C35.8937 8.23624 35.8922 8.25208 35.8906 8.26792C35.8884 8.29308 35.8875 8.31825 35.8869 8.3431C35.8866 8.35242 35.8853 8.36111 35.8853 8.37012V24.0366H21.4913C18.8601 24.0366 16.7198 26.1769 16.7198 28.8081C16.7198 29.677 16.9543 30.4915 17.3616 31.1938H16.7198C14.0886 31.1938 11.9483 33.3342 11.9483 35.9654C11.9483 36.8342 12.1828 37.6487 12.5901 38.3511H11.9483C9.3171 38.3511 7.17676 40.4915 7.17676 43.1226C7.17676 45.7538 9.3171 47.8941 11.9483 47.8941H34.8785C35.5371 47.8941 36.0714 47.3601 36.0714 46.7013C36.0714 46.0424 35.5371 45.5084 34.8785 45.5084H34.6925C33.3769 45.5084 32.3067 44.4382 32.3067 43.1226C32.3067 41.807 33.3769 40.7369 34.6925 40.7369H39.6501C40.3086 40.7369 40.8429 40.2029 40.8429 39.544C40.8429 38.8851 40.3086 38.3511 39.6501 38.3511H39.464C38.1484 38.3511 37.0782 37.2809 37.0782 35.9654C37.0782 34.6498 38.1484 33.5796 39.464 33.5796H44.4216C45.0801 33.5796 45.6144 33.0456 45.6144 32.3867C45.6144 31.7278 45.0801 31.1938 44.4216 31.1938H44.2355C42.9199 31.1938 41.8497 30.1237 41.8497 28.8081C41.8497 27.4925 42.9199 26.4223 44.2355 26.4223H44.4216C45.0801 26.4223 45.6144 25.8883 45.6144 25.2295C45.6144 24.5706 45.0801 24.0366 44.4216 24.0366H38.2711V18.6531L47.2307 14.2103C47.6367 14.009 47.8936 13.5949 47.8936 13.1416C47.8936 12.6884 47.6367 12.2743 47.2307 12.073ZM30.5612 45.5084H11.9483C10.6327 45.5084 9.56251 44.4382 9.56251 43.1226C9.56251 41.807 10.6327 40.721 11.9483 40.721H30.5612C30.1542 41.4231 29.921 42.2541 29.921 43.1226C29.921 43.9912 30.1542 44.8063 30.5612 45.5084ZM35.3327 38.3511C34.4688 38.3511 17.6169 38.3511 16.7198 38.3511C15.4042 38.3511 14.334 37.2809 14.334 35.9654C14.334 34.6498 15.4042 33.5638 16.7198 33.5638H35.3327C34.9258 34.2658 34.6925 35.0968 34.6925 35.9654C34.6925 36.8339 34.9258 37.6491 35.3327 38.3511ZM40.1042 31.1938C39.2403 31.1938 22.3884 31.1938 21.4913 31.1938C20.1757 31.1938 19.1055 30.1237 19.1055 28.8081C19.1055 27.4925 20.1757 26.4065 21.4913 26.4065H40.1042C39.6973 27.1086 39.464 27.9395 39.464 28.8081C39.464 29.6767 39.6973 30.4918 40.1042 31.1938ZM38.2711 15.9902V10.293L44.0155 13.1416L38.2711 15.9902Z"/>
</mask>
<path d="M47.2307 12.073L37.6082 7.3015C37.5998 7.29747 37.5914 7.29436 37.5833 7.29063C37.5607 7.28007 37.5377 7.26982 37.5144 7.26081C37.4995 7.25491 37.4845 7.24932 37.4696 7.24435C37.4482 7.23689 37.4271 7.23006 37.4053 7.22384C37.387 7.21856 37.3687 7.2139 37.3503 7.20955C37.3317 7.2052 37.3131 7.20117 37.2944 7.19775C37.2724 7.19371 37.2503 7.19029 37.2283 7.18781C37.2121 7.18563 37.1963 7.18377 37.1801 7.18253C37.1553 7.18035 37.1304 7.17911 37.1056 7.1788C37.0962 7.17849 37.0872 7.17725 37.0782 7.17725C37.0723 7.17725 37.0667 7.17818 37.0611 7.17818C37.0369 7.17849 37.0127 7.18004 36.9884 7.18191C36.972 7.18315 36.9555 7.18408 36.9394 7.18594C36.9192 7.18843 36.899 7.19185 36.8791 7.19526C36.8592 7.19868 36.8396 7.20179 36.8204 7.20583C36.8042 7.20955 36.7884 7.2139 36.7725 7.21825C36.7505 7.22415 36.7284 7.22975 36.7067 7.23689C36.693 7.24155 36.6797 7.24683 36.666 7.2518C36.6436 7.26019 36.6213 7.26827 36.5995 7.2779C36.5852 7.28411 36.5712 7.29156 36.5573 7.2984C36.5374 7.30803 36.5175 7.31735 36.4986 7.32822C36.4815 7.33754 36.4653 7.34779 36.4492 7.35804C36.4336 7.36767 36.4178 7.37699 36.4029 7.38724C36.3839 7.40029 36.3659 7.41458 36.3479 7.42856C36.3361 7.43757 36.3243 7.44626 36.3128 7.45589C36.2942 7.47143 36.2761 7.4882 36.2584 7.50529C36.2485 7.51461 36.2382 7.52393 36.2286 7.53356C36.2121 7.55033 36.1966 7.56773 36.1814 7.58543C36.1708 7.59755 36.1603 7.60935 36.15 7.62178C36.1376 7.63731 36.1258 7.65378 36.114 7.67024C36.1022 7.68639 36.0904 7.70255 36.0792 7.71932C36.0702 7.7333 36.0621 7.74759 36.0534 7.76188C36.0413 7.78269 36.0292 7.80351 36.018 7.82525C36.0155 7.83022 36.0121 7.83488 36.0096 7.84016C36.0056 7.84824 36.0028 7.85663 35.9987 7.86501C35.9882 7.88769 35.9782 7.91037 35.9689 7.93367C35.963 7.94889 35.9577 7.9638 35.9524 7.97902C35.945 8.00015 35.9382 8.02127 35.9319 8.04301C35.9267 8.06134 35.922 8.07967 35.9176 8.09831C35.9136 8.11664 35.9096 8.13497 35.9062 8.1536C35.9021 8.17597 35.8987 8.19834 35.8959 8.2207C35.8937 8.23624 35.8922 8.25208 35.8906 8.26792C35.8884 8.29308 35.8875 8.31825 35.8869 8.3431C35.8866 8.35242 35.8853 8.36111 35.8853 8.37012V24.0366H21.4913C18.8601 24.0366 16.7198 26.1769 16.7198 28.8081C16.7198 29.677 16.9543 30.4915 17.3616 31.1938H16.7198C14.0886 31.1938 11.9483 33.3342 11.9483 35.9654C11.9483 36.8342 12.1828 37.6487 12.5901 38.3511H11.9483C9.3171 38.3511 7.17676 40.4915 7.17676 43.1226C7.17676 45.7538 9.3171 47.8941 11.9483 47.8941H34.8785C35.5371 47.8941 36.0714 47.3601 36.0714 46.7013C36.0714 46.0424 35.5371 45.5084 34.8785 45.5084H34.6925C33.3769 45.5084 32.3067 44.4382 32.3067 43.1226C32.3067 41.807 33.3769 40.7369 34.6925 40.7369H39.6501C40.3086 40.7369 40.8429 40.2029 40.8429 39.544C40.8429 38.8851 40.3086 38.3511 39.6501 38.3511H39.464C38.1484 38.3511 37.0782 37.2809 37.0782 35.9654C37.0782 34.6498 38.1484 33.5796 39.464 33.5796H44.4216C45.0801 33.5796 45.6144 33.0456 45.6144 32.3867C45.6144 31.7278 45.0801 31.1938 44.4216 31.1938H44.2355C42.9199 31.1938 41.8497 30.1237 41.8497 28.8081C41.8497 27.4925 42.9199 26.4223 44.2355 26.4223H44.4216C45.0801 26.4223 45.6144 25.8883 45.6144 25.2295C45.6144 24.5706 45.0801 24.0366 44.4216 24.0366H38.2711V18.6531L47.2307 14.2103C47.6367 14.009 47.8936 13.5949 47.8936 13.1416C47.8936 12.6884 47.6367 12.2743 47.2307 12.073ZM30.5612 45.5084H11.9483C10.6327 45.5084 9.56251 44.4382 9.56251 43.1226C9.56251 41.807 10.6327 40.721 11.9483 40.721H30.5612C30.1542 41.4231 29.921 42.2541 29.921 43.1226C29.921 43.9912 30.1542 44.8063 30.5612 45.5084ZM35.3327 38.3511C34.4688 38.3511 17.6169 38.3511 16.7198 38.3511C15.4042 38.3511 14.334 37.2809 14.334 35.9654C14.334 34.6498 15.4042 33.5638 16.7198 33.5638H35.3327C34.9258 34.2658 34.6925 35.0968 34.6925 35.9654C34.6925 36.8339 34.9258 37.6491 35.3327 38.3511ZM40.1042 31.1938C39.2403 31.1938 22.3884 31.1938 21.4913 31.1938C20.1757 31.1938 19.1055 30.1237 19.1055 28.8081C19.1055 27.4925 20.1757 26.4065 21.4913 26.4065H40.1042C39.6973 27.1086 39.464 27.9395 39.464 28.8081C39.464 29.6767 39.6973 30.4918 40.1042 31.1938ZM38.2711 15.9902V10.293L44.0155 13.1416L38.2711 15.9902Z" stroke="#CC00FF" stroke-width="2.56392" mask="url(#path-1-inside-1_6223_1713)"/>
</g>
<g style="mix-blend-mode:hard-light" filter="url(#filter1_f_6223_1713)">
<mask id="path-2-inside-2_6223_1713" fill="white">
<path d="M47.2307 12.073L37.6082 7.3015C37.5998 7.29747 37.5914 7.29436 37.5833 7.29063C37.5607 7.28007 37.5377 7.26982 37.5144 7.26081C37.4995 7.25491 37.4845 7.24932 37.4696 7.24435C37.4482 7.23689 37.4271 7.23006 37.4053 7.22384C37.387 7.21856 37.3687 7.2139 37.3503 7.20955C37.3317 7.2052 37.3131 7.20117 37.2944 7.19775C37.2724 7.19371 37.2503 7.19029 37.2283 7.18781C37.2121 7.18563 37.1963 7.18377 37.1801 7.18253C37.1553 7.18035 37.1304 7.17911 37.1056 7.1788C37.0962 7.17849 37.0872 7.17725 37.0782 7.17725C37.0723 7.17725 37.0667 7.17818 37.0611 7.17818C37.0369 7.17849 37.0127 7.18004 36.9884 7.18191C36.972 7.18315 36.9555 7.18408 36.9394 7.18594C36.9192 7.18843 36.899 7.19185 36.8791 7.19526C36.8592 7.19868 36.8396 7.20179 36.8204 7.20583C36.8042 7.20955 36.7884 7.2139 36.7725 7.21825C36.7505 7.22415 36.7284 7.22975 36.7067 7.23689C36.693 7.24155 36.6797 7.24683 36.666 7.2518C36.6436 7.26019 36.6213 7.26827 36.5995 7.2779C36.5852 7.28411 36.5712 7.29156 36.5573 7.2984C36.5374 7.30803 36.5175 7.31735 36.4986 7.32822C36.4815 7.33754 36.4653 7.34779 36.4492 7.35804C36.4336 7.36767 36.4178 7.37699 36.4029 7.38724C36.3839 7.40029 36.3659 7.41458 36.3479 7.42856C36.3361 7.43757 36.3243 7.44626 36.3128 7.45589C36.2942 7.47143 36.2761 7.4882 36.2584 7.50529C36.2485 7.51461 36.2382 7.52393 36.2286 7.53356C36.2121 7.55033 36.1966 7.56773 36.1814 7.58543C36.1708 7.59755 36.1603 7.60935 36.15 7.62178C36.1376 7.63731 36.1258 7.65378 36.114 7.67024C36.1022 7.68639 36.0904 7.70255 36.0792 7.71932C36.0702 7.7333 36.0621 7.74759 36.0534 7.76188C36.0413 7.78269 36.0292 7.80351 36.018 7.82525C36.0155 7.83022 36.0121 7.83488 36.0096 7.84016C36.0056 7.84824 36.0028 7.85663 35.9987 7.86501C35.9882 7.88769 35.9782 7.91037 35.9689 7.93367C35.963 7.94889 35.9577 7.9638 35.9524 7.97902C35.945 8.00015 35.9382 8.02127 35.9319 8.04301C35.9267 8.06134 35.922 8.07967 35.9176 8.09831C35.9136 8.11664 35.9096 8.13497 35.9062 8.1536C35.9021 8.17597 35.8987 8.19834 35.8959 8.2207C35.8937 8.23624 35.8922 8.25208 35.8906 8.26792C35.8884 8.29308 35.8875 8.31825 35.8869 8.3431C35.8866 8.35242 35.8853 8.36111 35.8853 8.37012V24.0366H21.4913C18.8601 24.0366 16.7198 26.1769 16.7198 28.8081C16.7198 29.677 16.9543 30.4915 17.3616 31.1938H16.7198C14.0886 31.1938 11.9483 33.3342 11.9483 35.9654C11.9483 36.8342 12.1828 37.6487 12.5901 38.3511H11.9483C9.3171 38.3511 7.17676 40.4915 7.17676 43.1226C7.17676 45.7538 9.3171 47.8941 11.9483 47.8941H34.8785C35.5371 47.8941 36.0714 47.3601 36.0714 46.7013C36.0714 46.0424 35.5371 45.5084 34.8785 45.5084H34.6925C33.3769 45.5084 32.3067 44.4382 32.3067 43.1226C32.3067 41.807 33.3769 40.7369 34.6925 40.7369H39.6501C40.3086 40.7369 40.8429 40.2029 40.8429 39.544C40.8429 38.8851 40.3086 38.3511 39.6501 38.3511H39.464C38.1484 38.3511 37.0782 37.2809 37.0782 35.9654C37.0782 34.6498 38.1484 33.5796 39.464 33.5796H44.4216C45.0801 33.5796 45.6144 33.0456 45.6144 32.3867C45.6144 31.7278 45.0801 31.1938 44.4216 31.1938H44.2355C42.9199 31.1938 41.8497 30.1237 41.8497 28.8081C41.8497 27.4925 42.9199 26.4223 44.2355 26.4223H44.4216C45.0801 26.4223 45.6144 25.8883 45.6144 25.2295C45.6144 24.5706 45.0801 24.0366 44.4216 24.0366H38.2711V18.6531L47.2307 14.2103C47.6367 14.009 47.8936 13.5949 47.8936 13.1416C47.8936 12.6884 47.6367 12.2743 47.2307 12.073ZM30.5612 45.5084H11.9483C10.6327 45.5084 9.56251 44.4382 9.56251 43.1226C9.56251 41.807 10.6327 40.721 11.9483 40.721H30.5612C30.1542 41.4231 29.921 42.2541 29.921 43.1226C29.921 43.9912 30.1542 44.8063 30.5612 45.5084ZM35.3327 38.3511C34.4688 38.3511 17.6169 38.3511 16.7198 38.3511C15.4042 38.3511 14.334 37.2809 14.334 35.9654C14.334 34.6498 15.4042 33.5638 16.7198 33.5638H35.3327C34.9258 34.2658 34.6925 35.0968 34.6925 35.9654C34.6925 36.8339 34.9258 37.6491 35.3327 38.3511ZM40.1042 31.1938C39.2403 31.1938 22.3884 31.1938 21.4913 31.1938C20.1757 31.1938 19.1055 30.1237 19.1055 28.8081C19.1055 27.4925 20.1757 26.4065 21.4913 26.4065H40.1042C39.6973 27.1086 39.464 27.9395 39.464 28.8081C39.464 29.6767 39.6973 30.4918 40.1042 31.1938ZM38.2711 15.9902V10.293L44.0155 13.1416L38.2711 15.9902Z"/>
</mask>
<path d="M47.2307 12.073L37.6082 7.3015C37.5998 7.29747 37.5914 7.29436 37.5833 7.29063C37.5607 7.28007 37.5377 7.26982 37.5144 7.26081C37.4995 7.25491 37.4845 7.24932 37.4696 7.24435C37.4482 7.23689 37.4271 7.23006 37.4053 7.22384C37.387 7.21856 37.3687 7.2139 37.3503 7.20955C37.3317 7.2052 37.3131 7.20117 37.2944 7.19775C37.2724 7.19371 37.2503 7.19029 37.2283 7.18781C37.2121 7.18563 37.1963 7.18377 37.1801 7.18253C37.1553 7.18035 37.1304 7.17911 37.1056 7.1788C37.0962 7.17849 37.0872 7.17725 37.0782 7.17725C37.0723 7.17725 37.0667 7.17818 37.0611 7.17818C37.0369 7.17849 37.0127 7.18004 36.9884 7.18191C36.972 7.18315 36.9555 7.18408 36.9394 7.18594C36.9192 7.18843 36.899 7.19185 36.8791 7.19526C36.8592 7.19868 36.8396 7.20179 36.8204 7.20583C36.8042 7.20955 36.7884 7.2139 36.7725 7.21825C36.7505 7.22415 36.7284 7.22975 36.7067 7.23689C36.693 7.24155 36.6797 7.24683 36.666 7.2518C36.6436 7.26019 36.6213 7.26827 36.5995 7.2779C36.5852 7.28411 36.5712 7.29156 36.5573 7.2984C36.5374 7.30803 36.5175 7.31735 36.4986 7.32822C36.4815 7.33754 36.4653 7.34779 36.4492 7.35804C36.4336 7.36767 36.4178 7.37699 36.4029 7.38724C36.3839 7.40029 36.3659 7.41458 36.3479 7.42856C36.3361 7.43757 36.3243 7.44626 36.3128 7.45589C36.2942 7.47143 36.2761 7.4882 36.2584 7.50529C36.2485 7.51461 36.2382 7.52393 36.2286 7.53356C36.2121 7.55033 36.1966 7.56773 36.1814 7.58543C36.1708 7.59755 36.1603 7.60935 36.15 7.62178C36.1376 7.63731 36.1258 7.65378 36.114 7.67024C36.1022 7.68639 36.0904 7.70255 36.0792 7.71932C36.0702 7.7333 36.0621 7.74759 36.0534 7.76188C36.0413 7.78269 36.0292 7.80351 36.018 7.82525C36.0155 7.83022 36.0121 7.83488 36.0096 7.84016C36.0056 7.84824 36.0028 7.85663 35.9987 7.86501C35.9882 7.88769 35.9782 7.91037 35.9689 7.93367C35.963 7.94889 35.9577 7.9638 35.9524 7.97902C35.945 8.00015 35.9382 8.02127 35.9319 8.04301C35.9267 8.06134 35.922 8.07967 35.9176 8.09831C35.9136 8.11664 35.9096 8.13497 35.9062 8.1536C35.9021 8.17597 35.8987 8.19834 35.8959 8.2207C35.8937 8.23624 35.8922 8.25208 35.8906 8.26792C35.8884 8.29308 35.8875 8.31825 35.8869 8.3431C35.8866 8.35242 35.8853 8.36111 35.8853 8.37012V24.0366H21.4913C18.8601 24.0366 16.7198 26.1769 16.7198 28.8081C16.7198 29.677 16.9543 30.4915 17.3616 31.1938H16.7198C14.0886 31.1938 11.9483 33.3342 11.9483 35.9654C11.9483 36.8342 12.1828 37.6487 12.5901 38.3511H11.9483C9.3171 38.3511 7.17676 40.4915 7.17676 43.1226C7.17676 45.7538 9.3171 47.8941 11.9483 47.8941H34.8785C35.5371 47.8941 36.0714 47.3601 36.0714 46.7013C36.0714 46.0424 35.5371 45.5084 34.8785 45.5084H34.6925C33.3769 45.5084 32.3067 44.4382 32.3067 43.1226C32.3067 41.807 33.3769 40.7369 34.6925 40.7369H39.6501C40.3086 40.7369 40.8429 40.2029 40.8429 39.544C40.8429 38.8851 40.3086 38.3511 39.6501 38.3511H39.464C38.1484 38.3511 37.0782 37.2809 37.0782 35.9654C37.0782 34.6498 38.1484 33.5796 39.464 33.5796H44.4216C45.0801 33.5796 45.6144 33.0456 45.6144 32.3867C45.6144 31.7278 45.0801 31.1938 44.4216 31.1938H44.2355C42.9199 31.1938 41.8497 30.1237 41.8497 28.8081C41.8497 27.4925 42.9199 26.4223 44.2355 26.4223H44.4216C45.0801 26.4223 45.6144 25.8883 45.6144 25.2295C45.6144 24.5706 45.0801 24.0366 44.4216 24.0366H38.2711V18.6531L47.2307 14.2103C47.6367 14.009 47.8936 13.5949 47.8936 13.1416C47.8936 12.6884 47.6367 12.2743 47.2307 12.073ZM30.5612 45.5084H11.9483C10.6327 45.5084 9.56251 44.4382 9.56251 43.1226C9.56251 41.807 10.6327 40.721 11.9483 40.721H30.5612C30.1542 41.4231 29.921 42.2541 29.921 43.1226C29.921 43.9912 30.1542 44.8063 30.5612 45.5084ZM35.3327 38.3511C34.4688 38.3511 17.6169 38.3511 16.7198 38.3511C15.4042 38.3511 14.334 37.2809 14.334 35.9654C14.334 34.6498 15.4042 33.5638 16.7198 33.5638H35.3327C34.9258 34.2658 34.6925 35.0968 34.6925 35.9654C34.6925 36.8339 34.9258 37.6491 35.3327 38.3511ZM40.1042 31.1938C39.2403 31.1938 22.3884 31.1938 21.4913 31.1938C20.1757 31.1938 19.1055 30.1237 19.1055 28.8081C19.1055 27.4925 20.1757 26.4065 21.4913 26.4065H40.1042C39.6973 27.1086 39.464 27.9395 39.464 28.8081C39.464 29.6767 39.6973 30.4918 40.1042 31.1938ZM38.2711 15.9902V10.293L44.0155 13.1416L38.2711 15.9902Z" stroke="#CC00FF" stroke-width="3.35282" mask="url(#path-2-inside-2_6223_1713)"/>
</g>
<g style="mix-blend-mode:hard-light" filter="url(#filter2_ddi_6223_1713)">
<mask id="path-3-inside-3_6223_1713" fill="white">
<path d="M47.2307 12.073L37.6082 7.3015C37.5998 7.29747 37.5914 7.29436 37.5833 7.29063C37.5607 7.28007 37.5377 7.26982 37.5144 7.26081C37.4995 7.25491 37.4845 7.24932 37.4696 7.24435C37.4482 7.23689 37.4271 7.23006 37.4053 7.22384C37.387 7.21856 37.3687 7.2139 37.3503 7.20955C37.3317 7.2052 37.3131 7.20117 37.2944 7.19775C37.2724 7.19371 37.2503 7.19029 37.2283 7.18781C37.2121 7.18563 37.1963 7.18377 37.1801 7.18253C37.1553 7.18035 37.1304 7.17911 37.1056 7.1788C37.0962 7.17849 37.0872 7.17725 37.0782 7.17725C37.0723 7.17725 37.0667 7.17818 37.0611 7.17818C37.0369 7.17849 37.0127 7.18004 36.9884 7.18191C36.972 7.18315 36.9555 7.18408 36.9394 7.18594C36.9192 7.18843 36.899 7.19185 36.8791 7.19526C36.8592 7.19868 36.8396 7.20179 36.8204 7.20583C36.8042 7.20955 36.7884 7.2139 36.7725 7.21825C36.7505 7.22415 36.7284 7.22975 36.7067 7.23689C36.693 7.24155 36.6797 7.24683 36.666 7.2518C36.6436 7.26019 36.6213 7.26827 36.5995 7.2779C36.5852 7.28411 36.5712 7.29156 36.5573 7.2984C36.5374 7.30803 36.5175 7.31735 36.4986 7.32822C36.4815 7.33754 36.4653 7.34779 36.4492 7.35804C36.4336 7.36767 36.4178 7.37699 36.4029 7.38724C36.3839 7.40029 36.3659 7.41458 36.3479 7.42856C36.3361 7.43757 36.3243 7.44626 36.3128 7.45589C36.2942 7.47143 36.2761 7.4882 36.2584 7.50529C36.2485 7.51461 36.2382 7.52393 36.2286 7.53356C36.2121 7.55033 36.1966 7.56773 36.1814 7.58543C36.1708 7.59755 36.1603 7.60935 36.15 7.62178C36.1376 7.63731 36.1258 7.65378 36.114 7.67024C36.1022 7.68639 36.0904 7.70255 36.0792 7.71932C36.0702 7.7333 36.0621 7.74759 36.0534 7.76188C36.0413 7.78269 36.0292 7.80351 36.018 7.82525C36.0155 7.83022 36.0121 7.83488 36.0096 7.84016C36.0056 7.84824 36.0028 7.85663 35.9987 7.86501C35.9882 7.88769 35.9782 7.91037 35.9689 7.93367C35.963 7.94889 35.9577 7.9638 35.9524 7.97902C35.945 8.00015 35.9382 8.02127 35.9319 8.04301C35.9267 8.06134 35.922 8.07967 35.9176 8.09831C35.9136 8.11664 35.9096 8.13497 35.9062 8.1536C35.9021 8.17597 35.8987 8.19834 35.8959 8.2207C35.8937 8.23624 35.8922 8.25208 35.8906 8.26792C35.8884 8.29308 35.8875 8.31825 35.8869 8.3431C35.8866 8.35242 35.8853 8.36111 35.8853 8.37012V24.0366H21.4913C18.8601 24.0366 16.7198 26.1769 16.7198 28.8081C16.7198 29.677 16.9543 30.4915 17.3616 31.1938H16.7198C14.0886 31.1938 11.9483 33.3342 11.9483 35.9654C11.9483 36.8342 12.1828 37.6487 12.5901 38.3511H11.9483C9.3171 38.3511 7.17676 40.4915 7.17676 43.1226C7.17676 45.7538 9.3171 47.8941 11.9483 47.8941H34.8785C35.5371 47.8941 36.0714 47.3601 36.0714 46.7013C36.0714 46.0424 35.5371 45.5084 34.8785 45.5084H34.6925C33.3769 45.5084 32.3067 44.4382 32.3067 43.1226C32.3067 41.807 33.3769 40.7369 34.6925 40.7369H39.6501C40.3086 40.7369 40.8429 40.2029 40.8429 39.544C40.8429 38.8851 40.3086 38.3511 39.6501 38.3511H39.464C38.1484 38.3511 37.0782 37.2809 37.0782 35.9654C37.0782 34.6498 38.1484 33.5796 39.464 33.5796H44.4216C45.0801 33.5796 45.6144 33.0456 45.6144 32.3867C45.6144 31.7278 45.0801 31.1938 44.4216 31.1938H44.2355C42.9199 31.1938 41.8497 30.1237 41.8497 28.8081C41.8497 27.4925 42.9199 26.4223 44.2355 26.4223H44.4216C45.0801 26.4223 45.6144 25.8883 45.6144 25.2295C45.6144 24.5706 45.0801 24.0366 44.4216 24.0366H38.2711V18.6531L47.2307 14.2103C47.6367 14.009 47.8936 13.5949 47.8936 13.1416C47.8936 12.6884 47.6367 12.2743 47.2307 12.073ZM30.5612 45.5084H11.9483C10.6327 45.5084 9.56251 44.4382 9.56251 43.1226C9.56251 41.807 10.6327 40.721 11.9483 40.721H30.5612C30.1542 41.4231 29.921 42.2541 29.921 43.1226C29.921 43.9912 30.1542 44.8063 30.5612 45.5084ZM35.3327 38.3511C34.4688 38.3511 17.6169 38.3511 16.7198 38.3511C15.4042 38.3511 14.334 37.2809 14.334 35.9654C14.334 34.6498 15.4042 33.5638 16.7198 33.5638H35.3327C34.9258 34.2658 34.6925 35.0968 34.6925 35.9654C34.6925 36.8339 34.9258 37.6491 35.3327 38.3511ZM40.1042 31.1938C39.2403 31.1938 22.3884 31.1938 21.4913 31.1938C20.1757 31.1938 19.1055 30.1237 19.1055 28.8081C19.1055 27.4925 20.1757 26.4065 21.4913 26.4065H40.1042C39.6973 27.1086 39.464 27.9395 39.464 28.8081C39.464 29.6767 39.6973 30.4918 40.1042 31.1938ZM38.2711 15.9902V10.293L44.0155 13.1416L38.2711 15.9902Z"/>
</mask>
<path d="M47.2307 12.073L37.6082 7.3015C37.5998 7.29747 37.5914 7.29436 37.5833 7.29063C37.5607 7.28007 37.5377 7.26982 37.5144 7.26081C37.4995 7.25491 37.4845 7.24932 37.4696 7.24435C37.4482 7.23689 37.4271 7.23006 37.4053 7.22384C37.387 7.21856 37.3687 7.2139 37.3503 7.20955C37.3317 7.2052 37.3131 7.20117 37.2944 7.19775C37.2724 7.19371 37.2503 7.19029 37.2283 7.18781C37.2121 7.18563 37.1963 7.18377 37.1801 7.18253C37.1553 7.18035 37.1304 7.17911 37.1056 7.1788C37.0962 7.17849 37.0872 7.17725 37.0782 7.17725C37.0723 7.17725 37.0667 7.17818 37.0611 7.17818C37.0369 7.17849 37.0127 7.18004 36.9884 7.18191C36.972 7.18315 36.9555 7.18408 36.9394 7.18594C36.9192 7.18843 36.899 7.19185 36.8791 7.19526C36.8592 7.19868 36.8396 7.20179 36.8204 7.20583C36.8042 7.20955 36.7884 7.2139 36.7725 7.21825C36.7505 7.22415 36.7284 7.22975 36.7067 7.23689C36.693 7.24155 36.6797 7.24683 36.666 7.2518C36.6436 7.26019 36.6213 7.26827 36.5995 7.2779C36.5852 7.28411 36.5712 7.29156 36.5573 7.2984C36.5374 7.30803 36.5175 7.31735 36.4986 7.32822C36.4815 7.33754 36.4653 7.34779 36.4492 7.35804C36.4336 7.36767 36.4178 7.37699 36.4029 7.38724C36.3839 7.40029 36.3659 7.41458 36.3479 7.42856C36.3361 7.43757 36.3243 7.44626 36.3128 7.45589C36.2942 7.47143 36.2761 7.4882 36.2584 7.50529C36.2485 7.51461 36.2382 7.52393 36.2286 7.53356C36.2121 7.55033 36.1966 7.56773 36.1814 7.58543C36.1708 7.59755 36.1603 7.60935 36.15 7.62178C36.1376 7.63731 36.1258 7.65378 36.114 7.67024C36.1022 7.68639 36.0904 7.70255 36.0792 7.71932C36.0702 7.7333 36.0621 7.74759 36.0534 7.76188C36.0413 7.78269 36.0292 7.80351 36.018 7.82525C36.0155 7.83022 36.0121 7.83488 36.0096 7.84016C36.0056 7.84824 36.0028 7.85663 35.9987 7.86501C35.9882 7.88769 35.9782 7.91037 35.9689 7.93367C35.963 7.94889 35.9577 7.9638 35.9524 7.97902C35.945 8.00015 35.9382 8.02127 35.9319 8.04301C35.9267 8.06134 35.922 8.07967 35.9176 8.09831C35.9136 8.11664 35.9096 8.13497 35.9062 8.1536C35.9021 8.17597 35.8987 8.19834 35.8959 8.2207C35.8937 8.23624 35.8922 8.25208 35.8906 8.26792C35.8884 8.29308 35.8875 8.31825 35.8869 8.3431C35.8866 8.35242 35.8853 8.36111 35.8853 8.37012V24.0366H21.4913C18.8601 24.0366 16.7198 26.1769 16.7198 28.8081C16.7198 29.677 16.9543 30.4915 17.3616 31.1938H16.7198C14.0886 31.1938 11.9483 33.3342 11.9483 35.9654C11.9483 36.8342 12.1828 37.6487 12.5901 38.3511H11.9483C9.3171 38.3511 7.17676 40.4915 7.17676 43.1226C7.17676 45.7538 9.3171 47.8941 11.9483 47.8941H34.8785C35.5371 47.8941 36.0714 47.3601 36.0714 46.7013C36.0714 46.0424 35.5371 45.5084 34.8785 45.5084H34.6925C33.3769 45.5084 32.3067 44.4382 32.3067 43.1226C32.3067 41.807 33.3769 40.7369 34.6925 40.7369H39.6501C40.3086 40.7369 40.8429 40.2029 40.8429 39.544C40.8429 38.8851 40.3086 38.3511 39.6501 38.3511H39.464C38.1484 38.3511 37.0782 37.2809 37.0782 35.9654C37.0782 34.6498 38.1484 33.5796 39.464 33.5796H44.4216C45.0801 33.5796 45.6144 33.0456 45.6144 32.3867C45.6144 31.7278 45.0801 31.1938 44.4216 31.1938H44.2355C42.9199 31.1938 41.8497 30.1237 41.8497 28.8081C41.8497 27.4925 42.9199 26.4223 44.2355 26.4223H44.4216C45.0801 26.4223 45.6144 25.8883 45.6144 25.2295C45.6144 24.5706 45.0801 24.0366 44.4216 24.0366H38.2711V18.6531L47.2307 14.2103C47.6367 14.009 47.8936 13.5949 47.8936 13.1416C47.8936 12.6884 47.6367 12.2743 47.2307 12.073ZM30.5612 45.5084H11.9483C10.6327 45.5084 9.56251 44.4382 9.56251 43.1226C9.56251 41.807 10.6327 40.721 11.9483 40.721H30.5612C30.1542 41.4231 29.921 42.2541 29.921 43.1226C29.921 43.9912 30.1542 44.8063 30.5612 45.5084ZM35.3327 38.3511C34.4688 38.3511 17.6169 38.3511 16.7198 38.3511C15.4042 38.3511 14.334 37.2809 14.334 35.9654C14.334 34.6498 15.4042 33.5638 16.7198 33.5638H35.3327C34.9258 34.2658 34.6925 35.0968 34.6925 35.9654C34.6925 36.8339 34.9258 37.6491 35.3327 38.3511ZM40.1042 31.1938C39.2403 31.1938 22.3884 31.1938 21.4913 31.1938C20.1757 31.1938 19.1055 30.1237 19.1055 28.8081C19.1055 27.4925 20.1757 26.4065 21.4913 26.4065H40.1042C39.6973 27.1086 39.464 27.9395 39.464 28.8081C39.464 29.6767 39.6973 30.4918 40.1042 31.1938ZM38.2711 15.9902V10.293L44.0155 13.1416L38.2711 15.9902Z" stroke="#6100FF" stroke-opacity="0.2" stroke-width="2.56392" mask="url(#path-3-inside-3_6223_1713)"/>
</g>
<g filter="url(#filter3_f_6223_1713)">
<mask id="path-4-inside-4_6223_1713" fill="white">
<path d="M47.2307 12.073L37.6082 7.3015C37.5998 7.29747 37.5914 7.29436 37.5833 7.29063C37.5607 7.28007 37.5377 7.26982 37.5144 7.26081C37.4995 7.25491 37.4845 7.24932 37.4696 7.24435C37.4482 7.23689 37.4271 7.23006 37.4053 7.22384C37.387 7.21856 37.3687 7.2139 37.3503 7.20955C37.3317 7.2052 37.3131 7.20117 37.2944 7.19775C37.2724 7.19371 37.2503 7.19029 37.2283 7.18781C37.2121 7.18563 37.1963 7.18377 37.1801 7.18253C37.1553 7.18035 37.1304 7.17911 37.1056 7.1788C37.0962 7.17849 37.0872 7.17725 37.0782 7.17725C37.0723 7.17725 37.0667 7.17818 37.0611 7.17818C37.0369 7.17849 37.0127 7.18004 36.9884 7.18191C36.972 7.18315 36.9555 7.18408 36.9394 7.18594C36.9192 7.18843 36.899 7.19185 36.8791 7.19526C36.8592 7.19868 36.8396 7.20179 36.8204 7.20583C36.8042 7.20955 36.7884 7.2139 36.7725 7.21825C36.7505 7.22415 36.7284 7.22975 36.7067 7.23689C36.693 7.24155 36.6797 7.24683 36.666 7.2518C36.6436 7.26019 36.6213 7.26827 36.5995 7.2779C36.5852 7.28411 36.5712 7.29156 36.5573 7.2984C36.5374 7.30803 36.5175 7.31735 36.4986 7.32822C36.4815 7.33754 36.4653 7.34779 36.4492 7.35804C36.4336 7.36767 36.4178 7.37699 36.4029 7.38724C36.3839 7.40029 36.3659 7.41458 36.3479 7.42856C36.3361 7.43757 36.3243 7.44626 36.3128 7.45589C36.2942 7.47143 36.2761 7.4882 36.2584 7.50529C36.2485 7.51461 36.2382 7.52393 36.2286 7.53356C36.2121 7.55033 36.1966 7.56773 36.1814 7.58543C36.1708 7.59755 36.1603 7.60935 36.15 7.62178C36.1376 7.63731 36.1258 7.65378 36.114 7.67024C36.1022 7.68639 36.0904 7.70255 36.0792 7.71932C36.0702 7.7333 36.0621 7.74759 36.0534 7.76188C36.0413 7.78269 36.0292 7.80351 36.018 7.82525C36.0155 7.83022 36.0121 7.83488 36.0096 7.84016C36.0056 7.84824 36.0028 7.85663 35.9987 7.86501C35.9882 7.88769 35.9782 7.91037 35.9689 7.93367C35.963 7.94889 35.9577 7.9638 35.9524 7.97902C35.945 8.00015 35.9382 8.02127 35.9319 8.04301C35.9267 8.06134 35.922 8.07967 35.9176 8.09831C35.9136 8.11664 35.9096 8.13497 35.9062 8.1536C35.9021 8.17597 35.8987 8.19834 35.8959 8.2207C35.8937 8.23624 35.8922 8.25208 35.8906 8.26792C35.8884 8.29308 35.8875 8.31825 35.8869 8.3431C35.8866 8.35242 35.8853 8.36111 35.8853 8.37012V24.0366H21.4913C18.8601 24.0366 16.7198 26.1769 16.7198 28.8081C16.7198 29.677 16.9543 30.4915 17.3616 31.1938H16.7198C14.0886 31.1938 11.9483 33.3342 11.9483 35.9654C11.9483 36.8342 12.1828 37.6487 12.5901 38.3511H11.9483C9.3171 38.3511 7.17676 40.4915 7.17676 43.1226C7.17676 45.7538 9.3171 47.8941 11.9483 47.8941H34.8785C35.5371 47.8941 36.0714 47.3601 36.0714 46.7013C36.0714 46.0424 35.5371 45.5084 34.8785 45.5084H34.6925C33.3769 45.5084 32.3067 44.4382 32.3067 43.1226C32.3067 41.807 33.3769 40.7369 34.6925 40.7369H39.6501C40.3086 40.7369 40.8429 40.2029 40.8429 39.544C40.8429 38.8851 40.3086 38.3511 39.6501 38.3511H39.464C38.1484 38.3511 37.0782 37.2809 37.0782 35.9654C37.0782 34.6498 38.1484 33.5796 39.464 33.5796H44.4216C45.0801 33.5796 45.6144 33.0456 45.6144 32.3867C45.6144 31.7278 45.0801 31.1938 44.4216 31.1938H44.2355C42.9199 31.1938 41.8497 30.1237 41.8497 28.8081C41.8497 27.4925 42.9199 26.4223 44.2355 26.4223H44.4216C45.0801 26.4223 45.6144 25.8883 45.6144 25.2295C45.6144 24.5706 45.0801 24.0366 44.4216 24.0366H38.2711V18.6531L47.2307 14.2103C47.6367 14.009 47.8936 13.5949 47.8936 13.1416C47.8936 12.6884 47.6367 12.2743 47.2307 12.073ZM30.5612 45.5084H11.9483C10.6327 45.5084 9.56251 44.4382 9.56251 43.1226C9.56251 41.807 10.6327 40.721 11.9483 40.721H30.5612C30.1542 41.4231 29.921 42.2541 29.921 43.1226C29.921 43.9912 30.1542 44.8063 30.5612 45.5084ZM35.3327 38.3511C34.4688 38.3511 17.6169 38.3511 16.7198 38.3511C15.4042 38.3511 14.334 37.2809 14.334 35.9654C14.334 34.6498 15.4042 33.5638 16.7198 33.5638H35.3327C34.9258 34.2658 34.6925 35.0968 34.6925 35.9654C34.6925 36.8339 34.9258 37.6491 35.3327 38.3511ZM40.1042 31.1938C39.2403 31.1938 22.3884 31.1938 21.4913 31.1938C20.1757 31.1938 19.1055 30.1237 19.1055 28.8081C19.1055 27.4925 20.1757 26.4065 21.4913 26.4065H40.1042C39.6973 27.1086 39.464 27.9395 39.464 28.8081C39.464 29.6767 39.6973 30.4918 40.1042 31.1938ZM38.2711 15.9902V10.293L44.0155 13.1416L38.2711 15.9902Z"/>
</mask>
<path d="M47.2307 12.073L37.6082 7.3015C37.5998 7.29747 37.5914 7.29436 37.5833 7.29063C37.5607 7.28007 37.5377 7.26982 37.5144 7.26081C37.4995 7.25491 37.4845 7.24932 37.4696 7.24435C37.4482 7.23689 37.4271 7.23006 37.4053 7.22384C37.387 7.21856 37.3687 7.2139 37.3503 7.20955C37.3317 7.2052 37.3131 7.20117 37.2944 7.19775C37.2724 7.19371 37.2503 7.19029 37.2283 7.18781C37.2121 7.18563 37.1963 7.18377 37.1801 7.18253C37.1553 7.18035 37.1304 7.17911 37.1056 7.1788C37.0962 7.17849 37.0872 7.17725 37.0782 7.17725C37.0723 7.17725 37.0667 7.17818 37.0611 7.17818C37.0369 7.17849 37.0127 7.18004 36.9884 7.18191C36.972 7.18315 36.9555 7.18408 36.9394 7.18594C36.9192 7.18843 36.899 7.19185 36.8791 7.19526C36.8592 7.19868 36.8396 7.20179 36.8204 7.20583C36.8042 7.20955 36.7884 7.2139 36.7725 7.21825C36.7505 7.22415 36.7284 7.22975 36.7067 7.23689C36.693 7.24155 36.6797 7.24683 36.666 7.2518C36.6436 7.26019 36.6213 7.26827 36.5995 7.2779C36.5852 7.28411 36.5712 7.29156 36.5573 7.2984C36.5374 7.30803 36.5175 7.31735 36.4986 7.32822C36.4815 7.33754 36.4653 7.34779 36.4492 7.35804C36.4336 7.36767 36.4178 7.37699 36.4029 7.38724C36.3839 7.40029 36.3659 7.41458 36.3479 7.42856C36.3361 7.43757 36.3243 7.44626 36.3128 7.45589C36.2942 7.47143 36.2761 7.4882 36.2584 7.50529C36.2485 7.51461 36.2382 7.52393 36.2286 7.53356C36.2121 7.55033 36.1966 7.56773 36.1814 7.58543C36.1708 7.59755 36.1603 7.60935 36.15 7.62178C36.1376 7.63731 36.1258 7.65378 36.114 7.67024C36.1022 7.68639 36.0904 7.70255 36.0792 7.71932C36.0702 7.7333 36.0621 7.74759 36.0534 7.76188C36.0413 7.78269 36.0292 7.80351 36.018 7.82525C36.0155 7.83022 36.0121 7.83488 36.0096 7.84016C36.0056 7.84824 36.0028 7.85663 35.9987 7.86501C35.9882 7.88769 35.9782 7.91037 35.9689 7.93367C35.963 7.94889 35.9577 7.9638 35.9524 7.97902C35.945 8.00015 35.9382 8.02127 35.9319 8.04301C35.9267 8.06134 35.922 8.07967 35.9176 8.09831C35.9136 8.11664 35.9096 8.13497 35.9062 8.1536C35.9021 8.17597 35.8987 8.19834 35.8959 8.2207C35.8937 8.23624 35.8922 8.25208 35.8906 8.26792C35.8884 8.29308 35.8875 8.31825 35.8869 8.3431C35.8866 8.35242 35.8853 8.36111 35.8853 8.37012V24.0366H21.4913C18.8601 24.0366 16.7198 26.1769 16.7198 28.8081C16.7198 29.677 16.9543 30.4915 17.3616 31.1938H16.7198C14.0886 31.1938 11.9483 33.3342 11.9483 35.9654C11.9483 36.8342 12.1828 37.6487 12.5901 38.3511H11.9483C9.3171 38.3511 7.17676 40.4915 7.17676 43.1226C7.17676 45.7538 9.3171 47.8941 11.9483 47.8941H34.8785C35.5371 47.8941 36.0714 47.3601 36.0714 46.7013C36.0714 46.0424 35.5371 45.5084 34.8785 45.5084H34.6925C33.3769 45.5084 32.3067 44.4382 32.3067 43.1226C32.3067 41.807 33.3769 40.7369 34.6925 40.7369H39.6501C40.3086 40.7369 40.8429 40.2029 40.8429 39.544C40.8429 38.8851 40.3086 38.3511 39.6501 38.3511H39.464C38.1484 38.3511 37.0782 37.2809 37.0782 35.9654C37.0782 34.6498 38.1484 33.5796 39.464 33.5796H44.4216C45.0801 33.5796 45.6144 33.0456 45.6144 32.3867C45.6144 31.7278 45.0801 31.1938 44.4216 31.1938H44.2355C42.9199 31.1938 41.8497 30.1237 41.8497 28.8081C41.8497 27.4925 42.9199 26.4223 44.2355 26.4223H44.4216C45.0801 26.4223 45.6144 25.8883 45.6144 25.2295C45.6144 24.5706 45.0801 24.0366 44.4216 24.0366H38.2711V18.6531L47.2307 14.2103C47.6367 14.009 47.8936 13.5949 47.8936 13.1416C47.8936 12.6884 47.6367 12.2743 47.2307 12.073ZM30.5612 45.5084H11.9483C10.6327 45.5084 9.56251 44.4382 9.56251 43.1226C9.56251 41.807 10.6327 40.721 11.9483 40.721H30.5612C30.1542 41.4231 29.921 42.2541 29.921 43.1226C29.921 43.9912 30.1542 44.8063 30.5612 45.5084ZM35.3327 38.3511C34.4688 38.3511 17.6169 38.3511 16.7198 38.3511C15.4042 38.3511 14.334 37.2809 14.334 35.9654C14.334 34.6498 15.4042 33.5638 16.7198 33.5638H35.3327C34.9258 34.2658 34.6925 35.0968 34.6925 35.9654C34.6925 36.8339 34.9258 37.6491 35.3327 38.3511ZM40.1042 31.1938C39.2403 31.1938 22.3884 31.1938 21.4913 31.1938C20.1757 31.1938 19.1055 30.1237 19.1055 28.8081C19.1055 27.4925 20.1757 26.4065 21.4913 26.4065H40.1042C39.6973 27.1086 39.464 27.9395 39.464 28.8081C39.464 29.6767 39.6973 30.4918 40.1042 31.1938ZM38.2711 15.9902V10.293L44.0155 13.1416L38.2711 15.9902Z" stroke="#C882FF" stroke-width="1.5778" mask="url(#path-4-inside-4_6223_1713)"/>
</g>
<g filter="url(#filter4_f_6223_1713)">
<mask id="path-5-inside-5_6223_1713" fill="white">
<path d="M47.2307 12.073L37.6082 7.3015C37.5998 7.29747 37.5914 7.29436 37.5833 7.29063C37.5607 7.28007 37.5377 7.26982 37.5144 7.26081C37.4995 7.25491 37.4845 7.24932 37.4696 7.24435C37.4482 7.23689 37.4271 7.23006 37.4053 7.22384C37.387 7.21856 37.3687 7.2139 37.3503 7.20955C37.3317 7.2052 37.3131 7.20117 37.2944 7.19775C37.2724 7.19371 37.2503 7.19029 37.2283 7.18781C37.2121 7.18563 37.1963 7.18377 37.1801 7.18253C37.1553 7.18035 37.1304 7.17911 37.1056 7.1788C37.0962 7.17849 37.0872 7.17725 37.0782 7.17725C37.0723 7.17725 37.0667 7.17818 37.0611 7.17818C37.0369 7.17849 37.0127 7.18004 36.9884 7.18191C36.972 7.18315 36.9555 7.18408 36.9394 7.18594C36.9192 7.18843 36.899 7.19185 36.8791 7.19526C36.8592 7.19868 36.8396 7.20179 36.8204 7.20583C36.8042 7.20955 36.7884 7.2139 36.7725 7.21825C36.7505 7.22415 36.7284 7.22975 36.7067 7.23689C36.693 7.24155 36.6797 7.24683 36.666 7.2518C36.6436 7.26019 36.6213 7.26827 36.5995 7.2779C36.5852 7.28411 36.5712 7.29156 36.5573 7.2984C36.5374 7.30803 36.5175 7.31735 36.4986 7.32822C36.4815 7.33754 36.4653 7.34779 36.4492 7.35804C36.4336 7.36767 36.4178 7.37699 36.4029 7.38724C36.3839 7.40029 36.3659 7.41458 36.3479 7.42856C36.3361 7.43757 36.3243 7.44626 36.3128 7.45589C36.2942 7.47143 36.2761 7.4882 36.2584 7.50529C36.2485 7.51461 36.2382 7.52393 36.2286 7.53356C36.2121 7.55033 36.1966 7.56773 36.1814 7.58543C36.1708 7.59755 36.1603 7.60935 36.15 7.62178C36.1376 7.63731 36.1258 7.65378 36.114 7.67024C36.1022 7.68639 36.0904 7.70255 36.0792 7.71932C36.0702 7.7333 36.0621 7.74759 36.0534 7.76188C36.0413 7.78269 36.0292 7.80351 36.018 7.82525C36.0155 7.83022 36.0121 7.83488 36.0096 7.84016C36.0056 7.84824 36.0028 7.85663 35.9987 7.86501C35.9882 7.88769 35.9782 7.91037 35.9689 7.93367C35.963 7.94889 35.9577 7.9638 35.9524 7.97902C35.945 8.00015 35.9382 8.02127 35.9319 8.04301C35.9267 8.06134 35.922 8.07967 35.9176 8.09831C35.9136 8.11664 35.9096 8.13497 35.9062 8.1536C35.9021 8.17597 35.8987 8.19834 35.8959 8.2207C35.8937 8.23624 35.8922 8.25208 35.8906 8.26792C35.8884 8.29308 35.8875 8.31825 35.8869 8.3431C35.8866 8.35242 35.8853 8.36111 35.8853 8.37012V24.0366H21.4913C18.8601 24.0366 16.7198 26.1769 16.7198 28.8081C16.7198 29.677 16.9543 30.4915 17.3616 31.1938H16.7198C14.0886 31.1938 11.9483 33.3342 11.9483 35.9654C11.9483 36.8342 12.1828 37.6487 12.5901 38.3511H11.9483C9.3171 38.3511 7.17676 40.4915 7.17676 43.1226C7.17676 45.7538 9.3171 47.8941 11.9483 47.8941H34.8785C35.5371 47.8941 36.0714 47.3601 36.0714 46.7013C36.0714 46.0424 35.5371 45.5084 34.8785 45.5084H34.6925C33.3769 45.5084 32.3067 44.4382 32.3067 43.1226C32.3067 41.807 33.3769 40.7369 34.6925 40.7369H39.6501C40.3086 40.7369 40.8429 40.2029 40.8429 39.544C40.8429 38.8851 40.3086 38.3511 39.6501 38.3511H39.464C38.1484 38.3511 37.0782 37.2809 37.0782 35.9654C37.0782 34.6498 38.1484 33.5796 39.464 33.5796H44.4216C45.0801 33.5796 45.6144 33.0456 45.6144 32.3867C45.6144 31.7278 45.0801 31.1938 44.4216 31.1938H44.2355C42.9199 31.1938 41.8497 30.1237 41.8497 28.8081C41.8497 27.4925 42.9199 26.4223 44.2355 26.4223H44.4216C45.0801 26.4223 45.6144 25.8883 45.6144 25.2295C45.6144 24.5706 45.0801 24.0366 44.4216 24.0366H38.2711V18.6531L47.2307 14.2103C47.6367 14.009 47.8936 13.5949 47.8936 13.1416C47.8936 12.6884 47.6367 12.2743 47.2307 12.073ZM30.5612 45.5084H11.9483C10.6327 45.5084 9.56251 44.4382 9.56251 43.1226C9.56251 41.807 10.6327 40.721 11.9483 40.721H30.5612C30.1542 41.4231 29.921 42.2541 29.921 43.1226C29.921 43.9912 30.1542 44.8063 30.5612 45.5084ZM35.3327 38.3511C34.4688 38.3511 17.6169 38.3511 16.7198 38.3511C15.4042 38.3511 14.334 37.2809 14.334 35.9654C14.334 34.6498 15.4042 33.5638 16.7198 33.5638H35.3327C34.9258 34.2658 34.6925 35.0968 34.6925 35.9654C34.6925 36.8339 34.9258 37.6491 35.3327 38.3511ZM40.1042 31.1938C39.2403 31.1938 22.3884 31.1938 21.4913 31.1938C20.1757 31.1938 19.1055 30.1237 19.1055 28.8081C19.1055 27.4925 20.1757 26.4065 21.4913 26.4065H40.1042C39.6973 27.1086 39.464 27.9395 39.464 28.8081C39.464 29.6767 39.6973 30.4918 40.1042 31.1938ZM38.2711 15.9902V10.293L44.0155 13.1416L38.2711 15.9902Z"/>
</mask>
<path d="M47.2307 12.073L37.6082 7.3015C37.5998 7.29747 37.5914 7.29436 37.5833 7.29063C37.5607 7.28007 37.5377 7.26982 37.5144 7.26081C37.4995 7.25491 37.4845 7.24932 37.4696 7.24435C37.4482 7.23689 37.4271 7.23006 37.4053 7.22384C37.387 7.21856 37.3687 7.2139 37.3503 7.20955C37.3317 7.2052 37.3131 7.20117 37.2944 7.19775C37.2724 7.19371 37.2503 7.19029 37.2283 7.18781C37.2121 7.18563 37.1963 7.18377 37.1801 7.18253C37.1553 7.18035 37.1304 7.17911 37.1056 7.1788C37.0962 7.17849 37.0872 7.17725 37.0782 7.17725C37.0723 7.17725 37.0667 7.17818 37.0611 7.17818C37.0369 7.17849 37.0127 7.18004 36.9884 7.18191C36.972 7.18315 36.9555 7.18408 36.9394 7.18594C36.9192 7.18843 36.899 7.19185 36.8791 7.19526C36.8592 7.19868 36.8396 7.20179 36.8204 7.20583C36.8042 7.20955 36.7884 7.2139 36.7725 7.21825C36.7505 7.22415 36.7284 7.22975 36.7067 7.23689C36.693 7.24155 36.6797 7.24683 36.666 7.2518C36.6436 7.26019 36.6213 7.26827 36.5995 7.2779C36.5852 7.28411 36.5712 7.29156 36.5573 7.2984C36.5374 7.30803 36.5175 7.31735 36.4986 7.32822C36.4815 7.33754 36.4653 7.34779 36.4492 7.35804C36.4336 7.36767 36.4178 7.37699 36.4029 7.38724C36.3839 7.40029 36.3659 7.41458 36.3479 7.42856C36.3361 7.43757 36.3243 7.44626 36.3128 7.45589C36.2942 7.47143 36.2761 7.4882 36.2584 7.50529C36.2485 7.51461 36.2382 7.52393 36.2286 7.53356C36.2121 7.55033 36.1966 7.56773 36.1814 7.58543C36.1708 7.59755 36.1603 7.60935 36.15 7.62178C36.1376 7.63731 36.1258 7.65378 36.114 7.67024C36.1022 7.68639 36.0904 7.70255 36.0792 7.71932C36.0702 7.7333 36.0621 7.74759 36.0534 7.76188C36.0413 7.78269 36.0292 7.80351 36.018 7.82525C36.0155 7.83022 36.0121 7.83488 36.0096 7.84016C36.0056 7.84824 36.0028 7.85663 35.9987 7.86501C35.9882 7.88769 35.9782 7.91037 35.9689 7.93367C35.963 7.94889 35.9577 7.9638 35.9524 7.97902C35.945 8.00015 35.9382 8.02127 35.9319 8.04301C35.9267 8.06134 35.922 8.07967 35.9176 8.09831C35.9136 8.11664 35.9096 8.13497 35.9062 8.1536C35.9021 8.17597 35.8987 8.19834 35.8959 8.2207C35.8937 8.23624 35.8922 8.25208 35.8906 8.26792C35.8884 8.29308 35.8875 8.31825 35.8869 8.3431C35.8866 8.35242 35.8853 8.36111 35.8853 8.37012V24.0366H21.4913C18.8601 24.0366 16.7198 26.1769 16.7198 28.8081C16.7198 29.677 16.9543 30.4915 17.3616 31.1938H16.7198C14.0886 31.1938 11.9483 33.3342 11.9483 35.9654C11.9483 36.8342 12.1828 37.6487 12.5901 38.3511H11.9483C9.3171 38.3511 7.17676 40.4915 7.17676 43.1226C7.17676 45.7538 9.3171 47.8941 11.9483 47.8941H34.8785C35.5371 47.8941 36.0714 47.3601 36.0714 46.7013C36.0714 46.0424 35.5371 45.5084 34.8785 45.5084H34.6925C33.3769 45.5084 32.3067 44.4382 32.3067 43.1226C32.3067 41.807 33.3769 40.7369 34.6925 40.7369H39.6501C40.3086 40.7369 40.8429 40.2029 40.8429 39.544C40.8429 38.8851 40.3086 38.3511 39.6501 38.3511H39.464C38.1484 38.3511 37.0782 37.2809 37.0782 35.9654C37.0782 34.6498 38.1484 33.5796 39.464 33.5796H44.4216C45.0801 33.5796 45.6144 33.0456 45.6144 32.3867C45.6144 31.7278 45.0801 31.1938 44.4216 31.1938H44.2355C42.9199 31.1938 41.8497 30.1237 41.8497 28.8081C41.8497 27.4925 42.9199 26.4223 44.2355 26.4223H44.4216C45.0801 26.4223 45.6144 25.8883 45.6144 25.2295C45.6144 24.5706 45.0801 24.0366 44.4216 24.0366H38.2711V18.6531L47.2307 14.2103C47.6367 14.009 47.8936 13.5949 47.8936 13.1416C47.8936 12.6884 47.6367 12.2743 47.2307 12.073ZM30.5612 45.5084H11.9483C10.6327 45.5084 9.56251 44.4382 9.56251 43.1226C9.56251 41.807 10.6327 40.721 11.9483 40.721H30.5612C30.1542 41.4231 29.921 42.2541 29.921 43.1226C29.921 43.9912 30.1542 44.8063 30.5612 45.5084ZM35.3327 38.3511C34.4688 38.3511 17.6169 38.3511 16.7198 38.3511C15.4042 38.3511 14.334 37.2809 14.334 35.9654C14.334 34.6498 15.4042 33.5638 16.7198 33.5638H35.3327C34.9258 34.2658 34.6925 35.0968 34.6925 35.9654C34.6925 36.8339 34.9258 37.6491 35.3327 38.3511ZM40.1042 31.1938C39.2403 31.1938 22.3884 31.1938 21.4913 31.1938C20.1757 31.1938 19.1055 30.1237 19.1055 28.8081C19.1055 27.4925 20.1757 26.4065 21.4913 26.4065H40.1042C39.6973 27.1086 39.464 27.9395 39.464 28.8081C39.464 29.6767 39.6973 30.4918 40.1042 31.1938ZM38.2711 15.9902V10.293L44.0155 13.1416L38.2711 15.9902Z" stroke="white" stroke-width="0.7889" mask="url(#path-5-inside-5_6223_1713)"/>
</g>
<defs>
<filter id="filter0_f_6223_1713" x="0.402081" y="0.402569" width="54.2662" height="54.2662" filterUnits="userSpaceOnUse" color-interpolation-filters="sRGB">
<feFlood flood-opacity="0" result="BackgroundImageFix"/>
<feBlend mode="normal" in="SourceGraphic" in2="BackgroundImageFix" result="shape"/>
<feGaussianBlur stdDeviation="3.38734" result="effect1_foregroundBlur_6223_1713"/>
</filter>
<filter id="filter1_f_6223_1713" x="4.91853" y="4.91902" width="45.2332" height="45.2332" filterUnits="userSpaceOnUse" color-interpolation-filters="sRGB">
<feFlood flood-opacity="0" result="BackgroundImageFix"/>
<feBlend mode="normal" in="SourceGraphic" in2="BackgroundImageFix" result="shape"/>
<feGaussianBlur stdDeviation="1.12911" result="effect1_foregroundBlur_6223_1713"/>
</filter>
<filter id="filter2_ddi_6223_1713" x="4.24106" y="6.49978" width="46.5882" height="46.5882" filterUnits="userSpaceOnUse" color-interpolation-filters="sRGB">
<feFlood flood-opacity="0" result="BackgroundImageFix"/>
<feColorMatrix in="SourceAlpha" type="matrix" values="0 0 0 0 0 0 0 0 0 0 0 0 0 0 0 0 0 0 127 0" result="hardAlpha"/>
<feOffset dy="1.28196"/>
<feGaussianBlur stdDeviation="0.493062"/>
<feColorMatrix type="matrix" values="0 0 0 0 0.055 0 0 0 0 0 0 0 0 0 0.082 0 0 0 0.7 0"/>
<feBlend mode="multiply" in2="BackgroundImageFix" result="effect1_dropShadow_6223_1713"/>
<feColorMatrix in="SourceAlpha" type="matrix" values="0 0 0 0 0 0 0 0 0 0 0 0 0 0 0 0 0 0 127 0" result="hardAlpha"/>
<feOffset dy="2.25823"/>
<feGaussianBlur stdDeviation="1.46785"/>
<feColorMatrix type="matrix" values="0 0 0 0 0.514 0 0 0 0 0 0 0 0 0 0.756 0 0 0 1 0"/>
<feBlend mode="color-dodge" in2="effect1_dropShadow_6223_1713" result="effect2_dropShadow_6223_1713"/>
<feBlend mode="normal" in="SourceGraphic" in2="effect2_dropShadow_6223_1713" result="shape"/>
<feColorMatrix in="SourceAlpha" type="matrix" values="0 0 0 0 0 0 0 0 0 0 0 0 0 0 0 0 0 0 127 0" result="hardAlpha"/>
<feOffset dx="-0.128196" dy="0.256392"/>
<feGaussianBlur stdDeviation="0.0640981"/>
<feComposite in2="hardAlpha" operator="arithmetic" k2="-1" k3="1"/>
<feColorMatrix type="matrix" values="0 0 0 0 1 0 0 0 0 1 0 0 0 0 1 0 0 0 0.5 0"/>
<feBlend mode="normal" in2="shape" result="effect3_innerShadow_6223_1713"/>
</filter>
<filter id="filter3_f_6223_1713" x="6.97953" y="6.98002" width="41.1112" height="41.1112" filterUnits="userSpaceOnUse" color-interpolation-filters="sRGB">
<feFlood flood-opacity="0" result="BackgroundImageFix"/>
<feBlend mode="normal" in="SourceGraphic" in2="BackgroundImageFix" result="shape"/>
<feGaussianBlur stdDeviation="0.0986125" result="effect1_foregroundBlur_6223_1713"/>
</filter>
<filter id="filter4_f_6223_1713" x="7.04527" y="7.04576" width="40.9798" height="40.9798" filterUnits="userSpaceOnUse" color-interpolation-filters="sRGB">
<feFlood flood-opacity="0" result="BackgroundImageFix"/>
<feBlend mode="normal" in="SourceGraphic" in2="BackgroundImageFix" result="shape"/>
<feGaussianBlur stdDeviation="0.0657417" result="effect1_foregroundBlur_6223_1713"/>
</filter>
</defs>
</svg>
