<svg width="53" height="53" viewBox="0 0 53 53" fill="none" xmlns="http://www.w3.org/2000/svg">
<g style="mix-blend-mode:hard-light" filter="url(#filter0_f_6223_1706)">
<mask id="path-1-inside-1_6223_1706" fill="white">
<path d="M46.9605 21.6832C46.9605 21.4038 46.9055 21.1272 46.7986 20.8691C46.6916 20.611 46.5349 20.3765 46.3374 20.1789C46.1399 19.9814 45.9053 19.8247 45.6472 19.7178C45.3891 19.6108 45.1125 19.5558 44.8331 19.5558H37.1745C36.6103 19.5558 36.0692 19.7799 35.6702 20.1789C35.2713 20.5779 35.0471 21.119 35.0471 21.6832C35.0471 24.5679 34.9535 24.8147 35.4811 25.5125C35.2024 25.88 35.0502 26.3278 35.0471 26.7889C35.0471 29.6737 34.9535 29.9204 35.4811 30.6182C34.9365 31.3415 35.0471 31.6904 35.0471 34.4475C35.0502 34.9087 35.2024 35.3565 35.4811 35.7239C35.2024 36.0914 35.0502 36.5392 35.0471 37.0004C35.0471 39.8851 34.9535 40.1319 35.4811 40.8297C34.9365 41.553 35.0471 41.9019 35.0471 44.659C35.0471 44.9383 35.1022 45.215 35.2091 45.4731C35.316 45.7312 35.4727 45.9657 35.6702 46.1633C35.8678 46.3608 36.1023 46.5175 36.3604 46.6244C36.6185 46.7313 36.8951 46.7863 37.1745 46.7863H44.8331C45.1125 46.7863 45.3891 46.7313 45.6472 46.6244C45.9053 46.5175 46.1399 46.3608 46.3374 46.1633C46.5349 45.9657 46.6916 45.7312 46.7986 45.4731C46.9055 45.215 46.9605 44.9383 46.9605 44.659C46.9605 41.7742 47.0541 41.5274 46.5265 40.8297C46.8052 40.4622 46.9574 40.0144 46.9605 39.5532C46.9605 36.6685 47.0541 36.4217 46.5265 35.7239C47.0711 35.0006 46.9605 34.6517 46.9605 31.8946C46.9574 31.4335 46.8052 30.9857 46.5265 30.6182C46.8052 30.2508 46.9574 29.803 46.9605 29.3418C46.9605 26.4571 47.0541 26.2103 46.5265 25.5125C47.0711 24.7892 46.9605 24.4403 46.9605 21.6832ZM36.749 21.6832C36.749 21.5704 36.7939 21.4621 36.8737 21.3823C36.9535 21.3025 37.0617 21.2577 37.1745 21.2577H44.8331C45.3947 21.2577 45.2586 21.7002 45.2586 24.2361C45.2586 24.3489 45.2138 24.4571 45.134 24.5369C45.0542 24.6167 44.946 24.6615 44.8331 24.6615H37.1745C36.6129 24.6615 36.749 24.219 36.749 21.6832ZM45.2586 26.7889C45.2586 29.3418 45.3947 29.7673 44.8331 29.7673H37.1745C37.0617 29.7673 36.9535 29.7224 36.8737 29.6426C36.7939 29.5629 36.749 29.4546 36.749 29.3418C36.749 26.7889 36.6129 26.3634 37.1745 26.3634H44.8331C44.946 26.3634 45.0542 26.4083 45.134 26.4881C45.2138 26.5679 45.2586 26.6761 45.2586 26.7889ZM45.2586 31.8946C45.2586 34.4475 45.3947 34.873 44.8331 34.873H37.1745C37.0617 34.873 36.9535 34.8282 36.8737 34.7484C36.7939 34.6686 36.749 34.5604 36.749 34.4475C36.749 31.8946 36.6129 31.4692 37.1745 31.4692H44.8331C44.946 31.4692 45.0542 31.514 45.134 31.5938C45.2138 31.6736 45.2586 31.7818 45.2586 31.8946ZM45.2586 37.0004C45.2586 39.5532 45.3947 39.9787 44.8331 39.9787H37.1745C37.0617 39.9787 36.9535 39.9339 36.8737 39.8541C36.7939 39.7743 36.749 39.6661 36.749 39.5532C36.749 37.0004 36.6129 36.5749 37.1745 36.5749H44.8331C44.946 36.5749 45.0542 36.6197 45.134 36.6995C45.2138 36.7793 45.2586 36.8875 45.2586 37.0004ZM45.2586 44.659C45.2586 44.7718 45.2138 44.88 45.134 44.9598C45.0542 45.0396 44.946 45.0844 44.8331 45.0844H37.1745C36.6129 45.0844 36.749 44.6419 36.749 42.1061C36.749 41.9933 36.7939 41.885 36.8737 41.8052C36.9535 41.7254 37.0617 41.6806 37.1745 41.6806H44.8331C45.3947 41.6806 45.2586 42.1231 45.2586 44.659Z"/>
<path d="M30.3669 24.6615H22.7083C22.1441 24.6615 21.603 24.8857 21.204 25.2846C20.8051 25.6836 20.5809 26.2247 20.5809 26.7889C20.5809 29.6737 20.4873 29.9204 21.0149 30.6182C20.4703 31.3415 20.5809 31.6904 20.5809 34.4475C20.584 34.9087 20.7362 35.3565 21.0149 35.7239C20.7362 36.0914 20.584 36.5392 20.5809 37.0004C20.5809 39.8851 20.4873 40.1319 21.0149 40.8297C20.4703 41.553 20.5809 41.9019 20.5809 44.659C20.5809 44.9383 20.6359 45.215 20.7429 45.4731C20.8498 45.7312 21.0065 45.9657 21.204 46.1633C21.4016 46.3608 21.6361 46.5175 21.8942 46.6244C22.1523 46.7313 22.4289 46.7863 22.7083 46.7863H30.3669C30.6463 46.7863 30.9229 46.7313 31.181 46.6244C31.4391 46.5175 31.6736 46.3608 31.8712 46.1633C32.0687 45.9657 32.2254 45.7312 32.3323 45.4731C32.4392 45.215 32.4943 44.9383 32.4943 44.659C32.4943 41.7742 32.5879 41.5274 32.0603 40.8297C32.339 40.4622 32.4912 40.0144 32.4943 39.5532C32.4943 36.6685 32.5879 36.4217 32.0603 35.7239C32.6049 35.0006 32.4943 34.6517 32.4943 31.8946C32.4912 31.4335 32.339 30.9857 32.0603 30.6182C32.6049 29.8949 32.4943 29.546 32.4943 26.7889C32.4943 26.2247 32.2701 25.6836 31.8712 25.2846C31.4722 24.8857 30.9311 24.6615 30.3669 24.6615ZM22.2828 26.7889C22.2828 26.6761 22.3277 26.5679 22.4074 26.4881C22.4872 26.4083 22.5955 26.3634 22.7083 26.3634H30.3669C30.9285 26.3634 30.7924 26.8059 30.7924 29.3418C30.7924 29.4546 30.7475 29.5629 30.6677 29.6426C30.588 29.7224 30.4797 29.7673 30.3669 29.7673H22.7083C22.1467 29.7673 22.2828 29.3248 22.2828 26.7889ZM30.7924 31.8946C30.7924 34.4475 30.9285 34.873 30.3669 34.873H22.7083C22.5955 34.873 22.4872 34.8282 22.4074 34.7484C22.3277 34.6686 22.2828 34.5604 22.2828 34.4475C22.2828 31.8946 22.1467 31.4692 22.7083 31.4692H30.3669C30.4797 31.4692 30.588 31.514 30.6677 31.5938C30.7475 31.6736 30.7924 31.7818 30.7924 31.8946ZM30.7924 37.0004C30.7924 39.5532 30.9285 39.9787 30.3669 39.9787H22.7083C22.5955 39.9787 22.4872 39.9339 22.4074 39.8541C22.3277 39.7743 22.2828 39.6661 22.2828 39.5532C22.2828 37.0004 22.1467 36.5749 22.7083 36.5749H30.3669C30.4797 36.5749 30.588 36.6197 30.6677 36.6995C30.7475 36.7793 30.7924 36.8875 30.7924 37.0004ZM30.7924 44.659C30.7924 44.7718 30.7475 44.88 30.6677 44.9598C30.588 45.0396 30.4797 45.0844 30.3669 45.0844H22.7083C22.1467 45.0844 22.2828 44.6419 22.2828 42.1061C22.2828 41.9933 22.3277 41.885 22.4074 41.8052C22.4872 41.7254 22.5955 41.6806 22.7083 41.6806H30.3669C30.9285 41.6806 30.7924 42.1231 30.7924 44.659Z"/>
<path d="M12.0714 24.6615C10.8916 24.6698 9.74089 25.0281 8.76508 25.6912C7.78927 26.3543 7.03233 27.2922 6.59024 28.386C6.14816 29.4798 6.04084 30.6803 6.2819 31.8352C6.52295 32.99 7.10153 34.0473 7.94425 34.873C7.43233 34.9435 6.96383 35.1987 6.62689 35.5905C6.28994 35.9823 6.10779 36.4837 6.1147 37.0004C6.1147 39.8851 6.0211 40.1319 6.54869 40.8297C6.00408 41.553 6.1147 41.9019 6.1147 44.659C6.1147 44.9383 6.16973 45.215 6.27664 45.4731C6.38355 45.7312 6.54025 45.9657 6.7378 46.1633C6.93534 46.3608 7.16986 46.5175 7.42797 46.6244C7.68608 46.7313 7.96271 46.7863 8.24209 46.7863H15.9007C16.18 46.7863 16.4567 46.7313 16.7148 46.6244C16.9729 46.5175 17.2074 46.3608 17.405 46.1633C17.6025 45.9657 17.7592 45.7312 17.8661 45.4731C17.973 45.215 18.0281 44.9383 18.0281 44.659C18.0281 41.7742 18.1217 41.5274 17.5941 40.8297C18.1387 40.1064 18.0281 39.7575 18.0281 37.0004C18.035 36.4837 17.8528 35.9823 17.5159 35.5905C17.1789 35.1987 16.7104 34.9435 16.1985 34.873C17.0412 34.0473 17.6198 32.99 17.8609 31.8352C18.1019 30.6803 17.9946 29.4798 17.5525 28.386C17.1104 27.2922 16.3535 26.3543 15.3777 25.6912C14.4019 25.0281 13.2511 24.6698 12.0714 24.6615ZM7.81661 30.6182C7.81661 29.7767 8.06615 28.9541 8.53367 28.2544C9.00119 27.5547 9.66569 27.0094 10.4431 26.6873C11.2206 26.3653 12.0761 26.281 12.9014 26.4452C13.7268 26.6094 14.4849 27.0146 15.08 27.6096C15.675 28.2047 16.0802 28.9628 16.2444 29.7882C16.4086 30.6135 16.3243 31.469 16.0023 32.2464C15.6802 33.0239 15.1349 33.6884 14.4352 34.1559C13.7355 34.6235 12.9129 34.873 12.0714 34.873C10.9429 34.873 9.86073 34.4247 9.0628 33.6268C8.26488 32.8289 7.81661 31.7467 7.81661 30.6182ZM16.3261 44.659C16.3261 44.7718 16.2813 44.88 16.2015 44.9598C16.1217 45.0396 16.0135 45.0844 15.9007 45.0844H8.24209C7.68046 45.0844 7.81661 44.6419 7.81661 42.1061C7.81661 41.9933 7.86144 41.885 7.94123 41.8052C8.02102 41.7254 8.12924 41.6806 8.24209 41.6806H15.9007C16.4623 41.6806 16.3261 42.1231 16.3261 44.659ZM15.9007 36.5749C16.4623 36.5749 16.3261 37.0174 16.3261 39.5532C16.3261 39.6661 16.2813 39.7743 16.2015 39.8541C16.1217 39.9339 16.0135 39.9787 15.9007 39.9787H8.24209C7.68046 39.9787 7.81661 39.5362 7.81661 37.0004C7.81661 36.8875 7.86144 36.7793 7.94123 36.6995C8.02102 36.6197 8.12924 36.5749 8.24209 36.5749H15.9007Z"/>
<path d="M12.0714 22.1087C12.5139 22.1087 11.7735 22.6192 22.3254 13.8204L27.746 17.6922C27.894 17.8047 28.0748 17.8656 28.2608 17.8656C28.4467 17.8656 28.6276 17.8047 28.7756 17.6922L39.5657 9.03802L39.1402 10.7399C39.0849 10.9588 39.1189 11.1908 39.2346 11.3847C39.3503 11.5786 39.5383 11.7185 39.7572 11.7738C39.9761 11.8291 40.208 11.7952 40.4019 11.6795C40.5958 11.5638 40.7358 11.3758 40.7911 11.1569L41.8548 6.99573C41.8784 6.86778 41.8763 6.7364 41.8485 6.60928C41.8207 6.48216 41.7679 6.36186 41.6931 6.2554C41.3102 5.81291 41.3017 5.94055 36.749 6.10223C36.6373 6.10614 36.5274 6.13203 36.4257 6.1784C36.3239 6.22478 36.2323 6.29075 36.1561 6.37253C36.0021 6.5377 35.92 6.75728 35.9279 6.98297C35.9358 7.20866 36.033 7.42196 36.1982 7.57596C36.3633 7.72996 36.5829 7.81204 36.8086 7.80414L38.5105 7.74457L28.2395 15.9393L22.7764 12.0589C22.6276 11.9444 22.4451 11.8823 22.2573 11.8823C22.0695 11.8823 21.887 11.9444 21.7382 12.0589L11.5268 20.5685C11.3774 20.676 11.2669 20.8291 11.2119 21.0048C11.1569 21.1804 11.1603 21.3692 11.2217 21.5427C11.283 21.7163 11.399 21.8652 11.5522 21.9673C11.7054 22.0693 11.8876 22.1189 12.0714 22.1087Z"/>
</mask>
<path d="M46.9605 21.6832C46.9605 21.4038 46.9055 21.1272 46.7986 20.8691C46.6916 20.611 46.5349 20.3765 46.3374 20.1789C46.1399 19.9814 45.9053 19.8247 45.6472 19.7178C45.3891 19.6108 45.1125 19.5558 44.8331 19.5558H37.1745C36.6103 19.5558 36.0692 19.7799 35.6702 20.1789C35.2713 20.5779 35.0471 21.119 35.0471 21.6832C35.0471 24.5679 34.9535 24.8147 35.4811 25.5125C35.2024 25.88 35.0502 26.3278 35.0471 26.7889C35.0471 29.6737 34.9535 29.9204 35.4811 30.6182C34.9365 31.3415 35.0471 31.6904 35.0471 34.4475C35.0502 34.9087 35.2024 35.3565 35.4811 35.7239C35.2024 36.0914 35.0502 36.5392 35.0471 37.0004C35.0471 39.8851 34.9535 40.1319 35.4811 40.8297C34.9365 41.553 35.0471 41.9019 35.0471 44.659C35.0471 44.9383 35.1022 45.215 35.2091 45.4731C35.316 45.7312 35.4727 45.9657 35.6702 46.1633C35.8678 46.3608 36.1023 46.5175 36.3604 46.6244C36.6185 46.7313 36.8951 46.7863 37.1745 46.7863H44.8331C45.1125 46.7863 45.3891 46.7313 45.6472 46.6244C45.9053 46.5175 46.1399 46.3608 46.3374 46.1633C46.5349 45.9657 46.6916 45.7312 46.7986 45.4731C46.9055 45.215 46.9605 44.9383 46.9605 44.659C46.9605 41.7742 47.0541 41.5274 46.5265 40.8297C46.8052 40.4622 46.9574 40.0144 46.9605 39.5532C46.9605 36.6685 47.0541 36.4217 46.5265 35.7239C47.0711 35.0006 46.9605 34.6517 46.9605 31.8946C46.9574 31.4335 46.8052 30.9857 46.5265 30.6182C46.8052 30.2508 46.9574 29.803 46.9605 29.3418C46.9605 26.4571 47.0541 26.2103 46.5265 25.5125C47.0711 24.7892 46.9605 24.4403 46.9605 21.6832ZM36.749 21.6832C36.749 21.5704 36.7939 21.4621 36.8737 21.3823C36.9535 21.3025 37.0617 21.2577 37.1745 21.2577H44.8331C45.3947 21.2577 45.2586 21.7002 45.2586 24.2361C45.2586 24.3489 45.2138 24.4571 45.134 24.5369C45.0542 24.6167 44.946 24.6615 44.8331 24.6615H37.1745C36.6129 24.6615 36.749 24.219 36.749 21.6832ZM45.2586 26.7889C45.2586 29.3418 45.3947 29.7673 44.8331 29.7673H37.1745C37.0617 29.7673 36.9535 29.7224 36.8737 29.6426C36.7939 29.5629 36.749 29.4546 36.749 29.3418C36.749 26.7889 36.6129 26.3634 37.1745 26.3634H44.8331C44.946 26.3634 45.0542 26.4083 45.134 26.4881C45.2138 26.5679 45.2586 26.6761 45.2586 26.7889ZM45.2586 31.8946C45.2586 34.4475 45.3947 34.873 44.8331 34.873H37.1745C37.0617 34.873 36.9535 34.8282 36.8737 34.7484C36.7939 34.6686 36.749 34.5604 36.749 34.4475C36.749 31.8946 36.6129 31.4692 37.1745 31.4692H44.8331C44.946 31.4692 45.0542 31.514 45.134 31.5938C45.2138 31.6736 45.2586 31.7818 45.2586 31.8946ZM45.2586 37.0004C45.2586 39.5532 45.3947 39.9787 44.8331 39.9787H37.1745C37.0617 39.9787 36.9535 39.9339 36.8737 39.8541C36.7939 39.7743 36.749 39.6661 36.749 39.5532C36.749 37.0004 36.6129 36.5749 37.1745 36.5749H44.8331C44.946 36.5749 45.0542 36.6197 45.134 36.6995C45.2138 36.7793 45.2586 36.8875 45.2586 37.0004ZM45.2586 44.659C45.2586 44.7718 45.2138 44.88 45.134 44.9598C45.0542 45.0396 44.946 45.0844 44.8331 45.0844H37.1745C36.6129 45.0844 36.749 44.6419 36.749 42.1061C36.749 41.9933 36.7939 41.885 36.8737 41.8052C36.9535 41.7254 37.0617 41.6806 37.1745 41.6806H44.8331C45.3947 41.6806 45.2586 42.1231 45.2586 44.659Z" stroke="#4BE9F3" stroke-width="1.96004" mask="url(#path-1-inside-1_6223_1706)"/>
<path d="M30.3669 24.6615H22.7083C22.1441 24.6615 21.603 24.8857 21.204 25.2846C20.8051 25.6836 20.5809 26.2247 20.5809 26.7889C20.5809 29.6737 20.4873 29.9204 21.0149 30.6182C20.4703 31.3415 20.5809 31.6904 20.5809 34.4475C20.584 34.9087 20.7362 35.3565 21.0149 35.7239C20.7362 36.0914 20.584 36.5392 20.5809 37.0004C20.5809 39.8851 20.4873 40.1319 21.0149 40.8297C20.4703 41.553 20.5809 41.9019 20.5809 44.659C20.5809 44.9383 20.6359 45.215 20.7429 45.4731C20.8498 45.7312 21.0065 45.9657 21.204 46.1633C21.4016 46.3608 21.6361 46.5175 21.8942 46.6244C22.1523 46.7313 22.4289 46.7863 22.7083 46.7863H30.3669C30.6463 46.7863 30.9229 46.7313 31.181 46.6244C31.4391 46.5175 31.6736 46.3608 31.8712 46.1633C32.0687 45.9657 32.2254 45.7312 32.3323 45.4731C32.4392 45.215 32.4943 44.9383 32.4943 44.659C32.4943 41.7742 32.5879 41.5274 32.0603 40.8297C32.339 40.4622 32.4912 40.0144 32.4943 39.5532C32.4943 36.6685 32.5879 36.4217 32.0603 35.7239C32.6049 35.0006 32.4943 34.6517 32.4943 31.8946C32.4912 31.4335 32.339 30.9857 32.0603 30.6182C32.6049 29.8949 32.4943 29.546 32.4943 26.7889C32.4943 26.2247 32.2701 25.6836 31.8712 25.2846C31.4722 24.8857 30.9311 24.6615 30.3669 24.6615ZM22.2828 26.7889C22.2828 26.6761 22.3277 26.5679 22.4074 26.4881C22.4872 26.4083 22.5955 26.3634 22.7083 26.3634H30.3669C30.9285 26.3634 30.7924 26.8059 30.7924 29.3418C30.7924 29.4546 30.7475 29.5629 30.6677 29.6426C30.588 29.7224 30.4797 29.7673 30.3669 29.7673H22.7083C22.1467 29.7673 22.2828 29.3248 22.2828 26.7889ZM30.7924 31.8946C30.7924 34.4475 30.9285 34.873 30.3669 34.873H22.7083C22.5955 34.873 22.4872 34.8282 22.4074 34.7484C22.3277 34.6686 22.2828 34.5604 22.2828 34.4475C22.2828 31.8946 22.1467 31.4692 22.7083 31.4692H30.3669C30.4797 31.4692 30.588 31.514 30.6677 31.5938C30.7475 31.6736 30.7924 31.7818 30.7924 31.8946ZM30.7924 37.0004C30.7924 39.5532 30.9285 39.9787 30.3669 39.9787H22.7083C22.5955 39.9787 22.4872 39.9339 22.4074 39.8541C22.3277 39.7743 22.2828 39.6661 22.2828 39.5532C22.2828 37.0004 22.1467 36.5749 22.7083 36.5749H30.3669C30.4797 36.5749 30.588 36.6197 30.6677 36.6995C30.7475 36.7793 30.7924 36.8875 30.7924 37.0004ZM30.7924 44.659C30.7924 44.7718 30.7475 44.88 30.6677 44.9598C30.588 45.0396 30.4797 45.0844 30.3669 45.0844H22.7083C22.1467 45.0844 22.2828 44.6419 22.2828 42.1061C22.2828 41.9933 22.3277 41.885 22.4074 41.8052C22.4872 41.7254 22.5955 41.6806 22.7083 41.6806H30.3669C30.9285 41.6806 30.7924 42.1231 30.7924 44.659Z" stroke="#4BE9F3" stroke-width="1.96004" mask="url(#path-1-inside-1_6223_1706)"/>
<path d="M12.0714 24.6615C10.8916 24.6698 9.74089 25.0281 8.76508 25.6912C7.78927 26.3543 7.03233 27.2922 6.59024 28.386C6.14816 29.4798 6.04084 30.6803 6.2819 31.8352C6.52295 32.99 7.10153 34.0473 7.94425 34.873C7.43233 34.9435 6.96383 35.1987 6.62689 35.5905C6.28994 35.9823 6.10779 36.4837 6.1147 37.0004C6.1147 39.8851 6.0211 40.1319 6.54869 40.8297C6.00408 41.553 6.1147 41.9019 6.1147 44.659C6.1147 44.9383 6.16973 45.215 6.27664 45.4731C6.38355 45.7312 6.54025 45.9657 6.7378 46.1633C6.93534 46.3608 7.16986 46.5175 7.42797 46.6244C7.68608 46.7313 7.96271 46.7863 8.24209 46.7863H15.9007C16.18 46.7863 16.4567 46.7313 16.7148 46.6244C16.9729 46.5175 17.2074 46.3608 17.405 46.1633C17.6025 45.9657 17.7592 45.7312 17.8661 45.4731C17.973 45.215 18.0281 44.9383 18.0281 44.659C18.0281 41.7742 18.1217 41.5274 17.5941 40.8297C18.1387 40.1064 18.0281 39.7575 18.0281 37.0004C18.035 36.4837 17.8528 35.9823 17.5159 35.5905C17.1789 35.1987 16.7104 34.9435 16.1985 34.873C17.0412 34.0473 17.6198 32.99 17.8609 31.8352C18.1019 30.6803 17.9946 29.4798 17.5525 28.386C17.1104 27.2922 16.3535 26.3543 15.3777 25.6912C14.4019 25.0281 13.2511 24.6698 12.0714 24.6615ZM7.81661 30.6182C7.81661 29.7767 8.06615 28.9541 8.53367 28.2544C9.00119 27.5547 9.66569 27.0094 10.4431 26.6873C11.2206 26.3653 12.0761 26.281 12.9014 26.4452C13.7268 26.6094 14.4849 27.0146 15.08 27.6096C15.675 28.2047 16.0802 28.9628 16.2444 29.7882C16.4086 30.6135 16.3243 31.469 16.0023 32.2464C15.6802 33.0239 15.1349 33.6884 14.4352 34.1559C13.7355 34.6235 12.9129 34.873 12.0714 34.873C10.9429 34.873 9.86073 34.4247 9.0628 33.6268C8.26488 32.8289 7.81661 31.7467 7.81661 30.6182ZM16.3261 44.659C16.3261 44.7718 16.2813 44.88 16.2015 44.9598C16.1217 45.0396 16.0135 45.0844 15.9007 45.0844H8.24209C7.68046 45.0844 7.81661 44.6419 7.81661 42.1061C7.81661 41.9933 7.86144 41.885 7.94123 41.8052C8.02102 41.7254 8.12924 41.6806 8.24209 41.6806H15.9007C16.4623 41.6806 16.3261 42.1231 16.3261 44.659ZM15.9007 36.5749C16.4623 36.5749 16.3261 37.0174 16.3261 39.5532C16.3261 39.6661 16.2813 39.7743 16.2015 39.8541C16.1217 39.9339 16.0135 39.9787 15.9007 39.9787H8.24209C7.68046 39.9787 7.81661 39.5362 7.81661 37.0004C7.81661 36.8875 7.86144 36.7793 7.94123 36.6995C8.02102 36.6197 8.12924 36.5749 8.24209 36.5749H15.9007Z" stroke="#4BE9F3" stroke-width="1.96004" mask="url(#path-1-inside-1_6223_1706)"/>
<path d="M12.0714 22.1087C12.5139 22.1087 11.7735 22.6192 22.3254 13.8204L27.746 17.6922C27.894 17.8047 28.0748 17.8656 28.2608 17.8656C28.4467 17.8656 28.6276 17.8047 28.7756 17.6922L39.5657 9.03802L39.1402 10.7399C39.0849 10.9588 39.1189 11.1908 39.2346 11.3847C39.3503 11.5786 39.5383 11.7185 39.7572 11.7738C39.9761 11.8291 40.208 11.7952 40.4019 11.6795C40.5958 11.5638 40.7358 11.3758 40.7911 11.1569L41.8548 6.99573C41.8784 6.86778 41.8763 6.7364 41.8485 6.60928C41.8207 6.48216 41.7679 6.36186 41.6931 6.2554C41.3102 5.81291 41.3017 5.94055 36.749 6.10223C36.6373 6.10614 36.5274 6.13203 36.4257 6.1784C36.3239 6.22478 36.2323 6.29075 36.1561 6.37253C36.0021 6.5377 35.92 6.75728 35.9279 6.98297C35.9358 7.20866 36.033 7.42196 36.1982 7.57596C36.3633 7.72996 36.5829 7.81204 36.8086 7.80414L38.5105 7.74457L28.2395 15.9393L22.7764 12.0589C22.6276 11.9444 22.4451 11.8823 22.2573 11.8823C22.0695 11.8823 21.887 11.9444 21.7382 12.0589L11.5268 20.5685C11.3774 20.676 11.2669 20.8291 11.2119 21.0048C11.1569 21.1804 11.1603 21.3692 11.2217 21.5427C11.283 21.7163 11.399 21.8652 11.5522 21.9673C11.7054 22.0693 11.8876 22.1189 12.0714 22.1087Z" stroke="#4BE9F3" stroke-width="1.96004" mask="url(#path-1-inside-1_6223_1706)"/>
</g>
<g style="mix-blend-mode:hard-light" filter="url(#filter1_f_6223_1706)">
<mask id="path-2-inside-2_6223_1706" fill="white">
<path d="M46.9605 21.6832C46.9605 21.4038 46.9055 21.1272 46.7986 20.8691C46.6916 20.611 46.5349 20.3765 46.3374 20.1789C46.1399 19.9814 45.9053 19.8247 45.6472 19.7178C45.3891 19.6108 45.1125 19.5558 44.8331 19.5558H37.1745C36.6103 19.5558 36.0692 19.7799 35.6702 20.1789C35.2713 20.5779 35.0471 21.119 35.0471 21.6832C35.0471 24.5679 34.9535 24.8147 35.4811 25.5125C35.2024 25.88 35.0502 26.3278 35.0471 26.7889C35.0471 29.6737 34.9535 29.9204 35.4811 30.6182C34.9365 31.3415 35.0471 31.6904 35.0471 34.4475C35.0502 34.9087 35.2024 35.3565 35.4811 35.7239C35.2024 36.0914 35.0502 36.5392 35.0471 37.0004C35.0471 39.8851 34.9535 40.1319 35.4811 40.8297C34.9365 41.553 35.0471 41.9019 35.0471 44.659C35.0471 44.9383 35.1022 45.215 35.2091 45.4731C35.316 45.7312 35.4727 45.9657 35.6702 46.1633C35.8678 46.3608 36.1023 46.5175 36.3604 46.6244C36.6185 46.7313 36.8951 46.7863 37.1745 46.7863H44.8331C45.1125 46.7863 45.3891 46.7313 45.6472 46.6244C45.9053 46.5175 46.1399 46.3608 46.3374 46.1633C46.5349 45.9657 46.6916 45.7312 46.7986 45.4731C46.9055 45.215 46.9605 44.9383 46.9605 44.659C46.9605 41.7742 47.0541 41.5274 46.5265 40.8297C46.8052 40.4622 46.9574 40.0144 46.9605 39.5532C46.9605 36.6685 47.0541 36.4217 46.5265 35.7239C47.0711 35.0006 46.9605 34.6517 46.9605 31.8946C46.9574 31.4335 46.8052 30.9857 46.5265 30.6182C46.8052 30.2508 46.9574 29.803 46.9605 29.3418C46.9605 26.4571 47.0541 26.2103 46.5265 25.5125C47.0711 24.7892 46.9605 24.4403 46.9605 21.6832ZM36.749 21.6832C36.749 21.5704 36.7939 21.4621 36.8737 21.3823C36.9535 21.3025 37.0617 21.2577 37.1745 21.2577H44.8331C45.3947 21.2577 45.2586 21.7002 45.2586 24.2361C45.2586 24.3489 45.2138 24.4571 45.134 24.5369C45.0542 24.6167 44.946 24.6615 44.8331 24.6615H37.1745C36.6129 24.6615 36.749 24.219 36.749 21.6832ZM45.2586 26.7889C45.2586 29.3418 45.3947 29.7673 44.8331 29.7673H37.1745C37.0617 29.7673 36.9535 29.7224 36.8737 29.6426C36.7939 29.5629 36.749 29.4546 36.749 29.3418C36.749 26.7889 36.6129 26.3634 37.1745 26.3634H44.8331C44.946 26.3634 45.0542 26.4083 45.134 26.4881C45.2138 26.5679 45.2586 26.6761 45.2586 26.7889ZM45.2586 31.8946C45.2586 34.4475 45.3947 34.873 44.8331 34.873H37.1745C37.0617 34.873 36.9535 34.8282 36.8737 34.7484C36.7939 34.6686 36.749 34.5604 36.749 34.4475C36.749 31.8946 36.6129 31.4692 37.1745 31.4692H44.8331C44.946 31.4692 45.0542 31.514 45.134 31.5938C45.2138 31.6736 45.2586 31.7818 45.2586 31.8946ZM45.2586 37.0004C45.2586 39.5532 45.3947 39.9787 44.8331 39.9787H37.1745C37.0617 39.9787 36.9535 39.9339 36.8737 39.8541C36.7939 39.7743 36.749 39.6661 36.749 39.5532C36.749 37.0004 36.6129 36.5749 37.1745 36.5749H44.8331C44.946 36.5749 45.0542 36.6197 45.134 36.6995C45.2138 36.7793 45.2586 36.8875 45.2586 37.0004ZM45.2586 44.659C45.2586 44.7718 45.2138 44.88 45.134 44.9598C45.0542 45.0396 44.946 45.0844 44.8331 45.0844H37.1745C36.6129 45.0844 36.749 44.6419 36.749 42.1061C36.749 41.9933 36.7939 41.885 36.8737 41.8052C36.9535 41.7254 37.0617 41.6806 37.1745 41.6806H44.8331C45.3947 41.6806 45.2586 42.1231 45.2586 44.659Z"/>
<path d="M30.3669 24.6615H22.7083C22.1441 24.6615 21.603 24.8857 21.204 25.2846C20.8051 25.6836 20.5809 26.2247 20.5809 26.7889C20.5809 29.6737 20.4873 29.9204 21.0149 30.6182C20.4703 31.3415 20.5809 31.6904 20.5809 34.4475C20.584 34.9087 20.7362 35.3565 21.0149 35.7239C20.7362 36.0914 20.584 36.5392 20.5809 37.0004C20.5809 39.8851 20.4873 40.1319 21.0149 40.8297C20.4703 41.553 20.5809 41.9019 20.5809 44.659C20.5809 44.9383 20.6359 45.215 20.7429 45.4731C20.8498 45.7312 21.0065 45.9657 21.204 46.1633C21.4016 46.3608 21.6361 46.5175 21.8942 46.6244C22.1523 46.7313 22.4289 46.7863 22.7083 46.7863H30.3669C30.6463 46.7863 30.9229 46.7313 31.181 46.6244C31.4391 46.5175 31.6736 46.3608 31.8712 46.1633C32.0687 45.9657 32.2254 45.7312 32.3323 45.4731C32.4392 45.215 32.4943 44.9383 32.4943 44.659C32.4943 41.7742 32.5879 41.5274 32.0603 40.8297C32.339 40.4622 32.4912 40.0144 32.4943 39.5532C32.4943 36.6685 32.5879 36.4217 32.0603 35.7239C32.6049 35.0006 32.4943 34.6517 32.4943 31.8946C32.4912 31.4335 32.339 30.9857 32.0603 30.6182C32.6049 29.8949 32.4943 29.546 32.4943 26.7889C32.4943 26.2247 32.2701 25.6836 31.8712 25.2846C31.4722 24.8857 30.9311 24.6615 30.3669 24.6615ZM22.2828 26.7889C22.2828 26.6761 22.3277 26.5679 22.4074 26.4881C22.4872 26.4083 22.5955 26.3634 22.7083 26.3634H30.3669C30.9285 26.3634 30.7924 26.8059 30.7924 29.3418C30.7924 29.4546 30.7475 29.5629 30.6677 29.6426C30.588 29.7224 30.4797 29.7673 30.3669 29.7673H22.7083C22.1467 29.7673 22.2828 29.3248 22.2828 26.7889ZM30.7924 31.8946C30.7924 34.4475 30.9285 34.873 30.3669 34.873H22.7083C22.5955 34.873 22.4872 34.8282 22.4074 34.7484C22.3277 34.6686 22.2828 34.5604 22.2828 34.4475C22.2828 31.8946 22.1467 31.4692 22.7083 31.4692H30.3669C30.4797 31.4692 30.588 31.514 30.6677 31.5938C30.7475 31.6736 30.7924 31.7818 30.7924 31.8946ZM30.7924 37.0004C30.7924 39.5532 30.9285 39.9787 30.3669 39.9787H22.7083C22.5955 39.9787 22.4872 39.9339 22.4074 39.8541C22.3277 39.7743 22.2828 39.6661 22.2828 39.5532C22.2828 37.0004 22.1467 36.5749 22.7083 36.5749H30.3669C30.4797 36.5749 30.588 36.6197 30.6677 36.6995C30.7475 36.7793 30.7924 36.8875 30.7924 37.0004ZM30.7924 44.659C30.7924 44.7718 30.7475 44.88 30.6677 44.9598C30.588 45.0396 30.4797 45.0844 30.3669 45.0844H22.7083C22.1467 45.0844 22.2828 44.6419 22.2828 42.1061C22.2828 41.9933 22.3277 41.885 22.4074 41.8052C22.4872 41.7254 22.5955 41.6806 22.7083 41.6806H30.3669C30.9285 41.6806 30.7924 42.1231 30.7924 44.659Z"/>
<path d="M12.0714 24.6615C10.8916 24.6698 9.74089 25.0281 8.76508 25.6912C7.78927 26.3543 7.03233 27.2922 6.59024 28.386C6.14816 29.4798 6.04084 30.6803 6.2819 31.8352C6.52295 32.99 7.10153 34.0473 7.94425 34.873C7.43233 34.9435 6.96383 35.1987 6.62689 35.5905C6.28994 35.9823 6.10779 36.4837 6.1147 37.0004C6.1147 39.8851 6.0211 40.1319 6.54869 40.8297C6.00408 41.553 6.1147 41.9019 6.1147 44.659C6.1147 44.9383 6.16973 45.215 6.27664 45.4731C6.38355 45.7312 6.54025 45.9657 6.7378 46.1633C6.93534 46.3608 7.16986 46.5175 7.42797 46.6244C7.68608 46.7313 7.96271 46.7863 8.24209 46.7863H15.9007C16.18 46.7863 16.4567 46.7313 16.7148 46.6244C16.9729 46.5175 17.2074 46.3608 17.405 46.1633C17.6025 45.9657 17.7592 45.7312 17.8661 45.4731C17.973 45.215 18.0281 44.9383 18.0281 44.659C18.0281 41.7742 18.1217 41.5274 17.5941 40.8297C18.1387 40.1064 18.0281 39.7575 18.0281 37.0004C18.035 36.4837 17.8528 35.9823 17.5159 35.5905C17.1789 35.1987 16.7104 34.9435 16.1985 34.873C17.0412 34.0473 17.6198 32.99 17.8609 31.8352C18.1019 30.6803 17.9946 29.4798 17.5525 28.386C17.1104 27.2922 16.3535 26.3543 15.3777 25.6912C14.4019 25.0281 13.2511 24.6698 12.0714 24.6615ZM7.81661 30.6182C7.81661 29.7767 8.06615 28.9541 8.53367 28.2544C9.00119 27.5547 9.66569 27.0094 10.4431 26.6873C11.2206 26.3653 12.0761 26.281 12.9014 26.4452C13.7268 26.6094 14.4849 27.0146 15.08 27.6096C15.675 28.2047 16.0802 28.9628 16.2444 29.7882C16.4086 30.6135 16.3243 31.469 16.0023 32.2464C15.6802 33.0239 15.1349 33.6884 14.4352 34.1559C13.7355 34.6235 12.9129 34.873 12.0714 34.873C10.9429 34.873 9.86073 34.4247 9.0628 33.6268C8.26488 32.8289 7.81661 31.7467 7.81661 30.6182ZM16.3261 44.659C16.3261 44.7718 16.2813 44.88 16.2015 44.9598C16.1217 45.0396 16.0135 45.0844 15.9007 45.0844H8.24209C7.68046 45.0844 7.81661 44.6419 7.81661 42.1061C7.81661 41.9933 7.86144 41.885 7.94123 41.8052C8.02102 41.7254 8.12924 41.6806 8.24209 41.6806H15.9007C16.4623 41.6806 16.3261 42.1231 16.3261 44.659ZM15.9007 36.5749C16.4623 36.5749 16.3261 37.0174 16.3261 39.5532C16.3261 39.6661 16.2813 39.7743 16.2015 39.8541C16.1217 39.9339 16.0135 39.9787 15.9007 39.9787H8.24209C7.68046 39.9787 7.81661 39.5362 7.81661 37.0004C7.81661 36.8875 7.86144 36.7793 7.94123 36.6995C8.02102 36.6197 8.12924 36.5749 8.24209 36.5749H15.9007Z"/>
<path d="M12.0714 22.1087C12.5139 22.1087 11.7735 22.6192 22.3254 13.8204L27.746 17.6922C27.894 17.8047 28.0748 17.8656 28.2608 17.8656C28.4467 17.8656 28.6276 17.8047 28.7756 17.6922L39.5657 9.03802L39.1402 10.7399C39.0849 10.9588 39.1189 11.1908 39.2346 11.3847C39.3503 11.5786 39.5383 11.7185 39.7572 11.7738C39.9761 11.8291 40.208 11.7952 40.4019 11.6795C40.5958 11.5638 40.7358 11.3758 40.7911 11.1569L41.8548 6.99573C41.8784 6.86778 41.8763 6.7364 41.8485 6.60928C41.8207 6.48216 41.7679 6.36186 41.6931 6.2554C41.3102 5.81291 41.3017 5.94055 36.749 6.10223C36.6373 6.10614 36.5274 6.13203 36.4257 6.1784C36.3239 6.22478 36.2323 6.29075 36.1561 6.37253C36.0021 6.5377 35.92 6.75728 35.9279 6.98297C35.9358 7.20866 36.033 7.42196 36.1982 7.57596C36.3633 7.72996 36.5829 7.81204 36.8086 7.80414L38.5105 7.74457L28.2395 15.9393L22.7764 12.0589C22.6276 11.9444 22.4451 11.8823 22.2573 11.8823C22.0695 11.8823 21.887 11.9444 21.7382 12.0589L11.5268 20.5685C11.3774 20.676 11.2669 20.8291 11.2119 21.0048C11.1569 21.1804 11.1603 21.3692 11.2217 21.5427C11.283 21.7163 11.399 21.8652 11.5522 21.9673C11.7054 22.0693 11.8876 22.1189 12.0714 22.1087Z"/>
</mask>
<path d="M46.9605 21.6832C46.9605 21.4038 46.9055 21.1272 46.7986 20.8691C46.6916 20.611 46.5349 20.3765 46.3374 20.1789C46.1399 19.9814 45.9053 19.8247 45.6472 19.7178C45.3891 19.6108 45.1125 19.5558 44.8331 19.5558H37.1745C36.6103 19.5558 36.0692 19.7799 35.6702 20.1789C35.2713 20.5779 35.0471 21.119 35.0471 21.6832C35.0471 24.5679 34.9535 24.8147 35.4811 25.5125C35.2024 25.88 35.0502 26.3278 35.0471 26.7889C35.0471 29.6737 34.9535 29.9204 35.4811 30.6182C34.9365 31.3415 35.0471 31.6904 35.0471 34.4475C35.0502 34.9087 35.2024 35.3565 35.4811 35.7239C35.2024 36.0914 35.0502 36.5392 35.0471 37.0004C35.0471 39.8851 34.9535 40.1319 35.4811 40.8297C34.9365 41.553 35.0471 41.9019 35.0471 44.659C35.0471 44.9383 35.1022 45.215 35.2091 45.4731C35.316 45.7312 35.4727 45.9657 35.6702 46.1633C35.8678 46.3608 36.1023 46.5175 36.3604 46.6244C36.6185 46.7313 36.8951 46.7863 37.1745 46.7863H44.8331C45.1125 46.7863 45.3891 46.7313 45.6472 46.6244C45.9053 46.5175 46.1399 46.3608 46.3374 46.1633C46.5349 45.9657 46.6916 45.7312 46.7986 45.4731C46.9055 45.215 46.9605 44.9383 46.9605 44.659C46.9605 41.7742 47.0541 41.5274 46.5265 40.8297C46.8052 40.4622 46.9574 40.0144 46.9605 39.5532C46.9605 36.6685 47.0541 36.4217 46.5265 35.7239C47.0711 35.0006 46.9605 34.6517 46.9605 31.8946C46.9574 31.4335 46.8052 30.9857 46.5265 30.6182C46.8052 30.2508 46.9574 29.803 46.9605 29.3418C46.9605 26.4571 47.0541 26.2103 46.5265 25.5125C47.0711 24.7892 46.9605 24.4403 46.9605 21.6832ZM36.749 21.6832C36.749 21.5704 36.7939 21.4621 36.8737 21.3823C36.9535 21.3025 37.0617 21.2577 37.1745 21.2577H44.8331C45.3947 21.2577 45.2586 21.7002 45.2586 24.2361C45.2586 24.3489 45.2138 24.4571 45.134 24.5369C45.0542 24.6167 44.946 24.6615 44.8331 24.6615H37.1745C36.6129 24.6615 36.749 24.219 36.749 21.6832ZM45.2586 26.7889C45.2586 29.3418 45.3947 29.7673 44.8331 29.7673H37.1745C37.0617 29.7673 36.9535 29.7224 36.8737 29.6426C36.7939 29.5629 36.749 29.4546 36.749 29.3418C36.749 26.7889 36.6129 26.3634 37.1745 26.3634H44.8331C44.946 26.3634 45.0542 26.4083 45.134 26.4881C45.2138 26.5679 45.2586 26.6761 45.2586 26.7889ZM45.2586 31.8946C45.2586 34.4475 45.3947 34.873 44.8331 34.873H37.1745C37.0617 34.873 36.9535 34.8282 36.8737 34.7484C36.7939 34.6686 36.749 34.5604 36.749 34.4475C36.749 31.8946 36.6129 31.4692 37.1745 31.4692H44.8331C44.946 31.4692 45.0542 31.514 45.134 31.5938C45.2138 31.6736 45.2586 31.7818 45.2586 31.8946ZM45.2586 37.0004C45.2586 39.5532 45.3947 39.9787 44.8331 39.9787H37.1745C37.0617 39.9787 36.9535 39.9339 36.8737 39.8541C36.7939 39.7743 36.749 39.6661 36.749 39.5532C36.749 37.0004 36.6129 36.5749 37.1745 36.5749H44.8331C44.946 36.5749 45.0542 36.6197 45.134 36.6995C45.2138 36.7793 45.2586 36.8875 45.2586 37.0004ZM45.2586 44.659C45.2586 44.7718 45.2138 44.88 45.134 44.9598C45.0542 45.0396 44.946 45.0844 44.8331 45.0844H37.1745C36.6129 45.0844 36.749 44.6419 36.749 42.1061C36.749 41.9933 36.7939 41.885 36.8737 41.8052C36.9535 41.7254 37.0617 41.6806 37.1745 41.6806H44.8331C45.3947 41.6806 45.2586 42.1231 45.2586 44.659Z" stroke="#65F6FF" stroke-width="3.4712" mask="url(#path-2-inside-2_6223_1706)"/>
<path d="M30.3669 24.6615H22.7083C22.1441 24.6615 21.603 24.8857 21.204 25.2846C20.8051 25.6836 20.5809 26.2247 20.5809 26.7889C20.5809 29.6737 20.4873 29.9204 21.0149 30.6182C20.4703 31.3415 20.5809 31.6904 20.5809 34.4475C20.584 34.9087 20.7362 35.3565 21.0149 35.7239C20.7362 36.0914 20.584 36.5392 20.5809 37.0004C20.5809 39.8851 20.4873 40.1319 21.0149 40.8297C20.4703 41.553 20.5809 41.9019 20.5809 44.659C20.5809 44.9383 20.6359 45.215 20.7429 45.4731C20.8498 45.7312 21.0065 45.9657 21.204 46.1633C21.4016 46.3608 21.6361 46.5175 21.8942 46.6244C22.1523 46.7313 22.4289 46.7863 22.7083 46.7863H30.3669C30.6463 46.7863 30.9229 46.7313 31.181 46.6244C31.4391 46.5175 31.6736 46.3608 31.8712 46.1633C32.0687 45.9657 32.2254 45.7312 32.3323 45.4731C32.4392 45.215 32.4943 44.9383 32.4943 44.659C32.4943 41.7742 32.5879 41.5274 32.0603 40.8297C32.339 40.4622 32.4912 40.0144 32.4943 39.5532C32.4943 36.6685 32.5879 36.4217 32.0603 35.7239C32.6049 35.0006 32.4943 34.6517 32.4943 31.8946C32.4912 31.4335 32.339 30.9857 32.0603 30.6182C32.6049 29.8949 32.4943 29.546 32.4943 26.7889C32.4943 26.2247 32.2701 25.6836 31.8712 25.2846C31.4722 24.8857 30.9311 24.6615 30.3669 24.6615ZM22.2828 26.7889C22.2828 26.6761 22.3277 26.5679 22.4074 26.4881C22.4872 26.4083 22.5955 26.3634 22.7083 26.3634H30.3669C30.9285 26.3634 30.7924 26.8059 30.7924 29.3418C30.7924 29.4546 30.7475 29.5629 30.6677 29.6426C30.588 29.7224 30.4797 29.7673 30.3669 29.7673H22.7083C22.1467 29.7673 22.2828 29.3248 22.2828 26.7889ZM30.7924 31.8946C30.7924 34.4475 30.9285 34.873 30.3669 34.873H22.7083C22.5955 34.873 22.4872 34.8282 22.4074 34.7484C22.3277 34.6686 22.2828 34.5604 22.2828 34.4475C22.2828 31.8946 22.1467 31.4692 22.7083 31.4692H30.3669C30.4797 31.4692 30.588 31.514 30.6677 31.5938C30.7475 31.6736 30.7924 31.7818 30.7924 31.8946ZM30.7924 37.0004C30.7924 39.5532 30.9285 39.9787 30.3669 39.9787H22.7083C22.5955 39.9787 22.4872 39.9339 22.4074 39.8541C22.3277 39.7743 22.2828 39.6661 22.2828 39.5532C22.2828 37.0004 22.1467 36.5749 22.7083 36.5749H30.3669C30.4797 36.5749 30.588 36.6197 30.6677 36.6995C30.7475 36.7793 30.7924 36.8875 30.7924 37.0004ZM30.7924 44.659C30.7924 44.7718 30.7475 44.88 30.6677 44.9598C30.588 45.0396 30.4797 45.0844 30.3669 45.0844H22.7083C22.1467 45.0844 22.2828 44.6419 22.2828 42.1061C22.2828 41.9933 22.3277 41.885 22.4074 41.8052C22.4872 41.7254 22.5955 41.6806 22.7083 41.6806H30.3669C30.9285 41.6806 30.7924 42.1231 30.7924 44.659Z" stroke="#65F6FF" stroke-width="3.4712" mask="url(#path-2-inside-2_6223_1706)"/>
<path d="M12.0714 24.6615C10.8916 24.6698 9.74089 25.0281 8.76508 25.6912C7.78927 26.3543 7.03233 27.2922 6.59024 28.386C6.14816 29.4798 6.04084 30.6803 6.2819 31.8352C6.52295 32.99 7.10153 34.0473 7.94425 34.873C7.43233 34.9435 6.96383 35.1987 6.62689 35.5905C6.28994 35.9823 6.10779 36.4837 6.1147 37.0004C6.1147 39.8851 6.0211 40.1319 6.54869 40.8297C6.00408 41.553 6.1147 41.9019 6.1147 44.659C6.1147 44.9383 6.16973 45.215 6.27664 45.4731C6.38355 45.7312 6.54025 45.9657 6.7378 46.1633C6.93534 46.3608 7.16986 46.5175 7.42797 46.6244C7.68608 46.7313 7.96271 46.7863 8.24209 46.7863H15.9007C16.18 46.7863 16.4567 46.7313 16.7148 46.6244C16.9729 46.5175 17.2074 46.3608 17.405 46.1633C17.6025 45.9657 17.7592 45.7312 17.8661 45.4731C17.973 45.215 18.0281 44.9383 18.0281 44.659C18.0281 41.7742 18.1217 41.5274 17.5941 40.8297C18.1387 40.1064 18.0281 39.7575 18.0281 37.0004C18.035 36.4837 17.8528 35.9823 17.5159 35.5905C17.1789 35.1987 16.7104 34.9435 16.1985 34.873C17.0412 34.0473 17.6198 32.99 17.8609 31.8352C18.1019 30.6803 17.9946 29.4798 17.5525 28.386C17.1104 27.2922 16.3535 26.3543 15.3777 25.6912C14.4019 25.0281 13.2511 24.6698 12.0714 24.6615ZM7.81661 30.6182C7.81661 29.7767 8.06615 28.9541 8.53367 28.2544C9.00119 27.5547 9.66569 27.0094 10.4431 26.6873C11.2206 26.3653 12.0761 26.281 12.9014 26.4452C13.7268 26.6094 14.4849 27.0146 15.08 27.6096C15.675 28.2047 16.0802 28.9628 16.2444 29.7882C16.4086 30.6135 16.3243 31.469 16.0023 32.2464C15.6802 33.0239 15.1349 33.6884 14.4352 34.1559C13.7355 34.6235 12.9129 34.873 12.0714 34.873C10.9429 34.873 9.86073 34.4247 9.0628 33.6268C8.26488 32.8289 7.81661 31.7467 7.81661 30.6182ZM16.3261 44.659C16.3261 44.7718 16.2813 44.88 16.2015 44.9598C16.1217 45.0396 16.0135 45.0844 15.9007 45.0844H8.24209C7.68046 45.0844 7.81661 44.6419 7.81661 42.1061C7.81661 41.9933 7.86144 41.885 7.94123 41.8052C8.02102 41.7254 8.12924 41.6806 8.24209 41.6806H15.9007C16.4623 41.6806 16.3261 42.1231 16.3261 44.659ZM15.9007 36.5749C16.4623 36.5749 16.3261 37.0174 16.3261 39.5532C16.3261 39.6661 16.2813 39.7743 16.2015 39.8541C16.1217 39.9339 16.0135 39.9787 15.9007 39.9787H8.24209C7.68046 39.9787 7.81661 39.5362 7.81661 37.0004C7.81661 36.8875 7.86144 36.7793 7.94123 36.6995C8.02102 36.6197 8.12924 36.5749 8.24209 36.5749H15.9007Z" stroke="#65F6FF" stroke-width="3.4712" mask="url(#path-2-inside-2_6223_1706)"/>
<path d="M12.0714 22.1087C12.5139 22.1087 11.7735 22.6192 22.3254 13.8204L27.746 17.6922C27.894 17.8047 28.0748 17.8656 28.2608 17.8656C28.4467 17.8656 28.6276 17.8047 28.7756 17.6922L39.5657 9.03802L39.1402 10.7399C39.0849 10.9588 39.1189 11.1908 39.2346 11.3847C39.3503 11.5786 39.5383 11.7185 39.7572 11.7738C39.9761 11.8291 40.208 11.7952 40.4019 11.6795C40.5958 11.5638 40.7358 11.3758 40.7911 11.1569L41.8548 6.99573C41.8784 6.86778 41.8763 6.7364 41.8485 6.60928C41.8207 6.48216 41.7679 6.36186 41.6931 6.2554C41.3102 5.81291 41.3017 5.94055 36.749 6.10223C36.6373 6.10614 36.5274 6.13203 36.4257 6.1784C36.3239 6.22478 36.2323 6.29075 36.1561 6.37253C36.0021 6.5377 35.92 6.75728 35.9279 6.98297C35.9358 7.20866 36.033 7.42196 36.1982 7.57596C36.3633 7.72996 36.5829 7.81204 36.8086 7.80414L38.5105 7.74457L28.2395 15.9393L22.7764 12.0589C22.6276 11.9444 22.4451 11.8823 22.2573 11.8823C22.0695 11.8823 21.887 11.9444 21.7382 12.0589L11.5268 20.5685C11.3774 20.676 11.2669 20.8291 11.2119 21.0048C11.1569 21.1804 11.1603 21.3692 11.2217 21.5427C11.283 21.7163 11.399 21.8652 11.5522 21.9673C11.7054 22.0693 11.8876 22.1189 12.0714 22.1087Z" stroke="#65F6FF" stroke-width="3.4712" mask="url(#path-2-inside-2_6223_1706)"/>
</g>
<g style="mix-blend-mode:hard-light" filter="url(#filter2_ddi_6223_1706)">
<mask id="path-3-inside-3_6223_1706" fill="white">
<path d="M46.9605 21.6832C46.9605 21.4038 46.9055 21.1272 46.7986 20.8691C46.6916 20.611 46.5349 20.3765 46.3374 20.1789C46.1399 19.9814 45.9053 19.8247 45.6472 19.7178C45.3891 19.6108 45.1125 19.5558 44.8331 19.5558H37.1745C36.6103 19.5558 36.0692 19.7799 35.6702 20.1789C35.2713 20.5779 35.0471 21.119 35.0471 21.6832C35.0471 24.5679 34.9535 24.8147 35.4811 25.5125C35.2024 25.88 35.0502 26.3278 35.0471 26.7889C35.0471 29.6737 34.9535 29.9204 35.4811 30.6182C34.9365 31.3415 35.0471 31.6904 35.0471 34.4475C35.0502 34.9087 35.2024 35.3565 35.4811 35.7239C35.2024 36.0914 35.0502 36.5392 35.0471 37.0004C35.0471 39.8851 34.9535 40.1319 35.4811 40.8297C34.9365 41.553 35.0471 41.9019 35.0471 44.659C35.0471 44.9383 35.1022 45.215 35.2091 45.4731C35.316 45.7312 35.4727 45.9657 35.6702 46.1633C35.8678 46.3608 36.1023 46.5175 36.3604 46.6244C36.6185 46.7313 36.8951 46.7863 37.1745 46.7863H44.8331C45.1125 46.7863 45.3891 46.7313 45.6472 46.6244C45.9053 46.5175 46.1399 46.3608 46.3374 46.1633C46.5349 45.9657 46.6916 45.7312 46.7986 45.4731C46.9055 45.215 46.9605 44.9383 46.9605 44.659C46.9605 41.7742 47.0541 41.5274 46.5265 40.8297C46.8052 40.4622 46.9574 40.0144 46.9605 39.5532C46.9605 36.6685 47.0541 36.4217 46.5265 35.7239C47.0711 35.0006 46.9605 34.6517 46.9605 31.8946C46.9574 31.4335 46.8052 30.9857 46.5265 30.6182C46.8052 30.2508 46.9574 29.803 46.9605 29.3418C46.9605 26.4571 47.0541 26.2103 46.5265 25.5125C47.0711 24.7892 46.9605 24.4403 46.9605 21.6832ZM36.749 21.6832C36.749 21.5704 36.7939 21.4621 36.8737 21.3823C36.9535 21.3025 37.0617 21.2577 37.1745 21.2577H44.8331C45.3947 21.2577 45.2586 21.7002 45.2586 24.2361C45.2586 24.3489 45.2138 24.4571 45.134 24.5369C45.0542 24.6167 44.946 24.6615 44.8331 24.6615H37.1745C36.6129 24.6615 36.749 24.219 36.749 21.6832ZM45.2586 26.7889C45.2586 29.3418 45.3947 29.7673 44.8331 29.7673H37.1745C37.0617 29.7673 36.9535 29.7224 36.8737 29.6426C36.7939 29.5629 36.749 29.4546 36.749 29.3418C36.749 26.7889 36.6129 26.3634 37.1745 26.3634H44.8331C44.946 26.3634 45.0542 26.4083 45.134 26.4881C45.2138 26.5679 45.2586 26.6761 45.2586 26.7889ZM45.2586 31.8946C45.2586 34.4475 45.3947 34.873 44.8331 34.873H37.1745C37.0617 34.873 36.9535 34.8282 36.8737 34.7484C36.7939 34.6686 36.749 34.5604 36.749 34.4475C36.749 31.8946 36.6129 31.4692 37.1745 31.4692H44.8331C44.946 31.4692 45.0542 31.514 45.134 31.5938C45.2138 31.6736 45.2586 31.7818 45.2586 31.8946ZM45.2586 37.0004C45.2586 39.5532 45.3947 39.9787 44.8331 39.9787H37.1745C37.0617 39.9787 36.9535 39.9339 36.8737 39.8541C36.7939 39.7743 36.749 39.6661 36.749 39.5532C36.749 37.0004 36.6129 36.5749 37.1745 36.5749H44.8331C44.946 36.5749 45.0542 36.6197 45.134 36.6995C45.2138 36.7793 45.2586 36.8875 45.2586 37.0004ZM45.2586 44.659C45.2586 44.7718 45.2138 44.88 45.134 44.9598C45.0542 45.0396 44.946 45.0844 44.8331 45.0844H37.1745C36.6129 45.0844 36.749 44.6419 36.749 42.1061C36.749 41.9933 36.7939 41.885 36.8737 41.8052C36.9535 41.7254 37.0617 41.6806 37.1745 41.6806H44.8331C45.3947 41.6806 45.2586 42.1231 45.2586 44.659Z"/>
<path d="M30.3669 24.6615H22.7083C22.1441 24.6615 21.603 24.8857 21.204 25.2846C20.8051 25.6836 20.5809 26.2247 20.5809 26.7889C20.5809 29.6737 20.4873 29.9204 21.0149 30.6182C20.4703 31.3415 20.5809 31.6904 20.5809 34.4475C20.584 34.9087 20.7362 35.3565 21.0149 35.7239C20.7362 36.0914 20.584 36.5392 20.5809 37.0004C20.5809 39.8851 20.4873 40.1319 21.0149 40.8297C20.4703 41.553 20.5809 41.9019 20.5809 44.659C20.5809 44.9383 20.6359 45.215 20.7429 45.4731C20.8498 45.7312 21.0065 45.9657 21.204 46.1633C21.4016 46.3608 21.6361 46.5175 21.8942 46.6244C22.1523 46.7313 22.4289 46.7863 22.7083 46.7863H30.3669C30.6463 46.7863 30.9229 46.7313 31.181 46.6244C31.4391 46.5175 31.6736 46.3608 31.8712 46.1633C32.0687 45.9657 32.2254 45.7312 32.3323 45.4731C32.4392 45.215 32.4943 44.9383 32.4943 44.659C32.4943 41.7742 32.5879 41.5274 32.0603 40.8297C32.339 40.4622 32.4912 40.0144 32.4943 39.5532C32.4943 36.6685 32.5879 36.4217 32.0603 35.7239C32.6049 35.0006 32.4943 34.6517 32.4943 31.8946C32.4912 31.4335 32.339 30.9857 32.0603 30.6182C32.6049 29.8949 32.4943 29.546 32.4943 26.7889C32.4943 26.2247 32.2701 25.6836 31.8712 25.2846C31.4722 24.8857 30.9311 24.6615 30.3669 24.6615ZM22.2828 26.7889C22.2828 26.6761 22.3277 26.5679 22.4074 26.4881C22.4872 26.4083 22.5955 26.3634 22.7083 26.3634H30.3669C30.9285 26.3634 30.7924 26.8059 30.7924 29.3418C30.7924 29.4546 30.7475 29.5629 30.6677 29.6426C30.588 29.7224 30.4797 29.7673 30.3669 29.7673H22.7083C22.1467 29.7673 22.2828 29.3248 22.2828 26.7889ZM30.7924 31.8946C30.7924 34.4475 30.9285 34.873 30.3669 34.873H22.7083C22.5955 34.873 22.4872 34.8282 22.4074 34.7484C22.3277 34.6686 22.2828 34.5604 22.2828 34.4475C22.2828 31.8946 22.1467 31.4692 22.7083 31.4692H30.3669C30.4797 31.4692 30.588 31.514 30.6677 31.5938C30.7475 31.6736 30.7924 31.7818 30.7924 31.8946ZM30.7924 37.0004C30.7924 39.5532 30.9285 39.9787 30.3669 39.9787H22.7083C22.5955 39.9787 22.4872 39.9339 22.4074 39.8541C22.3277 39.7743 22.2828 39.6661 22.2828 39.5532C22.2828 37.0004 22.1467 36.5749 22.7083 36.5749H30.3669C30.4797 36.5749 30.588 36.6197 30.6677 36.6995C30.7475 36.7793 30.7924 36.8875 30.7924 37.0004ZM30.7924 44.659C30.7924 44.7718 30.7475 44.88 30.6677 44.9598C30.588 45.0396 30.4797 45.0844 30.3669 45.0844H22.7083C22.1467 45.0844 22.2828 44.6419 22.2828 42.1061C22.2828 41.9933 22.3277 41.885 22.4074 41.8052C22.4872 41.7254 22.5955 41.6806 22.7083 41.6806H30.3669C30.9285 41.6806 30.7924 42.1231 30.7924 44.659Z"/>
<path d="M12.0714 24.6615C10.8916 24.6698 9.74089 25.0281 8.76508 25.6912C7.78927 26.3543 7.03233 27.2922 6.59024 28.386C6.14816 29.4798 6.04084 30.6803 6.2819 31.8352C6.52295 32.99 7.10153 34.0473 7.94425 34.873C7.43233 34.9435 6.96383 35.1987 6.62689 35.5905C6.28994 35.9823 6.10779 36.4837 6.1147 37.0004C6.1147 39.8851 6.0211 40.1319 6.54869 40.8297C6.00408 41.553 6.1147 41.9019 6.1147 44.659C6.1147 44.9383 6.16973 45.215 6.27664 45.4731C6.38355 45.7312 6.54025 45.9657 6.7378 46.1633C6.93534 46.3608 7.16986 46.5175 7.42797 46.6244C7.68608 46.7313 7.96271 46.7863 8.24209 46.7863H15.9007C16.18 46.7863 16.4567 46.7313 16.7148 46.6244C16.9729 46.5175 17.2074 46.3608 17.405 46.1633C17.6025 45.9657 17.7592 45.7312 17.8661 45.4731C17.973 45.215 18.0281 44.9383 18.0281 44.659C18.0281 41.7742 18.1217 41.5274 17.5941 40.8297C18.1387 40.1064 18.0281 39.7575 18.0281 37.0004C18.035 36.4837 17.8528 35.9823 17.5159 35.5905C17.1789 35.1987 16.7104 34.9435 16.1985 34.873C17.0412 34.0473 17.6198 32.99 17.8609 31.8352C18.1019 30.6803 17.9946 29.4798 17.5525 28.386C17.1104 27.2922 16.3535 26.3543 15.3777 25.6912C14.4019 25.0281 13.2511 24.6698 12.0714 24.6615ZM7.81661 30.6182C7.81661 29.7767 8.06615 28.9541 8.53367 28.2544C9.00119 27.5547 9.66569 27.0094 10.4431 26.6873C11.2206 26.3653 12.0761 26.281 12.9014 26.4452C13.7268 26.6094 14.4849 27.0146 15.08 27.6096C15.675 28.2047 16.0802 28.9628 16.2444 29.7882C16.4086 30.6135 16.3243 31.469 16.0023 32.2464C15.6802 33.0239 15.1349 33.6884 14.4352 34.1559C13.7355 34.6235 12.9129 34.873 12.0714 34.873C10.9429 34.873 9.86073 34.4247 9.0628 33.6268C8.26488 32.8289 7.81661 31.7467 7.81661 30.6182ZM16.3261 44.659C16.3261 44.7718 16.2813 44.88 16.2015 44.9598C16.1217 45.0396 16.0135 45.0844 15.9007 45.0844H8.24209C7.68046 45.0844 7.81661 44.6419 7.81661 42.1061C7.81661 41.9933 7.86144 41.885 7.94123 41.8052C8.02102 41.7254 8.12924 41.6806 8.24209 41.6806H15.9007C16.4623 41.6806 16.3261 42.1231 16.3261 44.659ZM15.9007 36.5749C16.4623 36.5749 16.3261 37.0174 16.3261 39.5532C16.3261 39.6661 16.2813 39.7743 16.2015 39.8541C16.1217 39.9339 16.0135 39.9787 15.9007 39.9787H8.24209C7.68046 39.9787 7.81661 39.5362 7.81661 37.0004C7.81661 36.8875 7.86144 36.7793 7.94123 36.6995C8.02102 36.6197 8.12924 36.5749 8.24209 36.5749H15.9007Z"/>
<path d="M12.0714 22.1087C12.5139 22.1087 11.7735 22.6192 22.3254 13.8204L27.746 17.6922C27.894 17.8047 28.0748 17.8656 28.2608 17.8656C28.4467 17.8656 28.6276 17.8047 28.7756 17.6922L39.5657 9.03802L39.1402 10.7399C39.0849 10.9588 39.1189 11.1908 39.2346 11.3847C39.3503 11.5786 39.5383 11.7185 39.7572 11.7738C39.9761 11.8291 40.208 11.7952 40.4019 11.6795C40.5958 11.5638 40.7358 11.3758 40.7911 11.1569L41.8548 6.99573C41.8784 6.86778 41.8763 6.7364 41.8485 6.60928C41.8207 6.48216 41.7679 6.36186 41.6931 6.2554C41.3102 5.81291 41.3017 5.94055 36.749 6.10223C36.6373 6.10614 36.5274 6.13203 36.4257 6.1784C36.3239 6.22478 36.2323 6.29075 36.1561 6.37253C36.0021 6.5377 35.92 6.75728 35.9279 6.98297C35.9358 7.20866 36.033 7.42196 36.1982 7.57596C36.3633 7.72996 36.5829 7.81204 36.8086 7.80414L38.5105 7.74457L28.2395 15.9393L22.7764 12.0589C22.6276 11.9444 22.4451 11.8823 22.2573 11.8823C22.0695 11.8823 21.887 11.9444 21.7382 12.0589L11.5268 20.5685C11.3774 20.676 11.2669 20.8291 11.2119 21.0048C11.1569 21.1804 11.1603 21.3692 11.2217 21.5427C11.283 21.7163 11.399 21.8652 11.5522 21.9673C11.7054 22.0693 11.8876 22.1189 12.0714 22.1087Z"/>
</mask>
<path d="M46.9605 21.6832C46.9605 21.4038 46.9055 21.1272 46.7986 20.8691C46.6916 20.611 46.5349 20.3765 46.3374 20.1789C46.1399 19.9814 45.9053 19.8247 45.6472 19.7178C45.3891 19.6108 45.1125 19.5558 44.8331 19.5558H37.1745C36.6103 19.5558 36.0692 19.7799 35.6702 20.1789C35.2713 20.5779 35.0471 21.119 35.0471 21.6832C35.0471 24.5679 34.9535 24.8147 35.4811 25.5125C35.2024 25.88 35.0502 26.3278 35.0471 26.7889C35.0471 29.6737 34.9535 29.9204 35.4811 30.6182C34.9365 31.3415 35.0471 31.6904 35.0471 34.4475C35.0502 34.9087 35.2024 35.3565 35.4811 35.7239C35.2024 36.0914 35.0502 36.5392 35.0471 37.0004C35.0471 39.8851 34.9535 40.1319 35.4811 40.8297C34.9365 41.553 35.0471 41.9019 35.0471 44.659C35.0471 44.9383 35.1022 45.215 35.2091 45.4731C35.316 45.7312 35.4727 45.9657 35.6702 46.1633C35.8678 46.3608 36.1023 46.5175 36.3604 46.6244C36.6185 46.7313 36.8951 46.7863 37.1745 46.7863H44.8331C45.1125 46.7863 45.3891 46.7313 45.6472 46.6244C45.9053 46.5175 46.1399 46.3608 46.3374 46.1633C46.5349 45.9657 46.6916 45.7312 46.7986 45.4731C46.9055 45.215 46.9605 44.9383 46.9605 44.659C46.9605 41.7742 47.0541 41.5274 46.5265 40.8297C46.8052 40.4622 46.9574 40.0144 46.9605 39.5532C46.9605 36.6685 47.0541 36.4217 46.5265 35.7239C47.0711 35.0006 46.9605 34.6517 46.9605 31.8946C46.9574 31.4335 46.8052 30.9857 46.5265 30.6182C46.8052 30.2508 46.9574 29.803 46.9605 29.3418C46.9605 26.4571 47.0541 26.2103 46.5265 25.5125C47.0711 24.7892 46.9605 24.4403 46.9605 21.6832ZM36.749 21.6832C36.749 21.5704 36.7939 21.4621 36.8737 21.3823C36.9535 21.3025 37.0617 21.2577 37.1745 21.2577H44.8331C45.3947 21.2577 45.2586 21.7002 45.2586 24.2361C45.2586 24.3489 45.2138 24.4571 45.134 24.5369C45.0542 24.6167 44.946 24.6615 44.8331 24.6615H37.1745C36.6129 24.6615 36.749 24.219 36.749 21.6832ZM45.2586 26.7889C45.2586 29.3418 45.3947 29.7673 44.8331 29.7673H37.1745C37.0617 29.7673 36.9535 29.7224 36.8737 29.6426C36.7939 29.5629 36.749 29.4546 36.749 29.3418C36.749 26.7889 36.6129 26.3634 37.1745 26.3634H44.8331C44.946 26.3634 45.0542 26.4083 45.134 26.4881C45.2138 26.5679 45.2586 26.6761 45.2586 26.7889ZM45.2586 31.8946C45.2586 34.4475 45.3947 34.873 44.8331 34.873H37.1745C37.0617 34.873 36.9535 34.8282 36.8737 34.7484C36.7939 34.6686 36.749 34.5604 36.749 34.4475C36.749 31.8946 36.6129 31.4692 37.1745 31.4692H44.8331C44.946 31.4692 45.0542 31.514 45.134 31.5938C45.2138 31.6736 45.2586 31.7818 45.2586 31.8946ZM45.2586 37.0004C45.2586 39.5532 45.3947 39.9787 44.8331 39.9787H37.1745C37.0617 39.9787 36.9535 39.9339 36.8737 39.8541C36.7939 39.7743 36.749 39.6661 36.749 39.5532C36.749 37.0004 36.6129 36.5749 37.1745 36.5749H44.8331C44.946 36.5749 45.0542 36.6197 45.134 36.6995C45.2138 36.7793 45.2586 36.8875 45.2586 37.0004ZM45.2586 44.659C45.2586 44.7718 45.2138 44.88 45.134 44.9598C45.0542 45.0396 44.946 45.0844 44.8331 45.0844H37.1745C36.6129 45.0844 36.749 44.6419 36.749 42.1061C36.749 41.9933 36.7939 41.885 36.8737 41.8052C36.9535 41.7254 37.0617 41.6806 37.1745 41.6806H44.8331C45.3947 41.6806 45.2586 42.1231 45.2586 44.659Z" stroke="#4FF4FF" stroke-opacity="0.2" stroke-width="1.47003" mask="url(#path-3-inside-3_6223_1706)"/>
<path d="M30.3669 24.6615H22.7083C22.1441 24.6615 21.603 24.8857 21.204 25.2846C20.8051 25.6836 20.5809 26.2247 20.5809 26.7889C20.5809 29.6737 20.4873 29.9204 21.0149 30.6182C20.4703 31.3415 20.5809 31.6904 20.5809 34.4475C20.584 34.9087 20.7362 35.3565 21.0149 35.7239C20.7362 36.0914 20.584 36.5392 20.5809 37.0004C20.5809 39.8851 20.4873 40.1319 21.0149 40.8297C20.4703 41.553 20.5809 41.9019 20.5809 44.659C20.5809 44.9383 20.6359 45.215 20.7429 45.4731C20.8498 45.7312 21.0065 45.9657 21.204 46.1633C21.4016 46.3608 21.6361 46.5175 21.8942 46.6244C22.1523 46.7313 22.4289 46.7863 22.7083 46.7863H30.3669C30.6463 46.7863 30.9229 46.7313 31.181 46.6244C31.4391 46.5175 31.6736 46.3608 31.8712 46.1633C32.0687 45.9657 32.2254 45.7312 32.3323 45.4731C32.4392 45.215 32.4943 44.9383 32.4943 44.659C32.4943 41.7742 32.5879 41.5274 32.0603 40.8297C32.339 40.4622 32.4912 40.0144 32.4943 39.5532C32.4943 36.6685 32.5879 36.4217 32.0603 35.7239C32.6049 35.0006 32.4943 34.6517 32.4943 31.8946C32.4912 31.4335 32.339 30.9857 32.0603 30.6182C32.6049 29.8949 32.4943 29.546 32.4943 26.7889C32.4943 26.2247 32.2701 25.6836 31.8712 25.2846C31.4722 24.8857 30.9311 24.6615 30.3669 24.6615ZM22.2828 26.7889C22.2828 26.6761 22.3277 26.5679 22.4074 26.4881C22.4872 26.4083 22.5955 26.3634 22.7083 26.3634H30.3669C30.9285 26.3634 30.7924 26.8059 30.7924 29.3418C30.7924 29.4546 30.7475 29.5629 30.6677 29.6426C30.588 29.7224 30.4797 29.7673 30.3669 29.7673H22.7083C22.1467 29.7673 22.2828 29.3248 22.2828 26.7889ZM30.7924 31.8946C30.7924 34.4475 30.9285 34.873 30.3669 34.873H22.7083C22.5955 34.873 22.4872 34.8282 22.4074 34.7484C22.3277 34.6686 22.2828 34.5604 22.2828 34.4475C22.2828 31.8946 22.1467 31.4692 22.7083 31.4692H30.3669C30.4797 31.4692 30.588 31.514 30.6677 31.5938C30.7475 31.6736 30.7924 31.7818 30.7924 31.8946ZM30.7924 37.0004C30.7924 39.5532 30.9285 39.9787 30.3669 39.9787H22.7083C22.5955 39.9787 22.4872 39.9339 22.4074 39.8541C22.3277 39.7743 22.2828 39.6661 22.2828 39.5532C22.2828 37.0004 22.1467 36.5749 22.7083 36.5749H30.3669C30.4797 36.5749 30.588 36.6197 30.6677 36.6995C30.7475 36.7793 30.7924 36.8875 30.7924 37.0004ZM30.7924 44.659C30.7924 44.7718 30.7475 44.88 30.6677 44.9598C30.588 45.0396 30.4797 45.0844 30.3669 45.0844H22.7083C22.1467 45.0844 22.2828 44.6419 22.2828 42.1061C22.2828 41.9933 22.3277 41.885 22.4074 41.8052C22.4872 41.7254 22.5955 41.6806 22.7083 41.6806H30.3669C30.9285 41.6806 30.7924 42.1231 30.7924 44.659Z" stroke="#4FF4FF" stroke-opacity="0.2" stroke-width="1.47003" mask="url(#path-3-inside-3_6223_1706)"/>
<path d="M12.0714 24.6615C10.8916 24.6698 9.74089 25.0281 8.76508 25.6912C7.78927 26.3543 7.03233 27.2922 6.59024 28.386C6.14816 29.4798 6.04084 30.6803 6.2819 31.8352C6.52295 32.99 7.10153 34.0473 7.94425 34.873C7.43233 34.9435 6.96383 35.1987 6.62689 35.5905C6.28994 35.9823 6.10779 36.4837 6.1147 37.0004C6.1147 39.8851 6.0211 40.1319 6.54869 40.8297C6.00408 41.553 6.1147 41.9019 6.1147 44.659C6.1147 44.9383 6.16973 45.215 6.27664 45.4731C6.38355 45.7312 6.54025 45.9657 6.7378 46.1633C6.93534 46.3608 7.16986 46.5175 7.42797 46.6244C7.68608 46.7313 7.96271 46.7863 8.24209 46.7863H15.9007C16.18 46.7863 16.4567 46.7313 16.7148 46.6244C16.9729 46.5175 17.2074 46.3608 17.405 46.1633C17.6025 45.9657 17.7592 45.7312 17.8661 45.4731C17.973 45.215 18.0281 44.9383 18.0281 44.659C18.0281 41.7742 18.1217 41.5274 17.5941 40.8297C18.1387 40.1064 18.0281 39.7575 18.0281 37.0004C18.035 36.4837 17.8528 35.9823 17.5159 35.5905C17.1789 35.1987 16.7104 34.9435 16.1985 34.873C17.0412 34.0473 17.6198 32.99 17.8609 31.8352C18.1019 30.6803 17.9946 29.4798 17.5525 28.386C17.1104 27.2922 16.3535 26.3543 15.3777 25.6912C14.4019 25.0281 13.2511 24.6698 12.0714 24.6615ZM7.81661 30.6182C7.81661 29.7767 8.06615 28.9541 8.53367 28.2544C9.00119 27.5547 9.66569 27.0094 10.4431 26.6873C11.2206 26.3653 12.0761 26.281 12.9014 26.4452C13.7268 26.6094 14.4849 27.0146 15.08 27.6096C15.675 28.2047 16.0802 28.9628 16.2444 29.7882C16.4086 30.6135 16.3243 31.469 16.0023 32.2464C15.6802 33.0239 15.1349 33.6884 14.4352 34.1559C13.7355 34.6235 12.9129 34.873 12.0714 34.873C10.9429 34.873 9.86073 34.4247 9.0628 33.6268C8.26488 32.8289 7.81661 31.7467 7.81661 30.6182ZM16.3261 44.659C16.3261 44.7718 16.2813 44.88 16.2015 44.9598C16.1217 45.0396 16.0135 45.0844 15.9007 45.0844H8.24209C7.68046 45.0844 7.81661 44.6419 7.81661 42.1061C7.81661 41.9933 7.86144 41.885 7.94123 41.8052C8.02102 41.7254 8.12924 41.6806 8.24209 41.6806H15.9007C16.4623 41.6806 16.3261 42.1231 16.3261 44.659ZM15.9007 36.5749C16.4623 36.5749 16.3261 37.0174 16.3261 39.5532C16.3261 39.6661 16.2813 39.7743 16.2015 39.8541C16.1217 39.9339 16.0135 39.9787 15.9007 39.9787H8.24209C7.68046 39.9787 7.81661 39.5362 7.81661 37.0004C7.81661 36.8875 7.86144 36.7793 7.94123 36.6995C8.02102 36.6197 8.12924 36.5749 8.24209 36.5749H15.9007Z" stroke="#4FF4FF" stroke-opacity="0.2" stroke-width="1.47003" mask="url(#path-3-inside-3_6223_1706)"/>
<path d="M12.0714 22.1087C12.5139 22.1087 11.7735 22.6192 22.3254 13.8204L27.746 17.6922C27.894 17.8047 28.0748 17.8656 28.2608 17.8656C28.4467 17.8656 28.6276 17.8047 28.7756 17.6922L39.5657 9.03802L39.1402 10.7399C39.0849 10.9588 39.1189 11.1908 39.2346 11.3847C39.3503 11.5786 39.5383 11.7185 39.7572 11.7738C39.9761 11.8291 40.208 11.7952 40.4019 11.6795C40.5958 11.5638 40.7358 11.3758 40.7911 11.1569L41.8548 6.99573C41.8784 6.86778 41.8763 6.7364 41.8485 6.60928C41.8207 6.48216 41.7679 6.36186 41.6931 6.2554C41.3102 5.81291 41.3017 5.94055 36.749 6.10223C36.6373 6.10614 36.5274 6.13203 36.4257 6.1784C36.3239 6.22478 36.2323 6.29075 36.1561 6.37253C36.0021 6.5377 35.92 6.75728 35.9279 6.98297C35.9358 7.20866 36.033 7.42196 36.1982 7.57596C36.3633 7.72996 36.5829 7.81204 36.8086 7.80414L38.5105 7.74457L28.2395 15.9393L22.7764 12.0589C22.6276 11.9444 22.4451 11.8823 22.2573 11.8823C22.0695 11.8823 21.887 11.9444 21.7382 12.0589L11.5268 20.5685C11.3774 20.676 11.2669 20.8291 11.2119 21.0048C11.1569 21.1804 11.1603 21.3692 11.2217 21.5427C11.283 21.7163 11.399 21.8652 11.5522 21.9673C11.7054 22.0693 11.8876 22.1189 12.0714 22.1087Z" stroke="#4FF4FF" stroke-opacity="0.2" stroke-width="1.47003" mask="url(#path-3-inside-3_6223_1706)"/>
</g>
<g filter="url(#filter3_f_6223_1706)">
<mask id="path-4-inside-4_6223_1706" fill="white">
<path d="M46.9605 21.6832C46.9605 21.4038 46.9055 21.1272 46.7986 20.8691C46.6916 20.611 46.5349 20.3765 46.3374 20.1789C46.1399 19.9814 45.9053 19.8247 45.6472 19.7178C45.3891 19.6108 45.1125 19.5558 44.8331 19.5558H37.1745C36.6103 19.5558 36.0692 19.7799 35.6702 20.1789C35.2713 20.5779 35.0471 21.119 35.0471 21.6832C35.0471 24.5679 34.9535 24.8147 35.4811 25.5125C35.2024 25.88 35.0502 26.3278 35.0471 26.7889C35.0471 29.6737 34.9535 29.9204 35.4811 30.6182C34.9365 31.3415 35.0471 31.6904 35.0471 34.4475C35.0502 34.9087 35.2024 35.3565 35.4811 35.7239C35.2024 36.0914 35.0502 36.5392 35.0471 37.0004C35.0471 39.8851 34.9535 40.1319 35.4811 40.8297C34.9365 41.553 35.0471 41.9019 35.0471 44.659C35.0471 44.9383 35.1022 45.215 35.2091 45.4731C35.316 45.7312 35.4727 45.9657 35.6702 46.1633C35.8678 46.3608 36.1023 46.5175 36.3604 46.6244C36.6185 46.7313 36.8951 46.7863 37.1745 46.7863H44.8331C45.1125 46.7863 45.3891 46.7313 45.6472 46.6244C45.9053 46.5175 46.1399 46.3608 46.3374 46.1633C46.5349 45.9657 46.6916 45.7312 46.7986 45.4731C46.9055 45.215 46.9605 44.9383 46.9605 44.659C46.9605 41.7742 47.0541 41.5274 46.5265 40.8297C46.8052 40.4622 46.9574 40.0144 46.9605 39.5532C46.9605 36.6685 47.0541 36.4217 46.5265 35.7239C47.0711 35.0006 46.9605 34.6517 46.9605 31.8946C46.9574 31.4335 46.8052 30.9857 46.5265 30.6182C46.8052 30.2508 46.9574 29.803 46.9605 29.3418C46.9605 26.4571 47.0541 26.2103 46.5265 25.5125C47.0711 24.7892 46.9605 24.4403 46.9605 21.6832ZM36.749 21.6832C36.749 21.5704 36.7939 21.4621 36.8737 21.3823C36.9535 21.3025 37.0617 21.2577 37.1745 21.2577H44.8331C45.3947 21.2577 45.2586 21.7002 45.2586 24.2361C45.2586 24.3489 45.2138 24.4571 45.134 24.5369C45.0542 24.6167 44.946 24.6615 44.8331 24.6615H37.1745C36.6129 24.6615 36.749 24.219 36.749 21.6832ZM45.2586 26.7889C45.2586 29.3418 45.3947 29.7673 44.8331 29.7673H37.1745C37.0617 29.7673 36.9535 29.7224 36.8737 29.6426C36.7939 29.5629 36.749 29.4546 36.749 29.3418C36.749 26.7889 36.6129 26.3634 37.1745 26.3634H44.8331C44.946 26.3634 45.0542 26.4083 45.134 26.4881C45.2138 26.5679 45.2586 26.6761 45.2586 26.7889ZM45.2586 31.8946C45.2586 34.4475 45.3947 34.873 44.8331 34.873H37.1745C37.0617 34.873 36.9535 34.8282 36.8737 34.7484C36.7939 34.6686 36.749 34.5604 36.749 34.4475C36.749 31.8946 36.6129 31.4692 37.1745 31.4692H44.8331C44.946 31.4692 45.0542 31.514 45.134 31.5938C45.2138 31.6736 45.2586 31.7818 45.2586 31.8946ZM45.2586 37.0004C45.2586 39.5532 45.3947 39.9787 44.8331 39.9787H37.1745C37.0617 39.9787 36.9535 39.9339 36.8737 39.8541C36.7939 39.7743 36.749 39.6661 36.749 39.5532C36.749 37.0004 36.6129 36.5749 37.1745 36.5749H44.8331C44.946 36.5749 45.0542 36.6197 45.134 36.6995C45.2138 36.7793 45.2586 36.8875 45.2586 37.0004ZM45.2586 44.659C45.2586 44.7718 45.2138 44.88 45.134 44.9598C45.0542 45.0396 44.946 45.0844 44.8331 45.0844H37.1745C36.6129 45.0844 36.749 44.6419 36.749 42.1061C36.749 41.9933 36.7939 41.885 36.8737 41.8052C36.9535 41.7254 37.0617 41.6806 37.1745 41.6806H44.8331C45.3947 41.6806 45.2586 42.1231 45.2586 44.659Z"/>
<path d="M30.3669 24.6615H22.7083C22.1441 24.6615 21.603 24.8857 21.204 25.2846C20.8051 25.6836 20.5809 26.2247 20.5809 26.7889C20.5809 29.6737 20.4873 29.9204 21.0149 30.6182C20.4703 31.3415 20.5809 31.6904 20.5809 34.4475C20.584 34.9087 20.7362 35.3565 21.0149 35.7239C20.7362 36.0914 20.584 36.5392 20.5809 37.0004C20.5809 39.8851 20.4873 40.1319 21.0149 40.8297C20.4703 41.553 20.5809 41.9019 20.5809 44.659C20.5809 44.9383 20.6359 45.215 20.7429 45.4731C20.8498 45.7312 21.0065 45.9657 21.204 46.1633C21.4016 46.3608 21.6361 46.5175 21.8942 46.6244C22.1523 46.7313 22.4289 46.7863 22.7083 46.7863H30.3669C30.6463 46.7863 30.9229 46.7313 31.181 46.6244C31.4391 46.5175 31.6736 46.3608 31.8712 46.1633C32.0687 45.9657 32.2254 45.7312 32.3323 45.4731C32.4392 45.215 32.4943 44.9383 32.4943 44.659C32.4943 41.7742 32.5879 41.5274 32.0603 40.8297C32.339 40.4622 32.4912 40.0144 32.4943 39.5532C32.4943 36.6685 32.5879 36.4217 32.0603 35.7239C32.6049 35.0006 32.4943 34.6517 32.4943 31.8946C32.4912 31.4335 32.339 30.9857 32.0603 30.6182C32.6049 29.8949 32.4943 29.546 32.4943 26.7889C32.4943 26.2247 32.2701 25.6836 31.8712 25.2846C31.4722 24.8857 30.9311 24.6615 30.3669 24.6615ZM22.2828 26.7889C22.2828 26.6761 22.3277 26.5679 22.4074 26.4881C22.4872 26.4083 22.5955 26.3634 22.7083 26.3634H30.3669C30.9285 26.3634 30.7924 26.8059 30.7924 29.3418C30.7924 29.4546 30.7475 29.5629 30.6677 29.6426C30.588 29.7224 30.4797 29.7673 30.3669 29.7673H22.7083C22.1467 29.7673 22.2828 29.3248 22.2828 26.7889ZM30.7924 31.8946C30.7924 34.4475 30.9285 34.873 30.3669 34.873H22.7083C22.5955 34.873 22.4872 34.8282 22.4074 34.7484C22.3277 34.6686 22.2828 34.5604 22.2828 34.4475C22.2828 31.8946 22.1467 31.4692 22.7083 31.4692H30.3669C30.4797 31.4692 30.588 31.514 30.6677 31.5938C30.7475 31.6736 30.7924 31.7818 30.7924 31.8946ZM30.7924 37.0004C30.7924 39.5532 30.9285 39.9787 30.3669 39.9787H22.7083C22.5955 39.9787 22.4872 39.9339 22.4074 39.8541C22.3277 39.7743 22.2828 39.6661 22.2828 39.5532C22.2828 37.0004 22.1467 36.5749 22.7083 36.5749H30.3669C30.4797 36.5749 30.588 36.6197 30.6677 36.6995C30.7475 36.7793 30.7924 36.8875 30.7924 37.0004ZM30.7924 44.659C30.7924 44.7718 30.7475 44.88 30.6677 44.9598C30.588 45.0396 30.4797 45.0844 30.3669 45.0844H22.7083C22.1467 45.0844 22.2828 44.6419 22.2828 42.1061C22.2828 41.9933 22.3277 41.885 22.4074 41.8052C22.4872 41.7254 22.5955 41.6806 22.7083 41.6806H30.3669C30.9285 41.6806 30.7924 42.1231 30.7924 44.659Z"/>
<path d="M12.0714 24.6615C10.8916 24.6698 9.74089 25.0281 8.76508 25.6912C7.78927 26.3543 7.03233 27.2922 6.59024 28.386C6.14816 29.4798 6.04084 30.6803 6.2819 31.8352C6.52295 32.99 7.10153 34.0473 7.94425 34.873C7.43233 34.9435 6.96383 35.1987 6.62689 35.5905C6.28994 35.9823 6.10779 36.4837 6.1147 37.0004C6.1147 39.8851 6.0211 40.1319 6.54869 40.8297C6.00408 41.553 6.1147 41.9019 6.1147 44.659C6.1147 44.9383 6.16973 45.215 6.27664 45.4731C6.38355 45.7312 6.54025 45.9657 6.7378 46.1633C6.93534 46.3608 7.16986 46.5175 7.42797 46.6244C7.68608 46.7313 7.96271 46.7863 8.24209 46.7863H15.9007C16.18 46.7863 16.4567 46.7313 16.7148 46.6244C16.9729 46.5175 17.2074 46.3608 17.405 46.1633C17.6025 45.9657 17.7592 45.7312 17.8661 45.4731C17.973 45.215 18.0281 44.9383 18.0281 44.659C18.0281 41.7742 18.1217 41.5274 17.5941 40.8297C18.1387 40.1064 18.0281 39.7575 18.0281 37.0004C18.035 36.4837 17.8528 35.9823 17.5159 35.5905C17.1789 35.1987 16.7104 34.9435 16.1985 34.873C17.0412 34.0473 17.6198 32.99 17.8609 31.8352C18.1019 30.6803 17.9946 29.4798 17.5525 28.386C17.1104 27.2922 16.3535 26.3543 15.3777 25.6912C14.4019 25.0281 13.2511 24.6698 12.0714 24.6615ZM7.81661 30.6182C7.81661 29.7767 8.06615 28.9541 8.53367 28.2544C9.00119 27.5547 9.66569 27.0094 10.4431 26.6873C11.2206 26.3653 12.0761 26.281 12.9014 26.4452C13.7268 26.6094 14.4849 27.0146 15.08 27.6096C15.675 28.2047 16.0802 28.9628 16.2444 29.7882C16.4086 30.6135 16.3243 31.469 16.0023 32.2464C15.6802 33.0239 15.1349 33.6884 14.4352 34.1559C13.7355 34.6235 12.9129 34.873 12.0714 34.873C10.9429 34.873 9.86073 34.4247 9.0628 33.6268C8.26488 32.8289 7.81661 31.7467 7.81661 30.6182ZM16.3261 44.659C16.3261 44.7718 16.2813 44.88 16.2015 44.9598C16.1217 45.0396 16.0135 45.0844 15.9007 45.0844H8.24209C7.68046 45.0844 7.81661 44.6419 7.81661 42.1061C7.81661 41.9933 7.86144 41.885 7.94123 41.8052C8.02102 41.7254 8.12924 41.6806 8.24209 41.6806H15.9007C16.4623 41.6806 16.3261 42.1231 16.3261 44.659ZM15.9007 36.5749C16.4623 36.5749 16.3261 37.0174 16.3261 39.5532C16.3261 39.6661 16.2813 39.7743 16.2015 39.8541C16.1217 39.9339 16.0135 39.9787 15.9007 39.9787H8.24209C7.68046 39.9787 7.81661 39.5362 7.81661 37.0004C7.81661 36.8875 7.86144 36.7793 7.94123 36.6995C8.02102 36.6197 8.12924 36.5749 8.24209 36.5749H15.9007Z"/>
<path d="M12.0714 22.1087C12.5139 22.1087 11.7735 22.6192 22.3254 13.8204L27.746 17.6922C27.894 17.8047 28.0748 17.8656 28.2608 17.8656C28.4467 17.8656 28.6276 17.8047 28.7756 17.6922L39.5657 9.03802L39.1402 10.7399C39.0849 10.9588 39.1189 11.1908 39.2346 11.3847C39.3503 11.5786 39.5383 11.7185 39.7572 11.7738C39.9761 11.8291 40.208 11.7952 40.4019 11.6795C40.5958 11.5638 40.7358 11.3758 40.7911 11.1569L41.8548 6.99573C41.8784 6.86778 41.8763 6.7364 41.8485 6.60928C41.8207 6.48216 41.7679 6.36186 41.6931 6.2554C41.3102 5.81291 41.3017 5.94055 36.749 6.10223C36.6373 6.10614 36.5274 6.13203 36.4257 6.1784C36.3239 6.22478 36.2323 6.29075 36.1561 6.37253C36.0021 6.5377 35.92 6.75728 35.9279 6.98297C35.9358 7.20866 36.033 7.42196 36.1982 7.57596C36.3633 7.72996 36.5829 7.81204 36.8086 7.80414L38.5105 7.74457L28.2395 15.9393L22.7764 12.0589C22.6276 11.9444 22.4451 11.8823 22.2573 11.8823C22.0695 11.8823 21.887 11.9444 21.7382 12.0589L11.5268 20.5685C11.3774 20.676 11.2669 20.8291 11.2119 21.0048C11.1569 21.1804 11.1603 21.3692 11.2217 21.5427C11.283 21.7163 11.399 21.8652 11.5522 21.9673C11.7054 22.0693 11.8876 22.1189 12.0714 22.1087Z"/>
</mask>
<path d="M46.9605 21.6832C46.9605 21.4038 46.9055 21.1272 46.7986 20.8691C46.6916 20.611 46.5349 20.3765 46.3374 20.1789C46.1399 19.9814 45.9053 19.8247 45.6472 19.7178C45.3891 19.6108 45.1125 19.5558 44.8331 19.5558H37.1745C36.6103 19.5558 36.0692 19.7799 35.6702 20.1789C35.2713 20.5779 35.0471 21.119 35.0471 21.6832C35.0471 24.5679 34.9535 24.8147 35.4811 25.5125C35.2024 25.88 35.0502 26.3278 35.0471 26.7889C35.0471 29.6737 34.9535 29.9204 35.4811 30.6182C34.9365 31.3415 35.0471 31.6904 35.0471 34.4475C35.0502 34.9087 35.2024 35.3565 35.4811 35.7239C35.2024 36.0914 35.0502 36.5392 35.0471 37.0004C35.0471 39.8851 34.9535 40.1319 35.4811 40.8297C34.9365 41.553 35.0471 41.9019 35.0471 44.659C35.0471 44.9383 35.1022 45.215 35.2091 45.4731C35.316 45.7312 35.4727 45.9657 35.6702 46.1633C35.8678 46.3608 36.1023 46.5175 36.3604 46.6244C36.6185 46.7313 36.8951 46.7863 37.1745 46.7863H44.8331C45.1125 46.7863 45.3891 46.7313 45.6472 46.6244C45.9053 46.5175 46.1399 46.3608 46.3374 46.1633C46.5349 45.9657 46.6916 45.7312 46.7986 45.4731C46.9055 45.215 46.9605 44.9383 46.9605 44.659C46.9605 41.7742 47.0541 41.5274 46.5265 40.8297C46.8052 40.4622 46.9574 40.0144 46.9605 39.5532C46.9605 36.6685 47.0541 36.4217 46.5265 35.7239C47.0711 35.0006 46.9605 34.6517 46.9605 31.8946C46.9574 31.4335 46.8052 30.9857 46.5265 30.6182C46.8052 30.2508 46.9574 29.803 46.9605 29.3418C46.9605 26.4571 47.0541 26.2103 46.5265 25.5125C47.0711 24.7892 46.9605 24.4403 46.9605 21.6832ZM36.749 21.6832C36.749 21.5704 36.7939 21.4621 36.8737 21.3823C36.9535 21.3025 37.0617 21.2577 37.1745 21.2577H44.8331C45.3947 21.2577 45.2586 21.7002 45.2586 24.2361C45.2586 24.3489 45.2138 24.4571 45.134 24.5369C45.0542 24.6167 44.946 24.6615 44.8331 24.6615H37.1745C36.6129 24.6615 36.749 24.219 36.749 21.6832ZM45.2586 26.7889C45.2586 29.3418 45.3947 29.7673 44.8331 29.7673H37.1745C37.0617 29.7673 36.9535 29.7224 36.8737 29.6426C36.7939 29.5629 36.749 29.4546 36.749 29.3418C36.749 26.7889 36.6129 26.3634 37.1745 26.3634H44.8331C44.946 26.3634 45.0542 26.4083 45.134 26.4881C45.2138 26.5679 45.2586 26.6761 45.2586 26.7889ZM45.2586 31.8946C45.2586 34.4475 45.3947 34.873 44.8331 34.873H37.1745C37.0617 34.873 36.9535 34.8282 36.8737 34.7484C36.7939 34.6686 36.749 34.5604 36.749 34.4475C36.749 31.8946 36.6129 31.4692 37.1745 31.4692H44.8331C44.946 31.4692 45.0542 31.514 45.134 31.5938C45.2138 31.6736 45.2586 31.7818 45.2586 31.8946ZM45.2586 37.0004C45.2586 39.5532 45.3947 39.9787 44.8331 39.9787H37.1745C37.0617 39.9787 36.9535 39.9339 36.8737 39.8541C36.7939 39.7743 36.749 39.6661 36.749 39.5532C36.749 37.0004 36.6129 36.5749 37.1745 36.5749H44.8331C44.946 36.5749 45.0542 36.6197 45.134 36.6995C45.2138 36.7793 45.2586 36.8875 45.2586 37.0004ZM45.2586 44.659C45.2586 44.7718 45.2138 44.88 45.134 44.9598C45.0542 45.0396 44.946 45.0844 44.8331 45.0844H37.1745C36.6129 45.0844 36.749 44.6419 36.749 42.1061C36.749 41.9933 36.7939 41.885 36.8737 41.8052C36.9535 41.7254 37.0617 41.6806 37.1745 41.6806H44.8331C45.3947 41.6806 45.2586 42.1231 45.2586 44.659Z" stroke="#4FF4FF" stroke-width="1.17602" mask="url(#path-4-inside-4_6223_1706)"/>
<path d="M30.3669 24.6615H22.7083C22.1441 24.6615 21.603 24.8857 21.204 25.2846C20.8051 25.6836 20.5809 26.2247 20.5809 26.7889C20.5809 29.6737 20.4873 29.9204 21.0149 30.6182C20.4703 31.3415 20.5809 31.6904 20.5809 34.4475C20.584 34.9087 20.7362 35.3565 21.0149 35.7239C20.7362 36.0914 20.584 36.5392 20.5809 37.0004C20.5809 39.8851 20.4873 40.1319 21.0149 40.8297C20.4703 41.553 20.5809 41.9019 20.5809 44.659C20.5809 44.9383 20.6359 45.215 20.7429 45.4731C20.8498 45.7312 21.0065 45.9657 21.204 46.1633C21.4016 46.3608 21.6361 46.5175 21.8942 46.6244C22.1523 46.7313 22.4289 46.7863 22.7083 46.7863H30.3669C30.6463 46.7863 30.9229 46.7313 31.181 46.6244C31.4391 46.5175 31.6736 46.3608 31.8712 46.1633C32.0687 45.9657 32.2254 45.7312 32.3323 45.4731C32.4392 45.215 32.4943 44.9383 32.4943 44.659C32.4943 41.7742 32.5879 41.5274 32.0603 40.8297C32.339 40.4622 32.4912 40.0144 32.4943 39.5532C32.4943 36.6685 32.5879 36.4217 32.0603 35.7239C32.6049 35.0006 32.4943 34.6517 32.4943 31.8946C32.4912 31.4335 32.339 30.9857 32.0603 30.6182C32.6049 29.8949 32.4943 29.546 32.4943 26.7889C32.4943 26.2247 32.2701 25.6836 31.8712 25.2846C31.4722 24.8857 30.9311 24.6615 30.3669 24.6615ZM22.2828 26.7889C22.2828 26.6761 22.3277 26.5679 22.4074 26.4881C22.4872 26.4083 22.5955 26.3634 22.7083 26.3634H30.3669C30.9285 26.3634 30.7924 26.8059 30.7924 29.3418C30.7924 29.4546 30.7475 29.5629 30.6677 29.6426C30.588 29.7224 30.4797 29.7673 30.3669 29.7673H22.7083C22.1467 29.7673 22.2828 29.3248 22.2828 26.7889ZM30.7924 31.8946C30.7924 34.4475 30.9285 34.873 30.3669 34.873H22.7083C22.5955 34.873 22.4872 34.8282 22.4074 34.7484C22.3277 34.6686 22.2828 34.5604 22.2828 34.4475C22.2828 31.8946 22.1467 31.4692 22.7083 31.4692H30.3669C30.4797 31.4692 30.588 31.514 30.6677 31.5938C30.7475 31.6736 30.7924 31.7818 30.7924 31.8946ZM30.7924 37.0004C30.7924 39.5532 30.9285 39.9787 30.3669 39.9787H22.7083C22.5955 39.9787 22.4872 39.9339 22.4074 39.8541C22.3277 39.7743 22.2828 39.6661 22.2828 39.5532C22.2828 37.0004 22.1467 36.5749 22.7083 36.5749H30.3669C30.4797 36.5749 30.588 36.6197 30.6677 36.6995C30.7475 36.7793 30.7924 36.8875 30.7924 37.0004ZM30.7924 44.659C30.7924 44.7718 30.7475 44.88 30.6677 44.9598C30.588 45.0396 30.4797 45.0844 30.3669 45.0844H22.7083C22.1467 45.0844 22.2828 44.6419 22.2828 42.1061C22.2828 41.9933 22.3277 41.885 22.4074 41.8052C22.4872 41.7254 22.5955 41.6806 22.7083 41.6806H30.3669C30.9285 41.6806 30.7924 42.1231 30.7924 44.659Z" stroke="#4FF4FF" stroke-width="1.17602" mask="url(#path-4-inside-4_6223_1706)"/>
<path d="M12.0714 24.6615C10.8916 24.6698 9.74089 25.0281 8.76508 25.6912C7.78927 26.3543 7.03233 27.2922 6.59024 28.386C6.14816 29.4798 6.04084 30.6803 6.2819 31.8352C6.52295 32.99 7.10153 34.0473 7.94425 34.873C7.43233 34.9435 6.96383 35.1987 6.62689 35.5905C6.28994 35.9823 6.10779 36.4837 6.1147 37.0004C6.1147 39.8851 6.0211 40.1319 6.54869 40.8297C6.00408 41.553 6.1147 41.9019 6.1147 44.659C6.1147 44.9383 6.16973 45.215 6.27664 45.4731C6.38355 45.7312 6.54025 45.9657 6.7378 46.1633C6.93534 46.3608 7.16986 46.5175 7.42797 46.6244C7.68608 46.7313 7.96271 46.7863 8.24209 46.7863H15.9007C16.18 46.7863 16.4567 46.7313 16.7148 46.6244C16.9729 46.5175 17.2074 46.3608 17.405 46.1633C17.6025 45.9657 17.7592 45.7312 17.8661 45.4731C17.973 45.215 18.0281 44.9383 18.0281 44.659C18.0281 41.7742 18.1217 41.5274 17.5941 40.8297C18.1387 40.1064 18.0281 39.7575 18.0281 37.0004C18.035 36.4837 17.8528 35.9823 17.5159 35.5905C17.1789 35.1987 16.7104 34.9435 16.1985 34.873C17.0412 34.0473 17.6198 32.99 17.8609 31.8352C18.1019 30.6803 17.9946 29.4798 17.5525 28.386C17.1104 27.2922 16.3535 26.3543 15.3777 25.6912C14.4019 25.0281 13.2511 24.6698 12.0714 24.6615ZM7.81661 30.6182C7.81661 29.7767 8.06615 28.9541 8.53367 28.2544C9.00119 27.5547 9.66569 27.0094 10.4431 26.6873C11.2206 26.3653 12.0761 26.281 12.9014 26.4452C13.7268 26.6094 14.4849 27.0146 15.08 27.6096C15.675 28.2047 16.0802 28.9628 16.2444 29.7882C16.4086 30.6135 16.3243 31.469 16.0023 32.2464C15.6802 33.0239 15.1349 33.6884 14.4352 34.1559C13.7355 34.6235 12.9129 34.873 12.0714 34.873C10.9429 34.873 9.86073 34.4247 9.0628 33.6268C8.26488 32.8289 7.81661 31.7467 7.81661 30.6182ZM16.3261 44.659C16.3261 44.7718 16.2813 44.88 16.2015 44.9598C16.1217 45.0396 16.0135 45.0844 15.9007 45.0844H8.24209C7.68046 45.0844 7.81661 44.6419 7.81661 42.1061C7.81661 41.9933 7.86144 41.885 7.94123 41.8052C8.02102 41.7254 8.12924 41.6806 8.24209 41.6806H15.9007C16.4623 41.6806 16.3261 42.1231 16.3261 44.659ZM15.9007 36.5749C16.4623 36.5749 16.3261 37.0174 16.3261 39.5532C16.3261 39.6661 16.2813 39.7743 16.2015 39.8541C16.1217 39.9339 16.0135 39.9787 15.9007 39.9787H8.24209C7.68046 39.9787 7.81661 39.5362 7.81661 37.0004C7.81661 36.8875 7.86144 36.7793 7.94123 36.6995C8.02102 36.6197 8.12924 36.5749 8.24209 36.5749H15.9007Z" stroke="#4FF4FF" stroke-width="1.17602" mask="url(#path-4-inside-4_6223_1706)"/>
<path d="M12.0714 22.1087C12.5139 22.1087 11.7735 22.6192 22.3254 13.8204L27.746 17.6922C27.894 17.8047 28.0748 17.8656 28.2608 17.8656C28.4467 17.8656 28.6276 17.8047 28.7756 17.6922L39.5657 9.03802L39.1402 10.7399C39.0849 10.9588 39.1189 11.1908 39.2346 11.3847C39.3503 11.5786 39.5383 11.7185 39.7572 11.7738C39.9761 11.8291 40.208 11.7952 40.4019 11.6795C40.5958 11.5638 40.7358 11.3758 40.7911 11.1569L41.8548 6.99573C41.8784 6.86778 41.8763 6.7364 41.8485 6.60928C41.8207 6.48216 41.7679 6.36186 41.6931 6.2554C41.3102 5.81291 41.3017 5.94055 36.749 6.10223C36.6373 6.10614 36.5274 6.13203 36.4257 6.1784C36.3239 6.22478 36.2323 6.29075 36.1561 6.37253C36.0021 6.5377 35.92 6.75728 35.9279 6.98297C35.9358 7.20866 36.033 7.42196 36.1982 7.57596C36.3633 7.72996 36.5829 7.81204 36.8086 7.80414L38.5105 7.74457L28.2395 15.9393L22.7764 12.0589C22.6276 11.9444 22.4451 11.8823 22.2573 11.8823C22.0695 11.8823 21.887 11.9444 21.7382 12.0589L11.5268 20.5685C11.3774 20.676 11.2669 20.8291 11.2119 21.0048C11.1569 21.1804 11.1603 21.3692 11.2217 21.5427C11.283 21.7163 11.399 21.8652 11.5522 21.9673C11.7054 22.0693 11.8876 22.1189 12.0714 22.1087Z" stroke="#4FF4FF" stroke-width="1.17602" mask="url(#path-4-inside-4_6223_1706)"/>
</g>
<g filter="url(#filter4_f_6223_1706)">
<mask id="path-5-inside-5_6223_1706" fill="white">
<path d="M46.9605 21.6832C46.9605 21.4038 46.9055 21.1272 46.7986 20.8691C46.6916 20.611 46.5349 20.3765 46.3374 20.1789C46.1399 19.9814 45.9053 19.8247 45.6472 19.7178C45.3891 19.6108 45.1125 19.5558 44.8331 19.5558H37.1745C36.6103 19.5558 36.0692 19.7799 35.6702 20.1789C35.2713 20.5779 35.0471 21.119 35.0471 21.6832C35.0471 24.5679 34.9535 24.8147 35.4811 25.5125C35.2024 25.88 35.0502 26.3278 35.0471 26.7889C35.0471 29.6737 34.9535 29.9204 35.4811 30.6182C34.9365 31.3415 35.0471 31.6904 35.0471 34.4475C35.0502 34.9087 35.2024 35.3565 35.4811 35.7239C35.2024 36.0914 35.0502 36.5392 35.0471 37.0004C35.0471 39.8851 34.9535 40.1319 35.4811 40.8297C34.9365 41.553 35.0471 41.9019 35.0471 44.659C35.0471 44.9383 35.1022 45.215 35.2091 45.4731C35.316 45.7312 35.4727 45.9657 35.6702 46.1633C35.8678 46.3608 36.1023 46.5175 36.3604 46.6244C36.6185 46.7313 36.8951 46.7863 37.1745 46.7863H44.8331C45.1125 46.7863 45.3891 46.7313 45.6472 46.6244C45.9053 46.5175 46.1399 46.3608 46.3374 46.1633C46.5349 45.9657 46.6916 45.7312 46.7986 45.4731C46.9055 45.215 46.9605 44.9383 46.9605 44.659C46.9605 41.7742 47.0541 41.5274 46.5265 40.8297C46.8052 40.4622 46.9574 40.0144 46.9605 39.5532C46.9605 36.6685 47.0541 36.4217 46.5265 35.7239C47.0711 35.0006 46.9605 34.6517 46.9605 31.8946C46.9574 31.4335 46.8052 30.9857 46.5265 30.6182C46.8052 30.2508 46.9574 29.803 46.9605 29.3418C46.9605 26.4571 47.0541 26.2103 46.5265 25.5125C47.0711 24.7892 46.9605 24.4403 46.9605 21.6832ZM36.749 21.6832C36.749 21.5704 36.7939 21.4621 36.8737 21.3823C36.9535 21.3025 37.0617 21.2577 37.1745 21.2577H44.8331C45.3947 21.2577 45.2586 21.7002 45.2586 24.2361C45.2586 24.3489 45.2138 24.4571 45.134 24.5369C45.0542 24.6167 44.946 24.6615 44.8331 24.6615H37.1745C36.6129 24.6615 36.749 24.219 36.749 21.6832ZM45.2586 26.7889C45.2586 29.3418 45.3947 29.7673 44.8331 29.7673H37.1745C37.0617 29.7673 36.9535 29.7224 36.8737 29.6426C36.7939 29.5629 36.749 29.4546 36.749 29.3418C36.749 26.7889 36.6129 26.3634 37.1745 26.3634H44.8331C44.946 26.3634 45.0542 26.4083 45.134 26.4881C45.2138 26.5679 45.2586 26.6761 45.2586 26.7889ZM45.2586 31.8946C45.2586 34.4475 45.3947 34.873 44.8331 34.873H37.1745C37.0617 34.873 36.9535 34.8282 36.8737 34.7484C36.7939 34.6686 36.749 34.5604 36.749 34.4475C36.749 31.8946 36.6129 31.4692 37.1745 31.4692H44.8331C44.946 31.4692 45.0542 31.514 45.134 31.5938C45.2138 31.6736 45.2586 31.7818 45.2586 31.8946ZM45.2586 37.0004C45.2586 39.5532 45.3947 39.9787 44.8331 39.9787H37.1745C37.0617 39.9787 36.9535 39.9339 36.8737 39.8541C36.7939 39.7743 36.749 39.6661 36.749 39.5532C36.749 37.0004 36.6129 36.5749 37.1745 36.5749H44.8331C44.946 36.5749 45.0542 36.6197 45.134 36.6995C45.2138 36.7793 45.2586 36.8875 45.2586 37.0004ZM45.2586 44.659C45.2586 44.7718 45.2138 44.88 45.134 44.9598C45.0542 45.0396 44.946 45.0844 44.8331 45.0844H37.1745C36.6129 45.0844 36.749 44.6419 36.749 42.1061C36.749 41.9933 36.7939 41.885 36.8737 41.8052C36.9535 41.7254 37.0617 41.6806 37.1745 41.6806H44.8331C45.3947 41.6806 45.2586 42.1231 45.2586 44.659Z"/>
<path d="M30.3669 24.6615H22.7083C22.1441 24.6615 21.603 24.8857 21.204 25.2846C20.8051 25.6836 20.5809 26.2247 20.5809 26.7889C20.5809 29.6737 20.4873 29.9204 21.0149 30.6182C20.4703 31.3415 20.5809 31.6904 20.5809 34.4475C20.584 34.9087 20.7362 35.3565 21.0149 35.7239C20.7362 36.0914 20.584 36.5392 20.5809 37.0004C20.5809 39.8851 20.4873 40.1319 21.0149 40.8297C20.4703 41.553 20.5809 41.9019 20.5809 44.659C20.5809 44.9383 20.6359 45.215 20.7429 45.4731C20.8498 45.7312 21.0065 45.9657 21.204 46.1633C21.4016 46.3608 21.6361 46.5175 21.8942 46.6244C22.1523 46.7313 22.4289 46.7863 22.7083 46.7863H30.3669C30.6463 46.7863 30.9229 46.7313 31.181 46.6244C31.4391 46.5175 31.6736 46.3608 31.8712 46.1633C32.0687 45.9657 32.2254 45.7312 32.3323 45.4731C32.4392 45.215 32.4943 44.9383 32.4943 44.659C32.4943 41.7742 32.5879 41.5274 32.0603 40.8297C32.339 40.4622 32.4912 40.0144 32.4943 39.5532C32.4943 36.6685 32.5879 36.4217 32.0603 35.7239C32.6049 35.0006 32.4943 34.6517 32.4943 31.8946C32.4912 31.4335 32.339 30.9857 32.0603 30.6182C32.6049 29.8949 32.4943 29.546 32.4943 26.7889C32.4943 26.2247 32.2701 25.6836 31.8712 25.2846C31.4722 24.8857 30.9311 24.6615 30.3669 24.6615ZM22.2828 26.7889C22.2828 26.6761 22.3277 26.5679 22.4074 26.4881C22.4872 26.4083 22.5955 26.3634 22.7083 26.3634H30.3669C30.9285 26.3634 30.7924 26.8059 30.7924 29.3418C30.7924 29.4546 30.7475 29.5629 30.6677 29.6426C30.588 29.7224 30.4797 29.7673 30.3669 29.7673H22.7083C22.1467 29.7673 22.2828 29.3248 22.2828 26.7889ZM30.7924 31.8946C30.7924 34.4475 30.9285 34.873 30.3669 34.873H22.7083C22.5955 34.873 22.4872 34.8282 22.4074 34.7484C22.3277 34.6686 22.2828 34.5604 22.2828 34.4475C22.2828 31.8946 22.1467 31.4692 22.7083 31.4692H30.3669C30.4797 31.4692 30.588 31.514 30.6677 31.5938C30.7475 31.6736 30.7924 31.7818 30.7924 31.8946ZM30.7924 37.0004C30.7924 39.5532 30.9285 39.9787 30.3669 39.9787H22.7083C22.5955 39.9787 22.4872 39.9339 22.4074 39.8541C22.3277 39.7743 22.2828 39.6661 22.2828 39.5532C22.2828 37.0004 22.1467 36.5749 22.7083 36.5749H30.3669C30.4797 36.5749 30.588 36.6197 30.6677 36.6995C30.7475 36.7793 30.7924 36.8875 30.7924 37.0004ZM30.7924 44.659C30.7924 44.7718 30.7475 44.88 30.6677 44.9598C30.588 45.0396 30.4797 45.0844 30.3669 45.0844H22.7083C22.1467 45.0844 22.2828 44.6419 22.2828 42.1061C22.2828 41.9933 22.3277 41.885 22.4074 41.8052C22.4872 41.7254 22.5955 41.6806 22.7083 41.6806H30.3669C30.9285 41.6806 30.7924 42.1231 30.7924 44.659Z"/>
<path d="M12.0714 24.6615C10.8916 24.6698 9.74089 25.0281 8.76508 25.6912C7.78927 26.3543 7.03233 27.2922 6.59024 28.386C6.14816 29.4798 6.04084 30.6803 6.2819 31.8352C6.52295 32.99 7.10153 34.0473 7.94425 34.873C7.43233 34.9435 6.96383 35.1987 6.62689 35.5905C6.28994 35.9823 6.10779 36.4837 6.1147 37.0004C6.1147 39.8851 6.0211 40.1319 6.54869 40.8297C6.00408 41.553 6.1147 41.9019 6.1147 44.659C6.1147 44.9383 6.16973 45.215 6.27664 45.4731C6.38355 45.7312 6.54025 45.9657 6.7378 46.1633C6.93534 46.3608 7.16986 46.5175 7.42797 46.6244C7.68608 46.7313 7.96271 46.7863 8.24209 46.7863H15.9007C16.18 46.7863 16.4567 46.7313 16.7148 46.6244C16.9729 46.5175 17.2074 46.3608 17.405 46.1633C17.6025 45.9657 17.7592 45.7312 17.8661 45.4731C17.973 45.215 18.0281 44.9383 18.0281 44.659C18.0281 41.7742 18.1217 41.5274 17.5941 40.8297C18.1387 40.1064 18.0281 39.7575 18.0281 37.0004C18.035 36.4837 17.8528 35.9823 17.5159 35.5905C17.1789 35.1987 16.7104 34.9435 16.1985 34.873C17.0412 34.0473 17.6198 32.99 17.8609 31.8352C18.1019 30.6803 17.9946 29.4798 17.5525 28.386C17.1104 27.2922 16.3535 26.3543 15.3777 25.6912C14.4019 25.0281 13.2511 24.6698 12.0714 24.6615ZM7.81661 30.6182C7.81661 29.7767 8.06615 28.9541 8.53367 28.2544C9.00119 27.5547 9.66569 27.0094 10.4431 26.6873C11.2206 26.3653 12.0761 26.281 12.9014 26.4452C13.7268 26.6094 14.4849 27.0146 15.08 27.6096C15.675 28.2047 16.0802 28.9628 16.2444 29.7882C16.4086 30.6135 16.3243 31.469 16.0023 32.2464C15.6802 33.0239 15.1349 33.6884 14.4352 34.1559C13.7355 34.6235 12.9129 34.873 12.0714 34.873C10.9429 34.873 9.86073 34.4247 9.0628 33.6268C8.26488 32.8289 7.81661 31.7467 7.81661 30.6182ZM16.3261 44.659C16.3261 44.7718 16.2813 44.88 16.2015 44.9598C16.1217 45.0396 16.0135 45.0844 15.9007 45.0844H8.24209C7.68046 45.0844 7.81661 44.6419 7.81661 42.1061C7.81661 41.9933 7.86144 41.885 7.94123 41.8052C8.02102 41.7254 8.12924 41.6806 8.24209 41.6806H15.9007C16.4623 41.6806 16.3261 42.1231 16.3261 44.659ZM15.9007 36.5749C16.4623 36.5749 16.3261 37.0174 16.3261 39.5532C16.3261 39.6661 16.2813 39.7743 16.2015 39.8541C16.1217 39.9339 16.0135 39.9787 15.9007 39.9787H8.24209C7.68046 39.9787 7.81661 39.5362 7.81661 37.0004C7.81661 36.8875 7.86144 36.7793 7.94123 36.6995C8.02102 36.6197 8.12924 36.5749 8.24209 36.5749H15.9007Z"/>
<path d="M12.0714 22.1087C12.5139 22.1087 11.7735 22.6192 22.3254 13.8204L27.746 17.6922C27.894 17.8047 28.0748 17.8656 28.2608 17.8656C28.4467 17.8656 28.6276 17.8047 28.7756 17.6922L39.5657 9.03802L39.1402 10.7399C39.0849 10.9588 39.1189 11.1908 39.2346 11.3847C39.3503 11.5786 39.5383 11.7185 39.7572 11.7738C39.9761 11.8291 40.208 11.7952 40.4019 11.6795C40.5958 11.5638 40.7358 11.3758 40.7911 11.1569L41.8548 6.99573C41.8784 6.86778 41.8763 6.7364 41.8485 6.60928C41.8207 6.48216 41.7679 6.36186 41.6931 6.2554C41.3102 5.81291 41.3017 5.94055 36.749 6.10223C36.6373 6.10614 36.5274 6.13203 36.4257 6.1784C36.3239 6.22478 36.2323 6.29075 36.1561 6.37253C36.0021 6.5377 35.92 6.75728 35.9279 6.98297C35.9358 7.20866 36.033 7.42196 36.1982 7.57596C36.3633 7.72996 36.5829 7.81204 36.8086 7.80414L38.5105 7.74457L28.2395 15.9393L22.7764 12.0589C22.6276 11.9444 22.4451 11.8823 22.2573 11.8823C22.0695 11.8823 21.887 11.9444 21.7382 12.0589L11.5268 20.5685C11.3774 20.676 11.2669 20.8291 11.2119 21.0048C11.1569 21.1804 11.1603 21.3692 11.2217 21.5427C11.283 21.7163 11.399 21.8652 11.5522 21.9673C11.7054 22.0693 11.8876 22.1189 12.0714 22.1087Z"/>
</mask>
<path d="M46.9605 21.6832C46.9605 21.4038 46.9055 21.1272 46.7986 20.8691C46.6916 20.611 46.5349 20.3765 46.3374 20.1789C46.1399 19.9814 45.9053 19.8247 45.6472 19.7178C45.3891 19.6108 45.1125 19.5558 44.8331 19.5558H37.1745C36.6103 19.5558 36.0692 19.7799 35.6702 20.1789C35.2713 20.5779 35.0471 21.119 35.0471 21.6832C35.0471 24.5679 34.9535 24.8147 35.4811 25.5125C35.2024 25.88 35.0502 26.3278 35.0471 26.7889C35.0471 29.6737 34.9535 29.9204 35.4811 30.6182C34.9365 31.3415 35.0471 31.6904 35.0471 34.4475C35.0502 34.9087 35.2024 35.3565 35.4811 35.7239C35.2024 36.0914 35.0502 36.5392 35.0471 37.0004C35.0471 39.8851 34.9535 40.1319 35.4811 40.8297C34.9365 41.553 35.0471 41.9019 35.0471 44.659C35.0471 44.9383 35.1022 45.215 35.2091 45.4731C35.316 45.7312 35.4727 45.9657 35.6702 46.1633C35.8678 46.3608 36.1023 46.5175 36.3604 46.6244C36.6185 46.7313 36.8951 46.7863 37.1745 46.7863H44.8331C45.1125 46.7863 45.3891 46.7313 45.6472 46.6244C45.9053 46.5175 46.1399 46.3608 46.3374 46.1633C46.5349 45.9657 46.6916 45.7312 46.7986 45.4731C46.9055 45.215 46.9605 44.9383 46.9605 44.659C46.9605 41.7742 47.0541 41.5274 46.5265 40.8297C46.8052 40.4622 46.9574 40.0144 46.9605 39.5532C46.9605 36.6685 47.0541 36.4217 46.5265 35.7239C47.0711 35.0006 46.9605 34.6517 46.9605 31.8946C46.9574 31.4335 46.8052 30.9857 46.5265 30.6182C46.8052 30.2508 46.9574 29.803 46.9605 29.3418C46.9605 26.4571 47.0541 26.2103 46.5265 25.5125C47.0711 24.7892 46.9605 24.4403 46.9605 21.6832ZM36.749 21.6832C36.749 21.5704 36.7939 21.4621 36.8737 21.3823C36.9535 21.3025 37.0617 21.2577 37.1745 21.2577H44.8331C45.3947 21.2577 45.2586 21.7002 45.2586 24.2361C45.2586 24.3489 45.2138 24.4571 45.134 24.5369C45.0542 24.6167 44.946 24.6615 44.8331 24.6615H37.1745C36.6129 24.6615 36.749 24.219 36.749 21.6832ZM45.2586 26.7889C45.2586 29.3418 45.3947 29.7673 44.8331 29.7673H37.1745C37.0617 29.7673 36.9535 29.7224 36.8737 29.6426C36.7939 29.5629 36.749 29.4546 36.749 29.3418C36.749 26.7889 36.6129 26.3634 37.1745 26.3634H44.8331C44.946 26.3634 45.0542 26.4083 45.134 26.4881C45.2138 26.5679 45.2586 26.6761 45.2586 26.7889ZM45.2586 31.8946C45.2586 34.4475 45.3947 34.873 44.8331 34.873H37.1745C37.0617 34.873 36.9535 34.8282 36.8737 34.7484C36.7939 34.6686 36.749 34.5604 36.749 34.4475C36.749 31.8946 36.6129 31.4692 37.1745 31.4692H44.8331C44.946 31.4692 45.0542 31.514 45.134 31.5938C45.2138 31.6736 45.2586 31.7818 45.2586 31.8946ZM45.2586 37.0004C45.2586 39.5532 45.3947 39.9787 44.8331 39.9787H37.1745C37.0617 39.9787 36.9535 39.9339 36.8737 39.8541C36.7939 39.7743 36.749 39.6661 36.749 39.5532C36.749 37.0004 36.6129 36.5749 37.1745 36.5749H44.8331C44.946 36.5749 45.0542 36.6197 45.134 36.6995C45.2138 36.7793 45.2586 36.8875 45.2586 37.0004ZM45.2586 44.659C45.2586 44.7718 45.2138 44.88 45.134 44.9598C45.0542 45.0396 44.946 45.0844 44.8331 45.0844H37.1745C36.6129 45.0844 36.749 44.6419 36.749 42.1061C36.749 41.9933 36.7939 41.885 36.8737 41.8052C36.9535 41.7254 37.0617 41.6806 37.1745 41.6806H44.8331C45.3947 41.6806 45.2586 42.1231 45.2586 44.659Z" stroke="white" stroke-width="0.588012" mask="url(#path-5-inside-5_6223_1706)"/>
<path d="M30.3669 24.6615H22.7083C22.1441 24.6615 21.603 24.8857 21.204 25.2846C20.8051 25.6836 20.5809 26.2247 20.5809 26.7889C20.5809 29.6737 20.4873 29.9204 21.0149 30.6182C20.4703 31.3415 20.5809 31.6904 20.5809 34.4475C20.584 34.9087 20.7362 35.3565 21.0149 35.7239C20.7362 36.0914 20.584 36.5392 20.5809 37.0004C20.5809 39.8851 20.4873 40.1319 21.0149 40.8297C20.4703 41.553 20.5809 41.9019 20.5809 44.659C20.5809 44.9383 20.6359 45.215 20.7429 45.4731C20.8498 45.7312 21.0065 45.9657 21.204 46.1633C21.4016 46.3608 21.6361 46.5175 21.8942 46.6244C22.1523 46.7313 22.4289 46.7863 22.7083 46.7863H30.3669C30.6463 46.7863 30.9229 46.7313 31.181 46.6244C31.4391 46.5175 31.6736 46.3608 31.8712 46.1633C32.0687 45.9657 32.2254 45.7312 32.3323 45.4731C32.4392 45.215 32.4943 44.9383 32.4943 44.659C32.4943 41.7742 32.5879 41.5274 32.0603 40.8297C32.339 40.4622 32.4912 40.0144 32.4943 39.5532C32.4943 36.6685 32.5879 36.4217 32.0603 35.7239C32.6049 35.0006 32.4943 34.6517 32.4943 31.8946C32.4912 31.4335 32.339 30.9857 32.0603 30.6182C32.6049 29.8949 32.4943 29.546 32.4943 26.7889C32.4943 26.2247 32.2701 25.6836 31.8712 25.2846C31.4722 24.8857 30.9311 24.6615 30.3669 24.6615ZM22.2828 26.7889C22.2828 26.6761 22.3277 26.5679 22.4074 26.4881C22.4872 26.4083 22.5955 26.3634 22.7083 26.3634H30.3669C30.9285 26.3634 30.7924 26.8059 30.7924 29.3418C30.7924 29.4546 30.7475 29.5629 30.6677 29.6426C30.588 29.7224 30.4797 29.7673 30.3669 29.7673H22.7083C22.1467 29.7673 22.2828 29.3248 22.2828 26.7889ZM30.7924 31.8946C30.7924 34.4475 30.9285 34.873 30.3669 34.873H22.7083C22.5955 34.873 22.4872 34.8282 22.4074 34.7484C22.3277 34.6686 22.2828 34.5604 22.2828 34.4475C22.2828 31.8946 22.1467 31.4692 22.7083 31.4692H30.3669C30.4797 31.4692 30.588 31.514 30.6677 31.5938C30.7475 31.6736 30.7924 31.7818 30.7924 31.8946ZM30.7924 37.0004C30.7924 39.5532 30.9285 39.9787 30.3669 39.9787H22.7083C22.5955 39.9787 22.4872 39.9339 22.4074 39.8541C22.3277 39.7743 22.2828 39.6661 22.2828 39.5532C22.2828 37.0004 22.1467 36.5749 22.7083 36.5749H30.3669C30.4797 36.5749 30.588 36.6197 30.6677 36.6995C30.7475 36.7793 30.7924 36.8875 30.7924 37.0004ZM30.7924 44.659C30.7924 44.7718 30.7475 44.88 30.6677 44.9598C30.588 45.0396 30.4797 45.0844 30.3669 45.0844H22.7083C22.1467 45.0844 22.2828 44.6419 22.2828 42.1061C22.2828 41.9933 22.3277 41.885 22.4074 41.8052C22.4872 41.7254 22.5955 41.6806 22.7083 41.6806H30.3669C30.9285 41.6806 30.7924 42.1231 30.7924 44.659Z" stroke="white" stroke-width="0.588012" mask="url(#path-5-inside-5_6223_1706)"/>
<path d="M12.0714 24.6615C10.8916 24.6698 9.74089 25.0281 8.76508 25.6912C7.78927 26.3543 7.03233 27.2922 6.59024 28.386C6.14816 29.4798 6.04084 30.6803 6.2819 31.8352C6.52295 32.99 7.10153 34.0473 7.94425 34.873C7.43233 34.9435 6.96383 35.1987 6.62689 35.5905C6.28994 35.9823 6.10779 36.4837 6.1147 37.0004C6.1147 39.8851 6.0211 40.1319 6.54869 40.8297C6.00408 41.553 6.1147 41.9019 6.1147 44.659C6.1147 44.9383 6.16973 45.215 6.27664 45.4731C6.38355 45.7312 6.54025 45.9657 6.7378 46.1633C6.93534 46.3608 7.16986 46.5175 7.42797 46.6244C7.68608 46.7313 7.96271 46.7863 8.24209 46.7863H15.9007C16.18 46.7863 16.4567 46.7313 16.7148 46.6244C16.9729 46.5175 17.2074 46.3608 17.405 46.1633C17.6025 45.9657 17.7592 45.7312 17.8661 45.4731C17.973 45.215 18.0281 44.9383 18.0281 44.659C18.0281 41.7742 18.1217 41.5274 17.5941 40.8297C18.1387 40.1064 18.0281 39.7575 18.0281 37.0004C18.035 36.4837 17.8528 35.9823 17.5159 35.5905C17.1789 35.1987 16.7104 34.9435 16.1985 34.873C17.0412 34.0473 17.6198 32.99 17.8609 31.8352C18.1019 30.6803 17.9946 29.4798 17.5525 28.386C17.1104 27.2922 16.3535 26.3543 15.3777 25.6912C14.4019 25.0281 13.2511 24.6698 12.0714 24.6615ZM7.81661 30.6182C7.81661 29.7767 8.06615 28.9541 8.53367 28.2544C9.00119 27.5547 9.66569 27.0094 10.4431 26.6873C11.2206 26.3653 12.0761 26.281 12.9014 26.4452C13.7268 26.6094 14.4849 27.0146 15.08 27.6096C15.675 28.2047 16.0802 28.9628 16.2444 29.7882C16.4086 30.6135 16.3243 31.469 16.0023 32.2464C15.6802 33.0239 15.1349 33.6884 14.4352 34.1559C13.7355 34.6235 12.9129 34.873 12.0714 34.873C10.9429 34.873 9.86073 34.4247 9.0628 33.6268C8.26488 32.8289 7.81661 31.7467 7.81661 30.6182ZM16.3261 44.659C16.3261 44.7718 16.2813 44.88 16.2015 44.9598C16.1217 45.0396 16.0135 45.0844 15.9007 45.0844H8.24209C7.68046 45.0844 7.81661 44.6419 7.81661 42.1061C7.81661 41.9933 7.86144 41.885 7.94123 41.8052C8.02102 41.7254 8.12924 41.6806 8.24209 41.6806H15.9007C16.4623 41.6806 16.3261 42.1231 16.3261 44.659ZM15.9007 36.5749C16.4623 36.5749 16.3261 37.0174 16.3261 39.5532C16.3261 39.6661 16.2813 39.7743 16.2015 39.8541C16.1217 39.9339 16.0135 39.9787 15.9007 39.9787H8.24209C7.68046 39.9787 7.81661 39.5362 7.81661 37.0004C7.81661 36.8875 7.86144 36.7793 7.94123 36.6995C8.02102 36.6197 8.12924 36.5749 8.24209 36.5749H15.9007Z" stroke="white" stroke-width="0.588012" mask="url(#path-5-inside-5_6223_1706)"/>
<path d="M12.0714 22.1087C12.5139 22.1087 11.7735 22.6192 22.3254 13.8204L27.746 17.6922C27.894 17.8047 28.0748 17.8656 28.2608 17.8656C28.4467 17.8656 28.6276 17.8047 28.7756 17.6922L39.5657 9.03802L39.1402 10.7399C39.0849 10.9588 39.1189 11.1908 39.2346 11.3847C39.3503 11.5786 39.5383 11.7185 39.7572 11.7738C39.9761 11.8291 40.208 11.7952 40.4019 11.6795C40.5958 11.5638 40.7358 11.3758 40.7911 11.1569L41.8548 6.99573C41.8784 6.86778 41.8763 6.7364 41.8485 6.60928C41.8207 6.48216 41.7679 6.36186 41.6931 6.2554C41.3102 5.81291 41.3017 5.94055 36.749 6.10223C36.6373 6.10614 36.5274 6.13203 36.4257 6.1784C36.3239 6.22478 36.2323 6.29075 36.1561 6.37253C36.0021 6.5377 35.92 6.75728 35.9279 6.98297C35.9358 7.20866 36.033 7.42196 36.1982 7.57596C36.3633 7.72996 36.5829 7.81204 36.8086 7.80414L38.5105 7.74457L28.2395 15.9393L22.7764 12.0589C22.6276 11.9444 22.4451 11.8823 22.2573 11.8823C22.0695 11.8823 21.887 11.9444 21.7382 12.0589L11.5268 20.5685C11.3774 20.676 11.2669 20.8291 11.2119 21.0048C11.1569 21.1804 11.1603 21.3692 11.2217 21.5427C11.283 21.7163 11.399 21.8652 11.5522 21.9673C11.7054 22.0693 11.8876 22.1189 12.0714 22.1087Z" stroke="white" stroke-width="0.588012" mask="url(#path-5-inside-5_6223_1706)"/>
</g>
<defs>
<filter id="filter0_f_6223_1706" x="0.377991" y="0.224671" width="52.3192" height="52.2889" filterUnits="userSpaceOnUse" color-interpolation-filters="sRGB">
<feFlood flood-opacity="0" result="BackgroundImageFix"/>
<feBlend mode="normal" in="SourceGraphic" in2="BackgroundImageFix" result="shape"/>
<feGaussianBlur stdDeviation="2.86374" result="effect1_foregroundBlur_6223_1706"/>
</filter>
<filter id="filter1_f_6223_1706" x="4.19631" y="4.04299" width="44.6826" height="44.6523" filterUnits="userSpaceOnUse" color-interpolation-filters="sRGB">
<feFlood flood-opacity="0" result="BackgroundImageFix"/>
<feBlend mode="normal" in="SourceGraphic" in2="BackgroundImageFix" result="shape"/>
<feGaussianBlur stdDeviation="0.95458" result="effect1_foregroundBlur_6223_1706"/>
</filter>
<filter id="filter2_ddi_6223_1706" x="3.62356" y="5.3794" width="45.8281" height="45.7978" filterUnits="userSpaceOnUse" color-interpolation-filters="sRGB">
<feFlood flood-opacity="0" result="BackgroundImageFix"/>
<feColorMatrix in="SourceAlpha" type="matrix" values="0 0 0 0 0 0 0 0 0 0 0 0 0 0 0 0 0 0 127 0" result="hardAlpha"/>
<feOffset dy="1.32722"/>
<feGaussianBlur stdDeviation="0.51047"/>
<feColorMatrix type="matrix" values="0 0 0 0 0.00611111 0 0 0 0 0.0863195 0 0 0 0 0.0916667 0 0 0 0.7 0"/>
<feBlend mode="multiply" in2="BackgroundImageFix" result="effect1_dropShadow_6223_1706"/>
<feColorMatrix in="SourceAlpha" type="matrix" values="0 0 0 0 0 0 0 0 0 0 0 0 0 0 0 0 0 0 127 0" result="hardAlpha"/>
<feOffset dy="1.90916"/>
<feGaussianBlur stdDeviation="1.24095"/>
<feColorMatrix type="matrix" values="0 0 0 0 0.0702778 0 0 0 0 0.363767 0 0 0 0 0.383333 0 0 0 1 0"/>
<feBlend mode="color-dodge" in2="effect1_dropShadow_6223_1706" result="effect2_dropShadow_6223_1706"/>
<feBlend mode="normal" in="SourceGraphic" in2="effect2_dropShadow_6223_1706" result="shape"/>
<feColorMatrix in="SourceAlpha" type="matrix" values="0 0 0 0 0 0 0 0 0 0 0 0 0 0 0 0 0 0 127 0" result="hardAlpha"/>
<feOffset dx="-0.132722" dy="0.265445"/>
<feGaussianBlur stdDeviation="0.0663612"/>
<feComposite in2="hardAlpha" operator="arithmetic" k2="-1" k3="1"/>
<feColorMatrix type="matrix" values="0 0 0 0 1 0 0 0 0 1 0 0 0 0 1 0 0 0 0.5 0"/>
<feBlend mode="normal" in2="shape" result="effect3_innerShadow_6223_1706"/>
</filter>
<filter id="filter3_f_6223_1706" x="5.90128" y="5.74796" width="41.2726" height="41.2424" filterUnits="userSpaceOnUse" color-interpolation-filters="sRGB">
<feFlood flood-opacity="0" result="BackgroundImageFix"/>
<feBlend mode="normal" in="SourceGraphic" in2="BackgroundImageFix" result="shape"/>
<feGaussianBlur stdDeviation="0.102094" result="effect1_foregroundBlur_6223_1706"/>
</filter>
<filter id="filter4_f_6223_1706" x="5.96934" y="5.81602" width="41.1365" height="41.1062" filterUnits="userSpaceOnUse" color-interpolation-filters="sRGB">
<feFlood flood-opacity="0" result="BackgroundImageFix"/>
<feBlend mode="normal" in="SourceGraphic" in2="BackgroundImageFix" result="shape"/>
<feGaussianBlur stdDeviation="0.0680627" result="effect1_foregroundBlur_6223_1706"/>
</filter>
</defs>
</svg>
