<svg width="95" height="89" viewBox="0 0 95 89" fill="none" xmlns="http://www.w3.org/2000/svg">
<g style="mix-blend-mode:hard-light" filter="url(#filter0_f_5110_2582)">
<path d="M76.7288 46.0376C76.4762 45.4201 76.1018 44.8525 75.6208 44.3715C74.6721 43.4228 73.3862 42.8886 72.0446 42.8858C72.0435 42.8858 72.0424 42.8858 72.0413 42.8858L72.0401 42.8858L50.8003 42.8858M76.7288 46.0376L50.8003 42.8858M76.7288 46.0376H72.0449C72.0444 46.0376 72.0438 46.0376 72.0433 46.0376H72.0413L51.2743 46.0376H76.7288ZM50.8003 42.8858C50.639 42.6005 50.4387 42.3358 50.2029 42.1C50.1125 42.0096 50.0179 41.9245 49.9195 41.8447H47.6163H45.3131C45.2147 41.9245 45.1201 42.0096 45.0297 42.1C44.7939 42.3358 44.5936 42.6005 44.4323 42.8858H45.8155H47.6163H49.4171H50.8003ZM46.0404 48.1197V58.4186C46.0404 58.4187 46.0404 58.4188 46.0404 58.4189C46.0405 58.8368 46.2066 59.2375 46.5022 59.533C46.7976 59.8285 47.1982 59.9945 47.616 59.9948L46.0404 48.1197ZM46.0404 48.1197H49.1922M46.0404 48.1197H49.1922M49.1922 48.1197V58.4186C49.1922 58.4187 49.1922 58.4188 49.1922 58.4189C49.192 58.8368 49.026 59.2375 48.7304 59.533C48.435 59.8285 48.0344 59.9945 47.6166 59.9948L49.1922 48.1197ZM79.0199 32.0805H62.488C63.9125 31.4962 65.7527 30.6278 67.4172 29.3726C67.6059 29.2302 67.7932 29.0823 67.978 28.9286H79.0186C80.3618 28.9302 81.6496 29.4646 82.5994 30.4144C83.5492 31.3642 84.0835 32.6519 84.0851 33.9951V40.9712C84.0835 42.3144 83.5492 43.6021 82.5994 44.5519C81.6496 45.5017 80.3618 46.036 79.0186 46.0376H78.926C78.5981 44.8614 77.9716 43.7778 77.093 42.8993C77.0885 42.8948 77.084 42.8903 77.0795 42.8858H79.0199L79.0219 42.8858C79.5285 42.8848 80.0141 42.6831 80.3723 42.3249C80.7306 41.9666 80.9323 41.481 80.9333 40.9744V40.9724V33.9938V33.9918C80.9323 33.4852 80.7306 32.9996 80.3723 32.6414C80.0141 32.2831 79.5285 32.0815 79.0219 32.0805H79.0199ZM44.2995 30.9107C44.3457 31.316 44.4592 31.7095 44.6341 32.0752C41.3802 31.993 38.1459 31.5189 35.0017 30.6617C33.4203 30.1291 32.0958 29.5435 30.9876 28.9286H44.617C44.5841 29.0151 44.5511 29.1015 44.518 29.1878L44.5178 29.1884C44.3079 29.7367 44.2331 30.3274 44.2995 30.9107ZM33.8719 26.8466H28.0857C27.7535 26.5309 27.4618 26.2143 27.2061 25.8996C25.8602 24.2432 25.452 22.5668 25.4285 21.1574C25.4479 19.9262 25.713 18.7113 26.2081 17.5838C26.7052 16.4517 27.4242 15.4307 28.3227 14.5812L28.3366 14.5681L28.35 14.5544C29.297 13.5905 30.4251 12.8232 31.6695 12.2966C32.9089 11.772 34.2394 11.4966 35.5851 11.4858C38.0915 11.5522 40.0009 12.741 41.5777 14.4495C43.1716 16.1766 44.361 18.3636 45.4228 20.3336C45.8455 21.297 46.2449 22.2701 46.6209 23.2521C46.2303 24.4517 45.8189 25.6516 45.3884 26.8466H44.5741C44.0571 25.1677 43.4306 23.5243 42.6986 21.9269L42.6845 21.8962L42.6685 21.8666C41.631 19.9424 40.643 18.192 39.5676 16.9181C38.4814 15.6316 37.1776 14.6788 35.4904 14.6378V14.6378L35.4845 14.6377L35.3891 14.6359L35.351 14.6352L35.313 14.6373C33.5154 14.7353 31.821 15.5062 30.5663 16.7959C29.9785 17.3326 29.5011 17.979 29.161 18.6989C28.8156 19.4299 28.6186 20.2221 28.5813 21.0297L28.5799 21.061L28.5803 21.0924C28.6014 22.5905 29.4407 23.8934 30.7191 24.9585C31.5538 25.6539 32.6155 26.2845 33.8719 26.8466ZM47.5991 26.8466C47.6481 26.7078 47.6969 26.5691 47.7454 26.4303C47.7905 26.5689 47.8352 26.7076 47.8794 26.8466H47.5991ZM50.6647 28.9286H64.2757C62.7762 29.7631 61.3021 30.3213 60.3126 30.6919C57.2282 31.5328 54.0562 31.9984 50.8652 32.0805H50.5918C50.7309 31.7916 50.8319 31.4848 50.8914 31.1677C50.9934 30.6251 50.9712 30.0664 50.8268 29.5336C50.7737 29.3317 50.7196 29.13 50.6647 28.9286ZM67.1921 26.8466H61.3946C62.0684 26.5374 62.7852 26.1691 63.4597 25.7411C64.9728 24.7811 66.6592 23.2773 66.6592 21.1543V21.1314L66.6582 21.1086C66.5796 19.3197 65.7961 17.6346 64.479 16.4216C63.1667 15.213 61.4309 14.5709 59.6485 14.6341C57.2803 14.6423 55.6243 16.0957 54.5645 17.5543C53.4988 19.021 52.9086 20.6557 52.6716 21.4094L52.6686 21.4187L52.6658 21.4282C52.1361 23.2307 51.5573 25.0421 50.9368 26.8466H50.0608C49.6835 25.6191 49.2716 24.4026 48.8256 23.1986C49.1067 22.3171 49.3766 21.4362 49.6345 20.5577C49.994 19.4181 50.8605 17.1132 52.4804 15.1092C54.0887 13.1196 56.3865 11.4822 59.6686 11.4822H59.679L59.6894 11.482C62.3163 11.4296 64.8568 12.4209 66.7541 14.2384C68.6486 16.0532 69.7475 18.544 69.8111 21.1663C69.8075 23.5611 68.7241 25.4051 67.1921 26.8466ZM48.504 28.9286C48.6108 29.3072 48.7142 29.6868 48.8143 30.0674L48.8143 30.0674L48.8167 30.0764C48.8795 30.3069 48.8892 30.5486 48.8451 30.7834C48.8011 31.0182 48.7043 31.2399 48.5621 31.4319C48.42 31.6238 48.2361 31.7811 48.0244 31.8918C47.8929 31.9605 47.7527 32.0102 47.6081 32.0397C47.459 32.008 47.3148 31.9549 47.1801 31.8814C46.9579 31.7602 46.7682 31.5873 46.6269 31.3773C46.4856 31.1674 46.3969 30.9265 46.3682 30.6751C46.3396 30.4236 46.3718 30.169 46.4623 29.9326C46.5904 29.5986 46.717 29.2639 46.8423 28.9286H48.504ZM18.1261 72.3748L18.1261 48.1197H21.2779L21.2779 72.376L21.2779 72.378C21.2789 72.8846 21.4806 73.3702 21.8388 73.7285L22.5749 72.9924L21.8388 73.7285C22.1971 74.0867 22.6826 74.2884 23.1893 74.2894H23.1913L72.0413 74.2894L72.0433 74.2894C72.55 74.2884 73.0355 74.0867 73.3938 73.7285C73.752 73.3702 73.9537 72.8847 73.9547 72.378V72.376V48.1197H77.1065V72.3748C77.1049 73.718 76.5706 75.0057 75.6208 75.9555C74.671 76.9053 73.3833 77.4396 72.0401 77.4412H23.1925C21.8493 77.4396 20.5616 76.9053 19.6118 75.9555C18.6622 75.0059 18.1279 73.7184 18.1261 72.3755C18.1261 72.3752 18.1261 72.375 18.1261 72.3748ZM49.1922 44.6866V46.0376H46.0404V44.6866C46.0404 44.2686 46.2064 43.8678 46.5019 43.5722C46.7975 43.2767 47.1983 43.1107 47.6163 43.1107C48.0343 43.1107 48.4351 43.2767 48.7306 43.5722C49.0262 43.8678 49.1922 44.2686 49.1922 44.6866ZM43.9583 46.0376V47.0787V46.0376ZM16.3066 46.0376H16.214C14.8707 46.036 13.583 45.5017 12.6332 44.5519C11.6836 43.6022 11.1493 42.3147 11.1475 40.9717V33.9945C11.1493 32.6515 11.6836 31.364 12.6332 30.4144C13.583 29.4646 14.8707 28.9302 16.214 28.9286H27.2938C28.6721 30.0826 30.4787 31.154 32.8194 32.0805L16.2127 32.0805L16.2107 32.0805C15.7041 32.0815 15.2185 32.2831 14.8602 32.6414C14.502 32.9996 14.3003 33.4852 14.2993 33.9918V33.9938L14.2993 40.9724L14.2993 40.9744C14.3003 41.481 14.502 41.9666 14.8602 42.3249L16.3066 46.0376ZM18.1261 47.9515V47.951H17.085L18.1261 47.9515Z" stroke="#FFAB2D" stroke-width="2.08206"/>
</g>
<g style="mix-blend-mode:hard-light" filter="url(#filter1_f_5110_2582)">
<path d="M47.876 31.6079C47.7911 31.6523 47.7016 31.6867 47.6094 31.7107C47.5137 31.685 47.4211 31.648 47.3335 31.6002C47.1565 31.5036 47.0052 31.3658 46.8926 31.1985C46.78 31.0312 46.7093 30.8392 46.6865 30.6388C46.6637 30.4387 46.6893 30.236 46.7612 30.0478C46.8631 29.7819 46.9642 29.5156 47.0643 29.2489H48.2611C48.3443 29.5483 48.4255 29.8483 48.5045 30.1488L48.5045 30.1489L48.5077 30.1606C48.5577 30.3444 48.5655 30.5371 48.5303 30.7243C48.4952 30.9114 48.418 31.0882 48.3047 31.2412C48.1914 31.3943 48.0448 31.5197 47.876 31.6079ZM46.2811 23.2608C45.9252 24.3505 45.5521 25.4403 45.1631 26.5262H44.8099C44.3026 24.9125 43.6947 23.3318 42.9897 21.7935L42.9714 21.7534L42.9504 21.7145C41.9151 19.7944 40.9126 18.0146 39.8123 16.7115C38.6982 15.3918 37.3161 14.3617 35.4981 14.3176V14.3176L35.4905 14.3175L35.3951 14.3157L35.3453 14.3147L35.2956 14.3175C33.4208 14.4197 31.6535 15.2225 30.3433 16.5657C29.728 17.1293 29.228 17.8073 28.8714 18.5621L30.1022 19.1437L28.8714 18.5621C28.5079 19.3313 28.3005 20.165 28.2613 21.015L28.2594 21.0559L28.26 21.0969C28.2829 22.7215 29.1938 24.1046 30.5141 25.2046C31.0808 25.6767 31.7454 26.1174 32.4973 26.5262H28.2147C27.9299 26.249 27.6777 25.9721 27.4547 25.6976C26.1616 24.1062 25.7722 22.5038 25.7488 21.1572C25.7683 19.9705 26.0241 18.7995 26.5014 17.7126C26.9813 16.6197 27.6754 15.6341 28.5427 14.814L28.561 14.7968L28.5785 14.7789C29.4959 13.8451 30.5888 13.1017 31.7944 12.5915C32.9934 12.0841 34.2803 11.8173 35.5821 11.8061C37.9743 11.8712 39.8058 13.0019 41.3424 14.6668C42.9015 16.3562 44.0715 18.5018 45.1346 20.4741C45.5382 21.3944 45.9204 22.3235 46.2811 23.2608ZM51.1363 29.4512C51.1186 29.3837 51.1007 29.3163 51.0828 29.2489H62.9542C61.9101 29.7471 60.9393 30.1151 60.2141 30.3867C57.2275 31.1998 54.1581 31.6582 51.0692 31.7542C51.1267 31.5822 51.1726 31.4061 51.2062 31.2269L49.8683 30.9756L51.2062 31.2268C51.317 30.6372 51.2931 30.0302 51.1363 29.4512ZM67.61 29.6283C67.7721 29.5061 67.9333 29.3796 68.093 29.2489L79.0182 29.2489C79.0187 29.2489 79.0192 29.2489 79.0196 29.2489C80.2775 29.2508 81.4834 29.7514 82.3729 30.6409L83.3355 29.6782L82.3729 30.6409C83.2627 31.5307 83.7633 32.7371 83.7648 33.9955V40.9708C83.7633 42.2292 83.2627 43.4356 82.3729 44.3254C81.5175 45.1807 80.3697 45.6764 79.1643 45.7149C78.8775 44.8035 78.4172 43.9508 77.8038 43.2061L79.0199 43.2061L79.0225 43.2061C79.6139 43.205 80.1807 42.9695 80.5988 42.5514C81.017 42.1332 81.2524 41.5664 81.2536 40.975V40.9724V33.9938L81.2536 33.9912C81.2524 33.3999 81.017 32.833 80.5988 32.4149C80.1807 31.9967 79.6139 31.7613 79.0225 31.7602H79.0199H64.0129C65.1599 31.2188 66.4277 30.5199 67.61 29.6283ZM76.2246 45.7173H72.0456C72.045 45.7173 72.0445 45.7173 72.0439 45.7173H72.0413L51.5946 45.7173V44.6866C51.5946 44.1744 51.4958 43.6724 51.3089 43.2061L72.0397 43.2061C72.0402 43.2061 72.0408 43.2061 72.0413 43.2061C72.0416 43.2061 72.0419 43.2061 72.0422 43.2061C73.2997 43.2083 74.5051 43.7088 75.3943 44.598C75.7276 44.9313 76.0063 45.3091 76.2246 45.7173ZM43.9813 30.947C44.0121 31.2174 44.0704 31.483 44.1549 31.7398C41.0943 31.6253 38.0545 31.1612 35.095 30.3551C34.06 30.0062 33.1385 29.6351 32.3183 29.2489H44.1563C43.976 29.7949 43.916 30.3743 43.9813 30.947ZM49.1642 23.1909C49.4337 22.3431 49.6928 21.4959 49.941 20.6509C50.2958 19.527 51.1473 17.2679 52.7295 15.3105C54.2965 13.372 56.5105 11.8025 59.6686 11.8025H59.6822L59.6958 11.8022C62.2379 11.7516 64.6964 12.7108 66.5325 14.4697C68.3649 16.225 69.4282 18.6338 69.4907 21.17C69.4862 23.403 68.5005 25.1426 67.0642 26.5262H62.7541C63.0495 26.3654 63.3441 26.1939 63.6313 26.0116C65.1554 25.0446 66.9795 23.4575 66.9795 21.1543V21.1244L66.9782 21.0945C66.8959 19.2211 66.0754 17.4564 64.6959 16.186C63.3229 14.9214 61.5071 14.2491 59.6423 14.3138C57.131 14.3245 55.393 15.869 54.3054 17.366C53.21 18.8735 52.6073 20.546 52.366 21.3132L52.3621 21.3255L52.3585 21.3379C51.8514 23.0636 51.2991 24.7977 50.708 26.5262H50.297C49.9481 25.4049 49.5704 24.2927 49.1642 23.1909ZM18.4464 72.3744L18.4464 48.44H20.9576L20.9576 72.376L20.9576 72.3786C20.9587 72.97 21.1942 73.5368 21.6123 73.955L22.5749 72.9924L21.6123 73.955C22.0305 74.3731 22.5973 74.6086 23.1887 74.6097H23.1913H72.0413L72.0439 74.6097C72.6353 74.6086 73.2021 74.3731 73.6203 73.955C74.0384 73.5368 74.2739 72.97 74.275 72.3786V72.376V48.44H76.7862V72.3744C76.7847 73.6328 76.2841 74.8392 75.3943 75.729C74.5045 76.6188 73.2981 77.1194 72.0397 77.1209H23.1929C21.9345 77.1194 20.7281 76.6188 19.8383 75.729L18.8757 76.6916L19.8383 75.729C18.9486 74.8394 18.4481 73.6332 18.4464 72.3751C18.4464 72.3749 18.4464 72.3746 18.4464 72.3744ZM23.1887 45.7173C23.1881 45.7173 23.1876 45.7173 23.187 45.7173H19.008C19.2263 45.3091 19.505 44.9313 19.8383 44.598C20.7275 43.7088 21.9329 43.2083 23.1904 43.2061C23.1907 43.2061 23.191 43.2061 23.1913 43.2061H23.1929L43.9237 43.2061C43.7367 43.6724 43.638 44.1744 43.638 44.6866V45.7173L23.1913 45.7173L23.1887 45.7173ZM16.0683 45.7149C14.8629 45.6764 13.715 45.1807 12.8597 44.3254C11.9701 43.4358 11.4695 42.2296 11.4678 40.9715V33.9948C11.4695 32.7366 11.9701 31.5305 12.8597 30.6409L11.8971 29.6782L12.8597 30.6409C13.7492 29.7514 14.9551 29.2508 16.213 29.2489C16.2134 29.2489 16.2139 29.2489 16.2144 29.2489L27.1781 29.2489C28.2712 30.1495 29.6173 30.9954 31.2612 31.7602L16.2127 31.7602L16.2101 31.7602C15.6187 31.7613 15.0519 31.9967 14.6337 32.4149C14.2156 32.833 13.9802 33.3999 13.979 33.9912V33.9938L13.979 40.9724L13.979 40.975C13.9802 41.5664 14.2156 42.1332 14.6337 42.5514L15.5964 41.5888L14.6337 42.5514C15.0519 42.9695 15.6187 43.205 16.2101 43.2061H16.2127H17.4288C16.8154 43.9508 16.3551 44.8035 16.0683 45.7149ZM46.3607 48.44H48.8719V58.4185C48.8719 58.4186 48.8719 58.4187 48.8719 58.4189C48.8717 58.7518 48.7394 59.0711 48.504 59.3065C48.2685 59.542 47.9492 59.6743 47.6163 59.6745C47.2834 59.6743 46.9641 59.542 46.7287 59.3065L45.766 60.2691L46.7286 59.3065C46.4932 59.0711 46.3609 58.7518 46.3607 58.4189C46.3607 58.4187 46.3607 58.4186 46.3607 58.4185V48.44ZM48.8719 44.6866V45.7173H46.3607V44.6866C46.3607 44.3536 46.493 44.0342 46.7284 43.7987C46.9639 43.5633 47.2833 43.431 47.6163 43.431C47.9493 43.431 48.2687 43.5633 48.5042 43.7987C48.7396 44.0342 48.8719 44.3536 48.8719 44.6866Z" stroke="#FFAB2D" stroke-width="2.7227"/>
</g>
<g style="mix-blend-mode:hard-light" filter="url(#filter2_ddi_5110_2582)">
<path d="M76.7288 46.0376C76.4762 45.4201 76.1018 44.8525 75.6208 44.3715C74.6721 43.4228 73.3862 42.8886 72.0446 42.8858C72.0435 42.8858 72.0424 42.8858 72.0413 42.8858L72.0401 42.8858L50.8003 42.8858M76.7288 46.0376L50.8003 42.8858M76.7288 46.0376H72.0449C72.0444 46.0376 72.0438 46.0376 72.0433 46.0376H72.0413L51.2743 46.0376H76.7288ZM50.8003 42.8858C50.639 42.6005 50.4387 42.3358 50.2029 42.1C50.1125 42.0096 50.0179 41.9245 49.9195 41.8447H47.6163H45.3131C45.2147 41.9245 45.1201 42.0096 45.0297 42.1C44.7939 42.3358 44.5936 42.6005 44.4323 42.8858H45.8155H47.6163H49.4171H50.8003ZM46.0404 48.1197V58.4186C46.0404 58.4187 46.0404 58.4188 46.0404 58.4189C46.0405 58.8368 46.2066 59.2375 46.5022 59.533C46.7976 59.8285 47.1982 59.9945 47.616 59.9948L46.0404 48.1197ZM46.0404 48.1197H49.1922M46.0404 48.1197H49.1922M49.1922 48.1197V58.4186C49.1922 58.4187 49.1922 58.4188 49.1922 58.4189C49.192 58.8368 49.026 59.2375 48.7304 59.533C48.435 59.8285 48.0344 59.9945 47.6166 59.9948L49.1922 48.1197ZM79.0199 32.0805H62.488C63.9125 31.4962 65.7527 30.6278 67.4172 29.3726C67.6059 29.2302 67.7932 29.0823 67.978 28.9286H79.0186C80.3618 28.9302 81.6496 29.4646 82.5994 30.4144C83.5492 31.3642 84.0835 32.6519 84.0851 33.9951V40.9712C84.0835 42.3144 83.5492 43.6021 82.5994 44.5519C81.6496 45.5017 80.3618 46.036 79.0186 46.0376H78.926C78.5981 44.8614 77.9716 43.7778 77.093 42.8993C77.0885 42.8948 77.084 42.8903 77.0795 42.8858H79.0199L79.0219 42.8858C79.5285 42.8848 80.0141 42.6831 80.3723 42.3249C80.7306 41.9666 80.9323 41.481 80.9333 40.9744V40.9724V33.9938V33.9918C80.9323 33.4852 80.7306 32.9996 80.3723 32.6414C80.0141 32.2831 79.5285 32.0815 79.0219 32.0805H79.0199ZM44.2995 30.9107C44.3457 31.316 44.4592 31.7095 44.6341 32.0752C41.3802 31.993 38.1459 31.5189 35.0017 30.6617C33.4203 30.1291 32.0958 29.5435 30.9876 28.9286H44.617C44.5841 29.0151 44.5511 29.1015 44.518 29.1878L44.5178 29.1884C44.3079 29.7367 44.2331 30.3274 44.2995 30.9107ZM33.8719 26.8466H28.0857C27.7535 26.5309 27.4618 26.2143 27.2061 25.8996C25.8602 24.2432 25.452 22.5668 25.4285 21.1574C25.4479 19.9262 25.713 18.7113 26.2081 17.5838C26.7052 16.4517 27.4242 15.4307 28.3227 14.5812L28.3366 14.5681L28.35 14.5544C29.297 13.5905 30.4251 12.8232 31.6695 12.2966C32.9089 11.772 34.2394 11.4966 35.5851 11.4858C38.0915 11.5522 40.0009 12.741 41.5777 14.4495C43.1716 16.1766 44.361 18.3636 45.4228 20.3336C45.8455 21.297 46.2449 22.2701 46.6209 23.2521C46.2303 24.4517 45.8189 25.6516 45.3884 26.8466H44.5741C44.0571 25.1677 43.4306 23.5243 42.6986 21.9269L42.6845 21.8962L42.6685 21.8666C41.631 19.9424 40.643 18.192 39.5676 16.9181C38.4814 15.6316 37.1776 14.6788 35.4904 14.6378V14.6378L35.4845 14.6377L35.3891 14.6359L35.351 14.6352L35.313 14.6373C33.5154 14.7353 31.821 15.5062 30.5663 16.7959C29.9785 17.3326 29.5011 17.979 29.161 18.6989C28.8156 19.4299 28.6186 20.2221 28.5813 21.0297L28.5799 21.061L28.5803 21.0924C28.6014 22.5905 29.4407 23.8934 30.7191 24.9585C31.5538 25.6539 32.6155 26.2845 33.8719 26.8466ZM47.5991 26.8466C47.6481 26.7078 47.6969 26.5691 47.7454 26.4303C47.7905 26.5689 47.8352 26.7076 47.8794 26.8466H47.5991ZM50.6647 28.9286H64.2757C62.7762 29.7631 61.3021 30.3213 60.3126 30.6919C57.2282 31.5328 54.0562 31.9984 50.8652 32.0805H50.5918C50.7309 31.7916 50.8319 31.4848 50.8914 31.1677C50.9934 30.6251 50.9712 30.0664 50.8268 29.5336C50.7737 29.3317 50.7196 29.13 50.6647 28.9286ZM67.1921 26.8466H61.3946C62.0684 26.5374 62.7852 26.1691 63.4597 25.7411C64.9728 24.7811 66.6592 23.2773 66.6592 21.1543V21.1314L66.6582 21.1086C66.5796 19.3197 65.7961 17.6346 64.479 16.4216C63.1667 15.213 61.4309 14.5709 59.6485 14.6341C57.2803 14.6423 55.6243 16.0957 54.5645 17.5543C53.4988 19.021 52.9086 20.6557 52.6716 21.4094L52.6686 21.4187L52.6658 21.4282C52.1361 23.2307 51.5573 25.0421 50.9368 26.8466H50.0608C49.6835 25.6191 49.2716 24.4026 48.8256 23.1986C49.1067 22.3171 49.3766 21.4362 49.6345 20.5577C49.994 19.4181 50.8605 17.1132 52.4804 15.1092C54.0887 13.1196 56.3865 11.4822 59.6686 11.4822H59.679L59.6894 11.482C62.3163 11.4296 64.8568 12.4209 66.7541 14.2384C68.6486 16.0532 69.7475 18.544 69.8111 21.1663C69.8075 23.5611 68.7241 25.4051 67.1921 26.8466ZM48.504 28.9286C48.6108 29.3072 48.7142 29.6868 48.8143 30.0674L48.8143 30.0674L48.8167 30.0764C48.8795 30.3069 48.8892 30.5486 48.8451 30.7834C48.8011 31.0182 48.7043 31.2399 48.5621 31.4319C48.42 31.6238 48.2361 31.7811 48.0244 31.8918C47.8929 31.9605 47.7527 32.0102 47.6081 32.0397C47.459 32.008 47.3148 31.9549 47.1801 31.8814C46.9579 31.7602 46.7682 31.5873 46.6269 31.3773C46.4856 31.1674 46.3969 30.9265 46.3682 30.6751C46.3396 30.4236 46.3718 30.169 46.4623 29.9326C46.5904 29.5986 46.717 29.2639 46.8423 28.9286H48.504ZM18.1261 72.3748L18.1261 48.1197H21.2779L21.2779 72.376L21.2779 72.378C21.2789 72.8846 21.4806 73.3702 21.8388 73.7285L22.5749 72.9924L21.8388 73.7285C22.1971 74.0867 22.6826 74.2884 23.1893 74.2894H23.1913L72.0413 74.2894L72.0433 74.2894C72.55 74.2884 73.0355 74.0867 73.3938 73.7285C73.752 73.3702 73.9537 72.8847 73.9547 72.378V72.376V48.1197H77.1065V72.3748C77.1049 73.718 76.5706 75.0057 75.6208 75.9555C74.671 76.9053 73.3833 77.4396 72.0401 77.4412H23.1925C21.8493 77.4396 20.5616 76.9053 19.6118 75.9555C18.6622 75.0059 18.1279 73.7184 18.1261 72.3755C18.1261 72.3752 18.1261 72.375 18.1261 72.3748ZM49.1922 44.6866V46.0376H46.0404V44.6866C46.0404 44.2686 46.2064 43.8678 46.5019 43.5722C46.7975 43.2767 47.1983 43.1107 47.6163 43.1107C48.0343 43.1107 48.4351 43.2767 48.7306 43.5722C49.0262 43.8678 49.1922 44.2686 49.1922 44.6866ZM43.9583 46.0376V47.0787V46.0376ZM16.3066 46.0376H16.214C14.8707 46.036 13.583 45.5017 12.6332 44.5519C11.6836 43.6022 11.1493 42.3147 11.1475 40.9717V33.9945C11.1493 32.6515 11.6836 31.364 12.6332 30.4144C13.583 29.4646 14.8707 28.9302 16.214 28.9286H27.2938C28.6721 30.0826 30.4787 31.154 32.8194 32.0805L16.2127 32.0805L16.2107 32.0805C15.7041 32.0815 15.2185 32.2831 14.8602 32.6414C14.502 32.9996 14.3003 33.4852 14.2993 33.9918V33.9938L14.2993 40.9724L14.2993 40.9744C14.3003 41.481 14.502 41.9666 14.8602 42.3249L16.3066 46.0376ZM18.1261 47.9515V47.951H17.085L18.1261 47.9515Z" stroke="#FFC940" stroke-opacity="0.2" stroke-width="2.08206"/>
</g>
<g filter="url(#filter3_f_5110_2582)">
<path d="M60.1246 32.4809H79.0199H79.0211C79.4218 32.4817 79.8059 32.6412 80.0892 32.9245C80.3726 33.2078 80.5321 33.5919 80.5329 33.9926V33.9938V40.9724V40.9736C80.5321 41.3743 80.3726 41.7584 80.0892 42.0418C79.8059 42.3251 79.4218 42.4846 79.0211 42.4854H79.0199H75.9921C76.2809 42.6943 76.5546 42.9271 76.8099 43.1824C77.7118 44.0843 78.3323 45.2149 78.6149 46.438L79.0191 46.438L79.0199 46.438M60.1246 32.4809L85.1262 40.9724C85.1242 42.5913 84.4802 44.1433 83.3355 45.288C82.1908 46.4327 80.6388 47.0767 79.0199 47.0787V46.438M60.1246 32.4809C60.3509 32.423 60.5768 32.3632 60.8022 32.3014L60.8303 32.2937L60.8576 32.2835L60.8767 32.2764C62.2749 31.7529 64.898 30.7709 67.1761 29.0529C67.3979 28.8856 67.6171 28.7108 67.8322 28.5282H79.0191C80.4684 28.53 81.8577 29.1065 82.8825 30.1312C83.9073 31.156 84.4838 32.5454 84.4855 33.9946V40.9716M60.1246 32.4809L84.4855 40.9716M79.0199 46.438C80.4688 46.4361 81.8579 45.8596 82.8825 44.835C83.9073 43.8103 84.4838 42.4209 84.4855 40.9716M79.0199 46.438L84.4855 40.9716M16.6177 46.438C16.9003 45.2149 17.5208 44.0843 18.4227 43.1824C18.678 42.9271 18.9516 42.6943 19.2405 42.4854H16.2127H16.2115C15.8108 42.4846 15.4267 42.3251 15.1434 42.0418C14.86 41.7584 14.7005 41.3743 14.6997 40.9736L14.6997 40.9724L14.6997 33.9938V33.9926C14.7005 33.5919 14.86 33.2078 15.1434 32.9245C15.4267 32.6412 15.8108 32.4817 16.2115 32.4809L16.2127 32.4809L35.3081 32.4809C35.048 32.4151 34.7884 32.3468 34.5295 32.276L34.5118 32.2711L34.4945 32.2653C31.3499 31.2095 29.07 29.9218 27.4405 28.5282H16.2135C14.7642 28.53 13.3749 29.1065 12.3501 30.1312C11.3254 31.1559 10.7489 32.5451 10.7471 33.9942V40.972C10.7489 42.4211 11.3254 43.8104 12.3501 44.835C13.3747 45.8596 14.7637 46.4361 16.2127 46.438C16.213 46.438 16.2132 46.438 16.2135 46.438M16.6177 46.438L16.2127 47.0787L16.2135 46.438M16.6177 46.438L16.2135 46.438M16.6177 46.438L16.2135 46.438M45.64 47.7193V58.4187C45.64 58.4188 45.64 58.4188 45.64 58.4189C45.6402 58.943 45.8484 59.4455 46.219 59.8161C46.5896 60.1867 47.0921 60.395 47.6161 60.3952L45.64 47.7193ZM45.64 47.7193H49.5926M45.64 47.7193H49.5926M49.5926 47.7193V58.4187C49.5926 58.4188 49.5926 58.4188 49.5926 58.4189C49.5924 58.943 49.3842 59.4455 49.0136 59.8161C48.643 60.1867 48.1405 60.395 47.6165 60.3952L49.5926 47.7193ZM75.9039 44.0884C76.5633 44.7477 77.037 45.558 77.2915 46.438L72.0425 46.438H72.0413L50.8739 46.438V44.6866C50.8739 43.8699 50.5672 43.0849 50.0177 42.4854L72.0405 42.4854C72.0408 42.4854 72.0411 42.4854 72.0413 42.4854C72.0419 42.4854 72.0425 42.4854 72.0432 42.4854C73.4915 42.4878 74.8798 43.0642 75.9039 44.0884ZM73.5362 47.7193H77.5017C77.5051 47.7966 77.5069 47.8741 77.5069 47.9518V72.3752C77.5052 73.8245 76.9287 75.2139 75.9039 76.2386C74.8792 77.2634 73.4898 77.8399 72.0405 77.8416H23.1921C21.7428 77.8399 20.3534 77.2634 19.3287 76.2386C18.304 75.214 17.7275 73.8247 17.7257 72.3756C17.7257 72.3755 17.7257 72.3754 17.7257 72.3752V47.9518C17.7257 47.9516 17.7257 47.9515 17.7257 47.9514C17.7258 47.8738 17.7275 47.7965 17.7309 47.7193H21.6964C21.6846 47.7951 21.6785 47.8721 21.6783 47.9498V47.951L21.6783 72.376L21.6783 72.3772C21.6791 72.778 21.8386 73.162 22.1219 73.4454L22.5749 72.9924L22.1219 73.4454C22.4053 73.7287 22.7893 73.8882 23.1901 73.889H23.1913H72.0413L72.0425 73.889C72.4433 73.8882 72.8273 73.7287 73.1106 73.4454C73.394 73.162 73.5535 72.778 73.5543 72.3772V72.376V47.951L73.5543 47.9498C73.5541 47.8721 73.548 47.7951 73.5362 47.7193ZM49.5926 44.6866V46.438H45.64V44.6866C45.64 44.1624 45.8482 43.6598 46.2188 43.2891C46.5895 42.9185 47.0921 42.7103 47.6163 42.7103C48.1405 42.7103 48.6431 42.9185 49.0138 43.2891C49.3844 43.6598 49.5926 44.1624 49.5926 44.6866ZM44.3587 44.6866V46.438L23.1913 46.438L23.1901 46.438H17.9411C18.1956 45.558 18.6693 44.7477 19.3287 44.0884C20.3528 43.0642 21.7411 42.4878 23.1894 42.4854C23.19 42.4854 23.1907 42.4854 23.1913 42.4854H23.1921L45.2149 42.4854C44.6654 43.0849 44.3587 43.8699 44.3587 44.6866ZM34.8851 31.0449C32.6534 30.2942 30.9137 29.4351 29.5621 28.5282H45.1965C45.0959 28.7963 44.9943 29.0639 44.8918 29.3312L44.8917 29.3315C44.7048 29.8198 44.6382 30.3459 44.6973 30.8654C44.7565 31.3849 44.9398 31.8826 45.2318 32.3163C45.2696 32.3725 45.3091 32.4274 45.3501 32.4809H44.8644C41.4933 32.4155 38.1414 31.9337 34.8851 31.0449ZM46.0882 29.7898C46.2491 29.3703 46.4077 28.9497 46.5641 28.5282H48.8063C48.9434 29.0058 49.0751 29.4849 49.2015 29.9656L49.203 29.9711C49.2817 30.26 49.2939 30.563 49.2387 30.8573C49.1834 31.1516 49.0621 31.4295 48.8839 31.6701C48.7057 31.9108 48.4753 32.1079 48.2099 32.2466C48.0204 32.3457 47.8165 32.4131 47.6065 32.4469C47.3906 32.4104 47.1817 32.3383 46.9884 32.2329C46.7098 32.0809 46.4719 31.8641 46.2947 31.6009C46.1175 31.3377 46.0063 31.0357 45.9704 30.7204C45.9345 30.4052 45.9749 30.0861 46.0882 29.7898ZM48.4245 27.247H47.0315C47.2775 26.5611 47.5172 25.8737 47.7505 25.1856C47.9863 25.8689 48.211 26.5562 48.4245 27.247ZM47.0453 23.2414C46.6118 24.5784 46.1523 25.916 45.6694 27.247H44.2773C43.7495 25.4866 43.1003 23.7647 42.3346 22.0937L42.3259 22.0749L42.3161 22.0566C41.2759 20.1274 40.3062 18.4136 39.2616 17.1764C38.2106 15.9314 37.0046 15.0751 35.4807 15.0381L35.4771 15.038L35.3816 15.0363L35.3582 15.0358L35.3348 15.0371C33.6337 15.1298 32.0305 15.8608 30.845 17.0836C30.2918 17.5867 29.8426 18.1937 29.523 18.87C29.2002 19.5531 29.0161 20.2934 28.9813 21.0482L28.9804 21.0674L28.9807 21.0867C28.9996 22.4267 29.7493 23.6294 30.9754 24.6509C32.1698 25.646 33.8709 26.5193 35.9928 27.247H27.9274C27.5344 26.8838 27.1924 26.5177 26.8954 26.1521C25.4834 24.4144 25.0517 22.6454 25.028 21.1575C25.0475 19.8709 25.3241 18.6011 25.8415 17.4228C26.3601 16.2417 27.1103 15.1766 28.0476 14.2903L28.0561 14.2822L28.0644 14.2738C29.0484 13.2723 30.2205 12.475 31.5135 11.9278C32.8034 11.3819 34.1882 11.0957 35.5888 11.0853C38.2379 11.1534 40.2448 12.4149 41.872 14.178C43.5094 15.9522 44.723 18.1912 45.7829 20.1578C46.2296 21.1753 46.6505 22.2035 47.0453 23.2414ZM48.4021 23.2085C48.6978 22.2847 48.9812 21.3615 49.2515 20.441C49.6169 19.2816 50.502 16.9197 52.169 14.8575C53.8289 12.804 56.2315 11.0818 59.6686 11.0818V11.0819L59.6814 11.0817C62.4143 11.0272 65.0572 12.0584 67.0311 13.9493C69.0032 15.8384 70.1466 18.4317 70.2115 21.1616C70.2092 23.7619 68.9991 25.7364 67.349 27.247H59.3812C60.3795 26.8685 61.9016 26.2555 63.2452 25.4031C64.7446 24.4517 66.2588 23.0522 66.2588 21.1543V21.1402L66.2582 21.1262C66.1842 19.443 65.447 17.8575 64.2077 16.7161C62.9714 15.5775 61.3356 14.9733 59.6563 15.0345C57.4668 15.0395 55.9134 16.379 54.8884 17.7896C53.8597 19.2054 53.2852 20.7927 53.0535 21.5295L53.0534 21.5295L53.05 21.5411C52.492 23.4397 51.88 25.3477 51.2222 27.247H49.7643C49.3527 25.8867 48.8984 24.5399 48.4021 23.2085ZM50.1383 28.5282H65.7022C63.7715 29.8182 61.6875 30.6046 60.4358 31.0733C57.3131 31.9262 54.1013 32.3982 50.8703 32.4809H49.8772C49.8895 32.4649 49.9016 32.4488 49.9136 32.4326C50.2071 32.0363 50.4069 31.5785 50.4979 31.0938L49.8683 30.9756L50.4979 31.0938C50.5887 30.6102 50.569 30.1123 50.4401 29.6375C50.3426 29.2668 50.242 28.8971 50.1383 28.5282Z" stroke="#FFD56A" stroke-width="1.28127"/>
</g>
<g filter="url(#filter4_f_5110_2582)">
<path d="M38.3176 32.8012H16.2127L16.2121 32.8012C15.8961 32.8018 15.5933 32.9276 15.3699 33.151C15.1464 33.3744 15.0207 33.6773 15.0201 33.9932V33.9938L15.0201 40.9724L15.0201 40.973C15.0207 41.289 15.1464 41.5918 15.3699 41.8153C15.5933 42.0387 15.8961 42.1645 16.2121 42.1651H16.2127H20.3999C19.7567 42.4758 19.1638 42.8942 18.6492 43.4089C17.7294 44.3287 17.1168 45.4983 16.8776 46.7584H16.2131C14.679 46.7565 13.2083 46.1463 12.1236 45.0615C11.0389 43.9768 10.4287 42.5062 10.4268 40.9722V33.994C10.4287 32.4601 11.0389 30.9894 12.1236 29.9047C13.2082 28.8201 14.6788 28.2099 16.2127 28.2079C16.2128 28.2079 16.213 28.2079 16.2131 28.2079M38.3176 32.8012L16.2131 28.2079M38.3176 32.8012C37.0724 32.5795 35.8366 32.3013 34.6139 31.967L34.6051 31.9646L34.5965 31.9617C31.4226 30.896 29.1564 29.5982 27.5597 28.2079L16.2131 28.2079M38.3176 32.8012L16.2131 28.2079M67.7139 28.2079C67.4756 28.4138 67.2313 28.6101 66.9832 28.7972C64.7424 30.4871 62.1546 31.4559 60.7567 31.9793L60.7453 31.9835L60.7317 31.9886L60.7176 31.9925C59.5396 32.3152 58.3491 32.5849 57.1497 32.8012H79.0199H79.0205C79.3365 32.8018 79.6393 32.9276 79.8627 33.151C80.0861 33.3744 80.2119 33.6773 80.2125 33.9932V33.9938V40.9724V40.973C80.2119 41.289 80.0861 41.5918 79.8627 41.8153C79.6393 42.0387 79.3365 42.1645 79.0205 42.1651L79.0199 42.1651H74.8327C75.4759 42.4758 76.0688 42.8942 76.5834 43.4089C77.5032 44.3287 78.1158 45.4983 78.355 46.7584H79.0195C80.5536 46.7565 82.0243 46.1463 83.109 45.0615C84.1937 43.9768 84.804 42.5061 84.8058 40.972V33.9942C84.804 32.4602 84.1937 30.9895 83.109 29.9047C82.0244 28.8201 80.5538 28.2099 79.0199 28.2079M67.7139 28.2079L79.0195 28.2079M67.7139 28.2079L79.0195 28.2079M67.7139 28.2079H79.0199M79.0199 28.2079C79.0198 28.2079 79.0196 28.2079 79.0195 28.2079M79.0199 28.2079L79.0195 28.2079M45.3196 47.399V58.4188C45.3196 58.4188 45.3196 58.4188 45.3196 58.4189C45.3198 59.0279 45.5619 59.612 45.9925 60.0426C46.4232 60.4733 47.0072 60.7153 47.6162 60.7155L45.3196 47.399ZM45.3196 47.399H49.9129M45.3196 47.399H49.9129M49.9129 47.399V58.4188C49.9129 58.4188 49.9129 58.4188 49.9129 58.4189C49.9128 59.0279 49.6707 59.612 49.2401 60.0426C48.8094 60.4733 48.2254 60.7153 47.6164 60.7155L49.9129 47.399ZM46.112 32.8012H44.8612C41.4596 32.7355 38.0773 32.249 34.7917 31.3514C32.0635 30.4346 30.0481 29.3524 28.5694 28.2079H45.658C45.5045 28.6214 45.3488 29.0341 45.1909 29.4458L45.1909 29.446C45.0224 29.8863 44.9622 30.3607 45.0156 30.8292C45.069 31.2976 45.2343 31.7463 45.4975 32.1375C45.6674 32.3899 45.875 32.6136 46.112 32.8012ZM38.6015 27.5673H27.803C27.3603 27.1666 26.9772 26.7608 26.6468 26.3541C25.182 24.5514 24.7314 22.7083 24.7077 21.1577C24.7271 19.8266 25.0129 18.5129 25.5482 17.294C26.0841 16.0737 26.8591 14.9732 27.8275 14.0576L27.8276 14.0577L27.8359 14.0493C28.8494 13.0177 30.0568 12.1965 31.3886 11.6328C32.7189 11.0699 34.1472 10.7749 35.5917 10.765C38.3551 10.8344 40.44 12.154 42.1074 13.9608C43.7798 15.7729 45.0127 18.0537 46.071 20.0172C46.5369 21.0779 46.9749 22.1502 47.3847 23.2329C46.917 24.68 46.419 26.1277 45.8937 27.5673H44.0382C43.5027 25.7416 42.8361 23.9569 42.0434 22.2272L42.039 22.2177L42.0341 22.2086C40.9918 20.2754 40.0367 18.5909 39.0169 17.383C37.9938 16.1713 36.8661 15.3921 35.4729 15.3583L35.4711 15.3583L35.3757 15.3565L35.364 15.3563L35.3523 15.3569C33.7283 15.4455 32.198 16.1446 31.068 17.3138C30.5423 17.7901 30.1157 18.3654 29.8126 19.0068C29.5079 19.6517 29.3341 20.3505 29.3013 21.0629L29.3008 21.0726L29.3009 21.0822C29.3181 22.2957 29.9962 23.4182 31.1805 24.4048C32.3645 25.3913 34.0833 26.2684 36.2627 27.0003L36.2698 27.0027L36.2771 27.0048C37.0448 27.2231 37.8202 27.4107 38.6015 27.5673ZM46.5754 27.5673C46.9814 26.4484 47.3708 25.3248 47.7424 24.2006C48.1438 25.3126 48.5155 26.4352 48.8573 27.5673H46.5754ZM49.5262 27.5673C49.088 26.1007 48.6 24.6496 48.0631 23.2165C48.3706 22.2589 48.6649 21.3018 48.945 20.3478C49.3151 19.1726 50.2152 16.765 51.9199 14.6561C53.6211 12.5515 56.1074 10.7615 59.6686 10.7615V10.7615L59.675 10.7614C62.4926 10.7053 65.2176 11.7685 67.2527 13.718C69.2869 15.6666 70.466 18.342 70.5318 21.1581C70.5306 23.9252 69.2155 26.0038 67.4724 27.5673H56.9488C57.5834 27.4362 58.2138 27.2828 58.8387 27.1072L58.8516 27.1036L58.8641 27.0989C59.8175 26.7429 61.564 26.0904 63.0736 25.1326C64.5621 24.1881 65.9385 22.8721 65.9385 21.1543H65.9388L65.9382 21.1402C65.8679 19.5416 65.1678 18.0358 63.9907 16.9517C62.8152 15.8691 61.2593 15.2951 59.6625 15.3548C57.6162 15.3573 56.1447 16.6055 55.1476 17.9779C54.1485 19.3529 53.5865 20.9024 53.3591 21.6256L53.359 21.6256L53.3573 21.6314C52.7768 23.6069 52.1378 25.5923 51.45 27.5673H49.5262ZM46.341 28.2079H49.0472C49.2091 28.7645 49.3638 29.3233 49.5113 29.8841L49.5121 29.8869C49.6035 30.2225 49.6177 30.5745 49.5535 30.9164C49.4893 31.2583 49.3483 31.5812 49.1413 31.8608C48.9343 32.1403 48.6666 32.3693 48.3583 32.5305C48.1225 32.6537 47.8676 32.7349 47.6052 32.7709C47.336 32.7318 47.0751 32.6451 46.8349 32.5141C46.5113 32.3375 46.2348 32.0856 46.029 31.7798C45.8231 31.4739 45.6939 31.123 45.6521 30.7566C45.6104 30.3903 45.6574 30.0193 45.7892 29.675C45.9762 29.1873 46.1602 28.6981 46.341 28.2079ZM49.7141 28.2079H66.6996C66.6657 28.234 66.6316 28.2599 66.5975 28.2857C64.4405 29.9124 61.936 30.8537 60.5344 31.3784C57.3811 32.2409 54.1375 32.718 50.8745 32.8012H49.1137C49.3179 32.6402 49.5005 32.4523 49.6562 32.242C49.9208 31.8846 50.101 31.4718 50.1831 31.0347C50.2651 30.598 50.2471 30.1484 50.1305 29.7196C49.9975 29.214 49.8587 28.7101 49.7141 28.2079ZM76.1304 43.8619C76.9295 44.6609 77.471 45.6694 77.7016 46.7584H72.0434C72.0429 46.7584 72.0424 46.7584 72.0419 46.7584H72.0413L50.5536 46.7584V44.6866C50.5536 43.9076 50.2441 43.1605 49.6933 42.6096C49.5207 42.437 49.3289 42.2882 49.1228 42.1651H72.0447C73.5774 42.1679 75.0466 42.778 76.1304 43.8619ZM49.9129 44.6866V46.7584H45.3196V44.6866C45.3196 44.0775 45.5616 43.4933 45.9923 43.0626C46.423 42.6319 47.0072 42.3899 47.6163 42.3899C48.2254 42.3899 48.8096 42.6319 49.2403 43.0626C49.671 43.4933 49.9129 44.0775 49.9129 44.6866ZM44.679 44.6866V46.7584L23.1913 46.7584H23.1907C23.1902 46.7584 23.1897 46.7584 23.1892 46.7584H17.531C17.7616 45.6694 18.3031 44.6609 19.1022 43.8619C20.186 42.778 21.6552 42.1679 23.1879 42.1651H46.1098C45.9037 42.2882 45.7119 42.437 45.5393 42.6096C44.9885 43.1605 44.679 43.9076 44.679 44.6866ZM17.4324 47.399H22.1347C22.0465 47.5676 21.999 47.7565 21.9986 47.9504V47.951L21.9986 72.376L21.9986 72.3766C21.9992 72.6926 22.125 72.9954 22.3484 73.2189L22.5749 72.9924L22.3484 73.2189C22.5719 73.4423 22.8747 73.5681 23.1907 73.5687H23.1913H72.0413H72.0419C72.3579 73.5681 72.6607 73.4423 72.8841 73.2189C73.1076 72.9954 73.2334 72.6926 73.234 72.3766V72.376V47.951V47.9504C73.2336 47.7565 73.1861 47.5676 73.0979 47.399H77.8002C77.8179 47.5818 77.827 47.7661 77.8273 47.9514V72.3756C77.8254 73.9097 77.2152 75.3804 76.1304 76.4651C75.0457 77.5499 73.575 78.1601 72.0409 78.162H23.1917C21.6576 78.1601 20.1869 77.5499 19.1022 76.4651C18.0174 75.3804 17.4072 73.9097 17.4053 72.3756V47.9514C17.4056 47.7661 17.4147 47.5818 17.4324 47.399ZM40.4266 33.1215H16.2127C15.9815 33.122 15.7599 33.214 15.5964 33.3775C15.4329 33.541 15.3408 33.7626 15.3404 33.9938V40.9724C15.3408 41.2036 15.4329 41.4253 15.5964 41.5888C15.7599 41.7523 15.9815 41.8443 16.2127 41.8447H21.1939L40.4266 33.1215Z" stroke="white" stroke-width="0.640635"/>
</g>
<defs>
<filter id="filter0_f_5110_2582" x="0.496923" y="0.829443" width="94.2386" height="87.2625" filterUnits="userSpaceOnUse" color-interpolation-filters="sRGB">
<feFlood flood-opacity="0" result="BackgroundImageFix"/>
<feBlend mode="normal" in="SourceGraphic" in2="BackgroundImageFix" result="shape"/>
<feGaussianBlur stdDeviation="4.80476" result="effect1_foregroundBlur_5110_2582"/>
</filter>
<filter id="filter1_f_5110_2582" x="6.90327" y="7.23579" width="81.4259" height="74.4498" filterUnits="userSpaceOnUse" color-interpolation-filters="sRGB">
<feFlood flood-opacity="0" result="BackgroundImageFix"/>
<feBlend mode="normal" in="SourceGraphic" in2="BackgroundImageFix" result="shape"/>
<feGaussianBlur stdDeviation="1.60159" result="effect1_foregroundBlur_5110_2582"/>
</filter>
<filter id="filter2_ddi_5110_2582" x="5.94232" y="9.47801" width="83.3478" height="76.3717" filterUnits="userSpaceOnUse" color-interpolation-filters="sRGB">
<feFlood flood-opacity="0" result="BackgroundImageFix"/>
<feColorMatrix in="SourceAlpha" type="matrix" values="0 0 0 0 0 0 0 0 0 0 0 0 0 0 0 0 0 0 127 0" result="hardAlpha"/>
<feOffset dy="2.08206"/>
<feGaussianBlur stdDeviation="0.800793"/>
<feColorMatrix type="matrix" values="0 0 0 0 0.224 0 0 0 0 0.15 0 0 0 0 0 0 0 0 0.7 0"/>
<feBlend mode="multiply" in2="BackgroundImageFix" result="effect1_dropShadow_5110_2582"/>
<feColorMatrix in="SourceAlpha" type="matrix" values="0 0 0 0 0 0 0 0 0 0 0 0 0 0 0 0 0 0 127 0" result="hardAlpha"/>
<feOffset dy="3.20317"/>
<feGaussianBlur stdDeviation="2.08206"/>
<feColorMatrix type="matrix" values="0 0 0 0 0.56 0 0 0 0 0.44 0 0 0 0 0 0 0 0 1 0"/>
<feBlend mode="color-dodge" in2="effect1_dropShadow_5110_2582" result="effect2_dropShadow_5110_2582"/>
<feBlend mode="normal" in="SourceGraphic" in2="effect2_dropShadow_5110_2582" result="shape"/>
<feColorMatrix in="SourceAlpha" type="matrix" values="0 0 0 0 0 0 0 0 0 0 0 0 0 0 0 0 0 0 127 0" result="hardAlpha"/>
<feOffset dx="-0.208206" dy="0.416413"/>
<feGaussianBlur stdDeviation="0.104103"/>
<feComposite in2="hardAlpha" operator="arithmetic" k2="-1" k3="1"/>
<feColorMatrix type="matrix" values="0 0 0 0 1 0 0 0 0 1 0 0 0 0 1 0 0 0 0.5 0"/>
<feBlend mode="normal" in2="shape" result="effect3_innerShadow_5110_2582"/>
</filter>
<filter id="filter3_f_5110_2582" x="9.78613" y="10.1186" width="75.6602" height="68.6841" filterUnits="userSpaceOnUse" color-interpolation-filters="sRGB">
<feFlood flood-opacity="0" result="BackgroundImageFix"/>
<feBlend mode="normal" in="SourceGraphic" in2="BackgroundImageFix" result="shape"/>
<feGaussianBlur stdDeviation="0.160159" result="effect1_foregroundBlur_5110_2582"/>
</filter>
<filter id="filter4_f_5110_2582" x="9.8929" y="10.2254" width="75.4466" height="68.4705" filterUnits="userSpaceOnUse" color-interpolation-filters="sRGB">
<feFlood flood-opacity="0" result="BackgroundImageFix"/>
<feBlend mode="normal" in="SourceGraphic" in2="BackgroundImageFix" result="shape"/>
<feGaussianBlur stdDeviation="0.106772" result="effect1_foregroundBlur_5110_2582"/>
</filter>
</defs>
</svg>
