<svg width="36" height="37" viewBox="0 0 36 37" fill="none" xmlns="http://www.w3.org/2000/svg">
<g clip-path="url(#clip0_5110_2620)">
<path d="M34.9453 7.58585H26.6195C27.0546 6.94376 27.3137 6.19556 27.3656 5.40117C27.4424 4.22372 27.0561 3.08691 26.2778 2.20005C24.6712 0.369257 21.8748 0.186796 20.044 1.79337C19.0664 2.65118 18.5427 4.38607 18.2755 5.69037C18.1443 6.33091 18.0497 6.9948 18.0093 7.55962C18.0086 7.56862 18.0082 7.57685 18.0076 7.58585H17.9758C17.9752 7.57692 17.9748 7.5687 17.9741 7.55962C17.9337 6.9948 17.8391 6.33091 17.7079 5.69037C17.4407 4.38607 16.917 2.65118 15.9394 1.79337C14.1086 0.186796 11.3122 0.369257 9.70559 2.20005C8.92737 3.08691 8.541 4.22379 8.61785 5.40117C8.66967 6.19556 8.92891 6.94383 9.36394 7.58585H1.05469C0.472219 7.58585 0 8.05807 0 8.64054V14.2665C0 14.8489 0.472219 15.3211 1.05469 15.3211H1.75781V33.5321C1.75781 35.2767 3.17721 36.6961 4.92188 36.6961H31.0781C32.8228 36.6961 34.2422 35.2767 34.2422 33.5321V15.3211H34.9453C35.5278 15.3211 36 14.8489 36 14.2665V8.64054C36 8.05807 35.5278 7.58585 34.9453 7.58585ZM32.1328 33.5321C32.1328 34.1137 31.6597 34.5868 31.0781 34.5868H4.92188C4.34032 34.5868 3.86719 34.1137 3.86719 33.5321V15.3212H32.1328V33.5321ZM20.4064 5.81602C20.73 4.40091 21.15 3.62909 21.4353 3.37877C22.3919 2.53938 23.853 2.63466 24.6924 3.59126C25.099 4.05462 25.3008 4.64862 25.2607 5.26378C25.2207 5.87894 24.9433 6.44166 24.4799 6.84827C24.1946 7.09866 23.3748 7.41492 21.9297 7.55182C21.781 7.56588 20.124 7.58578 20.124 7.58578C20.1624 7.14112 20.2473 6.51232 20.4064 5.81602ZM14.0539 7.55189C12.6087 7.41499 11.7889 7.09873 11.5036 6.84834C11.0403 6.44173 10.7629 5.87901 10.7229 5.26385C10.6828 4.64869 10.8846 4.05469 11.2912 3.59133C11.7468 3.07214 12.3855 2.80671 13.0274 2.80671C13.568 2.80671 14.1109 2.99508 14.5482 3.37884C14.8335 3.62923 15.2536 4.40098 15.5771 5.81609C15.7363 6.51239 15.8212 7.1412 15.8596 7.58585C15.8596 7.58585 14.2025 7.56595 14.0539 7.55189ZM2.10938 9.69523H33.8906V13.2118H2.10938V9.69523Z" fill="white" fill-opacity="0.43"/>
<path d="M10.9379 24.5305C11.4349 24.8175 11.9781 24.9539 12.5146 24.9538C13.6089 24.9537 14.6747 24.3862 15.2601 23.3724C15.6827 22.6405 15.7949 21.7878 15.5762 20.9714C15.3575 20.1551 14.8339 19.4728 14.102 19.0502C12.5911 18.1779 10.6522 18.6974 9.77978 20.2083C9.35721 20.9403 9.24492 21.793 9.46366 22.6093C9.6824 23.4256 10.2059 24.1079 10.9379 24.5305ZM11.6065 21.263C11.8016 20.925 12.1569 20.7359 12.5217 20.7359C12.7005 20.7359 12.8816 20.7813 13.0473 20.8769C13.2913 21.0178 13.4658 21.2452 13.5387 21.5174C13.6116 21.7895 13.5742 22.0737 13.4333 22.3176C13.1425 22.8213 12.4962 22.9944 11.9926 22.7037C11.7486 22.5629 11.5741 22.3354 11.5012 22.0633C11.4283 21.7912 11.4657 21.507 11.6065 21.263Z" fill="white" fill-opacity="0.43"/>
<path d="M20.7402 26.5365C19.8678 28.0474 20.3874 29.9863 21.8983 30.8586C22.3954 31.1456 22.9385 31.2819 23.475 31.2819C24.5693 31.2819 25.6351 30.7144 26.2205 29.7005C27.0929 28.1896 26.5733 26.2507 25.0624 25.3783C23.5515 24.506 21.6125 25.0256 20.7402 26.5365ZM22.5669 27.5912C22.762 27.2532 23.1173 27.0641 23.4821 27.0641C23.6609 27.0641 23.842 27.1095 24.0077 27.2051C24.5113 27.4959 24.6845 28.1422 24.3938 28.6458C24.103 29.1495 23.4567 29.3227 22.953 29.0319C22.4494 28.7411 22.2762 28.0948 22.5669 27.5912Z" fill="white" fill-opacity="0.43"/>
<path d="M14.6428 30.769C14.8088 30.8649 14.9902 30.9105 15.1691 30.9105C15.5336 30.9105 15.8881 30.7214 16.0835 30.383L21.7436 20.5793C22.0349 20.0749 21.862 19.4299 21.3576 19.1386C20.8531 18.8472 20.2081 19.0202 19.9169 19.5247L14.2568 29.3283C13.9655 29.8327 14.1383 30.4778 14.6428 30.769Z" fill="white" fill-opacity="0.43"/>
</g>
<defs>
<clipPath id="clip0_5110_2620">
<rect width="36" height="36" fill="white" transform="translate(0 0.697266)"/>
</clipPath>
</defs>
</svg>
