<svg width="46" height="46" viewBox="0 0 46 46" fill="none" xmlns="http://www.w3.org/2000/svg">
<g clip-path="url(#clip0_5761_18758)">
<path d="M45.8617 13.5173C45.7498 11.069 45.3609 9.39709 44.7924 7.93433C44.2151 6.39961 43.3096 5.00949 42.1395 3.86047C40.9909 2.6904 39.6004 1.78459 38.0657 1.20692C36.6026 0.638733 34.931 0.250229 32.4827 0.138977C30.0299 0.0266724 29.2462 0 23 0C16.7538 0 15.9701 0.0266724 13.5173 0.138275C11.069 0.250229 9.39745 0.639084 7.93433 1.20763C6.39961 1.78494 5.00949 2.6904 3.86047 3.86047C2.6904 5.00914 1.78459 6.39926 1.20692 7.93398C0.638733 9.39709 0.250229 11.069 0.138977 13.5169C0.0266724 15.9701 0 16.7534 0 22.9996C0 29.2462 0.0266724 30.0299 0.138977 32.4827C0.25058 34.9306 0.639435 36.6026 1.20798 38.0657C1.78529 39.6 2.69075 40.9905 3.86082 42.1392C5.00949 43.3092 6.39996 44.2147 7.93468 44.792C9.39745 45.3609 11.0694 45.7494 13.5176 45.8614C15.9708 45.9733 16.7541 45.9996 23.0004 45.9996C29.2466 45.9996 30.0303 45.9733 32.4831 45.8614C34.9313 45.7494 36.6029 45.3609 38.066 44.792C41.1555 43.5974 43.5977 41.1551 44.7924 38.0657C45.3613 36.6026 45.7498 34.9306 45.8617 32.4827C45.9733 30.0296 46 29.2462 46 23C46 16.7534 45.9733 15.9701 45.8617 13.5173ZM41.7215 32.2943C41.6194 34.5368 41.2446 35.7547 40.9298 36.565C40.1559 38.571 38.5707 40.1563 36.5647 40.9301C35.7543 41.2449 34.5365 41.6198 32.2939 41.7219C29.8692 41.8328 29.1417 41.856 23 41.856C16.858 41.856 16.1308 41.8328 13.7057 41.7219C11.4635 41.6198 10.2457 41.2449 9.435 40.9301C8.43619 40.5613 7.53249 39.9734 6.79057 39.2094C6.02655 38.4675 5.43871 37.5642 5.06985 36.565C4.75505 35.7547 4.38023 34.5368 4.27811 32.2943C4.16756 29.8692 4.14404 29.1417 4.14404 23.0004C4.14404 16.8587 4.16756 16.1315 4.27811 13.7061C4.38058 11.4635 4.75505 10.2457 5.06985 9.43535C5.43871 8.43619 6.0269 7.53249 6.79057 6.79057C7.53249 6.02655 8.43619 5.43871 9.43535 5.07021C10.2457 4.75505 11.4635 4.38058 13.7061 4.27811C16.1312 4.16756 16.8587 4.14404 23 4.14404H22.9996C29.141 4.14404 29.8685 4.16756 32.2939 4.27846C34.5365 4.38058 35.754 4.7554 36.5647 5.07021C37.5635 5.43906 38.4672 6.0269 39.2091 6.79057C39.9731 7.53249 40.5609 8.43619 40.9294 9.43535C41.2446 10.2457 41.6194 11.4635 41.7215 13.7061C41.8321 16.1312 41.8556 16.8587 41.8556 23C41.8556 29.1417 41.8324 29.8688 41.7215 32.2943Z" fill="url(#paint0_linear_5761_18758)"/>
<path d="M23 11.1895C16.4772 11.1895 11.1895 16.4776 11.1895 23.0004C11.1895 29.5232 16.4772 34.811 23 34.811C29.5232 34.811 34.811 29.5232 34.811 23.0004C34.811 16.4776 29.5232 11.1895 23 11.1895ZM23 30.6669C18.7662 30.6666 15.3335 27.2343 15.3338 23C15.3338 18.7662 18.7662 15.3335 23.0004 15.3335C27.2346 15.3338 30.6669 18.7662 30.6669 23C30.6669 27.2343 27.2343 30.6669 23 30.6669Z" fill="url(#paint1_linear_5761_18758)"/>
<path d="M38.0377 10.7222C38.0377 12.2463 36.802 13.482 35.2778 13.482C33.7533 13.482 32.5176 12.2463 32.5176 10.7222C32.5176 9.19762 33.7533 7.96191 35.2778 7.96191C36.802 7.96191 38.0377 9.19762 38.0377 10.7222Z" fill="url(#paint2_linear_5761_18758)"/>
</g>
<defs>
<linearGradient id="paint0_linear_5761_18758" x1="3.86024" y1="42.1394" x2="42.1397" y2="3.85987" gradientUnits="userSpaceOnUse">
<stop stop-color="#FFD600"/>
<stop offset="0.5" stop-color="#FF0100"/>
<stop offset="1" stop-color="#D800B9"/>
</linearGradient>
<linearGradient id="paint1_linear_5761_18758" x1="14.6488" y1="31.3517" x2="31.3517" y2="14.6488" gradientUnits="userSpaceOnUse">
<stop stop-color="#FF6400"/>
<stop offset="0.5" stop-color="#FF0100"/>
<stop offset="1" stop-color="#FD0056"/>
</linearGradient>
<linearGradient id="paint2_linear_5761_18758" x1="33.3261" y1="12.6736" x2="37.2293" y2="8.77042" gradientUnits="userSpaceOnUse">
<stop stop-color="#F30072"/>
<stop offset="1" stop-color="#E50097"/>
</linearGradient>
<clipPath id="clip0_5761_18758">
<rect width="46" height="46" fill="white"/>
</clipPath>
</defs>
</svg>
