<svg width="47" height="47" viewBox="0 0 47 47" fill="none" xmlns="http://www.w3.org/2000/svg">
<path d="M23.5 0.267578C17.2584 0.267578 16.4735 0.296328 14.0211 0.405578C11.5688 0.520578 9.89837 0.905828 8.435 1.47508C6.8993 2.05101 5.50866 2.95685 4.36113 4.1287C3.18927 5.27623 2.28344 6.66688 1.7075 8.20258C1.13825 9.66308 0.750125 11.3363 0.638 13.7801C0.52875 16.2382 0.5 17.0202 0.5 23.2705C0.5 29.515 0.52875 30.297 0.638 32.7493C0.753 35.1988 1.13825 36.8692 1.7075 38.3326C2.29688 39.8448 3.08175 41.1271 4.36113 42.4065C5.63763 43.6858 6.91988 44.4736 8.43213 45.0601C9.89838 45.6293 11.5659 46.0175 14.0154 46.1296C16.4706 46.2388 17.2526 46.2676 23.5 46.2676C29.7474 46.2676 30.5265 46.2388 32.9818 46.1296C35.4284 46.0146 37.1045 45.6293 38.5679 45.0601C40.1025 44.4838 41.4922 43.578 42.6389 42.4065C43.9182 41.1271 44.7031 39.8448 45.2925 38.3326C45.8589 36.8692 46.247 35.1988 46.362 32.7493C46.4712 30.297 46.5 29.515 46.5 23.2676C46.5 17.0202 46.4712 16.2382 46.362 13.783C46.247 11.3363 45.8589 9.66308 45.2925 8.20258C44.7166 6.66688 43.8107 5.27623 42.6389 4.1287C41.4913 2.95685 40.1007 2.05101 38.565 1.47508C37.0988 0.905828 35.4255 0.517703 32.9789 0.405578C30.5236 0.296328 29.7445 0.267578 23.4943 0.267578H23.5ZM21.4386 4.41333H23.5029C29.6439 4.41333 30.3713 4.43345 32.7949 4.54558C35.0374 4.6462 36.2564 5.02283 37.0671 5.3362C38.1395 5.75308 38.9071 6.25333 39.7121 7.05833C40.5171 7.86333 41.0145 8.62808 41.4314 9.70333C41.7476 10.5112 42.1214 11.7302 42.222 13.9727C42.3341 16.3963 42.3571 17.1237 42.3571 23.2618C42.3571 29.4 42.3341 30.1302 42.222 32.5538C42.1214 34.7963 41.7448 36.0125 41.4314 36.8232C41.06 37.8205 40.4718 38.723 39.7092 39.4653C38.9042 40.2703 38.1395 40.7677 37.0643 41.1846C36.2593 41.5008 35.0402 41.8746 32.7949 41.9781C30.3713 42.0873 29.6439 42.1132 23.5029 42.1132C17.3619 42.1132 16.6316 42.0873 14.208 41.9781C11.9655 41.8746 10.7494 41.5008 9.93863 41.1846C8.94052 40.8144 8.0371 40.2272 7.29362 39.4653C6.52966 38.7224 5.94044 37.819 5.56862 36.8203C5.25525 36.0125 4.87862 34.7935 4.778 32.551C4.66875 30.1273 4.64575 29.4 4.64575 23.2561C4.64575 17.1122 4.66875 16.3906 4.778 13.967C4.8815 11.7245 5.25525 10.5055 5.5715 9.6947C5.98838 8.62233 6.48862 7.8547 7.29362 7.0497C8.09862 6.2447 8.86337 5.74733 9.93863 5.33045C10.7494 5.0142 11.9655 4.64045 14.208 4.53695C16.3298 4.4392 17.152 4.41045 21.4386 4.40758V4.41333ZM35.7791 8.23133C35.4167 8.23133 35.0578 8.30272 34.7229 8.44142C34.3881 8.58012 34.0838 8.78342 33.8275 9.03971C33.5712 9.296 33.3679 9.60026 33.2292 9.93512C33.0905 10.27 33.0191 10.6289 33.0191 10.9913C33.0191 11.3538 33.0905 11.7127 33.2292 12.0475C33.3679 12.3824 33.5712 12.6867 33.8275 12.9429C34.0838 13.1992 34.3881 13.4025 34.7229 13.5412C35.0578 13.6799 35.4167 13.7513 35.7791 13.7513C36.5111 13.7513 37.2131 13.4605 37.7307 12.9429C38.2483 12.4253 38.5391 11.7233 38.5391 10.9913C38.5391 10.2593 38.2483 9.55731 37.7307 9.03971C37.2131 8.52211 36.5111 8.23133 35.7791 8.23133ZM23.5029 11.4571C21.9362 11.4326 20.3803 11.7201 18.9258 12.3027C17.4713 12.8854 16.1472 13.7515 15.0307 14.8508C13.9141 15.9501 13.0274 17.2605 12.4222 18.7057C11.8169 20.1509 11.5052 21.7022 11.5052 23.269C11.5052 24.8359 11.8169 26.3871 12.4222 27.8323C13.0274 29.2776 13.9141 30.588 15.0307 31.6872C16.1472 32.7865 17.4713 33.6527 18.9258 34.2353C20.3803 34.8179 21.9362 35.1054 23.5029 35.081C26.6037 35.0326 29.5611 33.7668 31.7368 31.5569C33.9125 29.347 35.132 26.3702 35.132 23.269C35.132 20.1678 33.9125 17.191 31.7368 14.9811C29.5611 12.7712 26.6037 11.5055 23.5029 11.4571ZM23.5029 15.6C24.5098 15.6 25.5069 15.7983 26.4371 16.1836C27.3674 16.569 28.2127 17.1337 28.9247 17.8457C29.6367 18.5578 30.2015 19.403 30.5868 20.3333C30.9722 21.2636 31.1705 22.2607 31.1705 23.2676C31.1705 24.2745 30.9722 25.2716 30.5868 26.2019C30.2015 27.1321 29.6367 27.9774 28.9247 28.6894C28.2127 29.4014 27.3674 29.9662 26.4371 30.3515C25.5069 30.7369 24.5098 30.9352 23.5029 30.9352C21.4693 30.9352 19.519 30.1274 18.081 28.6894C16.6431 27.2514 15.8352 25.3012 15.8352 23.2676C15.8352 21.234 16.6431 19.2837 18.081 17.8457C19.519 16.4078 21.4693 15.6 23.5029 15.6Z" fill="white"/>
</svg>
