<svg width="22" height="27" viewBox="0 0 22 27" fill="none" xmlns="http://www.w3.org/2000/svg">
<path d="M10.9992 0.911133C13.7697 0.911133 16.4268 2.01174 18.3859 3.97082C20.345 5.92991 21.4456 8.587 21.4456 11.3576C21.4456 15.7718 18.3438 20.5826 12.2206 25.8411C11.8801 26.1336 11.446 26.2943 10.9972 26.2939C10.5483 26.2935 10.1145 26.1321 9.77452 25.839L9.36952 25.4876C3.51738 20.3661 0.552734 15.6733 0.552734 11.3576C0.552734 8.587 1.65334 5.92991 3.61242 3.97082C5.57151 2.01174 8.2286 0.911133 10.9992 0.911133ZM10.9992 7.3397C9.93356 7.3397 8.9116 7.76301 8.15811 8.51651C7.40461 9.27 6.98131 10.292 6.98131 11.3576C6.98131 12.4232 7.40461 13.4451 8.15811 14.1986C8.9116 14.9521 9.93356 15.3754 10.9992 15.3754C12.0648 15.3754 13.0867 14.9521 13.8402 14.1986C14.5937 13.4451 15.017 12.4232 15.017 11.3576C15.017 10.292 14.5937 9.27 13.8402 8.51651C13.0867 7.76301 12.0648 7.3397 10.9992 7.3397Z" fill="#FFDC23"/>
</svg>
