<svg  viewBox="0 0 252 252" fill="none" xmlns="http://www.w3.org/2000/svg">
<g style="mix-blend-mode:hard-light" filter="url(#filter0_f_4678_5877)">
<circle cx="126" cy="126" r="67" fill="#FF922D" fill-opacity="0.2"/>
</g>
<g style="mix-blend-mode:hard-light" filter="url(#filter1_f_4678_5877)">
<path fill-rule="evenodd" clip-rule="evenodd" d="M101.525 172.557L79.4505 150.482C78.732 149.764 78.732 148.6 79.4505 147.881L91.5914 135.74C92.3099 135.022 93.474 135.022 94.1926 135.74L94.9384 136.486L100.529 131.595C103.105 129.339 106.168 127.702 109.463 126.803C109.454 126.539 109.448 126.273 109.448 126.004C109.448 116.129 115.39 105.386 123.81 100.528C123.335 99.9832 122.959 99.3415 122.722 98.6223C121.773 95.7322 123.35 92.6072 126.238 91.6536C126.3 91.6335 126.361 91.6147 126.422 91.5958C126.453 91.5864 126.484 91.577 126.514 91.5674L121.779 83.0611C121.506 82.5717 121.471 81.9847 121.684 81.4666C121.897 80.9485 122.334 80.5562 122.873 80.3995C126.268 79.4129 129.797 78.9121 133.361 78.9121C136.926 78.9121 140.455 79.4129 143.85 80.4003C144.388 80.5562 144.825 80.9492 145.038 81.4673C145.251 81.9847 145.216 82.5717 144.944 83.0611L140.209 91.5674C140.234 91.5754 140.26 91.5833 140.286 91.5912C140.351 91.6109 140.415 91.6307 140.48 91.6522C143.372 92.6072 144.95 95.7329 144.001 98.6208C143.764 99.3415 143.392 99.9854 142.918 100.529C151.214 105.316 157.241 115.95 157.274 125.921C157.274 125.921 162.217 122.678 162.229 122.67C164.018 121.552 166.193 121.286 168.199 121.942C170.203 122.597 171.803 124.096 172.586 126.055C173.67 128.761 172.962 131.913 170.826 133.896L148.509 154.812C146.796 156.403 144.573 157.276 142.244 157.276H115.728L116.267 157.815C116.985 158.533 116.985 159.697 116.267 160.416L104.126 172.557C103.407 173.275 102.243 173.275 101.525 172.557ZM133.361 82.5911C130.928 82.5911 128.513 82.8491 126.156 83.3607L130.256 90.7238C132.32 90.4357 134.401 90.4357 136.468 90.7238L140.567 83.3607C138.209 82.8491 135.795 82.5911 133.361 82.5911ZM139.331 95.1473C135.276 93.8201 131.161 93.9135 127.387 95.1487C126.427 95.4649 125.9 96.5082 126.217 97.4726C126.452 98.1875 127.094 98.6819 127.85 98.7293H127.851C131.477 97.5775 135.244 97.5796 138.871 98.7329C139.621 98.6891 140.267 98.1969 140.506 97.4718C140.823 96.509 140.296 95.4656 139.331 95.1473ZM115.406 129.683C110.85 129.683 106.408 131.336 102.952 134.363L97.5461 139.093L112.049 153.597H142.244C143.642 153.597 144.975 153.073 146 152.121L168.316 131.207C169.368 130.23 169.701 128.747 169.17 127.421C168.793 126.477 168.022 125.755 167.056 125.439C166.096 125.126 165.054 125.25 164.194 125.781L146.13 137.633C146.201 138.043 146.238 138.459 146.238 138.88C146.238 142.937 142.937 146.238 138.88 146.238H126.003C124.987 146.238 124.164 145.415 124.164 144.399C124.164 143.383 124.987 142.559 126.003 142.559H138.88C140.908 142.559 142.559 140.909 142.559 138.88C142.559 136.904 140.974 135.201 138.88 135.201H130.909C128.97 135.201 127.744 134.23 127.102 133.722C126.957 133.606 126.841 133.515 126.754 133.464C123.502 131.026 119.472 129.683 115.406 129.683ZM112.365 159.115L92.892 139.642L83.3523 149.182L102.825 168.655L112.365 159.115ZM128.333 102.05C131.522 100.901 134.827 100.874 138.025 101.972C146.571 104.911 153.525 115.524 153.525 125.629C153.525 126.486 153.471 127.302 153.364 128.065L144.523 133.866C143.154 132.171 141.079 131.148 138.809 131.148H130.838C130.177 131.148 129.782 130.832 129.368 130.502C129.217 130.381 129.062 130.258 128.892 130.147C125.005 127.234 120.191 125.629 115.335 125.629C114.575 125.629 113.814 125.669 113.057 125.746C113.057 125.727 113.056 125.707 113.056 125.688C113.056 125.669 113.055 125.649 113.055 125.629C113.055 115.665 119.909 105.088 128.333 102.05Z" stroke="#FFAB2D" stroke-width="2"/>
<path d="M139.713 112.595H138.469C138.299 111.755 137.925 110.997 137.426 110.337H139.713C140.336 110.337 140.842 109.832 140.842 109.208C140.842 108.585 140.336 108.079 139.713 108.079H128.423C127.8 108.079 127.294 108.585 127.294 109.208C127.294 109.832 127.8 110.337 128.423 110.337H132.939C134.409 110.337 135.651 111.284 136.118 112.595H128.423C127.8 112.595 127.294 113.101 127.294 113.724C127.294 114.348 127.8 114.853 128.423 114.853H136.118C135.651 116.165 134.409 117.111 132.939 117.111H128.423C128.276 117.111 128.129 117.141 127.992 117.197C127.716 117.312 127.495 117.531 127.38 117.809C127.265 118.085 127.265 118.396 127.38 118.672C127.436 118.812 127.52 118.936 127.626 119.04L136.656 128.069C136.877 128.291 137.166 128.401 137.455 128.401C137.744 128.401 138.033 128.291 138.254 128.072C138.695 127.631 138.695 126.916 138.254 126.475L131.148 119.369H132.939C135.667 119.369 137.945 117.427 138.469 114.853H139.713C140.336 114.853 140.842 114.348 140.842 113.724C140.842 113.101 140.336 112.595 139.713 112.595Z" stroke="#FFAB2D" stroke-width="2"/>
</g>
<g style="mix-blend-mode:hard-light" filter="url(#filter2_f_4678_5877)">
<path fill-rule="evenodd" clip-rule="evenodd" d="M101.525 172.557L79.4505 150.482C78.732 149.764 78.732 148.6 79.4505 147.881L91.5914 135.74C92.3099 135.022 93.474 135.022 94.1926 135.74L94.9384 136.486L100.529 131.595C103.105 129.339 106.168 127.702 109.463 126.803C109.454 126.539 109.448 126.273 109.448 126.004C109.448 116.129 115.39 105.386 123.81 100.528C123.335 99.9832 122.959 99.3415 122.722 98.6223C121.773 95.7322 123.35 92.6072 126.238 91.6536C126.3 91.6335 126.361 91.6147 126.422 91.5958C126.453 91.5864 126.484 91.577 126.514 91.5674L121.779 83.0611C121.506 82.5717 121.471 81.9847 121.684 81.4666C121.897 80.9485 122.334 80.5562 122.873 80.3995C126.268 79.4129 129.797 78.9121 133.361 78.9121C136.926 78.9121 140.455 79.4129 143.85 80.4003C144.388 80.5562 144.825 80.9492 145.038 81.4673C145.251 81.9847 145.216 82.5717 144.944 83.0611L140.209 91.5674C140.234 91.5754 140.26 91.5833 140.286 91.5912C140.351 91.6109 140.415 91.6307 140.48 91.6522C143.372 92.6072 144.95 95.7329 144.001 98.6208C143.764 99.3415 143.392 99.9854 142.918 100.529C151.214 105.316 157.241 115.95 157.274 125.921C157.274 125.921 162.217 122.678 162.229 122.67C164.018 121.552 166.193 121.286 168.199 121.942C170.203 122.597 171.803 124.096 172.586 126.055C173.67 128.761 172.962 131.913 170.826 133.896L148.509 154.812C146.796 156.403 144.573 157.276 142.244 157.276H115.728L116.267 157.815C116.985 158.533 116.985 159.697 116.267 160.416L104.126 172.557C103.407 173.275 102.243 173.275 101.525 172.557ZM133.361 82.5911C130.928 82.5911 128.513 82.8491 126.156 83.3607L130.256 90.7238C132.32 90.4357 134.401 90.4357 136.468 90.7238L140.567 83.3607C138.209 82.8491 135.795 82.5911 133.361 82.5911ZM139.331 95.1473C135.276 93.8201 131.161 93.9135 127.387 95.1487C126.427 95.4649 125.9 96.5082 126.217 97.4726C126.452 98.1875 127.094 98.6819 127.85 98.7293H127.851C131.477 97.5775 135.244 97.5796 138.871 98.7329C139.621 98.6891 140.267 98.1969 140.506 97.4718C140.823 96.509 140.296 95.4656 139.331 95.1473ZM115.406 129.683C110.85 129.683 106.408 131.336 102.952 134.363L97.5461 139.093L112.049 153.597H142.244C143.642 153.597 144.975 153.073 146 152.121L168.316 131.207C169.368 130.23 169.701 128.747 169.17 127.421C168.793 126.477 168.022 125.755 167.056 125.439C166.096 125.126 165.054 125.25 164.194 125.781L146.13 137.633C146.201 138.043 146.238 138.459 146.238 138.88C146.238 142.937 142.937 146.238 138.88 146.238H126.003C124.987 146.238 124.164 145.415 124.164 144.399C124.164 143.383 124.987 142.559 126.003 142.559H138.88C140.908 142.559 142.559 140.909 142.559 138.88C142.559 136.904 140.974 135.201 138.88 135.201H130.909C128.97 135.201 127.744 134.23 127.102 133.722C126.957 133.606 126.841 133.515 126.754 133.464C123.502 131.026 119.472 129.683 115.406 129.683ZM112.365 159.115L92.892 139.642L83.3523 149.182L102.825 168.655L112.365 159.115ZM128.333 102.05C131.522 100.901 134.827 100.874 138.025 101.972C146.571 104.911 153.525 115.524 153.525 125.629C153.525 126.486 153.471 127.302 153.364 128.065L144.523 133.866C143.154 132.171 141.079 131.148 138.809 131.148H130.838C130.177 131.148 129.782 130.832 129.368 130.502C129.217 130.381 129.062 130.258 128.892 130.147C125.005 127.234 120.191 125.629 115.335 125.629C114.575 125.629 113.814 125.669 113.057 125.746C113.057 125.727 113.056 125.707 113.056 125.688C113.056 125.669 113.055 125.649 113.055 125.629C113.055 115.665 119.909 105.088 128.333 102.05Z" stroke="#FFAB2D" stroke-width="4"/>
<path d="M139.713 112.595H138.469C138.299 111.755 137.925 110.997 137.426 110.337H139.713C140.336 110.337 140.842 109.832 140.842 109.208C140.842 108.585 140.336 108.079 139.713 108.079H128.423C127.8 108.079 127.294 108.585 127.294 109.208C127.294 109.832 127.8 110.337 128.423 110.337H132.939C134.409 110.337 135.651 111.284 136.118 112.595H128.423C127.8 112.595 127.294 113.101 127.294 113.724C127.294 114.348 127.8 114.853 128.423 114.853H136.118C135.651 116.165 134.409 117.111 132.939 117.111H128.423C128.276 117.111 128.129 117.141 127.992 117.197C127.716 117.312 127.495 117.531 127.38 117.809C127.265 118.085 127.265 118.396 127.38 118.672C127.436 118.812 127.52 118.936 127.626 119.04L136.656 128.069C136.877 128.291 137.166 128.401 137.455 128.401C137.744 128.401 138.033 128.291 138.254 128.072C138.695 127.631 138.695 126.916 138.254 126.475L131.148 119.369H132.939C135.667 119.369 137.945 117.427 138.469 114.853H139.713C140.336 114.853 140.842 114.348 140.842 113.724C140.842 113.101 140.336 112.595 139.713 112.595Z" stroke="#FFAB2D" stroke-width="4"/>
</g>
<g style="mix-blend-mode:hard-light" filter="url(#filter3_ddi_4678_5877)">
<path fill-rule="evenodd" clip-rule="evenodd" d="M101.525 172.557L79.4505 150.482C78.732 149.764 78.732 148.6 79.4505 147.881L91.5914 135.74C92.3099 135.022 93.474 135.022 94.1926 135.74L94.9384 136.486L100.529 131.595C103.105 129.339 106.168 127.702 109.463 126.803C109.454 126.539 109.448 126.273 109.448 126.004C109.448 116.129 115.39 105.386 123.81 100.528C123.335 99.9832 122.959 99.3415 122.722 98.6223C121.773 95.7322 123.35 92.6072 126.238 91.6536C126.3 91.6335 126.361 91.6147 126.422 91.5958C126.453 91.5864 126.484 91.577 126.514 91.5674L121.779 83.0611C121.506 82.5717 121.471 81.9847 121.684 81.4666C121.897 80.9485 122.334 80.5562 122.873 80.3995C126.268 79.4129 129.797 78.9121 133.361 78.9121C136.926 78.9121 140.455 79.4129 143.85 80.4003C144.388 80.5562 144.825 80.9492 145.038 81.4673C145.251 81.9847 145.216 82.5717 144.944 83.0611L140.209 91.5674C140.234 91.5754 140.26 91.5833 140.286 91.5912C140.351 91.6109 140.415 91.6307 140.48 91.6522C143.372 92.6072 144.95 95.7329 144.001 98.6208C143.764 99.3415 143.392 99.9854 142.918 100.529C151.214 105.316 157.241 115.95 157.274 125.921C157.274 125.921 162.217 122.678 162.229 122.67C164.018 121.552 166.193 121.286 168.199 121.942C170.203 122.597 171.803 124.096 172.586 126.055C173.67 128.761 172.962 131.913 170.826 133.896L148.509 154.812C146.796 156.403 144.573 157.276 142.244 157.276H115.728L116.267 157.814C116.985 158.533 116.985 159.697 116.267 160.416L104.126 172.557C103.407 173.275 102.243 173.275 101.525 172.557ZM133.361 82.5911C130.928 82.5911 128.513 82.8491 126.156 83.3607L130.256 90.7238C132.32 90.4357 134.401 90.4357 136.468 90.7238L140.567 83.3607C138.209 82.8491 135.795 82.5911 133.361 82.5911ZM139.331 95.1473C135.276 93.8201 131.161 93.9135 127.387 95.1487C126.427 95.4649 125.9 96.5082 126.217 97.4726C126.452 98.1875 127.094 98.6819 127.85 98.7293C131.476 97.5775 135.244 97.5796 138.871 98.7329C139.621 98.6891 140.267 98.1969 140.506 97.4718C140.823 96.509 140.296 95.4656 139.331 95.1473ZM115.406 129.683C110.85 129.683 106.408 131.336 102.952 134.363L97.5461 139.093L112.049 153.597H142.244C143.642 153.597 144.975 153.073 146 152.121L168.316 131.207C169.368 130.23 169.701 128.747 169.17 127.421C168.793 126.477 168.022 125.755 167.056 125.439C166.096 125.126 165.054 125.25 164.194 125.781L146.13 137.633C146.201 138.043 146.238 138.459 146.238 138.88C146.238 142.937 142.937 146.238 138.88 146.238H126.003C124.987 146.238 124.164 145.415 124.164 144.399C124.164 143.383 124.987 142.559 126.003 142.559H138.88C140.908 142.559 142.559 140.909 142.559 138.88C142.559 136.904 140.974 135.201 138.88 135.201H130.909C128.97 135.201 127.744 134.23 127.102 133.722C126.957 133.606 126.841 133.515 126.754 133.464C123.502 131.026 119.472 129.683 115.406 129.683ZM112.365 159.115L92.892 139.642L83.3523 149.182L102.825 168.655L112.365 159.115ZM128.333 102.05C131.522 100.901 134.827 100.874 138.025 101.972C146.571 104.911 153.525 115.524 153.525 125.629C153.525 126.486 153.471 127.302 153.364 128.065L144.523 133.866C143.154 132.171 141.079 131.148 138.809 131.148H130.838C130.177 131.148 129.782 130.832 129.368 130.502C129.217 130.381 129.062 130.258 128.892 130.147C125.005 127.234 120.191 125.629 115.335 125.629C114.575 125.629 113.814 125.669 113.057 125.746C113.057 125.727 113.056 125.707 113.056 125.688C113.056 125.669 113.055 125.649 113.055 125.629C113.055 115.665 119.909 105.088 128.333 102.05Z" stroke="#FFC940" stroke-opacity="0.2" stroke-width="4"/>
<path d="M139.713 112.595H138.469C138.299 111.755 137.925 110.997 137.426 110.337H139.713C140.336 110.337 140.842 109.832 140.842 109.208C140.842 108.585 140.336 108.079 139.713 108.079H128.423C127.8 108.079 127.294 108.585 127.294 109.208C127.294 109.832 127.8 110.337 128.423 110.337H132.939C134.409 110.337 135.651 111.284 136.118 112.595H128.423C127.8 112.595 127.294 113.101 127.294 113.724C127.294 114.348 127.8 114.853 128.423 114.853H136.118C135.651 116.165 134.409 117.111 132.939 117.111H128.423C128.276 117.111 128.129 117.141 127.992 117.197C127.716 117.312 127.495 117.531 127.38 117.809C127.265 118.085 127.265 118.396 127.38 118.672C127.436 118.812 127.52 118.936 127.626 119.04L136.656 128.069C136.877 128.291 137.166 128.401 137.455 128.401C137.744 128.401 138.033 128.291 138.254 128.072C138.695 127.631 138.695 126.916 138.254 126.475L131.148 119.369H132.939C135.667 119.369 137.945 117.427 138.469 114.853H139.713C140.336 114.853 140.842 114.348 140.842 113.724C140.842 113.101 140.336 112.595 139.713 112.595Z" stroke="#FFC940" stroke-opacity="0.2" stroke-width="4"/>
</g>
<g filter="url(#filter4_f_4678_5877)">
<path fill-rule="evenodd" clip-rule="evenodd" d="M101.525 172.557L79.4505 150.482C78.732 149.764 78.732 148.6 79.4505 147.881L91.5914 135.74C92.3099 135.022 93.474 135.022 94.1926 135.74L94.9384 136.486L100.529 131.595C103.105 129.339 106.168 127.702 109.463 126.803C109.454 126.539 109.448 126.273 109.448 126.004C109.448 116.129 115.39 105.386 123.81 100.528C123.335 99.9832 122.959 99.3415 122.722 98.6223C121.773 95.7322 123.35 92.6072 126.238 91.6536C126.3 91.6335 126.361 91.6147 126.422 91.5958C126.453 91.5864 126.484 91.577 126.514 91.5674L121.779 83.0611C121.506 82.5717 121.471 81.9847 121.684 81.4666C121.897 80.9485 122.334 80.5562 122.873 80.3995C126.268 79.4129 129.797 78.9121 133.361 78.9121C136.926 78.9121 140.455 79.4129 143.85 80.4003C144.388 80.5562 144.825 80.9492 145.038 81.4673C145.251 81.9847 145.216 82.5717 144.944 83.0611L140.209 91.5674C140.234 91.5754 140.26 91.5833 140.286 91.5912C140.351 91.6109 140.415 91.6307 140.48 91.6522C143.372 92.6072 144.95 95.7329 144.001 98.6208C143.764 99.3415 143.392 99.9854 142.918 100.529C151.214 105.316 157.241 115.95 157.274 125.921C157.274 125.921 162.217 122.678 162.229 122.67C164.018 121.552 166.193 121.286 168.199 121.942C170.203 122.597 171.803 124.096 172.586 126.055C173.67 128.761 172.962 131.913 170.826 133.896L148.509 154.812C146.796 156.403 144.573 157.276 142.244 157.276H115.728L116.267 157.815C116.985 158.533 116.985 159.697 116.267 160.416L104.126 172.557C103.407 173.275 102.243 173.275 101.525 172.557ZM133.361 82.5911C130.928 82.5911 128.513 82.8491 126.156 83.3607L130.256 90.7238C132.32 90.4357 134.401 90.4357 136.468 90.7238L140.567 83.3607C138.209 82.8491 135.795 82.5911 133.361 82.5911ZM139.331 95.1473C135.276 93.8201 131.161 93.9135 127.387 95.1487C126.427 95.4649 125.9 96.5082 126.217 97.4726C126.452 98.1875 127.094 98.6819 127.85 98.7293H127.851C131.477 97.5775 135.244 97.5796 138.871 98.7329C139.621 98.6891 140.267 98.1969 140.506 97.4718C140.823 96.509 140.296 95.4656 139.331 95.1473ZM115.406 129.683C110.85 129.683 106.408 131.336 102.952 134.363L97.5461 139.093L112.049 153.597H142.244C143.642 153.597 144.975 153.073 146 152.121L168.316 131.207C169.368 130.23 169.701 128.747 169.17 127.421C168.793 126.477 168.022 125.755 167.056 125.439C166.096 125.126 165.054 125.25 164.194 125.781L146.13 137.633C146.201 138.043 146.238 138.459 146.238 138.88C146.238 142.937 142.937 146.238 138.88 146.238H126.003C124.987 146.238 124.164 145.415 124.164 144.399C124.164 143.383 124.987 142.559 126.003 142.559H138.88C140.908 142.559 142.559 140.909 142.559 138.88C142.559 136.904 140.974 135.201 138.88 135.201H130.909C128.97 135.201 127.744 134.23 127.102 133.722C126.957 133.606 126.841 133.515 126.754 133.464C123.502 131.026 119.472 129.683 115.406 129.683ZM112.365 159.115L92.892 139.642L83.3523 149.182L102.825 168.655L112.365 159.115ZM128.333 102.05C131.522 100.901 134.827 100.874 138.025 101.972C146.571 104.911 153.525 115.524 153.525 125.629C153.525 126.486 153.471 127.302 153.364 128.065L144.523 133.866C143.154 132.171 141.079 131.148 138.809 131.148H130.838C130.177 131.148 129.782 130.832 129.368 130.502C129.217 130.381 129.062 130.258 128.892 130.147C125.005 127.234 120.191 125.629 115.335 125.629C114.575 125.629 113.814 125.669 113.057 125.746C113.057 125.727 113.056 125.707 113.056 125.688C113.056 125.669 113.055 125.649 113.055 125.629C113.055 115.665 119.909 105.088 128.333 102.05Z" stroke="#FFD56A" stroke-width="2"/>
<path d="M139.713 112.595H138.469C138.299 111.755 137.925 110.997 137.426 110.337H139.713C140.336 110.337 140.842 109.832 140.842 109.208C140.842 108.585 140.336 108.079 139.713 108.079H128.423C127.8 108.079 127.294 108.585 127.294 109.208C127.294 109.832 127.8 110.337 128.423 110.337H132.939C134.409 110.337 135.651 111.284 136.118 112.595H128.423C127.8 112.595 127.294 113.101 127.294 113.724C127.294 114.348 127.8 114.853 128.423 114.853H136.118C135.651 116.165 134.409 117.111 132.939 117.111H128.423C128.276 117.111 128.129 117.141 127.992 117.197C127.716 117.312 127.495 117.531 127.38 117.809C127.265 118.085 127.265 118.396 127.38 118.672C127.436 118.812 127.52 118.936 127.626 119.04L136.656 128.069C136.877 128.291 137.166 128.401 137.455 128.401C137.744 128.401 138.033 128.291 138.254 128.072C138.695 127.631 138.695 126.916 138.254 126.475L131.148 119.369H132.939C135.667 119.369 137.945 117.427 138.469 114.853H139.713C140.336 114.853 140.842 114.348 140.842 113.724C140.842 113.101 140.336 112.595 139.713 112.595Z" stroke="#FFD56A" stroke-width="2"/>
</g>
<g filter="url(#filter5_f_4678_5877)">
<path fill-rule="evenodd" clip-rule="evenodd" d="M101.525 172.557L79.4505 150.482C78.732 149.764 78.732 148.6 79.4505 147.881L91.5914 135.74C92.3099 135.022 93.474 135.022 94.1926 135.74L94.9384 136.486L100.529 131.595C103.105 129.339 106.168 127.702 109.463 126.803C109.454 126.539 109.448 126.273 109.448 126.004C109.448 116.129 115.39 105.386 123.81 100.528C123.335 99.9832 122.959 99.3415 122.722 98.6223C121.773 95.7322 123.35 92.6072 126.238 91.6536C126.3 91.6335 126.361 91.6147 126.422 91.5958C126.453 91.5864 126.484 91.577 126.514 91.5674L121.779 83.0611C121.506 82.5717 121.471 81.9847 121.684 81.4666C121.897 80.9485 122.334 80.5562 122.873 80.3995C126.268 79.4129 129.797 78.9121 133.361 78.9121C136.926 78.9121 140.455 79.4129 143.85 80.4003C144.388 80.5562 144.825 80.9492 145.038 81.4673C145.251 81.9847 145.216 82.5717 144.944 83.0611L140.209 91.5674C140.234 91.5754 140.26 91.5833 140.286 91.5912C140.351 91.6109 140.415 91.6307 140.48 91.6522C143.372 92.6072 144.95 95.7329 144.001 98.6208C143.764 99.3415 143.392 99.9854 142.918 100.529C151.214 105.316 157.241 115.95 157.274 125.921C157.274 125.921 162.217 122.678 162.229 122.67C164.018 121.552 166.193 121.286 168.199 121.942C170.203 122.597 171.803 124.096 172.586 126.055C173.67 128.761 172.962 131.913 170.826 133.896L148.509 154.812C146.796 156.403 144.573 157.276 142.244 157.276H115.728L116.267 157.815C116.985 158.533 116.985 159.697 116.267 160.416L104.126 172.557C103.407 173.275 102.243 173.275 101.525 172.557ZM133.361 82.5911C130.928 82.5911 128.513 82.8491 126.156 83.3607L130.256 90.7238C132.32 90.4357 134.401 90.4357 136.468 90.7238L140.567 83.3607C138.209 82.8491 135.795 82.5911 133.361 82.5911ZM139.331 95.1473C135.276 93.8201 131.161 93.9135 127.387 95.1487C126.427 95.4649 125.9 96.5082 126.217 97.4726C126.452 98.1875 127.094 98.6819 127.85 98.7293H127.851C131.477 97.5775 135.244 97.5796 138.871 98.7329C139.621 98.6891 140.267 98.1969 140.506 97.4718C140.823 96.509 140.296 95.4656 139.331 95.1473ZM115.406 129.683C110.85 129.683 106.408 131.336 102.952 134.363L97.5461 139.093L112.049 153.597H142.244C143.642 153.597 144.975 153.073 146 152.121L168.316 131.207C169.368 130.23 169.701 128.747 169.17 127.421C168.793 126.477 168.022 125.755 167.056 125.439C166.096 125.126 165.054 125.25 164.194 125.781L146.13 137.633C146.201 138.043 146.238 138.459 146.238 138.88C146.238 142.937 142.937 146.238 138.88 146.238H126.003C124.987 146.238 124.164 145.415 124.164 144.399C124.164 143.383 124.987 142.559 126.003 142.559H138.88C140.908 142.559 142.559 140.909 142.559 138.88C142.559 136.904 140.974 135.201 138.88 135.201H130.909C128.97 135.201 127.744 134.23 127.102 133.722C126.957 133.606 126.841 133.515 126.754 133.464C123.502 131.026 119.472 129.683 115.406 129.683ZM112.365 159.115L92.892 139.642L83.3523 149.182L102.825 168.655L112.365 159.115ZM128.333 102.05C131.522 100.901 134.827 100.874 138.025 101.972C146.571 104.911 153.525 115.524 153.525 125.629C153.525 126.486 153.471 127.302 153.364 128.065L144.523 133.866C143.154 132.171 141.079 131.148 138.809 131.148H130.838C130.177 131.148 129.782 130.832 129.368 130.502C129.217 130.381 129.062 130.258 128.892 130.147C125.005 127.234 120.191 125.629 115.335 125.629C114.575 125.629 113.814 125.669 113.057 125.746C113.057 125.727 113.056 125.707 113.056 125.688C113.056 125.669 113.055 125.649 113.055 125.629C113.055 115.665 119.909 105.088 128.333 102.05Z" stroke="white"/>
<path d="M139.713 112.595H138.469C138.299 111.755 137.925 110.997 137.426 110.337H139.713C140.336 110.337 140.842 109.832 140.842 109.208C140.842 108.585 140.336 108.079 139.713 108.079H128.423C127.8 108.079 127.294 108.585 127.294 109.208C127.294 109.832 127.8 110.337 128.423 110.337H132.939C134.409 110.337 135.651 111.284 136.118 112.595H128.423C127.8 112.595 127.294 113.101 127.294 113.724C127.294 114.348 127.8 114.853 128.423 114.853H136.118C135.651 116.165 134.409 117.111 132.939 117.111H128.423C128.276 117.111 128.129 117.141 127.992 117.197C127.716 117.312 127.495 117.531 127.38 117.809C127.265 118.085 127.265 118.396 127.38 118.672C127.436 118.812 127.52 118.936 127.626 119.04L136.656 128.069C136.877 128.291 137.166 128.401 137.455 128.401C137.744 128.401 138.033 128.291 138.254 128.072C138.695 127.631 138.695 126.916 138.254 126.475L131.148 119.369H132.939C135.667 119.369 137.945 117.427 138.469 114.853H139.713C140.336 114.853 140.842 114.348 140.842 113.724C140.842 113.101 140.336 112.595 139.713 112.595Z" stroke="white"/>
</g>
<defs>
<filter id="filter0_f_4678_5877" x="0.799999" y="0.799999" width="250.4" height="250.4" filterUnits="userSpaceOnUse" color-interpolation-filters="sRGB">
<feFlood flood-opacity="0" result="BackgroundImageFix"/>
<feBlend mode="normal" in="SourceGraphic" in2="BackgroundImageFix" result="shape"/>
<feGaussianBlur stdDeviation="29.1" result="effect1_foregroundBlur_4678_5877"/>
</filter>
<filter id="filter1_f_4678_5877" x="32.0382" y="32.0387" width="187.924" height="187.93" filterUnits="userSpaceOnUse" color-interpolation-filters="sRGB">
<feFlood flood-opacity="0" result="BackgroundImageFix"/>
<feBlend mode="normal" in="SourceGraphic" in2="BackgroundImageFix" result="shape"/>
<feGaussianBlur stdDeviation="22.9367" result="effect1_foregroundBlur_4678_5877"/>
</filter>
<filter id="filter2_f_4678_5877" x="61.6205" y="61.621" width="128.759" height="128.765" filterUnits="userSpaceOnUse" color-interpolation-filters="sRGB">
<feFlood flood-opacity="0" result="BackgroundImageFix"/>
<feBlend mode="normal" in="SourceGraphic" in2="BackgroundImageFix" result="shape"/>
<feGaussianBlur stdDeviation="7.64557" result="effect1_foregroundBlur_4678_5877"/>
</filter>
<filter id="filter3_ddi_4678_5877" x="57.0331" y="72.3248" width="137.934" height="137.94" filterUnits="userSpaceOnUse" color-interpolation-filters="sRGB">
<feFlood flood-opacity="0" result="BackgroundImageFix"/>
<feColorMatrix in="SourceAlpha" type="matrix" values="0 0 0 0 0 0 0 0 0 0 0 0 0 0 0 0 0 0 127 0" result="hardAlpha"/>
<feOffset dy="9.93925"/>
<feGaussianBlur stdDeviation="3.82279"/>
<feColorMatrix type="matrix" values="0 0 0 0 0.224 0 0 0 0 0.15 0 0 0 0 0 0 0 0 0.7 0"/>
<feBlend mode="multiply" in2="BackgroundImageFix" result="effect1_dropShadow_4678_5877"/>
<feColorMatrix in="SourceAlpha" type="matrix" values="0 0 0 0 0 0 0 0 0 0 0 0 0 0 0 0 0 0 127 0" result="hardAlpha"/>
<feOffset dy="15.2911"/>
<feGaussianBlur stdDeviation="9.93925"/>
<feColorMatrix type="matrix" values="0 0 0 0 0.56 0 0 0 0 0.44 0 0 0 0 0 0 0 0 1 0"/>
<feBlend mode="color-dodge" in2="effect1_dropShadow_4678_5877" result="effect2_dropShadow_4678_5877"/>
<feBlend mode="normal" in="SourceGraphic" in2="effect2_dropShadow_4678_5877" result="shape"/>
<feColorMatrix in="SourceAlpha" type="matrix" values="0 0 0 0 0 0 0 0 0 0 0 0 0 0 0 0 0 0 127 0" result="hardAlpha"/>
<feOffset dx="-0.993925" dy="1.98785"/>
<feGaussianBlur stdDeviation="0.496962"/>
<feComposite in2="hardAlpha" operator="arithmetic" k2="-1" k3="1"/>
<feColorMatrix type="matrix" values="0 0 0 0 1 0 0 0 0 1 0 0 0 0 1 0 0 0 0.5 0"/>
<feBlend mode="normal" in2="shape" result="effect3_innerShadow_4678_5877"/>
</filter>
<filter id="filter4_f_4678_5877" x="76.3825" y="76.383" width="99.235" height="99.2413" filterUnits="userSpaceOnUse" color-interpolation-filters="sRGB">
<feFlood flood-opacity="0" result="BackgroundImageFix"/>
<feBlend mode="normal" in="SourceGraphic" in2="BackgroundImageFix" result="shape"/>
<feGaussianBlur stdDeviation="0.764557" result="effect1_foregroundBlur_4678_5877"/>
</filter>
<filter id="filter5_f_4678_5877" x="77.3922" y="77.3927" width="97.2156" height="97.2219" filterUnits="userSpaceOnUse" color-interpolation-filters="sRGB">
<feFlood flood-opacity="0" result="BackgroundImageFix"/>
<feBlend mode="normal" in="SourceGraphic" in2="BackgroundImageFix" result="shape"/>
<feGaussianBlur stdDeviation="0.509705" result="effect1_foregroundBlur_4678_5877"/>
</filter>
</defs>
</svg>
