<svg width="224" height="212" viewBox="0 0 224 212" fill="none" xmlns="http://www.w3.org/2000/svg">
<g style="mix-blend-mode:hard-light" filter="url(#filter0_f_4743_34742)">
<circle cx="112" cy="100.268" r="70" fill="#4FF4FF" fill-opacity="0.1"/>
</g>
<g style="mix-blend-mode:hard-light" filter="url(#filter1_f_4743_34742)">
<mask id="path-2-inside-1_4743_34742" fill="white">
<path d="M153.716 90.4365C153.716 89.8664 153.603 89.3018 153.385 88.7751C153.167 88.2484 152.847 87.7697 152.444 87.3666C152.041 86.9635 151.562 86.6437 151.036 86.4255C150.509 86.2073 149.944 86.095 149.374 86.095H133.745C132.593 86.095 131.489 86.5524 130.675 87.3666C129.861 88.1808 129.403 89.2851 129.403 90.4365C129.403 96.3236 129.212 96.8272 130.289 98.2512C129.72 99.0011 129.409 99.915 129.403 100.856C129.403 106.743 129.212 107.247 130.289 108.671C129.177 110.147 129.403 110.859 129.403 116.486C129.409 117.427 129.72 118.341 130.289 119.09C129.72 119.84 129.409 120.754 129.403 121.695C129.403 127.582 129.212 128.086 130.289 129.51C129.177 130.986 129.403 131.698 129.403 137.325C129.403 137.895 129.516 138.46 129.734 138.986C129.952 139.513 130.272 139.992 130.675 140.395C131.078 140.798 131.557 141.118 132.083 141.336C132.61 141.554 133.175 141.666 133.745 141.666H149.374C149.944 141.666 150.509 141.554 151.036 141.336C151.562 141.118 152.041 140.798 152.444 140.395C152.847 139.992 153.167 139.513 153.385 138.986C153.603 138.46 153.716 137.895 153.716 137.325C153.716 131.438 153.907 130.934 152.83 129.51C153.399 128.76 153.709 127.846 153.716 126.905C153.716 121.018 153.907 120.515 152.83 119.09C153.941 117.614 153.716 116.902 153.716 111.276C153.709 110.335 153.399 109.421 152.83 108.671C153.399 107.921 153.709 107.007 153.716 106.066C153.716 100.179 153.907 99.6753 152.83 98.2512C153.941 96.7751 153.716 96.0631 153.716 90.4365ZM132.876 90.4365C132.876 90.2062 132.968 89.9854 133.131 89.8225C133.294 89.6597 133.514 89.5682 133.745 89.5682H149.374C150.52 89.5682 150.242 90.4712 150.242 95.6463C150.242 95.8766 150.151 96.0975 149.988 96.2603C149.825 96.4231 149.604 96.5146 149.374 96.5146H133.745C132.599 96.5146 132.876 95.6116 132.876 90.4365ZM150.242 100.856C150.242 106.066 150.52 106.934 149.374 106.934H133.745C133.514 106.934 133.294 106.843 133.131 106.68C132.968 106.517 132.876 106.296 132.876 106.066C132.876 100.856 132.599 99.9878 133.745 99.9878H149.374C149.604 99.9878 149.825 100.079 149.988 100.242C150.151 100.405 150.242 100.626 150.242 100.856ZM150.242 111.276C150.242 116.486 150.52 117.354 149.374 117.354H133.745C133.514 117.354 133.294 117.262 133.131 117.1C132.968 116.937 132.876 116.716 132.876 116.486C132.876 111.276 132.599 110.407 133.745 110.407H149.374C149.604 110.407 149.825 110.499 149.988 110.662C150.151 110.825 150.242 111.045 150.242 111.276ZM150.242 121.695C150.242 126.905 150.52 127.774 149.374 127.774H133.745C133.514 127.774 133.294 127.682 133.131 127.519C132.968 127.356 132.876 127.135 132.876 126.905C132.876 121.695 132.599 120.827 133.745 120.827H149.374C149.604 120.827 149.825 120.919 149.988 121.081C150.151 121.244 150.242 121.465 150.242 121.695ZM150.242 137.325C150.242 137.555 150.151 137.776 149.988 137.939C149.825 138.102 149.604 138.193 149.374 138.193H133.745C132.599 138.193 132.876 137.29 132.876 132.115C132.876 131.885 132.968 131.664 133.131 131.501C133.294 131.338 133.514 131.247 133.745 131.247H149.374C150.52 131.247 150.242 132.15 150.242 137.325Z"/>
<path d="M119.852 96.5146H104.222C103.071 96.5146 101.967 96.972 101.153 97.7862C100.338 98.6004 99.881 99.7047 99.881 100.856C99.881 106.743 99.6899 107.247 100.767 108.671C99.6552 110.147 99.881 110.859 99.881 116.486C99.8872 117.427 100.198 118.341 100.767 119.09C100.198 119.84 99.8872 120.754 99.881 121.695C99.881 127.582 99.6899 128.086 100.767 129.51C99.6552 130.986 99.881 131.698 99.881 137.325C99.881 137.895 99.9933 138.46 100.211 138.986C100.43 139.513 100.749 139.992 101.153 140.395C101.556 140.798 102.034 141.118 102.561 141.336C103.088 141.554 103.652 141.666 104.222 141.666H119.852C120.422 141.666 120.987 141.554 121.513 141.336C122.04 141.118 122.519 140.798 122.922 140.395C123.325 139.992 123.645 139.513 123.863 138.986C124.081 138.46 124.193 137.895 124.193 137.325C124.193 131.438 124.384 130.934 123.308 129.51C123.876 128.76 124.187 127.846 124.193 126.905C124.193 121.018 124.384 120.515 123.308 119.09C124.419 117.614 124.193 116.902 124.193 111.276C124.187 110.335 123.876 109.421 123.308 108.671C124.419 107.195 124.193 106.483 124.193 100.856C124.193 99.7047 123.736 98.6004 122.922 97.7862C122.108 96.972 121.003 96.5146 119.852 96.5146ZM103.354 100.856C103.354 100.626 103.446 100.405 103.608 100.242C103.771 100.079 103.992 99.9878 104.222 99.9878H119.852C120.998 99.9878 120.72 100.891 120.72 106.066C120.72 106.296 120.629 106.517 120.466 106.68C120.303 106.843 120.082 106.934 119.852 106.934H104.222C103.076 106.934 103.354 106.031 103.354 100.856ZM120.72 111.276C120.72 116.486 120.998 117.354 119.852 117.354H104.222C103.992 117.354 103.771 117.262 103.608 117.1C103.446 116.937 103.354 116.716 103.354 116.486C103.354 111.276 103.076 110.407 104.222 110.407H119.852C120.082 110.407 120.303 110.499 120.466 110.662C120.629 110.825 120.72 111.045 120.72 111.276ZM120.72 121.695C120.72 126.905 120.998 127.774 119.852 127.774H104.222C103.992 127.774 103.771 127.682 103.608 127.519C103.446 127.356 103.354 127.135 103.354 126.905C103.354 121.695 103.076 120.827 104.222 120.827H119.852C120.082 120.827 120.303 120.919 120.466 121.081C120.629 121.244 120.72 121.465 120.72 121.695ZM120.72 137.325C120.72 137.555 120.629 137.776 120.466 137.939C120.303 138.102 120.082 138.193 119.852 138.193H104.222C103.076 138.193 103.354 137.29 103.354 132.115C103.354 131.885 103.446 131.664 103.608 131.501C103.771 131.338 103.992 131.247 104.222 131.247H119.852C120.998 131.247 120.72 132.15 120.72 137.325Z"/>
<path d="M82.5149 96.5146C80.1073 96.5314 77.7589 97.2628 75.7675 98.6159C73.7761 99.9691 72.2314 101.883 71.3292 104.115C70.427 106.348 70.208 108.798 70.6999 111.154C71.1918 113.511 72.3726 115.669 74.0924 117.354C73.0477 117.498 72.0916 118.019 71.4039 118.818C70.7163 119.618 70.3446 120.641 70.3587 121.695C70.3587 127.582 70.1677 128.086 71.2444 129.51C70.1329 130.986 70.3587 131.698 70.3587 137.325C70.3587 137.895 70.471 138.46 70.6892 138.986C70.9073 139.513 71.2271 139.992 71.6303 140.395C72.0334 140.798 72.512 141.118 73.0388 141.336C73.5655 141.554 74.1301 141.666 74.7002 141.666H90.3296C90.8998 141.666 91.4643 141.554 91.9911 141.336C92.5178 141.118 92.9964 140.798 93.3995 140.395C93.8027 139.992 94.1225 139.513 94.3407 138.986C94.5588 138.46 94.6711 137.895 94.6711 137.325C94.6711 131.438 94.8622 130.934 93.7855 129.51C94.8969 128.034 94.6711 127.322 94.6711 121.695C94.6852 120.641 94.3135 119.618 93.6259 118.818C92.9383 118.019 91.9822 117.498 90.9374 117.354C92.6573 115.669 93.838 113.511 94.3299 111.154C94.8219 108.798 94.6029 106.348 93.7007 104.115C92.7985 101.883 91.2537 99.9691 89.2623 98.6159C87.2709 97.2628 84.9225 96.5314 82.5149 96.5146ZM73.8319 108.671C73.8319 106.954 74.3411 105.275 75.2952 103.847C76.2493 102.419 77.6055 101.306 79.1921 100.649C80.7787 99.9916 82.5245 99.8196 84.2089 100.155C85.8932 100.49 87.4404 101.317 88.6547 102.531C89.8691 103.745 90.6961 105.293 91.0311 106.977C91.3661 108.661 91.1942 110.407 90.537 111.994C89.8798 113.58 88.7669 114.936 87.3389 115.891C85.911 116.845 84.2323 117.354 82.5149 117.354C80.212 117.354 78.0035 116.439 76.3751 114.811C74.7467 113.182 73.8319 110.974 73.8319 108.671ZM91.1979 137.325C91.1979 137.555 91.1065 137.776 90.9436 137.939C90.7808 138.102 90.5599 138.193 90.3296 138.193H74.7002C73.554 138.193 73.8319 137.29 73.8319 132.115C73.8319 131.885 73.9234 131.664 74.0862 131.501C74.2491 131.338 74.4699 131.247 74.7002 131.247H90.3296C91.4758 131.247 91.1979 132.15 91.1979 137.325ZM90.3296 120.827C91.4758 120.827 91.1979 121.73 91.1979 126.905C91.1979 127.135 91.1065 127.356 90.9436 127.519C90.7808 127.682 90.5599 127.774 90.3296 127.774H74.7002C73.554 127.774 73.8319 126.87 73.8319 121.695C73.8319 121.465 73.9234 121.244 74.0862 121.081C74.2491 120.919 74.4699 120.827 74.7002 120.827H90.3296Z"/>
<path d="M82.5149 91.3048C83.4179 91.3048 81.9071 92.3468 103.441 74.3903L114.503 82.2918C114.805 82.5214 115.174 82.6457 115.554 82.6457C115.933 82.6457 116.302 82.5214 116.604 82.2918L138.625 64.6306L137.756 68.1038C137.643 68.5505 137.713 69.0238 137.949 69.4195C138.185 69.8152 138.569 70.1009 139.015 70.2138C139.462 70.3266 139.935 70.2573 140.331 70.0212C140.727 69.7851 141.012 69.4015 141.125 68.9547L143.296 60.4627C143.344 60.2016 143.34 59.9335 143.283 59.6741C143.227 59.4146 143.119 59.1691 142.966 58.9519C142.185 58.0488 142.167 58.3093 132.876 58.6393C132.648 58.6473 132.424 58.7001 132.216 58.7947C132.009 58.8894 131.822 59.024 131.666 59.1909C131.352 59.528 131.184 59.9761 131.201 60.4367C131.217 60.8973 131.415 61.3326 131.752 61.6468C132.089 61.9611 132.537 62.1286 132.998 62.1125L136.471 61.9909L115.51 78.7144L104.361 70.7955C104.058 70.5618 103.685 70.435 103.302 70.435C102.919 70.435 102.546 70.5618 102.243 70.7955L81.4035 88.1616C81.0986 88.3811 80.8732 88.6935 80.7609 89.052C80.6486 89.4104 80.6557 89.7957 80.7809 90.1498C80.9061 90.504 81.1428 90.808 81.4555 91.0163C81.7681 91.2245 82.1398 91.3258 82.5149 91.3048Z"/>
</mask>
<path d="M153.716 90.4365C153.716 89.8664 153.603 89.3018 153.385 88.7751C153.167 88.2484 152.847 87.7697 152.444 87.3666C152.041 86.9635 151.562 86.6437 151.036 86.4255C150.509 86.2073 149.944 86.095 149.374 86.095H133.745C132.593 86.095 131.489 86.5524 130.675 87.3666C129.861 88.1808 129.403 89.2851 129.403 90.4365C129.403 96.3236 129.212 96.8272 130.289 98.2512C129.72 99.0011 129.409 99.915 129.403 100.856C129.403 106.743 129.212 107.247 130.289 108.671C129.177 110.147 129.403 110.859 129.403 116.486C129.409 117.427 129.72 118.341 130.289 119.09C129.72 119.84 129.409 120.754 129.403 121.695C129.403 127.582 129.212 128.086 130.289 129.51C129.177 130.986 129.403 131.698 129.403 137.325C129.403 137.895 129.516 138.46 129.734 138.986C129.952 139.513 130.272 139.992 130.675 140.395C131.078 140.798 131.557 141.118 132.083 141.336C132.61 141.554 133.175 141.666 133.745 141.666H149.374C149.944 141.666 150.509 141.554 151.036 141.336C151.562 141.118 152.041 140.798 152.444 140.395C152.847 139.992 153.167 139.513 153.385 138.986C153.603 138.46 153.716 137.895 153.716 137.325C153.716 131.438 153.907 130.934 152.83 129.51C153.399 128.76 153.709 127.846 153.716 126.905C153.716 121.018 153.907 120.515 152.83 119.09C153.941 117.614 153.716 116.902 153.716 111.276C153.709 110.335 153.399 109.421 152.83 108.671C153.399 107.921 153.709 107.007 153.716 106.066C153.716 100.179 153.907 99.6753 152.83 98.2512C153.941 96.7751 153.716 96.0631 153.716 90.4365ZM132.876 90.4365C132.876 90.2062 132.968 89.9854 133.131 89.8225C133.294 89.6597 133.514 89.5682 133.745 89.5682H149.374C150.52 89.5682 150.242 90.4712 150.242 95.6463C150.242 95.8766 150.151 96.0975 149.988 96.2603C149.825 96.4231 149.604 96.5146 149.374 96.5146H133.745C132.599 96.5146 132.876 95.6116 132.876 90.4365ZM150.242 100.856C150.242 106.066 150.52 106.934 149.374 106.934H133.745C133.514 106.934 133.294 106.843 133.131 106.68C132.968 106.517 132.876 106.296 132.876 106.066C132.876 100.856 132.599 99.9878 133.745 99.9878H149.374C149.604 99.9878 149.825 100.079 149.988 100.242C150.151 100.405 150.242 100.626 150.242 100.856ZM150.242 111.276C150.242 116.486 150.52 117.354 149.374 117.354H133.745C133.514 117.354 133.294 117.262 133.131 117.1C132.968 116.937 132.876 116.716 132.876 116.486C132.876 111.276 132.599 110.407 133.745 110.407H149.374C149.604 110.407 149.825 110.499 149.988 110.662C150.151 110.825 150.242 111.045 150.242 111.276ZM150.242 121.695C150.242 126.905 150.52 127.774 149.374 127.774H133.745C133.514 127.774 133.294 127.682 133.131 127.519C132.968 127.356 132.876 127.135 132.876 126.905C132.876 121.695 132.599 120.827 133.745 120.827H149.374C149.604 120.827 149.825 120.919 149.988 121.081C150.151 121.244 150.242 121.465 150.242 121.695ZM150.242 137.325C150.242 137.555 150.151 137.776 149.988 137.939C149.825 138.102 149.604 138.193 149.374 138.193H133.745C132.599 138.193 132.876 137.29 132.876 132.115C132.876 131.885 132.968 131.664 133.131 131.501C133.294 131.338 133.514 131.247 133.745 131.247H149.374C150.52 131.247 150.242 132.15 150.242 137.325Z" stroke="#4BE9F3" stroke-width="4" mask="url(#path-2-inside-1_4743_34742)"/>
<path d="M119.852 96.5146H104.222C103.071 96.5146 101.967 96.972 101.153 97.7862C100.338 98.6004 99.881 99.7047 99.881 100.856C99.881 106.743 99.6899 107.247 100.767 108.671C99.6552 110.147 99.881 110.859 99.881 116.486C99.8872 117.427 100.198 118.341 100.767 119.09C100.198 119.84 99.8872 120.754 99.881 121.695C99.881 127.582 99.6899 128.086 100.767 129.51C99.6552 130.986 99.881 131.698 99.881 137.325C99.881 137.895 99.9933 138.46 100.211 138.986C100.43 139.513 100.749 139.992 101.153 140.395C101.556 140.798 102.034 141.118 102.561 141.336C103.088 141.554 103.652 141.666 104.222 141.666H119.852C120.422 141.666 120.987 141.554 121.513 141.336C122.04 141.118 122.519 140.798 122.922 140.395C123.325 139.992 123.645 139.513 123.863 138.986C124.081 138.46 124.193 137.895 124.193 137.325C124.193 131.438 124.384 130.934 123.308 129.51C123.876 128.76 124.187 127.846 124.193 126.905C124.193 121.018 124.384 120.515 123.308 119.09C124.419 117.614 124.193 116.902 124.193 111.276C124.187 110.335 123.876 109.421 123.308 108.671C124.419 107.195 124.193 106.483 124.193 100.856C124.193 99.7047 123.736 98.6004 122.922 97.7862C122.108 96.972 121.003 96.5146 119.852 96.5146ZM103.354 100.856C103.354 100.626 103.446 100.405 103.608 100.242C103.771 100.079 103.992 99.9878 104.222 99.9878H119.852C120.998 99.9878 120.72 100.891 120.72 106.066C120.72 106.296 120.629 106.517 120.466 106.68C120.303 106.843 120.082 106.934 119.852 106.934H104.222C103.076 106.934 103.354 106.031 103.354 100.856ZM120.72 111.276C120.72 116.486 120.998 117.354 119.852 117.354H104.222C103.992 117.354 103.771 117.262 103.608 117.1C103.446 116.937 103.354 116.716 103.354 116.486C103.354 111.276 103.076 110.407 104.222 110.407H119.852C120.082 110.407 120.303 110.499 120.466 110.662C120.629 110.825 120.72 111.045 120.72 111.276ZM120.72 121.695C120.72 126.905 120.998 127.774 119.852 127.774H104.222C103.992 127.774 103.771 127.682 103.608 127.519C103.446 127.356 103.354 127.135 103.354 126.905C103.354 121.695 103.076 120.827 104.222 120.827H119.852C120.082 120.827 120.303 120.919 120.466 121.081C120.629 121.244 120.72 121.465 120.72 121.695ZM120.72 137.325C120.72 137.555 120.629 137.776 120.466 137.939C120.303 138.102 120.082 138.193 119.852 138.193H104.222C103.076 138.193 103.354 137.29 103.354 132.115C103.354 131.885 103.446 131.664 103.608 131.501C103.771 131.338 103.992 131.247 104.222 131.247H119.852C120.998 131.247 120.72 132.15 120.72 137.325Z" stroke="#4BE9F3" stroke-width="4" mask="url(#path-2-inside-1_4743_34742)"/>
<path d="M82.5149 96.5146C80.1073 96.5314 77.7589 97.2628 75.7675 98.6159C73.7761 99.9691 72.2314 101.883 71.3292 104.115C70.427 106.348 70.208 108.798 70.6999 111.154C71.1918 113.511 72.3726 115.669 74.0924 117.354C73.0477 117.498 72.0916 118.019 71.4039 118.818C70.7163 119.618 70.3446 120.641 70.3587 121.695C70.3587 127.582 70.1677 128.086 71.2444 129.51C70.1329 130.986 70.3587 131.698 70.3587 137.325C70.3587 137.895 70.471 138.46 70.6892 138.986C70.9073 139.513 71.2271 139.992 71.6303 140.395C72.0334 140.798 72.512 141.118 73.0388 141.336C73.5655 141.554 74.1301 141.666 74.7002 141.666H90.3296C90.8998 141.666 91.4643 141.554 91.9911 141.336C92.5178 141.118 92.9964 140.798 93.3995 140.395C93.8027 139.992 94.1225 139.513 94.3407 138.986C94.5588 138.46 94.6711 137.895 94.6711 137.325C94.6711 131.438 94.8622 130.934 93.7855 129.51C94.8969 128.034 94.6711 127.322 94.6711 121.695C94.6852 120.641 94.3135 119.618 93.6259 118.818C92.9383 118.019 91.9822 117.498 90.9374 117.354C92.6573 115.669 93.838 113.511 94.3299 111.154C94.8219 108.798 94.6029 106.348 93.7007 104.115C92.7985 101.883 91.2537 99.9691 89.2623 98.6159C87.2709 97.2628 84.9225 96.5314 82.5149 96.5146ZM73.8319 108.671C73.8319 106.954 74.3411 105.275 75.2952 103.847C76.2493 102.419 77.6055 101.306 79.1921 100.649C80.7787 99.9916 82.5245 99.8196 84.2089 100.155C85.8932 100.49 87.4404 101.317 88.6547 102.531C89.8691 103.745 90.6961 105.293 91.0311 106.977C91.3661 108.661 91.1942 110.407 90.537 111.994C89.8798 113.58 88.7669 114.936 87.3389 115.891C85.911 116.845 84.2323 117.354 82.5149 117.354C80.212 117.354 78.0035 116.439 76.3751 114.811C74.7467 113.182 73.8319 110.974 73.8319 108.671ZM91.1979 137.325C91.1979 137.555 91.1065 137.776 90.9436 137.939C90.7808 138.102 90.5599 138.193 90.3296 138.193H74.7002C73.554 138.193 73.8319 137.29 73.8319 132.115C73.8319 131.885 73.9234 131.664 74.0862 131.501C74.2491 131.338 74.4699 131.247 74.7002 131.247H90.3296C91.4758 131.247 91.1979 132.15 91.1979 137.325ZM90.3296 120.827C91.4758 120.827 91.1979 121.73 91.1979 126.905C91.1979 127.135 91.1065 127.356 90.9436 127.519C90.7808 127.682 90.5599 127.774 90.3296 127.774H74.7002C73.554 127.774 73.8319 126.87 73.8319 121.695C73.8319 121.465 73.9234 121.244 74.0862 121.081C74.2491 120.919 74.4699 120.827 74.7002 120.827H90.3296Z" stroke="#4BE9F3" stroke-width="4" mask="url(#path-2-inside-1_4743_34742)"/>
<path d="M82.5149 91.3048C83.4179 91.3048 81.9071 92.3468 103.441 74.3903L114.503 82.2918C114.805 82.5214 115.174 82.6457 115.554 82.6457C115.933 82.6457 116.302 82.5214 116.604 82.2918L138.625 64.6306L137.756 68.1038C137.643 68.5505 137.713 69.0238 137.949 69.4195C138.185 69.8152 138.569 70.1009 139.015 70.2138C139.462 70.3266 139.935 70.2573 140.331 70.0212C140.727 69.7851 141.012 69.4015 141.125 68.9547L143.296 60.4627C143.344 60.2016 143.34 59.9335 143.283 59.6741C143.227 59.4146 143.119 59.1691 142.966 58.9519C142.185 58.0488 142.167 58.3093 132.876 58.6393C132.648 58.6473 132.424 58.7001 132.216 58.7947C132.009 58.8894 131.822 59.024 131.666 59.1909C131.352 59.528 131.184 59.9761 131.201 60.4367C131.217 60.8973 131.415 61.3326 131.752 61.6468C132.089 61.9611 132.537 62.1286 132.998 62.1125L136.471 61.9909L115.51 78.7144L104.361 70.7955C104.058 70.5618 103.685 70.435 103.302 70.435C102.919 70.435 102.546 70.5618 102.243 70.7955L81.4035 88.1616C81.0986 88.3811 80.8732 88.6935 80.7609 89.052C80.6486 89.4104 80.6557 89.7957 80.7809 90.1498C80.9061 90.504 81.1428 90.808 81.4555 91.0163C81.7681 91.2245 82.1398 91.3258 82.5149 91.3048Z" stroke="#4BE9F3" stroke-width="4" mask="url(#path-2-inside-1_4743_34742)"/>
</g>
<g style="mix-blend-mode:hard-light" filter="url(#filter2_f_4743_34742)">
<mask id="path-3-inside-2_4743_34742" fill="white">
<path d="M153.716 90.4365C153.716 89.8664 153.603 89.3018 153.385 88.7751C153.167 88.2484 152.847 87.7697 152.444 87.3666C152.041 86.9635 151.562 86.6437 151.036 86.4255C150.509 86.2073 149.944 86.095 149.374 86.095H133.745C132.593 86.095 131.489 86.5524 130.675 87.3666C129.861 88.1808 129.403 89.2851 129.403 90.4365C129.403 96.3236 129.212 96.8272 130.289 98.2512C129.72 99.0011 129.409 99.915 129.403 100.856C129.403 106.743 129.212 107.247 130.289 108.671C129.177 110.147 129.403 110.859 129.403 116.486C129.409 117.427 129.72 118.341 130.289 119.09C129.72 119.84 129.409 120.754 129.403 121.695C129.403 127.582 129.212 128.086 130.289 129.51C129.177 130.986 129.403 131.698 129.403 137.325C129.403 137.895 129.516 138.46 129.734 138.986C129.952 139.513 130.272 139.992 130.675 140.395C131.078 140.798 131.557 141.118 132.083 141.336C132.61 141.554 133.175 141.666 133.745 141.666H149.374C149.944 141.666 150.509 141.554 151.036 141.336C151.562 141.118 152.041 140.798 152.444 140.395C152.847 139.992 153.167 139.513 153.385 138.986C153.603 138.46 153.716 137.895 153.716 137.325C153.716 131.438 153.907 130.934 152.83 129.51C153.399 128.76 153.709 127.846 153.716 126.905C153.716 121.018 153.907 120.515 152.83 119.09C153.941 117.614 153.716 116.902 153.716 111.276C153.709 110.335 153.399 109.421 152.83 108.671C153.399 107.921 153.709 107.007 153.716 106.066C153.716 100.179 153.907 99.6753 152.83 98.2512C153.941 96.7751 153.716 96.0631 153.716 90.4365ZM132.876 90.4365C132.876 90.2062 132.968 89.9854 133.131 89.8225C133.294 89.6597 133.514 89.5682 133.745 89.5682H149.374C150.52 89.5682 150.242 90.4712 150.242 95.6463C150.242 95.8766 150.151 96.0975 149.988 96.2603C149.825 96.4231 149.604 96.5146 149.374 96.5146H133.745C132.599 96.5146 132.876 95.6116 132.876 90.4365ZM150.242 100.856C150.242 106.066 150.52 106.934 149.374 106.934H133.745C133.514 106.934 133.294 106.843 133.131 106.68C132.968 106.517 132.876 106.296 132.876 106.066C132.876 100.856 132.599 99.9878 133.745 99.9878H149.374C149.604 99.9878 149.825 100.079 149.988 100.242C150.151 100.405 150.242 100.626 150.242 100.856ZM150.242 111.276C150.242 116.486 150.52 117.354 149.374 117.354H133.745C133.514 117.354 133.294 117.262 133.131 117.1C132.968 116.937 132.876 116.716 132.876 116.486C132.876 111.276 132.599 110.407 133.745 110.407H149.374C149.604 110.407 149.825 110.499 149.988 110.662C150.151 110.825 150.242 111.045 150.242 111.276ZM150.242 121.695C150.242 126.905 150.52 127.774 149.374 127.774H133.745C133.514 127.774 133.294 127.682 133.131 127.519C132.968 127.356 132.876 127.135 132.876 126.905C132.876 121.695 132.599 120.827 133.745 120.827H149.374C149.604 120.827 149.825 120.919 149.988 121.081C150.151 121.244 150.242 121.465 150.242 121.695ZM150.242 137.325C150.242 137.555 150.151 137.776 149.988 137.939C149.825 138.102 149.604 138.193 149.374 138.193H133.745C132.599 138.193 132.876 137.29 132.876 132.115C132.876 131.885 132.968 131.664 133.131 131.501C133.294 131.338 133.514 131.247 133.745 131.247H149.374C150.52 131.247 150.242 132.15 150.242 137.325Z"/>
<path d="M119.852 96.5146H104.222C103.071 96.5146 101.967 96.972 101.153 97.7862C100.338 98.6004 99.881 99.7047 99.881 100.856C99.881 106.743 99.6899 107.247 100.767 108.671C99.6552 110.147 99.881 110.859 99.881 116.486C99.8872 117.427 100.198 118.341 100.767 119.09C100.198 119.84 99.8872 120.754 99.881 121.695C99.881 127.582 99.6899 128.086 100.767 129.51C99.6552 130.986 99.881 131.698 99.881 137.325C99.881 137.895 99.9933 138.46 100.211 138.986C100.43 139.513 100.749 139.992 101.153 140.395C101.556 140.798 102.034 141.118 102.561 141.336C103.088 141.554 103.652 141.666 104.222 141.666H119.852C120.422 141.666 120.987 141.554 121.513 141.336C122.04 141.118 122.519 140.798 122.922 140.395C123.325 139.992 123.645 139.513 123.863 138.986C124.081 138.46 124.193 137.895 124.193 137.325C124.193 131.438 124.384 130.934 123.308 129.51C123.876 128.76 124.187 127.846 124.193 126.905C124.193 121.018 124.384 120.515 123.308 119.09C124.419 117.614 124.193 116.902 124.193 111.276C124.187 110.335 123.876 109.421 123.308 108.671C124.419 107.195 124.193 106.483 124.193 100.856C124.193 99.7047 123.736 98.6004 122.922 97.7862C122.108 96.972 121.003 96.5146 119.852 96.5146ZM103.354 100.856C103.354 100.626 103.446 100.405 103.608 100.242C103.771 100.079 103.992 99.9878 104.222 99.9878H119.852C120.998 99.9878 120.72 100.891 120.72 106.066C120.72 106.296 120.629 106.517 120.466 106.68C120.303 106.843 120.082 106.934 119.852 106.934H104.222C103.076 106.934 103.354 106.031 103.354 100.856ZM120.72 111.276C120.72 116.486 120.998 117.354 119.852 117.354H104.222C103.992 117.354 103.771 117.262 103.608 117.1C103.446 116.937 103.354 116.716 103.354 116.486C103.354 111.276 103.076 110.407 104.222 110.407H119.852C120.082 110.407 120.303 110.499 120.466 110.662C120.629 110.825 120.72 111.045 120.72 111.276ZM120.72 121.695C120.72 126.905 120.998 127.774 119.852 127.774H104.222C103.992 127.774 103.771 127.682 103.608 127.519C103.446 127.356 103.354 127.135 103.354 126.905C103.354 121.695 103.076 120.827 104.222 120.827H119.852C120.082 120.827 120.303 120.919 120.466 121.081C120.629 121.244 120.72 121.465 120.72 121.695ZM120.72 137.325C120.72 137.555 120.629 137.776 120.466 137.939C120.303 138.102 120.082 138.193 119.852 138.193H104.222C103.076 138.193 103.354 137.29 103.354 132.115C103.354 131.885 103.446 131.664 103.608 131.501C103.771 131.338 103.992 131.247 104.222 131.247H119.852C120.998 131.247 120.72 132.15 120.72 137.325Z"/>
<path d="M82.5149 96.5146C80.1073 96.5314 77.7589 97.2628 75.7675 98.6159C73.7761 99.9691 72.2314 101.883 71.3292 104.115C70.427 106.348 70.208 108.798 70.6999 111.154C71.1918 113.511 72.3726 115.669 74.0924 117.354C73.0477 117.498 72.0916 118.019 71.4039 118.818C70.7163 119.618 70.3446 120.641 70.3587 121.695C70.3587 127.582 70.1677 128.086 71.2444 129.51C70.1329 130.986 70.3587 131.698 70.3587 137.325C70.3587 137.895 70.471 138.46 70.6892 138.986C70.9073 139.513 71.2271 139.992 71.6303 140.395C72.0334 140.798 72.512 141.118 73.0388 141.336C73.5655 141.554 74.1301 141.666 74.7002 141.666H90.3296C90.8998 141.666 91.4643 141.554 91.9911 141.336C92.5178 141.118 92.9964 140.798 93.3995 140.395C93.8027 139.992 94.1225 139.513 94.3407 138.986C94.5588 138.46 94.6711 137.895 94.6711 137.325C94.6711 131.438 94.8622 130.934 93.7855 129.51C94.8969 128.034 94.6711 127.322 94.6711 121.695C94.6852 120.641 94.3135 119.618 93.6259 118.818C92.9383 118.019 91.9822 117.498 90.9374 117.354C92.6573 115.669 93.838 113.511 94.3299 111.154C94.8219 108.798 94.6029 106.348 93.7007 104.115C92.7985 101.883 91.2537 99.9691 89.2623 98.6159C87.2709 97.2628 84.9225 96.5314 82.5149 96.5146ZM73.8319 108.671C73.8319 106.954 74.3411 105.275 75.2952 103.847C76.2493 102.419 77.6055 101.306 79.1921 100.649C80.7787 99.9916 82.5245 99.8196 84.2089 100.155C85.8932 100.49 87.4404 101.317 88.6547 102.531C89.8691 103.745 90.6961 105.293 91.0311 106.977C91.3661 108.661 91.1942 110.407 90.537 111.994C89.8798 113.58 88.7669 114.936 87.3389 115.891C85.911 116.845 84.2323 117.354 82.5149 117.354C80.212 117.354 78.0035 116.439 76.3751 114.811C74.7467 113.182 73.8319 110.974 73.8319 108.671ZM91.1979 137.325C91.1979 137.555 91.1065 137.776 90.9436 137.939C90.7808 138.102 90.5599 138.193 90.3296 138.193H74.7002C73.554 138.193 73.8319 137.29 73.8319 132.115C73.8319 131.885 73.9234 131.664 74.0862 131.501C74.2491 131.338 74.4699 131.247 74.7002 131.247H90.3296C91.4758 131.247 91.1979 132.15 91.1979 137.325ZM90.3296 120.827C91.4758 120.827 91.1979 121.73 91.1979 126.905C91.1979 127.135 91.1065 127.356 90.9436 127.519C90.7808 127.682 90.5599 127.774 90.3296 127.774H74.7002C73.554 127.774 73.8319 126.87 73.8319 121.695C73.8319 121.465 73.9234 121.244 74.0862 121.081C74.2491 120.919 74.4699 120.827 74.7002 120.827H90.3296Z"/>
<path d="M82.5149 91.3048C83.4179 91.3048 81.9071 92.3468 103.441 74.3903L114.503 82.2918C114.805 82.5214 115.174 82.6457 115.554 82.6457C115.933 82.6457 116.302 82.5214 116.604 82.2918L138.625 64.6306L137.756 68.1038C137.643 68.5505 137.713 69.0238 137.949 69.4195C138.185 69.8152 138.569 70.1009 139.015 70.2138C139.462 70.3266 139.935 70.2573 140.331 70.0212C140.727 69.7851 141.012 69.4015 141.125 68.9547L143.296 60.4627C143.344 60.2016 143.34 59.9335 143.283 59.6741C143.227 59.4146 143.119 59.1691 142.966 58.9519C142.185 58.0488 142.167 58.3093 132.876 58.6393C132.648 58.6473 132.424 58.7001 132.216 58.7947C132.009 58.8894 131.822 59.024 131.666 59.1909C131.352 59.528 131.184 59.9761 131.201 60.4367C131.217 60.8973 131.415 61.3326 131.752 61.6468C132.089 61.9611 132.537 62.1286 132.998 62.1125L136.471 61.9909L115.51 78.7144L104.361 70.7955C104.058 70.5618 103.685 70.435 103.302 70.435C102.919 70.435 102.546 70.5618 102.243 70.7955L81.4035 88.1616C81.0986 88.3811 80.8732 88.6935 80.7609 89.052C80.6486 89.4104 80.6557 89.7957 80.7809 90.1498C80.9061 90.504 81.1428 90.808 81.4555 91.0163C81.7681 91.2245 82.1398 91.3258 82.5149 91.3048Z"/>
</mask>
<path d="M153.716 90.4365C153.716 89.8664 153.603 89.3018 153.385 88.7751C153.167 88.2484 152.847 87.7697 152.444 87.3666C152.041 86.9635 151.562 86.6437 151.036 86.4255C150.509 86.2073 149.944 86.095 149.374 86.095H133.745C132.593 86.095 131.489 86.5524 130.675 87.3666C129.861 88.1808 129.403 89.2851 129.403 90.4365C129.403 96.3236 129.212 96.8272 130.289 98.2512C129.72 99.0011 129.409 99.915 129.403 100.856C129.403 106.743 129.212 107.247 130.289 108.671C129.177 110.147 129.403 110.859 129.403 116.486C129.409 117.427 129.72 118.341 130.289 119.09C129.72 119.84 129.409 120.754 129.403 121.695C129.403 127.582 129.212 128.086 130.289 129.51C129.177 130.986 129.403 131.698 129.403 137.325C129.403 137.895 129.516 138.46 129.734 138.986C129.952 139.513 130.272 139.992 130.675 140.395C131.078 140.798 131.557 141.118 132.083 141.336C132.61 141.554 133.175 141.666 133.745 141.666H149.374C149.944 141.666 150.509 141.554 151.036 141.336C151.562 141.118 152.041 140.798 152.444 140.395C152.847 139.992 153.167 139.513 153.385 138.986C153.603 138.46 153.716 137.895 153.716 137.325C153.716 131.438 153.907 130.934 152.83 129.51C153.399 128.76 153.709 127.846 153.716 126.905C153.716 121.018 153.907 120.515 152.83 119.09C153.941 117.614 153.716 116.902 153.716 111.276C153.709 110.335 153.399 109.421 152.83 108.671C153.399 107.921 153.709 107.007 153.716 106.066C153.716 100.179 153.907 99.6753 152.83 98.2512C153.941 96.7751 153.716 96.0631 153.716 90.4365ZM132.876 90.4365C132.876 90.2062 132.968 89.9854 133.131 89.8225C133.294 89.6597 133.514 89.5682 133.745 89.5682H149.374C150.52 89.5682 150.242 90.4712 150.242 95.6463C150.242 95.8766 150.151 96.0975 149.988 96.2603C149.825 96.4231 149.604 96.5146 149.374 96.5146H133.745C132.599 96.5146 132.876 95.6116 132.876 90.4365ZM150.242 100.856C150.242 106.066 150.52 106.934 149.374 106.934H133.745C133.514 106.934 133.294 106.843 133.131 106.68C132.968 106.517 132.876 106.296 132.876 106.066C132.876 100.856 132.599 99.9878 133.745 99.9878H149.374C149.604 99.9878 149.825 100.079 149.988 100.242C150.151 100.405 150.242 100.626 150.242 100.856ZM150.242 111.276C150.242 116.486 150.52 117.354 149.374 117.354H133.745C133.514 117.354 133.294 117.262 133.131 117.1C132.968 116.937 132.876 116.716 132.876 116.486C132.876 111.276 132.599 110.407 133.745 110.407H149.374C149.604 110.407 149.825 110.499 149.988 110.662C150.151 110.825 150.242 111.045 150.242 111.276ZM150.242 121.695C150.242 126.905 150.52 127.774 149.374 127.774H133.745C133.514 127.774 133.294 127.682 133.131 127.519C132.968 127.356 132.876 127.135 132.876 126.905C132.876 121.695 132.599 120.827 133.745 120.827H149.374C149.604 120.827 149.825 120.919 149.988 121.081C150.151 121.244 150.242 121.465 150.242 121.695ZM150.242 137.325C150.242 137.555 150.151 137.776 149.988 137.939C149.825 138.102 149.604 138.193 149.374 138.193H133.745C132.599 138.193 132.876 137.29 132.876 132.115C132.876 131.885 132.968 131.664 133.131 131.501C133.294 131.338 133.514 131.247 133.745 131.247H149.374C150.52 131.247 150.242 132.15 150.242 137.325Z" stroke="#65F6FF" stroke-width="7.08393" mask="url(#path-3-inside-2_4743_34742)"/>
<path d="M119.852 96.5146H104.222C103.071 96.5146 101.967 96.972 101.153 97.7862C100.338 98.6004 99.881 99.7047 99.881 100.856C99.881 106.743 99.6899 107.247 100.767 108.671C99.6552 110.147 99.881 110.859 99.881 116.486C99.8872 117.427 100.198 118.341 100.767 119.09C100.198 119.84 99.8872 120.754 99.881 121.695C99.881 127.582 99.6899 128.086 100.767 129.51C99.6552 130.986 99.881 131.698 99.881 137.325C99.881 137.895 99.9933 138.46 100.211 138.986C100.43 139.513 100.749 139.992 101.153 140.395C101.556 140.798 102.034 141.118 102.561 141.336C103.088 141.554 103.652 141.666 104.222 141.666H119.852C120.422 141.666 120.987 141.554 121.513 141.336C122.04 141.118 122.519 140.798 122.922 140.395C123.325 139.992 123.645 139.513 123.863 138.986C124.081 138.46 124.193 137.895 124.193 137.325C124.193 131.438 124.384 130.934 123.308 129.51C123.876 128.76 124.187 127.846 124.193 126.905C124.193 121.018 124.384 120.515 123.308 119.09C124.419 117.614 124.193 116.902 124.193 111.276C124.187 110.335 123.876 109.421 123.308 108.671C124.419 107.195 124.193 106.483 124.193 100.856C124.193 99.7047 123.736 98.6004 122.922 97.7862C122.108 96.972 121.003 96.5146 119.852 96.5146ZM103.354 100.856C103.354 100.626 103.446 100.405 103.608 100.242C103.771 100.079 103.992 99.9878 104.222 99.9878H119.852C120.998 99.9878 120.72 100.891 120.72 106.066C120.72 106.296 120.629 106.517 120.466 106.68C120.303 106.843 120.082 106.934 119.852 106.934H104.222C103.076 106.934 103.354 106.031 103.354 100.856ZM120.72 111.276C120.72 116.486 120.998 117.354 119.852 117.354H104.222C103.992 117.354 103.771 117.262 103.608 117.1C103.446 116.937 103.354 116.716 103.354 116.486C103.354 111.276 103.076 110.407 104.222 110.407H119.852C120.082 110.407 120.303 110.499 120.466 110.662C120.629 110.825 120.72 111.045 120.72 111.276ZM120.72 121.695C120.72 126.905 120.998 127.774 119.852 127.774H104.222C103.992 127.774 103.771 127.682 103.608 127.519C103.446 127.356 103.354 127.135 103.354 126.905C103.354 121.695 103.076 120.827 104.222 120.827H119.852C120.082 120.827 120.303 120.919 120.466 121.081C120.629 121.244 120.72 121.465 120.72 121.695ZM120.72 137.325C120.72 137.555 120.629 137.776 120.466 137.939C120.303 138.102 120.082 138.193 119.852 138.193H104.222C103.076 138.193 103.354 137.29 103.354 132.115C103.354 131.885 103.446 131.664 103.608 131.501C103.771 131.338 103.992 131.247 104.222 131.247H119.852C120.998 131.247 120.72 132.15 120.72 137.325Z" stroke="#65F6FF" stroke-width="7.08393" mask="url(#path-3-inside-2_4743_34742)"/>
<path d="M82.5149 96.5146C80.1073 96.5314 77.7589 97.2628 75.7675 98.6159C73.7761 99.9691 72.2314 101.883 71.3292 104.115C70.427 106.348 70.208 108.798 70.6999 111.154C71.1918 113.511 72.3726 115.669 74.0924 117.354C73.0477 117.498 72.0916 118.019 71.4039 118.818C70.7163 119.618 70.3446 120.641 70.3587 121.695C70.3587 127.582 70.1677 128.086 71.2444 129.51C70.1329 130.986 70.3587 131.698 70.3587 137.325C70.3587 137.895 70.471 138.46 70.6892 138.986C70.9073 139.513 71.2271 139.992 71.6303 140.395C72.0334 140.798 72.512 141.118 73.0388 141.336C73.5655 141.554 74.1301 141.666 74.7002 141.666H90.3296C90.8998 141.666 91.4643 141.554 91.9911 141.336C92.5178 141.118 92.9964 140.798 93.3995 140.395C93.8027 139.992 94.1225 139.513 94.3407 138.986C94.5588 138.46 94.6711 137.895 94.6711 137.325C94.6711 131.438 94.8622 130.934 93.7855 129.51C94.8969 128.034 94.6711 127.322 94.6711 121.695C94.6852 120.641 94.3135 119.618 93.6259 118.818C92.9383 118.019 91.9822 117.498 90.9374 117.354C92.6573 115.669 93.838 113.511 94.3299 111.154C94.8219 108.798 94.6029 106.348 93.7007 104.115C92.7985 101.883 91.2537 99.9691 89.2623 98.6159C87.2709 97.2628 84.9225 96.5314 82.5149 96.5146ZM73.8319 108.671C73.8319 106.954 74.3411 105.275 75.2952 103.847C76.2493 102.419 77.6055 101.306 79.1921 100.649C80.7787 99.9916 82.5245 99.8196 84.2089 100.155C85.8932 100.49 87.4404 101.317 88.6547 102.531C89.8691 103.745 90.6961 105.293 91.0311 106.977C91.3661 108.661 91.1942 110.407 90.537 111.994C89.8798 113.58 88.7669 114.936 87.3389 115.891C85.911 116.845 84.2323 117.354 82.5149 117.354C80.212 117.354 78.0035 116.439 76.3751 114.811C74.7467 113.182 73.8319 110.974 73.8319 108.671ZM91.1979 137.325C91.1979 137.555 91.1065 137.776 90.9436 137.939C90.7808 138.102 90.5599 138.193 90.3296 138.193H74.7002C73.554 138.193 73.8319 137.29 73.8319 132.115C73.8319 131.885 73.9234 131.664 74.0862 131.501C74.2491 131.338 74.4699 131.247 74.7002 131.247H90.3296C91.4758 131.247 91.1979 132.15 91.1979 137.325ZM90.3296 120.827C91.4758 120.827 91.1979 121.73 91.1979 126.905C91.1979 127.135 91.1065 127.356 90.9436 127.519C90.7808 127.682 90.5599 127.774 90.3296 127.774H74.7002C73.554 127.774 73.8319 126.87 73.8319 121.695C73.8319 121.465 73.9234 121.244 74.0862 121.081C74.2491 120.919 74.4699 120.827 74.7002 120.827H90.3296Z" stroke="#65F6FF" stroke-width="7.08393" mask="url(#path-3-inside-2_4743_34742)"/>
<path d="M82.5149 91.3048C83.4179 91.3048 81.9071 92.3468 103.441 74.3903L114.503 82.2918C114.805 82.5214 115.174 82.6457 115.554 82.6457C115.933 82.6457 116.302 82.5214 116.604 82.2918L138.625 64.6306L137.756 68.1038C137.643 68.5505 137.713 69.0238 137.949 69.4195C138.185 69.8152 138.569 70.1009 139.015 70.2138C139.462 70.3266 139.935 70.2573 140.331 70.0212C140.727 69.7851 141.012 69.4015 141.125 68.9547L143.296 60.4627C143.344 60.2016 143.34 59.9335 143.283 59.6741C143.227 59.4146 143.119 59.1691 142.966 58.9519C142.185 58.0488 142.167 58.3093 132.876 58.6393C132.648 58.6473 132.424 58.7001 132.216 58.7947C132.009 58.8894 131.822 59.024 131.666 59.1909C131.352 59.528 131.184 59.9761 131.201 60.4367C131.217 60.8973 131.415 61.3326 131.752 61.6468C132.089 61.9611 132.537 62.1286 132.998 62.1125L136.471 61.9909L115.51 78.7144L104.361 70.7955C104.058 70.5618 103.685 70.435 103.302 70.435C102.919 70.435 102.546 70.5618 102.243 70.7955L81.4035 88.1616C81.0986 88.3811 80.8732 88.6935 80.7609 89.052C80.6486 89.4104 80.6557 89.7957 80.7809 90.1498C80.9061 90.504 81.1428 90.808 81.4555 91.0163C81.7681 91.2245 82.1398 91.3258 82.5149 91.3048Z" stroke="#65F6FF" stroke-width="7.08393" mask="url(#path-3-inside-2_4743_34742)"/>
</g>
<g style="mix-blend-mode:hard-light" filter="url(#filter3_ddi_4743_34742)">
<mask id="path-4-inside-3_4743_34742" fill="white">
<path d="M153.716 90.4365C153.716 89.8664 153.603 89.3018 153.385 88.7751C153.167 88.2484 152.847 87.7697 152.444 87.3666C152.041 86.9635 151.562 86.6437 151.036 86.4255C150.509 86.2073 149.944 86.095 149.374 86.095H133.745C132.593 86.095 131.489 86.5524 130.675 87.3666C129.861 88.1808 129.403 89.2851 129.403 90.4365C129.403 96.3236 129.212 96.8272 130.289 98.2512C129.72 99.0011 129.409 99.915 129.403 100.856C129.403 106.743 129.212 107.247 130.289 108.671C129.177 110.147 129.403 110.859 129.403 116.486C129.409 117.427 129.72 118.341 130.289 119.09C129.72 119.84 129.409 120.754 129.403 121.695C129.403 127.582 129.212 128.086 130.289 129.51C129.177 130.986 129.403 131.698 129.403 137.325C129.403 137.895 129.516 138.46 129.734 138.986C129.952 139.513 130.272 139.992 130.675 140.395C131.078 140.798 131.557 141.118 132.083 141.336C132.61 141.554 133.175 141.666 133.745 141.666H149.374C149.944 141.666 150.509 141.554 151.036 141.336C151.562 141.118 152.041 140.798 152.444 140.395C152.847 139.992 153.167 139.513 153.385 138.986C153.603 138.46 153.716 137.895 153.716 137.325C153.716 131.438 153.907 130.934 152.83 129.51C153.399 128.76 153.709 127.846 153.716 126.905C153.716 121.018 153.907 120.515 152.83 119.09C153.941 117.614 153.716 116.902 153.716 111.276C153.709 110.335 153.399 109.421 152.83 108.671C153.399 107.921 153.709 107.007 153.716 106.066C153.716 100.179 153.907 99.6753 152.83 98.2512C153.941 96.7751 153.716 96.0631 153.716 90.4365ZM132.876 90.4365C132.876 90.2062 132.968 89.9854 133.131 89.8225C133.294 89.6597 133.514 89.5682 133.745 89.5682H149.374C150.52 89.5682 150.242 90.4712 150.242 95.6463C150.242 95.8766 150.151 96.0975 149.988 96.2603C149.825 96.4231 149.604 96.5146 149.374 96.5146H133.745C132.599 96.5146 132.876 95.6116 132.876 90.4365ZM150.242 100.856C150.242 106.066 150.52 106.934 149.374 106.934H133.745C133.514 106.934 133.294 106.843 133.131 106.68C132.968 106.517 132.876 106.296 132.876 106.066C132.876 100.856 132.599 99.9878 133.745 99.9878H149.374C149.604 99.9878 149.825 100.079 149.988 100.242C150.151 100.405 150.242 100.626 150.242 100.856ZM150.242 111.276C150.242 116.486 150.52 117.354 149.374 117.354H133.745C133.514 117.354 133.294 117.262 133.131 117.1C132.968 116.937 132.876 116.716 132.876 116.486C132.876 111.276 132.599 110.407 133.745 110.407H149.374C149.604 110.407 149.825 110.499 149.988 110.662C150.151 110.825 150.242 111.045 150.242 111.276ZM150.242 121.695C150.242 126.905 150.52 127.774 149.374 127.774H133.745C133.514 127.774 133.294 127.682 133.131 127.519C132.968 127.356 132.876 127.135 132.876 126.905C132.876 121.695 132.599 120.827 133.745 120.827H149.374C149.604 120.827 149.825 120.919 149.988 121.081C150.151 121.244 150.242 121.465 150.242 121.695ZM150.242 137.325C150.242 137.555 150.151 137.776 149.988 137.939C149.825 138.102 149.604 138.193 149.374 138.193H133.745C132.599 138.193 132.876 137.29 132.876 132.115C132.876 131.885 132.968 131.664 133.131 131.501C133.294 131.338 133.514 131.247 133.745 131.247H149.374C150.52 131.247 150.242 132.15 150.242 137.325Z"/>
<path d="M119.852 96.5146H104.222C103.071 96.5146 101.967 96.972 101.153 97.7862C100.338 98.6004 99.881 99.7047 99.881 100.856C99.881 106.743 99.6899 107.247 100.767 108.671C99.6552 110.147 99.881 110.859 99.881 116.486C99.8872 117.427 100.198 118.341 100.767 119.09C100.198 119.84 99.8872 120.754 99.881 121.695C99.881 127.582 99.6899 128.086 100.767 129.51C99.6552 130.986 99.881 131.698 99.881 137.325C99.881 137.895 99.9933 138.46 100.211 138.986C100.43 139.513 100.749 139.992 101.153 140.395C101.556 140.798 102.034 141.118 102.561 141.336C103.088 141.554 103.652 141.666 104.222 141.666H119.852C120.422 141.666 120.987 141.554 121.513 141.336C122.04 141.118 122.519 140.798 122.922 140.395C123.325 139.992 123.645 139.513 123.863 138.986C124.081 138.46 124.193 137.895 124.193 137.325C124.193 131.438 124.384 130.934 123.308 129.51C123.876 128.76 124.187 127.846 124.193 126.905C124.193 121.018 124.384 120.515 123.308 119.09C124.419 117.614 124.193 116.902 124.193 111.276C124.187 110.335 123.876 109.421 123.308 108.671C124.419 107.195 124.193 106.483 124.193 100.856C124.193 99.7047 123.736 98.6004 122.922 97.7862C122.108 96.972 121.003 96.5146 119.852 96.5146ZM103.354 100.856C103.354 100.626 103.446 100.405 103.608 100.242C103.771 100.079 103.992 99.9878 104.222 99.9878H119.852C120.998 99.9878 120.72 100.891 120.72 106.066C120.72 106.296 120.629 106.517 120.466 106.68C120.303 106.843 120.082 106.934 119.852 106.934H104.222C103.076 106.934 103.354 106.031 103.354 100.856ZM120.72 111.276C120.72 116.486 120.998 117.354 119.852 117.354H104.222C103.992 117.354 103.771 117.262 103.608 117.1C103.446 116.937 103.354 116.716 103.354 116.486C103.354 111.276 103.076 110.407 104.222 110.407H119.852C120.082 110.407 120.303 110.499 120.466 110.662C120.629 110.825 120.72 111.045 120.72 111.276ZM120.72 121.695C120.72 126.905 120.998 127.774 119.852 127.774H104.222C103.992 127.774 103.771 127.682 103.608 127.519C103.446 127.356 103.354 127.135 103.354 126.905C103.354 121.695 103.076 120.827 104.222 120.827H119.852C120.082 120.827 120.303 120.919 120.466 121.081C120.629 121.244 120.72 121.465 120.72 121.695ZM120.72 137.325C120.72 137.555 120.629 137.776 120.466 137.939C120.303 138.102 120.082 138.193 119.852 138.193H104.222C103.076 138.193 103.354 137.29 103.354 132.115C103.354 131.885 103.446 131.664 103.608 131.501C103.771 131.338 103.992 131.247 104.222 131.247H119.852C120.998 131.247 120.72 132.15 120.72 137.325Z"/>
<path d="M82.5149 96.5146C80.1073 96.5314 77.7589 97.2628 75.7675 98.6159C73.7761 99.9691 72.2314 101.883 71.3292 104.115C70.427 106.348 70.208 108.798 70.6999 111.154C71.1918 113.511 72.3726 115.669 74.0924 117.354C73.0477 117.498 72.0916 118.019 71.4039 118.818C70.7163 119.618 70.3446 120.641 70.3587 121.695C70.3587 127.582 70.1677 128.086 71.2444 129.51C70.1329 130.986 70.3587 131.698 70.3587 137.325C70.3587 137.895 70.471 138.46 70.6892 138.986C70.9073 139.513 71.2271 139.992 71.6303 140.395C72.0334 140.798 72.512 141.118 73.0388 141.336C73.5655 141.554 74.1301 141.666 74.7002 141.666H90.3296C90.8998 141.666 91.4643 141.554 91.9911 141.336C92.5178 141.118 92.9964 140.798 93.3995 140.395C93.8027 139.992 94.1225 139.513 94.3407 138.986C94.5588 138.46 94.6711 137.895 94.6711 137.325C94.6711 131.438 94.8622 130.934 93.7855 129.51C94.8969 128.034 94.6711 127.322 94.6711 121.695C94.6852 120.641 94.3135 119.618 93.6259 118.818C92.9383 118.019 91.9822 117.498 90.9374 117.354C92.6573 115.669 93.838 113.511 94.3299 111.154C94.8219 108.798 94.6029 106.348 93.7007 104.115C92.7985 101.883 91.2537 99.9691 89.2623 98.6159C87.2709 97.2628 84.9225 96.5314 82.5149 96.5146ZM73.8319 108.671C73.8319 106.954 74.3411 105.275 75.2952 103.847C76.2493 102.419 77.6055 101.306 79.1921 100.649C80.7787 99.9916 82.5245 99.8196 84.2089 100.155C85.8932 100.49 87.4404 101.317 88.6547 102.531C89.8691 103.745 90.6961 105.293 91.0311 106.977C91.3661 108.661 91.1942 110.407 90.537 111.994C89.8798 113.58 88.7669 114.936 87.3389 115.891C85.911 116.845 84.2323 117.354 82.5149 117.354C80.212 117.354 78.0035 116.439 76.3751 114.811C74.7467 113.182 73.8319 110.974 73.8319 108.671ZM91.1979 137.325C91.1979 137.555 91.1065 137.776 90.9436 137.939C90.7808 138.102 90.5599 138.193 90.3296 138.193H74.7002C73.554 138.193 73.8319 137.29 73.8319 132.115C73.8319 131.885 73.9234 131.664 74.0862 131.501C74.2491 131.338 74.4699 131.247 74.7002 131.247H90.3296C91.4758 131.247 91.1979 132.15 91.1979 137.325ZM90.3296 120.827C91.4758 120.827 91.1979 121.73 91.1979 126.905C91.1979 127.135 91.1065 127.356 90.9436 127.519C90.7808 127.682 90.5599 127.774 90.3296 127.774H74.7002C73.554 127.774 73.8319 126.87 73.8319 121.695C73.8319 121.465 73.9234 121.244 74.0862 121.081C74.2491 120.919 74.4699 120.827 74.7002 120.827H90.3296Z"/>
<path d="M82.5149 91.3048C83.4179 91.3048 81.9071 92.3468 103.441 74.3903L114.503 82.2918C114.805 82.5214 115.174 82.6457 115.554 82.6457C115.933 82.6457 116.302 82.5214 116.604 82.2918L138.625 64.6306L137.756 68.1038C137.643 68.5505 137.713 69.0238 137.949 69.4195C138.185 69.8152 138.569 70.1009 139.015 70.2138C139.462 70.3266 139.935 70.2573 140.331 70.0212C140.727 69.7851 141.012 69.4015 141.125 68.9547L143.296 60.4627C143.344 60.2016 143.34 59.9335 143.283 59.6741C143.227 59.4146 143.119 59.1691 142.966 58.9519C142.185 58.0488 142.167 58.3093 132.876 58.6393C132.648 58.6473 132.424 58.7001 132.216 58.7947C132.009 58.8894 131.822 59.024 131.666 59.1909C131.352 59.528 131.184 59.9761 131.201 60.4367C131.217 60.8973 131.415 61.3326 131.752 61.6468C132.089 61.9611 132.537 62.1286 132.998 62.1125L136.471 61.9909L115.51 78.7144L104.361 70.7955C104.058 70.5618 103.685 70.435 103.302 70.435C102.919 70.435 102.546 70.5618 102.243 70.7955L81.4035 88.1616C81.0986 88.3811 80.8732 88.6935 80.7609 89.052C80.6486 89.4104 80.6557 89.7957 80.7809 90.1498C80.9061 90.504 81.1428 90.808 81.4555 91.0163C81.7681 91.2245 82.1398 91.3258 82.5149 91.3048Z"/>
</mask>
<path d="M153.716 90.4365C153.716 89.8664 153.603 89.3018 153.385 88.7751C153.167 88.2484 152.847 87.7697 152.444 87.3666C152.041 86.9635 151.562 86.6437 151.036 86.4255C150.509 86.2073 149.944 86.095 149.374 86.095H133.745C132.593 86.095 131.489 86.5524 130.675 87.3666C129.861 88.1808 129.403 89.2851 129.403 90.4365C129.403 96.3236 129.212 96.8272 130.289 98.2512C129.72 99.0011 129.409 99.915 129.403 100.856C129.403 106.743 129.212 107.247 130.289 108.671C129.177 110.147 129.403 110.859 129.403 116.486C129.409 117.427 129.72 118.341 130.289 119.09C129.72 119.84 129.409 120.754 129.403 121.695C129.403 127.582 129.212 128.086 130.289 129.51C129.177 130.986 129.403 131.698 129.403 137.325C129.403 137.895 129.516 138.46 129.734 138.986C129.952 139.513 130.272 139.992 130.675 140.395C131.078 140.798 131.557 141.118 132.083 141.336C132.61 141.554 133.175 141.666 133.745 141.666H149.374C149.944 141.666 150.509 141.554 151.036 141.336C151.562 141.118 152.041 140.798 152.444 140.395C152.847 139.992 153.167 139.513 153.385 138.986C153.603 138.46 153.716 137.895 153.716 137.325C153.716 131.438 153.907 130.934 152.83 129.51C153.399 128.76 153.709 127.846 153.716 126.905C153.716 121.018 153.907 120.515 152.83 119.09C153.941 117.614 153.716 116.902 153.716 111.276C153.709 110.335 153.399 109.421 152.83 108.671C153.399 107.921 153.709 107.007 153.716 106.066C153.716 100.179 153.907 99.6753 152.83 98.2512C153.941 96.7751 153.716 96.0631 153.716 90.4365ZM132.876 90.4365C132.876 90.2062 132.968 89.9854 133.131 89.8225C133.294 89.6597 133.514 89.5682 133.745 89.5682H149.374C150.52 89.5682 150.242 90.4712 150.242 95.6463C150.242 95.8766 150.151 96.0975 149.988 96.2603C149.825 96.4231 149.604 96.5146 149.374 96.5146H133.745C132.599 96.5146 132.876 95.6116 132.876 90.4365ZM150.242 100.856C150.242 106.066 150.52 106.934 149.374 106.934H133.745C133.514 106.934 133.294 106.843 133.131 106.68C132.968 106.517 132.876 106.296 132.876 106.066C132.876 100.856 132.599 99.9878 133.745 99.9878H149.374C149.604 99.9878 149.825 100.079 149.988 100.242C150.151 100.405 150.242 100.626 150.242 100.856ZM150.242 111.276C150.242 116.486 150.52 117.354 149.374 117.354H133.745C133.514 117.354 133.294 117.262 133.131 117.1C132.968 116.937 132.876 116.716 132.876 116.486C132.876 111.276 132.599 110.407 133.745 110.407H149.374C149.604 110.407 149.825 110.499 149.988 110.662C150.151 110.825 150.242 111.045 150.242 111.276ZM150.242 121.695C150.242 126.905 150.52 127.774 149.374 127.774H133.745C133.514 127.774 133.294 127.682 133.131 127.519C132.968 127.356 132.876 127.135 132.876 126.905C132.876 121.695 132.599 120.827 133.745 120.827H149.374C149.604 120.827 149.825 120.919 149.988 121.081C150.151 121.244 150.242 121.465 150.242 121.695ZM150.242 137.325C150.242 137.555 150.151 137.776 149.988 137.939C149.825 138.102 149.604 138.193 149.374 138.193H133.745C132.599 138.193 132.876 137.29 132.876 132.115C132.876 131.885 132.968 131.664 133.131 131.501C133.294 131.338 133.514 131.247 133.745 131.247H149.374C150.52 131.247 150.242 132.15 150.242 137.325Z" stroke="#4FF4FF" stroke-opacity="0.2" stroke-width="3" mask="url(#path-4-inside-3_4743_34742)"/>
<path d="M119.852 96.5146H104.222C103.071 96.5146 101.967 96.972 101.153 97.7862C100.338 98.6004 99.881 99.7047 99.881 100.856C99.881 106.743 99.6899 107.247 100.767 108.671C99.6552 110.147 99.881 110.859 99.881 116.486C99.8872 117.427 100.198 118.341 100.767 119.09C100.198 119.84 99.8872 120.754 99.881 121.695C99.881 127.582 99.6899 128.086 100.767 129.51C99.6552 130.986 99.881 131.698 99.881 137.325C99.881 137.895 99.9933 138.46 100.211 138.986C100.43 139.513 100.749 139.992 101.153 140.395C101.556 140.798 102.034 141.118 102.561 141.336C103.088 141.554 103.652 141.666 104.222 141.666H119.852C120.422 141.666 120.987 141.554 121.513 141.336C122.04 141.118 122.519 140.798 122.922 140.395C123.325 139.992 123.645 139.513 123.863 138.986C124.081 138.46 124.193 137.895 124.193 137.325C124.193 131.438 124.384 130.934 123.308 129.51C123.876 128.76 124.187 127.846 124.193 126.905C124.193 121.018 124.384 120.515 123.308 119.09C124.419 117.614 124.193 116.902 124.193 111.276C124.187 110.335 123.876 109.421 123.308 108.671C124.419 107.195 124.193 106.483 124.193 100.856C124.193 99.7047 123.736 98.6004 122.922 97.7862C122.108 96.972 121.003 96.5146 119.852 96.5146ZM103.354 100.856C103.354 100.626 103.446 100.405 103.608 100.242C103.771 100.079 103.992 99.9878 104.222 99.9878H119.852C120.998 99.9878 120.72 100.891 120.72 106.066C120.72 106.296 120.629 106.517 120.466 106.68C120.303 106.843 120.082 106.934 119.852 106.934H104.222C103.076 106.934 103.354 106.031 103.354 100.856ZM120.72 111.276C120.72 116.486 120.998 117.354 119.852 117.354H104.222C103.992 117.354 103.771 117.262 103.608 117.1C103.446 116.937 103.354 116.716 103.354 116.486C103.354 111.276 103.076 110.407 104.222 110.407H119.852C120.082 110.407 120.303 110.499 120.466 110.662C120.629 110.825 120.72 111.045 120.72 111.276ZM120.72 121.695C120.72 126.905 120.998 127.774 119.852 127.774H104.222C103.992 127.774 103.771 127.682 103.608 127.519C103.446 127.356 103.354 127.135 103.354 126.905C103.354 121.695 103.076 120.827 104.222 120.827H119.852C120.082 120.827 120.303 120.919 120.466 121.081C120.629 121.244 120.72 121.465 120.72 121.695ZM120.72 137.325C120.72 137.555 120.629 137.776 120.466 137.939C120.303 138.102 120.082 138.193 119.852 138.193H104.222C103.076 138.193 103.354 137.29 103.354 132.115C103.354 131.885 103.446 131.664 103.608 131.501C103.771 131.338 103.992 131.247 104.222 131.247H119.852C120.998 131.247 120.72 132.15 120.72 137.325Z" stroke="#4FF4FF" stroke-opacity="0.2" stroke-width="3" mask="url(#path-4-inside-3_4743_34742)"/>
<path d="M82.5149 96.5146C80.1073 96.5314 77.7589 97.2628 75.7675 98.6159C73.7761 99.9691 72.2314 101.883 71.3292 104.115C70.427 106.348 70.208 108.798 70.6999 111.154C71.1918 113.511 72.3726 115.669 74.0924 117.354C73.0477 117.498 72.0916 118.019 71.4039 118.818C70.7163 119.618 70.3446 120.641 70.3587 121.695C70.3587 127.582 70.1677 128.086 71.2444 129.51C70.1329 130.986 70.3587 131.698 70.3587 137.325C70.3587 137.895 70.471 138.46 70.6892 138.986C70.9073 139.513 71.2271 139.992 71.6303 140.395C72.0334 140.798 72.512 141.118 73.0388 141.336C73.5655 141.554 74.1301 141.666 74.7002 141.666H90.3296C90.8998 141.666 91.4643 141.554 91.9911 141.336C92.5178 141.118 92.9964 140.798 93.3995 140.395C93.8027 139.992 94.1225 139.513 94.3407 138.986C94.5588 138.46 94.6711 137.895 94.6711 137.325C94.6711 131.438 94.8622 130.934 93.7855 129.51C94.8969 128.034 94.6711 127.322 94.6711 121.695C94.6852 120.641 94.3135 119.618 93.6259 118.818C92.9383 118.019 91.9822 117.498 90.9374 117.354C92.6573 115.669 93.838 113.511 94.3299 111.154C94.8219 108.798 94.6029 106.348 93.7007 104.115C92.7985 101.883 91.2537 99.9691 89.2623 98.6159C87.2709 97.2628 84.9225 96.5314 82.5149 96.5146ZM73.8319 108.671C73.8319 106.954 74.3411 105.275 75.2952 103.847C76.2493 102.419 77.6055 101.306 79.1921 100.649C80.7787 99.9916 82.5245 99.8196 84.2089 100.155C85.8932 100.49 87.4404 101.317 88.6547 102.531C89.8691 103.745 90.6961 105.293 91.0311 106.977C91.3661 108.661 91.1942 110.407 90.537 111.994C89.8798 113.58 88.7669 114.936 87.3389 115.891C85.911 116.845 84.2323 117.354 82.5149 117.354C80.212 117.354 78.0035 116.439 76.3751 114.811C74.7467 113.182 73.8319 110.974 73.8319 108.671ZM91.1979 137.325C91.1979 137.555 91.1065 137.776 90.9436 137.939C90.7808 138.102 90.5599 138.193 90.3296 138.193H74.7002C73.554 138.193 73.8319 137.29 73.8319 132.115C73.8319 131.885 73.9234 131.664 74.0862 131.501C74.2491 131.338 74.4699 131.247 74.7002 131.247H90.3296C91.4758 131.247 91.1979 132.15 91.1979 137.325ZM90.3296 120.827C91.4758 120.827 91.1979 121.73 91.1979 126.905C91.1979 127.135 91.1065 127.356 90.9436 127.519C90.7808 127.682 90.5599 127.774 90.3296 127.774H74.7002C73.554 127.774 73.8319 126.87 73.8319 121.695C73.8319 121.465 73.9234 121.244 74.0862 121.081C74.2491 120.919 74.4699 120.827 74.7002 120.827H90.3296Z" stroke="#4FF4FF" stroke-opacity="0.2" stroke-width="3" mask="url(#path-4-inside-3_4743_34742)"/>
<path d="M82.5149 91.3048C83.4179 91.3048 81.9071 92.3468 103.441 74.3903L114.503 82.2918C114.805 82.5214 115.174 82.6457 115.554 82.6457C115.933 82.6457 116.302 82.5214 116.604 82.2918L138.625 64.6306L137.756 68.1038C137.643 68.5505 137.713 69.0238 137.949 69.4195C138.185 69.8152 138.569 70.1009 139.015 70.2138C139.462 70.3266 139.935 70.2573 140.331 70.0212C140.727 69.7851 141.012 69.4015 141.125 68.9547L143.296 60.4627C143.344 60.2016 143.34 59.9335 143.283 59.6741C143.227 59.4146 143.119 59.1691 142.966 58.9519C142.185 58.0488 142.167 58.3093 132.876 58.6393C132.648 58.6473 132.424 58.7001 132.216 58.7947C132.009 58.8894 131.822 59.024 131.666 59.1909C131.352 59.528 131.184 59.9761 131.201 60.4367C131.217 60.8973 131.415 61.3326 131.752 61.6468C132.089 61.9611 132.537 62.1286 132.998 62.1125L136.471 61.9909L115.51 78.7144L104.361 70.7955C104.058 70.5618 103.685 70.435 103.302 70.435C102.919 70.435 102.546 70.5618 102.243 70.7955L81.4035 88.1616C81.0986 88.3811 80.8732 88.6935 80.7609 89.052C80.6486 89.4104 80.6557 89.7957 80.7809 90.1498C80.9061 90.504 81.1428 90.808 81.4555 91.0163C81.7681 91.2245 82.1398 91.3258 82.5149 91.3048Z" stroke="#4FF4FF" stroke-opacity="0.2" stroke-width="3" mask="url(#path-4-inside-3_4743_34742)"/>
</g>
<g filter="url(#filter4_f_4743_34742)">
<mask id="path-5-inside-4_4743_34742" fill="white">
<path d="M153.716 90.4365C153.716 89.8664 153.603 89.3018 153.385 88.7751C153.167 88.2484 152.847 87.7697 152.444 87.3666C152.041 86.9635 151.562 86.6437 151.036 86.4255C150.509 86.2073 149.944 86.095 149.374 86.095H133.745C132.593 86.095 131.489 86.5524 130.675 87.3666C129.861 88.1808 129.403 89.2851 129.403 90.4365C129.403 96.3236 129.212 96.8272 130.289 98.2512C129.72 99.0011 129.409 99.915 129.403 100.856C129.403 106.743 129.212 107.247 130.289 108.671C129.177 110.147 129.403 110.859 129.403 116.486C129.409 117.427 129.72 118.341 130.289 119.09C129.72 119.84 129.409 120.754 129.403 121.695C129.403 127.582 129.212 128.086 130.289 129.51C129.177 130.986 129.403 131.698 129.403 137.325C129.403 137.895 129.516 138.46 129.734 138.986C129.952 139.513 130.272 139.992 130.675 140.395C131.078 140.798 131.557 141.118 132.083 141.336C132.61 141.554 133.175 141.666 133.745 141.666H149.374C149.944 141.666 150.509 141.554 151.036 141.336C151.562 141.118 152.041 140.798 152.444 140.395C152.847 139.992 153.167 139.513 153.385 138.986C153.603 138.46 153.716 137.895 153.716 137.325C153.716 131.438 153.907 130.934 152.83 129.51C153.399 128.76 153.709 127.846 153.716 126.905C153.716 121.018 153.907 120.515 152.83 119.09C153.941 117.614 153.716 116.902 153.716 111.276C153.709 110.335 153.399 109.421 152.83 108.671C153.399 107.921 153.709 107.007 153.716 106.066C153.716 100.179 153.907 99.6753 152.83 98.2512C153.941 96.7751 153.716 96.0631 153.716 90.4365ZM132.876 90.4365C132.876 90.2062 132.968 89.9854 133.131 89.8225C133.294 89.6597 133.514 89.5682 133.745 89.5682H149.374C150.52 89.5682 150.242 90.4712 150.242 95.6463C150.242 95.8766 150.151 96.0975 149.988 96.2603C149.825 96.4231 149.604 96.5146 149.374 96.5146H133.745C132.599 96.5146 132.876 95.6116 132.876 90.4365ZM150.242 100.856C150.242 106.066 150.52 106.934 149.374 106.934H133.745C133.514 106.934 133.294 106.843 133.131 106.68C132.968 106.517 132.876 106.296 132.876 106.066C132.876 100.856 132.599 99.9878 133.745 99.9878H149.374C149.604 99.9878 149.825 100.079 149.988 100.242C150.151 100.405 150.242 100.626 150.242 100.856ZM150.242 111.276C150.242 116.486 150.52 117.354 149.374 117.354H133.745C133.514 117.354 133.294 117.262 133.131 117.1C132.968 116.937 132.876 116.716 132.876 116.486C132.876 111.276 132.599 110.407 133.745 110.407H149.374C149.604 110.407 149.825 110.499 149.988 110.662C150.151 110.825 150.242 111.045 150.242 111.276ZM150.242 121.695C150.242 126.905 150.52 127.774 149.374 127.774H133.745C133.514 127.774 133.294 127.682 133.131 127.519C132.968 127.356 132.876 127.135 132.876 126.905C132.876 121.695 132.599 120.827 133.745 120.827H149.374C149.604 120.827 149.825 120.919 149.988 121.081C150.151 121.244 150.242 121.465 150.242 121.695ZM150.242 137.325C150.242 137.555 150.151 137.776 149.988 137.939C149.825 138.102 149.604 138.193 149.374 138.193H133.745C132.599 138.193 132.876 137.29 132.876 132.115C132.876 131.885 132.968 131.664 133.131 131.501C133.294 131.338 133.514 131.247 133.745 131.247H149.374C150.52 131.247 150.242 132.15 150.242 137.325Z"/>
<path d="M119.852 96.5146H104.222C103.071 96.5146 101.967 96.972 101.153 97.7862C100.338 98.6004 99.881 99.7047 99.881 100.856C99.881 106.743 99.6899 107.247 100.767 108.671C99.6552 110.147 99.881 110.859 99.881 116.486C99.8872 117.427 100.198 118.341 100.767 119.09C100.198 119.84 99.8872 120.754 99.881 121.695C99.881 127.582 99.6899 128.086 100.767 129.51C99.6552 130.986 99.881 131.698 99.881 137.325C99.881 137.895 99.9933 138.46 100.211 138.986C100.43 139.513 100.749 139.992 101.153 140.395C101.556 140.798 102.034 141.118 102.561 141.336C103.088 141.554 103.652 141.666 104.222 141.666H119.852C120.422 141.666 120.987 141.554 121.513 141.336C122.04 141.118 122.519 140.798 122.922 140.395C123.325 139.992 123.645 139.513 123.863 138.986C124.081 138.46 124.193 137.895 124.193 137.325C124.193 131.438 124.384 130.934 123.308 129.51C123.876 128.76 124.187 127.846 124.193 126.905C124.193 121.018 124.384 120.515 123.308 119.09C124.419 117.614 124.193 116.902 124.193 111.276C124.187 110.335 123.876 109.421 123.308 108.671C124.419 107.195 124.193 106.483 124.193 100.856C124.193 99.7047 123.736 98.6004 122.922 97.7862C122.108 96.972 121.003 96.5146 119.852 96.5146ZM103.354 100.856C103.354 100.626 103.446 100.405 103.608 100.242C103.771 100.079 103.992 99.9878 104.222 99.9878H119.852C120.998 99.9878 120.72 100.891 120.72 106.066C120.72 106.296 120.629 106.517 120.466 106.68C120.303 106.843 120.082 106.934 119.852 106.934H104.222C103.076 106.934 103.354 106.031 103.354 100.856ZM120.72 111.276C120.72 116.486 120.998 117.354 119.852 117.354H104.222C103.992 117.354 103.771 117.262 103.608 117.1C103.446 116.937 103.354 116.716 103.354 116.486C103.354 111.276 103.076 110.407 104.222 110.407H119.852C120.082 110.407 120.303 110.499 120.466 110.662C120.629 110.825 120.72 111.045 120.72 111.276ZM120.72 121.695C120.72 126.905 120.998 127.774 119.852 127.774H104.222C103.992 127.774 103.771 127.682 103.608 127.519C103.446 127.356 103.354 127.135 103.354 126.905C103.354 121.695 103.076 120.827 104.222 120.827H119.852C120.082 120.827 120.303 120.919 120.466 121.081C120.629 121.244 120.72 121.465 120.72 121.695ZM120.72 137.325C120.72 137.555 120.629 137.776 120.466 137.939C120.303 138.102 120.082 138.193 119.852 138.193H104.222C103.076 138.193 103.354 137.29 103.354 132.115C103.354 131.885 103.446 131.664 103.608 131.501C103.771 131.338 103.992 131.247 104.222 131.247H119.852C120.998 131.247 120.72 132.15 120.72 137.325Z"/>
<path d="M82.5149 96.5146C80.1073 96.5314 77.7589 97.2628 75.7675 98.6159C73.7761 99.9691 72.2314 101.883 71.3292 104.115C70.427 106.348 70.208 108.798 70.6999 111.154C71.1918 113.511 72.3726 115.669 74.0924 117.354C73.0477 117.498 72.0916 118.019 71.4039 118.818C70.7163 119.618 70.3446 120.641 70.3587 121.695C70.3587 127.582 70.1677 128.086 71.2444 129.51C70.1329 130.986 70.3587 131.698 70.3587 137.325C70.3587 137.895 70.471 138.46 70.6892 138.986C70.9073 139.513 71.2271 139.992 71.6303 140.395C72.0334 140.798 72.512 141.118 73.0388 141.336C73.5655 141.554 74.1301 141.666 74.7002 141.666H90.3296C90.8998 141.666 91.4643 141.554 91.9911 141.336C92.5178 141.118 92.9964 140.798 93.3995 140.395C93.8027 139.992 94.1225 139.513 94.3407 138.986C94.5588 138.46 94.6711 137.895 94.6711 137.325C94.6711 131.438 94.8622 130.934 93.7855 129.51C94.8969 128.034 94.6711 127.322 94.6711 121.695C94.6852 120.641 94.3135 119.618 93.6259 118.818C92.9383 118.019 91.9822 117.498 90.9374 117.354C92.6573 115.669 93.838 113.511 94.3299 111.154C94.8219 108.798 94.6029 106.348 93.7007 104.115C92.7985 101.883 91.2537 99.9691 89.2623 98.6159C87.2709 97.2628 84.9225 96.5314 82.5149 96.5146ZM73.8319 108.671C73.8319 106.954 74.3411 105.275 75.2952 103.847C76.2493 102.419 77.6055 101.306 79.1921 100.649C80.7787 99.9916 82.5245 99.8196 84.2089 100.155C85.8932 100.49 87.4404 101.317 88.6547 102.531C89.8691 103.745 90.6961 105.293 91.0311 106.977C91.3661 108.661 91.1942 110.407 90.537 111.994C89.8798 113.58 88.7669 114.936 87.3389 115.891C85.911 116.845 84.2323 117.354 82.5149 117.354C80.212 117.354 78.0035 116.439 76.3751 114.811C74.7467 113.182 73.8319 110.974 73.8319 108.671ZM91.1979 137.325C91.1979 137.555 91.1065 137.776 90.9436 137.939C90.7808 138.102 90.5599 138.193 90.3296 138.193H74.7002C73.554 138.193 73.8319 137.29 73.8319 132.115C73.8319 131.885 73.9234 131.664 74.0862 131.501C74.2491 131.338 74.4699 131.247 74.7002 131.247H90.3296C91.4758 131.247 91.1979 132.15 91.1979 137.325ZM90.3296 120.827C91.4758 120.827 91.1979 121.73 91.1979 126.905C91.1979 127.135 91.1065 127.356 90.9436 127.519C90.7808 127.682 90.5599 127.774 90.3296 127.774H74.7002C73.554 127.774 73.8319 126.87 73.8319 121.695C73.8319 121.465 73.9234 121.244 74.0862 121.081C74.2491 120.919 74.4699 120.827 74.7002 120.827H90.3296Z"/>
<path d="M82.5149 91.3048C83.4179 91.3048 81.9071 92.3468 103.441 74.3903L114.503 82.2918C114.805 82.5214 115.174 82.6457 115.554 82.6457C115.933 82.6457 116.302 82.5214 116.604 82.2918L138.625 64.6306L137.756 68.1038C137.643 68.5505 137.713 69.0238 137.949 69.4195C138.185 69.8152 138.569 70.1009 139.015 70.2138C139.462 70.3266 139.935 70.2573 140.331 70.0212C140.727 69.7851 141.012 69.4015 141.125 68.9547L143.296 60.4627C143.344 60.2016 143.34 59.9335 143.283 59.6741C143.227 59.4146 143.119 59.1691 142.966 58.9519C142.185 58.0488 142.167 58.3093 132.876 58.6393C132.648 58.6473 132.424 58.7001 132.216 58.7947C132.009 58.8894 131.822 59.024 131.666 59.1909C131.352 59.528 131.184 59.9761 131.201 60.4367C131.217 60.8973 131.415 61.3326 131.752 61.6468C132.089 61.9611 132.537 62.1286 132.998 62.1125L136.471 61.9909L115.51 78.7144L104.361 70.7955C104.058 70.5618 103.685 70.435 103.302 70.435C102.919 70.435 102.546 70.5618 102.243 70.7955L81.4035 88.1616C81.0986 88.3811 80.8732 88.6935 80.7609 89.052C80.6486 89.4104 80.6557 89.7957 80.7809 90.1498C80.9061 90.504 81.1428 90.808 81.4555 91.0163C81.7681 91.2245 82.1398 91.3258 82.5149 91.3048Z"/>
</mask>
<path d="M153.716 90.4365C153.716 89.8664 153.603 89.3018 153.385 88.7751C153.167 88.2484 152.847 87.7697 152.444 87.3666C152.041 86.9635 151.562 86.6437 151.036 86.4255C150.509 86.2073 149.944 86.095 149.374 86.095H133.745C132.593 86.095 131.489 86.5524 130.675 87.3666C129.861 88.1808 129.403 89.2851 129.403 90.4365C129.403 96.3236 129.212 96.8272 130.289 98.2512C129.72 99.0011 129.409 99.915 129.403 100.856C129.403 106.743 129.212 107.247 130.289 108.671C129.177 110.147 129.403 110.859 129.403 116.486C129.409 117.427 129.72 118.341 130.289 119.09C129.72 119.84 129.409 120.754 129.403 121.695C129.403 127.582 129.212 128.086 130.289 129.51C129.177 130.986 129.403 131.698 129.403 137.325C129.403 137.895 129.516 138.46 129.734 138.986C129.952 139.513 130.272 139.992 130.675 140.395C131.078 140.798 131.557 141.118 132.083 141.336C132.61 141.554 133.175 141.666 133.745 141.666H149.374C149.944 141.666 150.509 141.554 151.036 141.336C151.562 141.118 152.041 140.798 152.444 140.395C152.847 139.992 153.167 139.513 153.385 138.986C153.603 138.46 153.716 137.895 153.716 137.325C153.716 131.438 153.907 130.934 152.83 129.51C153.399 128.76 153.709 127.846 153.716 126.905C153.716 121.018 153.907 120.515 152.83 119.09C153.941 117.614 153.716 116.902 153.716 111.276C153.709 110.335 153.399 109.421 152.83 108.671C153.399 107.921 153.709 107.007 153.716 106.066C153.716 100.179 153.907 99.6753 152.83 98.2512C153.941 96.7751 153.716 96.0631 153.716 90.4365ZM132.876 90.4365C132.876 90.2062 132.968 89.9854 133.131 89.8225C133.294 89.6597 133.514 89.5682 133.745 89.5682H149.374C150.52 89.5682 150.242 90.4712 150.242 95.6463C150.242 95.8766 150.151 96.0975 149.988 96.2603C149.825 96.4231 149.604 96.5146 149.374 96.5146H133.745C132.599 96.5146 132.876 95.6116 132.876 90.4365ZM150.242 100.856C150.242 106.066 150.52 106.934 149.374 106.934H133.745C133.514 106.934 133.294 106.843 133.131 106.68C132.968 106.517 132.876 106.296 132.876 106.066C132.876 100.856 132.599 99.9878 133.745 99.9878H149.374C149.604 99.9878 149.825 100.079 149.988 100.242C150.151 100.405 150.242 100.626 150.242 100.856ZM150.242 111.276C150.242 116.486 150.52 117.354 149.374 117.354H133.745C133.514 117.354 133.294 117.262 133.131 117.1C132.968 116.937 132.876 116.716 132.876 116.486C132.876 111.276 132.599 110.407 133.745 110.407H149.374C149.604 110.407 149.825 110.499 149.988 110.662C150.151 110.825 150.242 111.045 150.242 111.276ZM150.242 121.695C150.242 126.905 150.52 127.774 149.374 127.774H133.745C133.514 127.774 133.294 127.682 133.131 127.519C132.968 127.356 132.876 127.135 132.876 126.905C132.876 121.695 132.599 120.827 133.745 120.827H149.374C149.604 120.827 149.825 120.919 149.988 121.081C150.151 121.244 150.242 121.465 150.242 121.695ZM150.242 137.325C150.242 137.555 150.151 137.776 149.988 137.939C149.825 138.102 149.604 138.193 149.374 138.193H133.745C132.599 138.193 132.876 137.29 132.876 132.115C132.876 131.885 132.968 131.664 133.131 131.501C133.294 131.338 133.514 131.247 133.745 131.247H149.374C150.52 131.247 150.242 132.15 150.242 137.325Z" stroke="#4FF4FF" stroke-width="2.4" mask="url(#path-5-inside-4_4743_34742)"/>
<path d="M119.852 96.5146H104.222C103.071 96.5146 101.967 96.972 101.153 97.7862C100.338 98.6004 99.881 99.7047 99.881 100.856C99.881 106.743 99.6899 107.247 100.767 108.671C99.6552 110.147 99.881 110.859 99.881 116.486C99.8872 117.427 100.198 118.341 100.767 119.09C100.198 119.84 99.8872 120.754 99.881 121.695C99.881 127.582 99.6899 128.086 100.767 129.51C99.6552 130.986 99.881 131.698 99.881 137.325C99.881 137.895 99.9933 138.46 100.211 138.986C100.43 139.513 100.749 139.992 101.153 140.395C101.556 140.798 102.034 141.118 102.561 141.336C103.088 141.554 103.652 141.666 104.222 141.666H119.852C120.422 141.666 120.987 141.554 121.513 141.336C122.04 141.118 122.519 140.798 122.922 140.395C123.325 139.992 123.645 139.513 123.863 138.986C124.081 138.46 124.193 137.895 124.193 137.325C124.193 131.438 124.384 130.934 123.308 129.51C123.876 128.76 124.187 127.846 124.193 126.905C124.193 121.018 124.384 120.515 123.308 119.09C124.419 117.614 124.193 116.902 124.193 111.276C124.187 110.335 123.876 109.421 123.308 108.671C124.419 107.195 124.193 106.483 124.193 100.856C124.193 99.7047 123.736 98.6004 122.922 97.7862C122.108 96.972 121.003 96.5146 119.852 96.5146ZM103.354 100.856C103.354 100.626 103.446 100.405 103.608 100.242C103.771 100.079 103.992 99.9878 104.222 99.9878H119.852C120.998 99.9878 120.72 100.891 120.72 106.066C120.72 106.296 120.629 106.517 120.466 106.68C120.303 106.843 120.082 106.934 119.852 106.934H104.222C103.076 106.934 103.354 106.031 103.354 100.856ZM120.72 111.276C120.72 116.486 120.998 117.354 119.852 117.354H104.222C103.992 117.354 103.771 117.262 103.608 117.1C103.446 116.937 103.354 116.716 103.354 116.486C103.354 111.276 103.076 110.407 104.222 110.407H119.852C120.082 110.407 120.303 110.499 120.466 110.662C120.629 110.825 120.72 111.045 120.72 111.276ZM120.72 121.695C120.72 126.905 120.998 127.774 119.852 127.774H104.222C103.992 127.774 103.771 127.682 103.608 127.519C103.446 127.356 103.354 127.135 103.354 126.905C103.354 121.695 103.076 120.827 104.222 120.827H119.852C120.082 120.827 120.303 120.919 120.466 121.081C120.629 121.244 120.72 121.465 120.72 121.695ZM120.72 137.325C120.72 137.555 120.629 137.776 120.466 137.939C120.303 138.102 120.082 138.193 119.852 138.193H104.222C103.076 138.193 103.354 137.29 103.354 132.115C103.354 131.885 103.446 131.664 103.608 131.501C103.771 131.338 103.992 131.247 104.222 131.247H119.852C120.998 131.247 120.72 132.15 120.72 137.325Z" stroke="#4FF4FF" stroke-width="2.4" mask="url(#path-5-inside-4_4743_34742)"/>
<path d="M82.5149 96.5146C80.1073 96.5314 77.7589 97.2628 75.7675 98.6159C73.7761 99.9691 72.2314 101.883 71.3292 104.115C70.427 106.348 70.208 108.798 70.6999 111.154C71.1918 113.511 72.3726 115.669 74.0924 117.354C73.0477 117.498 72.0916 118.019 71.4039 118.818C70.7163 119.618 70.3446 120.641 70.3587 121.695C70.3587 127.582 70.1677 128.086 71.2444 129.51C70.1329 130.986 70.3587 131.698 70.3587 137.325C70.3587 137.895 70.471 138.46 70.6892 138.986C70.9073 139.513 71.2271 139.992 71.6303 140.395C72.0334 140.798 72.512 141.118 73.0388 141.336C73.5655 141.554 74.1301 141.666 74.7002 141.666H90.3296C90.8998 141.666 91.4643 141.554 91.9911 141.336C92.5178 141.118 92.9964 140.798 93.3995 140.395C93.8027 139.992 94.1225 139.513 94.3407 138.986C94.5588 138.46 94.6711 137.895 94.6711 137.325C94.6711 131.438 94.8622 130.934 93.7855 129.51C94.8969 128.034 94.6711 127.322 94.6711 121.695C94.6852 120.641 94.3135 119.618 93.6259 118.818C92.9383 118.019 91.9822 117.498 90.9374 117.354C92.6573 115.669 93.838 113.511 94.3299 111.154C94.8219 108.798 94.6029 106.348 93.7007 104.115C92.7985 101.883 91.2537 99.9691 89.2623 98.6159C87.2709 97.2628 84.9225 96.5314 82.5149 96.5146ZM73.8319 108.671C73.8319 106.954 74.3411 105.275 75.2952 103.847C76.2493 102.419 77.6055 101.306 79.1921 100.649C80.7787 99.9916 82.5245 99.8196 84.2089 100.155C85.8932 100.49 87.4404 101.317 88.6547 102.531C89.8691 103.745 90.6961 105.293 91.0311 106.977C91.3661 108.661 91.1942 110.407 90.537 111.994C89.8798 113.58 88.7669 114.936 87.3389 115.891C85.911 116.845 84.2323 117.354 82.5149 117.354C80.212 117.354 78.0035 116.439 76.3751 114.811C74.7467 113.182 73.8319 110.974 73.8319 108.671ZM91.1979 137.325C91.1979 137.555 91.1065 137.776 90.9436 137.939C90.7808 138.102 90.5599 138.193 90.3296 138.193H74.7002C73.554 138.193 73.8319 137.29 73.8319 132.115C73.8319 131.885 73.9234 131.664 74.0862 131.501C74.2491 131.338 74.4699 131.247 74.7002 131.247H90.3296C91.4758 131.247 91.1979 132.15 91.1979 137.325ZM90.3296 120.827C91.4758 120.827 91.1979 121.73 91.1979 126.905C91.1979 127.135 91.1065 127.356 90.9436 127.519C90.7808 127.682 90.5599 127.774 90.3296 127.774H74.7002C73.554 127.774 73.8319 126.87 73.8319 121.695C73.8319 121.465 73.9234 121.244 74.0862 121.081C74.2491 120.919 74.4699 120.827 74.7002 120.827H90.3296Z" stroke="#4FF4FF" stroke-width="2.4" mask="url(#path-5-inside-4_4743_34742)"/>
<path d="M82.5149 91.3048C83.4179 91.3048 81.9071 92.3468 103.441 74.3903L114.503 82.2918C114.805 82.5214 115.174 82.6457 115.554 82.6457C115.933 82.6457 116.302 82.5214 116.604 82.2918L138.625 64.6306L137.756 68.1038C137.643 68.5505 137.713 69.0238 137.949 69.4195C138.185 69.8152 138.569 70.1009 139.015 70.2138C139.462 70.3266 139.935 70.2573 140.331 70.0212C140.727 69.7851 141.012 69.4015 141.125 68.9547L143.296 60.4627C143.344 60.2016 143.34 59.9335 143.283 59.6741C143.227 59.4146 143.119 59.1691 142.966 58.9519C142.185 58.0488 142.167 58.3093 132.876 58.6393C132.648 58.6473 132.424 58.7001 132.216 58.7947C132.009 58.8894 131.822 59.024 131.666 59.1909C131.352 59.528 131.184 59.9761 131.201 60.4367C131.217 60.8973 131.415 61.3326 131.752 61.6468C132.089 61.9611 132.537 62.1286 132.998 62.1125L136.471 61.9909L115.51 78.7144L104.361 70.7955C104.058 70.5618 103.685 70.435 103.302 70.435C102.919 70.435 102.546 70.5618 102.243 70.7955L81.4035 88.1616C81.0986 88.3811 80.8732 88.6935 80.7609 89.052C80.6486 89.4104 80.6557 89.7957 80.7809 90.1498C80.9061 90.504 81.1428 90.808 81.4555 91.0163C81.7681 91.2245 82.1398 91.3258 82.5149 91.3048Z" stroke="#4FF4FF" stroke-width="2.4" mask="url(#path-5-inside-4_4743_34742)"/>
</g>
<g filter="url(#filter5_f_4743_34742)">
<mask id="path-6-inside-5_4743_34742" fill="white">
<path d="M153.716 90.4365C153.716 89.8664 153.603 89.3018 153.385 88.7751C153.167 88.2484 152.847 87.7697 152.444 87.3666C152.041 86.9635 151.562 86.6437 151.036 86.4255C150.509 86.2073 149.944 86.095 149.374 86.095H133.745C132.593 86.095 131.489 86.5524 130.675 87.3666C129.861 88.1808 129.403 89.2851 129.403 90.4365C129.403 96.3236 129.212 96.8272 130.289 98.2512C129.72 99.0011 129.409 99.915 129.403 100.856C129.403 106.743 129.212 107.247 130.289 108.671C129.177 110.147 129.403 110.859 129.403 116.486C129.409 117.427 129.72 118.341 130.289 119.09C129.72 119.84 129.409 120.754 129.403 121.695C129.403 127.582 129.212 128.086 130.289 129.51C129.177 130.986 129.403 131.698 129.403 137.325C129.403 137.895 129.516 138.46 129.734 138.986C129.952 139.513 130.272 139.992 130.675 140.395C131.078 140.798 131.557 141.118 132.083 141.336C132.61 141.554 133.175 141.666 133.745 141.666H149.374C149.944 141.666 150.509 141.554 151.036 141.336C151.562 141.118 152.041 140.798 152.444 140.395C152.847 139.992 153.167 139.513 153.385 138.986C153.603 138.46 153.716 137.895 153.716 137.325C153.716 131.438 153.907 130.934 152.83 129.51C153.399 128.76 153.709 127.846 153.716 126.905C153.716 121.018 153.907 120.515 152.83 119.09C153.941 117.614 153.716 116.902 153.716 111.276C153.709 110.335 153.399 109.421 152.83 108.671C153.399 107.921 153.709 107.007 153.716 106.066C153.716 100.179 153.907 99.6753 152.83 98.2512C153.941 96.7751 153.716 96.0631 153.716 90.4365ZM132.876 90.4365C132.876 90.2062 132.968 89.9854 133.131 89.8225C133.294 89.6597 133.514 89.5682 133.745 89.5682H149.374C150.52 89.5682 150.242 90.4712 150.242 95.6463C150.242 95.8766 150.151 96.0975 149.988 96.2603C149.825 96.4231 149.604 96.5146 149.374 96.5146H133.745C132.599 96.5146 132.876 95.6116 132.876 90.4365ZM150.242 100.856C150.242 106.066 150.52 106.934 149.374 106.934H133.745C133.514 106.934 133.294 106.843 133.131 106.68C132.968 106.517 132.876 106.296 132.876 106.066C132.876 100.856 132.599 99.9878 133.745 99.9878H149.374C149.604 99.9878 149.825 100.079 149.988 100.242C150.151 100.405 150.242 100.626 150.242 100.856ZM150.242 111.276C150.242 116.486 150.52 117.354 149.374 117.354H133.745C133.514 117.354 133.294 117.262 133.131 117.1C132.968 116.937 132.876 116.716 132.876 116.486C132.876 111.276 132.599 110.407 133.745 110.407H149.374C149.604 110.407 149.825 110.499 149.988 110.662C150.151 110.825 150.242 111.045 150.242 111.276ZM150.242 121.695C150.242 126.905 150.52 127.774 149.374 127.774H133.745C133.514 127.774 133.294 127.682 133.131 127.519C132.968 127.356 132.876 127.135 132.876 126.905C132.876 121.695 132.599 120.827 133.745 120.827H149.374C149.604 120.827 149.825 120.919 149.988 121.081C150.151 121.244 150.242 121.465 150.242 121.695ZM150.242 137.325C150.242 137.555 150.151 137.776 149.988 137.939C149.825 138.102 149.604 138.193 149.374 138.193H133.745C132.599 138.193 132.876 137.29 132.876 132.115C132.876 131.885 132.968 131.664 133.131 131.501C133.294 131.338 133.514 131.247 133.745 131.247H149.374C150.52 131.247 150.242 132.15 150.242 137.325Z"/>
<path d="M119.852 96.5146H104.222C103.071 96.5146 101.967 96.972 101.153 97.7862C100.338 98.6004 99.881 99.7047 99.881 100.856C99.881 106.743 99.6899 107.247 100.767 108.671C99.6552 110.147 99.881 110.859 99.881 116.486C99.8872 117.427 100.198 118.341 100.767 119.09C100.198 119.84 99.8872 120.754 99.881 121.695C99.881 127.582 99.6899 128.086 100.767 129.51C99.6552 130.986 99.881 131.698 99.881 137.325C99.881 137.895 99.9933 138.46 100.211 138.986C100.43 139.513 100.749 139.992 101.153 140.395C101.556 140.798 102.034 141.118 102.561 141.336C103.088 141.554 103.652 141.666 104.222 141.666H119.852C120.422 141.666 120.987 141.554 121.513 141.336C122.04 141.118 122.519 140.798 122.922 140.395C123.325 139.992 123.645 139.513 123.863 138.986C124.081 138.46 124.193 137.895 124.193 137.325C124.193 131.438 124.384 130.934 123.308 129.51C123.876 128.76 124.187 127.846 124.193 126.905C124.193 121.018 124.384 120.515 123.308 119.09C124.419 117.614 124.193 116.902 124.193 111.276C124.187 110.335 123.876 109.421 123.308 108.671C124.419 107.195 124.193 106.483 124.193 100.856C124.193 99.7047 123.736 98.6004 122.922 97.7862C122.108 96.972 121.003 96.5146 119.852 96.5146ZM103.354 100.856C103.354 100.626 103.446 100.405 103.608 100.242C103.771 100.079 103.992 99.9878 104.222 99.9878H119.852C120.998 99.9878 120.72 100.891 120.72 106.066C120.72 106.296 120.629 106.517 120.466 106.68C120.303 106.843 120.082 106.934 119.852 106.934H104.222C103.076 106.934 103.354 106.031 103.354 100.856ZM120.72 111.276C120.72 116.486 120.998 117.354 119.852 117.354H104.222C103.992 117.354 103.771 117.262 103.608 117.1C103.446 116.937 103.354 116.716 103.354 116.486C103.354 111.276 103.076 110.407 104.222 110.407H119.852C120.082 110.407 120.303 110.499 120.466 110.662C120.629 110.825 120.72 111.045 120.72 111.276ZM120.72 121.695C120.72 126.905 120.998 127.774 119.852 127.774H104.222C103.992 127.774 103.771 127.682 103.608 127.519C103.446 127.356 103.354 127.135 103.354 126.905C103.354 121.695 103.076 120.827 104.222 120.827H119.852C120.082 120.827 120.303 120.919 120.466 121.081C120.629 121.244 120.72 121.465 120.72 121.695ZM120.72 137.325C120.72 137.555 120.629 137.776 120.466 137.939C120.303 138.102 120.082 138.193 119.852 138.193H104.222C103.076 138.193 103.354 137.29 103.354 132.115C103.354 131.885 103.446 131.664 103.608 131.501C103.771 131.338 103.992 131.247 104.222 131.247H119.852C120.998 131.247 120.72 132.15 120.72 137.325Z"/>
<path d="M82.5149 96.5146C80.1073 96.5314 77.7589 97.2628 75.7675 98.6159C73.7761 99.9691 72.2314 101.883 71.3292 104.115C70.427 106.348 70.208 108.798 70.6999 111.154C71.1918 113.511 72.3726 115.669 74.0924 117.354C73.0477 117.498 72.0916 118.019 71.4039 118.818C70.7163 119.618 70.3446 120.641 70.3587 121.695C70.3587 127.582 70.1677 128.086 71.2444 129.51C70.1329 130.986 70.3587 131.698 70.3587 137.325C70.3587 137.895 70.471 138.46 70.6892 138.986C70.9073 139.513 71.2271 139.992 71.6303 140.395C72.0334 140.798 72.512 141.118 73.0388 141.336C73.5655 141.554 74.1301 141.666 74.7002 141.666H90.3296C90.8998 141.666 91.4643 141.554 91.9911 141.336C92.5178 141.118 92.9964 140.798 93.3995 140.395C93.8027 139.992 94.1225 139.513 94.3407 138.986C94.5588 138.46 94.6711 137.895 94.6711 137.325C94.6711 131.438 94.8622 130.934 93.7855 129.51C94.8969 128.034 94.6711 127.322 94.6711 121.695C94.6852 120.641 94.3135 119.618 93.6259 118.818C92.9383 118.019 91.9822 117.498 90.9374 117.354C92.6573 115.669 93.838 113.511 94.3299 111.154C94.8219 108.798 94.6029 106.348 93.7007 104.115C92.7985 101.883 91.2537 99.9691 89.2623 98.6159C87.2709 97.2628 84.9225 96.5314 82.5149 96.5146ZM73.8319 108.671C73.8319 106.954 74.3411 105.275 75.2952 103.847C76.2493 102.419 77.6055 101.306 79.1921 100.649C80.7787 99.9916 82.5245 99.8196 84.2089 100.155C85.8932 100.49 87.4404 101.317 88.6547 102.531C89.8691 103.745 90.6961 105.293 91.0311 106.977C91.3661 108.661 91.1942 110.407 90.537 111.994C89.8798 113.58 88.7669 114.936 87.3389 115.891C85.911 116.845 84.2323 117.354 82.5149 117.354C80.212 117.354 78.0035 116.439 76.3751 114.811C74.7467 113.182 73.8319 110.974 73.8319 108.671ZM91.1979 137.325C91.1979 137.555 91.1065 137.776 90.9436 137.939C90.7808 138.102 90.5599 138.193 90.3296 138.193H74.7002C73.554 138.193 73.8319 137.29 73.8319 132.115C73.8319 131.885 73.9234 131.664 74.0862 131.501C74.2491 131.338 74.4699 131.247 74.7002 131.247H90.3296C91.4758 131.247 91.1979 132.15 91.1979 137.325ZM90.3296 120.827C91.4758 120.827 91.1979 121.73 91.1979 126.905C91.1979 127.135 91.1065 127.356 90.9436 127.519C90.7808 127.682 90.5599 127.774 90.3296 127.774H74.7002C73.554 127.774 73.8319 126.87 73.8319 121.695C73.8319 121.465 73.9234 121.244 74.0862 121.081C74.2491 120.919 74.4699 120.827 74.7002 120.827H90.3296Z"/>
<path d="M82.5149 91.3048C83.4179 91.3048 81.9071 92.3468 103.441 74.3903L114.503 82.2918C114.805 82.5214 115.174 82.6457 115.554 82.6457C115.933 82.6457 116.302 82.5214 116.604 82.2918L138.625 64.6306L137.756 68.1038C137.643 68.5505 137.713 69.0238 137.949 69.4195C138.185 69.8152 138.569 70.1009 139.015 70.2138C139.462 70.3266 139.935 70.2573 140.331 70.0212C140.727 69.7851 141.012 69.4015 141.125 68.9547L143.296 60.4627C143.344 60.2016 143.34 59.9335 143.283 59.6741C143.227 59.4146 143.119 59.1691 142.966 58.9519C142.185 58.0488 142.167 58.3093 132.876 58.6393C132.648 58.6473 132.424 58.7001 132.216 58.7947C132.009 58.8894 131.822 59.024 131.666 59.1909C131.352 59.528 131.184 59.9761 131.201 60.4367C131.217 60.8973 131.415 61.3326 131.752 61.6468C132.089 61.9611 132.537 62.1286 132.998 62.1125L136.471 61.9909L115.51 78.7144L104.361 70.7955C104.058 70.5618 103.685 70.435 103.302 70.435C102.919 70.435 102.546 70.5618 102.243 70.7955L81.4035 88.1616C81.0986 88.3811 80.8732 88.6935 80.7609 89.052C80.6486 89.4104 80.6557 89.7957 80.7809 90.1498C80.9061 90.504 81.1428 90.808 81.4555 91.0163C81.7681 91.2245 82.1398 91.3258 82.5149 91.3048Z"/>
</mask>
<path d="M153.716 90.4365C153.716 89.8664 153.603 89.3018 153.385 88.7751C153.167 88.2484 152.847 87.7697 152.444 87.3666C152.041 86.9635 151.562 86.6437 151.036 86.4255C150.509 86.2073 149.944 86.095 149.374 86.095H133.745C132.593 86.095 131.489 86.5524 130.675 87.3666C129.861 88.1808 129.403 89.2851 129.403 90.4365C129.403 96.3236 129.212 96.8272 130.289 98.2512C129.72 99.0011 129.409 99.915 129.403 100.856C129.403 106.743 129.212 107.247 130.289 108.671C129.177 110.147 129.403 110.859 129.403 116.486C129.409 117.427 129.72 118.341 130.289 119.09C129.72 119.84 129.409 120.754 129.403 121.695C129.403 127.582 129.212 128.086 130.289 129.51C129.177 130.986 129.403 131.698 129.403 137.325C129.403 137.895 129.516 138.46 129.734 138.986C129.952 139.513 130.272 139.992 130.675 140.395C131.078 140.798 131.557 141.118 132.083 141.336C132.61 141.554 133.175 141.666 133.745 141.666H149.374C149.944 141.666 150.509 141.554 151.036 141.336C151.562 141.118 152.041 140.798 152.444 140.395C152.847 139.992 153.167 139.513 153.385 138.986C153.603 138.46 153.716 137.895 153.716 137.325C153.716 131.438 153.907 130.934 152.83 129.51C153.399 128.76 153.709 127.846 153.716 126.905C153.716 121.018 153.907 120.515 152.83 119.09C153.941 117.614 153.716 116.902 153.716 111.276C153.709 110.335 153.399 109.421 152.83 108.671C153.399 107.921 153.709 107.007 153.716 106.066C153.716 100.179 153.907 99.6753 152.83 98.2512C153.941 96.7751 153.716 96.0631 153.716 90.4365ZM132.876 90.4365C132.876 90.2062 132.968 89.9854 133.131 89.8225C133.294 89.6597 133.514 89.5682 133.745 89.5682H149.374C150.52 89.5682 150.242 90.4712 150.242 95.6463C150.242 95.8766 150.151 96.0975 149.988 96.2603C149.825 96.4231 149.604 96.5146 149.374 96.5146H133.745C132.599 96.5146 132.876 95.6116 132.876 90.4365ZM150.242 100.856C150.242 106.066 150.52 106.934 149.374 106.934H133.745C133.514 106.934 133.294 106.843 133.131 106.68C132.968 106.517 132.876 106.296 132.876 106.066C132.876 100.856 132.599 99.9878 133.745 99.9878H149.374C149.604 99.9878 149.825 100.079 149.988 100.242C150.151 100.405 150.242 100.626 150.242 100.856ZM150.242 111.276C150.242 116.486 150.52 117.354 149.374 117.354H133.745C133.514 117.354 133.294 117.262 133.131 117.1C132.968 116.937 132.876 116.716 132.876 116.486C132.876 111.276 132.599 110.407 133.745 110.407H149.374C149.604 110.407 149.825 110.499 149.988 110.662C150.151 110.825 150.242 111.045 150.242 111.276ZM150.242 121.695C150.242 126.905 150.52 127.774 149.374 127.774H133.745C133.514 127.774 133.294 127.682 133.131 127.519C132.968 127.356 132.876 127.135 132.876 126.905C132.876 121.695 132.599 120.827 133.745 120.827H149.374C149.604 120.827 149.825 120.919 149.988 121.081C150.151 121.244 150.242 121.465 150.242 121.695ZM150.242 137.325C150.242 137.555 150.151 137.776 149.988 137.939C149.825 138.102 149.604 138.193 149.374 138.193H133.745C132.599 138.193 132.876 137.29 132.876 132.115C132.876 131.885 132.968 131.664 133.131 131.501C133.294 131.338 133.514 131.247 133.745 131.247H149.374C150.52 131.247 150.242 132.15 150.242 137.325Z" stroke="white" stroke-width="1.2" mask="url(#path-6-inside-5_4743_34742)"/>
<path d="M119.852 96.5146H104.222C103.071 96.5146 101.967 96.972 101.153 97.7862C100.338 98.6004 99.881 99.7047 99.881 100.856C99.881 106.743 99.6899 107.247 100.767 108.671C99.6552 110.147 99.881 110.859 99.881 116.486C99.8872 117.427 100.198 118.341 100.767 119.09C100.198 119.84 99.8872 120.754 99.881 121.695C99.881 127.582 99.6899 128.086 100.767 129.51C99.6552 130.986 99.881 131.698 99.881 137.325C99.881 137.895 99.9933 138.46 100.211 138.986C100.43 139.513 100.749 139.992 101.153 140.395C101.556 140.798 102.034 141.118 102.561 141.336C103.088 141.554 103.652 141.666 104.222 141.666H119.852C120.422 141.666 120.987 141.554 121.513 141.336C122.04 141.118 122.519 140.798 122.922 140.395C123.325 139.992 123.645 139.513 123.863 138.986C124.081 138.46 124.193 137.895 124.193 137.325C124.193 131.438 124.384 130.934 123.308 129.51C123.876 128.76 124.187 127.846 124.193 126.905C124.193 121.018 124.384 120.515 123.308 119.09C124.419 117.614 124.193 116.902 124.193 111.276C124.187 110.335 123.876 109.421 123.308 108.671C124.419 107.195 124.193 106.483 124.193 100.856C124.193 99.7047 123.736 98.6004 122.922 97.7862C122.108 96.972 121.003 96.5146 119.852 96.5146ZM103.354 100.856C103.354 100.626 103.446 100.405 103.608 100.242C103.771 100.079 103.992 99.9878 104.222 99.9878H119.852C120.998 99.9878 120.72 100.891 120.72 106.066C120.72 106.296 120.629 106.517 120.466 106.68C120.303 106.843 120.082 106.934 119.852 106.934H104.222C103.076 106.934 103.354 106.031 103.354 100.856ZM120.72 111.276C120.72 116.486 120.998 117.354 119.852 117.354H104.222C103.992 117.354 103.771 117.262 103.608 117.1C103.446 116.937 103.354 116.716 103.354 116.486C103.354 111.276 103.076 110.407 104.222 110.407H119.852C120.082 110.407 120.303 110.499 120.466 110.662C120.629 110.825 120.72 111.045 120.72 111.276ZM120.72 121.695C120.72 126.905 120.998 127.774 119.852 127.774H104.222C103.992 127.774 103.771 127.682 103.608 127.519C103.446 127.356 103.354 127.135 103.354 126.905C103.354 121.695 103.076 120.827 104.222 120.827H119.852C120.082 120.827 120.303 120.919 120.466 121.081C120.629 121.244 120.72 121.465 120.72 121.695ZM120.72 137.325C120.72 137.555 120.629 137.776 120.466 137.939C120.303 138.102 120.082 138.193 119.852 138.193H104.222C103.076 138.193 103.354 137.29 103.354 132.115C103.354 131.885 103.446 131.664 103.608 131.501C103.771 131.338 103.992 131.247 104.222 131.247H119.852C120.998 131.247 120.72 132.15 120.72 137.325Z" stroke="white" stroke-width="1.2" mask="url(#path-6-inside-5_4743_34742)"/>
<path d="M82.5149 96.5146C80.1073 96.5314 77.7589 97.2628 75.7675 98.6159C73.7761 99.9691 72.2314 101.883 71.3292 104.115C70.427 106.348 70.208 108.798 70.6999 111.154C71.1918 113.511 72.3726 115.669 74.0924 117.354C73.0477 117.498 72.0916 118.019 71.4039 118.818C70.7163 119.618 70.3446 120.641 70.3587 121.695C70.3587 127.582 70.1677 128.086 71.2444 129.51C70.1329 130.986 70.3587 131.698 70.3587 137.325C70.3587 137.895 70.471 138.46 70.6892 138.986C70.9073 139.513 71.2271 139.992 71.6303 140.395C72.0334 140.798 72.512 141.118 73.0388 141.336C73.5655 141.554 74.1301 141.666 74.7002 141.666H90.3296C90.8998 141.666 91.4643 141.554 91.9911 141.336C92.5178 141.118 92.9964 140.798 93.3995 140.395C93.8027 139.992 94.1225 139.513 94.3407 138.986C94.5588 138.46 94.6711 137.895 94.6711 137.325C94.6711 131.438 94.8622 130.934 93.7855 129.51C94.8969 128.034 94.6711 127.322 94.6711 121.695C94.6852 120.641 94.3135 119.618 93.6259 118.818C92.9383 118.019 91.9822 117.498 90.9374 117.354C92.6573 115.669 93.838 113.511 94.3299 111.154C94.8219 108.798 94.6029 106.348 93.7007 104.115C92.7985 101.883 91.2537 99.9691 89.2623 98.6159C87.2709 97.2628 84.9225 96.5314 82.5149 96.5146ZM73.8319 108.671C73.8319 106.954 74.3411 105.275 75.2952 103.847C76.2493 102.419 77.6055 101.306 79.1921 100.649C80.7787 99.9916 82.5245 99.8196 84.2089 100.155C85.8932 100.49 87.4404 101.317 88.6547 102.531C89.8691 103.745 90.6961 105.293 91.0311 106.977C91.3661 108.661 91.1942 110.407 90.537 111.994C89.8798 113.58 88.7669 114.936 87.3389 115.891C85.911 116.845 84.2323 117.354 82.5149 117.354C80.212 117.354 78.0035 116.439 76.3751 114.811C74.7467 113.182 73.8319 110.974 73.8319 108.671ZM91.1979 137.325C91.1979 137.555 91.1065 137.776 90.9436 137.939C90.7808 138.102 90.5599 138.193 90.3296 138.193H74.7002C73.554 138.193 73.8319 137.29 73.8319 132.115C73.8319 131.885 73.9234 131.664 74.0862 131.501C74.2491 131.338 74.4699 131.247 74.7002 131.247H90.3296C91.4758 131.247 91.1979 132.15 91.1979 137.325ZM90.3296 120.827C91.4758 120.827 91.1979 121.73 91.1979 126.905C91.1979 127.135 91.1065 127.356 90.9436 127.519C90.7808 127.682 90.5599 127.774 90.3296 127.774H74.7002C73.554 127.774 73.8319 126.87 73.8319 121.695C73.8319 121.465 73.9234 121.244 74.0862 121.081C74.2491 120.919 74.4699 120.827 74.7002 120.827H90.3296Z" stroke="white" stroke-width="1.2" mask="url(#path-6-inside-5_4743_34742)"/>
<path d="M82.5149 91.3048C83.4179 91.3048 81.9071 92.3468 103.441 74.3903L114.503 82.2918C114.805 82.5214 115.174 82.6457 115.554 82.6457C115.933 82.6457 116.302 82.5214 116.604 82.2918L138.625 64.6306L137.756 68.1038C137.643 68.5505 137.713 69.0238 137.949 69.4195C138.185 69.8152 138.569 70.1009 139.015 70.2138C139.462 70.3266 139.935 70.2573 140.331 70.0212C140.727 69.7851 141.012 69.4015 141.125 68.9547L143.296 60.4627C143.344 60.2016 143.34 59.9335 143.283 59.6741C143.227 59.4146 143.119 59.1691 142.966 58.9519C142.185 58.0488 142.167 58.3093 132.876 58.6393C132.648 58.6473 132.424 58.7001 132.216 58.7947C132.009 58.8894 131.822 59.024 131.666 59.1909C131.352 59.528 131.184 59.9761 131.201 60.4367C131.217 60.8973 131.415 61.3326 131.752 61.6468C132.089 61.9611 132.537 62.1286 132.998 62.1125L136.471 61.9909L115.51 78.7144L104.361 70.7955C104.058 70.5618 103.685 70.435 103.302 70.435C102.919 70.435 102.546 70.5618 102.243 70.7955L81.4035 88.1616C81.0986 88.3811 80.8732 88.6935 80.7609 89.052C80.6486 89.4104 80.6557 89.7957 80.7809 90.1498C80.9061 90.504 81.1428 90.808 81.4555 91.0163C81.7681 91.2245 82.1398 91.3258 82.5149 91.3048Z" stroke="white" stroke-width="1.2" mask="url(#path-6-inside-5_4743_34742)"/>
</g>
<defs>
<filter id="filter0_f_4743_34742" x="0.799999" y="-10.9324" width="222.4" height="222.4" filterUnits="userSpaceOnUse" color-interpolation-filters="sRGB">
<feFlood flood-opacity="0" result="BackgroundImageFix"/>
<feBlend mode="normal" in="SourceGraphic" in2="BackgroundImageFix" result="shape"/>
<feGaussianBlur stdDeviation="20.6" result="effect1_foregroundBlur_4743_34742"/>
</filter>
<filter id="filter1_f_4743_34742" x="58.6514" y="46.6445" width="106.771" height="106.71" filterUnits="userSpaceOnUse" color-interpolation-filters="sRGB">
<feFlood flood-opacity="0" result="BackgroundImageFix"/>
<feBlend mode="normal" in="SourceGraphic" in2="BackgroundImageFix" result="shape"/>
<feGaussianBlur stdDeviation="5.84424" result="effect1_foregroundBlur_4743_34742"/>
</filter>
<filter id="filter2_f_4743_34742" x="66.4437" y="54.4368" width="91.1869" height="91.1253" filterUnits="userSpaceOnUse" color-interpolation-filters="sRGB">
<feFlood flood-opacity="0" result="BackgroundImageFix"/>
<feBlend mode="normal" in="SourceGraphic" in2="BackgroundImageFix" result="shape"/>
<feGaussianBlur stdDeviation="1.94808" result="effect1_foregroundBlur_4743_34742"/>
</filter>
<filter id="filter3_ddi_4743_34742" x="65.2748" y="57.1642" width="93.5245" height="93.463" filterUnits="userSpaceOnUse" color-interpolation-filters="sRGB">
<feFlood flood-opacity="0" result="BackgroundImageFix"/>
<feColorMatrix in="SourceAlpha" type="matrix" values="0 0 0 0 0 0 0 0 0 0 0 0 0 0 0 0 0 0 127 0" result="hardAlpha"/>
<feOffset dy="2.70856"/>
<feGaussianBlur stdDeviation="1.04175"/>
<feColorMatrix type="matrix" values="0 0 0 0 0.00611111 0 0 0 0 0.0863195 0 0 0 0 0.0916667 0 0 0 0.7 0"/>
<feBlend mode="multiply" in2="BackgroundImageFix" result="effect1_dropShadow_4743_34742"/>
<feColorMatrix in="SourceAlpha" type="matrix" values="0 0 0 0 0 0 0 0 0 0 0 0 0 0 0 0 0 0 127 0" result="hardAlpha"/>
<feOffset dy="3.89616"/>
<feGaussianBlur stdDeviation="2.5325"/>
<feColorMatrix type="matrix" values="0 0 0 0 0.0702778 0 0 0 0 0.363767 0 0 0 0 0.383333 0 0 0 1 0"/>
<feBlend mode="color-dodge" in2="effect1_dropShadow_4743_34742" result="effect2_dropShadow_4743_34742"/>
<feBlend mode="normal" in="SourceGraphic" in2="effect2_dropShadow_4743_34742" result="shape"/>
<feColorMatrix in="SourceAlpha" type="matrix" values="0 0 0 0 0 0 0 0 0 0 0 0 0 0 0 0 0 0 127 0" result="hardAlpha"/>
<feOffset dx="-0.270856" dy="0.541712"/>
<feGaussianBlur stdDeviation="0.135428"/>
<feComposite in2="hardAlpha" operator="arithmetic" k2="-1" k3="1"/>
<feColorMatrix type="matrix" values="0 0 0 0 1 0 0 0 0 1 0 0 0 0 1 0 0 0 0.5 0"/>
<feBlend mode="normal" in2="shape" result="effect3_innerShadow_4743_34742"/>
</filter>
<filter id="filter4_f_4743_34742" x="69.9231" y="57.9163" width="84.2279" height="84.1664" filterUnits="userSpaceOnUse" color-interpolation-filters="sRGB">
<feFlood flood-opacity="0" result="BackgroundImageFix"/>
<feBlend mode="normal" in="SourceGraphic" in2="BackgroundImageFix" result="shape"/>
<feGaussianBlur stdDeviation="0.208351" result="effect1_foregroundBlur_4743_34742"/>
</filter>
<filter id="filter5_f_4743_34742" x="70.062" y="58.0552" width="83.9501" height="83.8886" filterUnits="userSpaceOnUse" color-interpolation-filters="sRGB">
<feFlood flood-opacity="0" result="BackgroundImageFix"/>
<feBlend mode="normal" in="SourceGraphic" in2="BackgroundImageFix" result="shape"/>
<feGaussianBlur stdDeviation="0.138901" result="effect1_foregroundBlur_4743_34742"/>
</filter>
</defs>
</svg>
