<svg width="296" height="248" viewBox="0 0 296 248" fill="none" xmlns="http://www.w3.org/2000/svg">
<g style="mix-blend-mode:hard-light" filter="url(#filter0_f_4743_34731)">
<circle cx="148" cy="100.268" r="70" fill="#88FF2A" fill-opacity="0.17"/>
</g>
<g style="mix-blend-mode:hard-light" filter="url(#filter1_f_4743_34731)">
<mask id="path-2-inside-1_4743_34731" fill="white">
<path d="M181.582 69.9709H166.664V65.0743C166.664 64.4005 166.118 63.8543 165.444 63.8543C164.77 63.8543 164.224 64.4005 164.224 65.0743V69.9709H159.17C158.496 69.9709 157.95 70.5171 157.95 71.1909C157.95 71.8647 158.496 72.4109 159.17 72.4109H164.224V77.5771H163.308C162.03 77.5771 160.989 78.6174 160.989 79.8958V94.2587C160.989 95.5373 162.03 96.5775 163.308 96.5775H164.224V106.257C164.224 106.93 164.77 107.477 165.444 107.477C166.118 107.477 166.664 106.93 166.664 106.257V96.5775H167.58C168.858 96.5775 169.898 95.5372 169.898 94.2587V79.8958C169.898 78.6172 168.858 77.5771 167.58 77.5771H166.664V72.4109H181.582C184.513 72.4109 186.899 74.796 186.899 77.7277V119.485H108.744V77.7279C108.744 74.7962 111.129 72.4111 114.061 72.4111H135.447V74.7921H134.532C133.253 74.7921 132.213 75.8324 132.213 77.1109V91.4738C132.213 92.7524 133.253 93.7925 134.532 93.7925H135.447V104.573C135.447 105.247 135.994 105.793 136.667 105.793C137.341 105.793 137.887 105.247 137.887 104.573V93.7925H138.803C140.082 93.7925 141.122 92.7522 141.122 91.4738V77.1109C141.122 75.8323 140.082 74.7921 138.803 74.7921H137.887V72.4109H142.941C143.615 72.4109 144.161 71.8647 144.161 71.1909C144.161 70.5171 143.615 69.9709 142.941 69.9709H137.887V69.3683C137.887 68.6945 137.341 68.1483 136.667 68.1483C135.994 68.1483 135.447 68.6945 135.447 69.3683V69.9709H114.061C109.783 69.9709 106.304 73.4506 106.304 77.7277V120.705C106.304 124.982 109.783 128.462 114.061 128.462H132.633V134.665L128.7 139.226H127.14C126.466 139.226 125.919 139.773 125.919 140.446C125.919 141.12 126.466 141.666 127.14 141.666H168.39C169.064 141.666 169.61 141.12 169.61 140.446C169.61 139.773 169.064 139.226 168.39 139.226H166.942L163.01 134.665V128.462H181.582C185.859 128.462 189.339 124.982 189.339 120.705V77.7279C189.339 73.4507 185.859 69.9709 181.582 69.9709ZM167.458 94.1377H163.43V80.0173H167.459L167.458 94.1377ZM138.682 91.3525H134.653V77.2322H138.682V91.3525ZM181.582 126.022H156.89C156.216 126.022 155.67 126.568 155.67 127.242C155.67 127.915 156.216 128.462 156.89 128.462H160.57V133.898H157.531C156.857 133.898 156.31 134.445 156.31 135.118C156.31 135.792 156.857 136.338 157.531 136.338H161.23L163.72 139.226H131.922L134.412 136.338H138.112C138.786 136.338 139.332 135.792 139.332 135.118C139.332 134.445 138.786 133.898 138.112 133.898H135.073V128.462H151.69C152.364 128.462 152.91 127.915 152.91 127.242C152.91 126.568 152.364 126.022 151.69 126.022H114.061C111.549 126.022 109.44 124.27 108.887 121.925H186.756C186.203 124.27 184.094 126.022 181.582 126.022Z"/>
<path d="M119.044 93.9521C118.371 93.9521 117.824 94.4984 117.824 95.1721V98.1175C117.824 99.3961 118.865 100.436 120.143 100.436H121.059V106.933C121.059 107.607 121.605 108.154 122.279 108.154C122.953 108.154 123.499 107.607 123.499 106.933V100.436H124.415C125.693 100.436 126.733 99.3961 126.733 98.1175V83.7545C126.733 82.4759 125.693 81.4357 124.415 81.4357H123.499V79.4842C123.499 78.8105 122.953 78.2642 122.279 78.2642C121.605 78.2642 121.059 78.8105 121.059 79.4842V81.4357H120.143C118.865 81.4357 117.824 82.4759 117.824 83.7545V89.9728C117.824 90.6466 118.371 91.1929 119.044 91.1929C119.718 91.1929 120.265 90.6466 120.265 89.9728V83.8759H122.279C122.279 83.8759 122.28 83.8759 122.281 83.8759H124.294V97.9963H120.265V95.1723C120.265 94.4984 119.718 93.9521 119.044 93.9521Z"/>
<path d="M148.92 91.3783H149.836V97.8754C149.836 98.5492 150.382 99.0955 151.056 99.0955C151.73 99.0955 152.276 98.5492 152.276 97.8754V91.3783H153.191C154.47 91.3783 155.51 90.338 155.51 89.0594V79.4899C155.51 78.8162 154.964 78.2699 154.29 78.2699C153.616 78.2699 153.07 78.8162 153.07 79.4899V88.9382H149.041V66.8469H153.07V74.2906C153.07 74.9644 153.616 75.5107 154.29 75.5107C154.964 75.5107 155.51 74.9644 155.51 74.2906V66.7256C155.51 65.4471 154.47 64.4068 153.191 64.4068H152.276V59.553C152.276 58.8793 151.73 58.333 151.056 58.333C150.382 58.333 149.836 58.8793 149.836 59.553V64.4068H148.92C147.641 64.4068 146.601 65.4471 146.601 66.7256V89.0594C146.601 90.3382 147.641 91.3783 148.92 91.3783Z"/>
<path d="M172.485 91.7811C172.705 92.19 173.126 92.4223 173.56 92.4223C173.755 92.4223 173.954 92.3752 174.138 92.2759L179.757 89.2458L179.353 90.3068C179.113 90.9365 179.429 91.6414 180.059 91.8813C180.202 91.9356 180.349 91.9615 180.493 91.9615C180.985 91.9615 181.448 91.6622 181.634 91.1755L183.007 87.5697C183.247 86.94 182.931 86.2351 182.301 85.9952L178.474 84.5372C177.845 84.2974 177.14 84.6133 176.9 85.243C176.66 85.8727 176.976 86.5775 177.606 86.8175L178.493 87.1555L172.98 90.1282C172.387 90.448 172.165 91.188 172.485 91.7811Z"/>
<path d="M113.518 115.62C113.716 116.082 114.166 116.36 114.64 116.36C114.8 116.36 114.963 116.328 115.119 116.261L130.862 109.523L132.293 113.272C132.418 113.6 132.679 113.858 133.008 113.98C133.337 114.103 133.703 114.077 134.012 113.911L160.02 99.8875C160.613 99.5677 160.835 98.8277 160.515 98.2346C160.196 97.6417 159.456 97.4199 158.862 97.7398L134.077 111.103L132.689 107.467C132.571 107.157 132.331 106.908 132.026 106.779C131.72 106.649 131.375 106.65 131.069 106.78L114.159 114.018C113.54 114.283 113.253 115 113.518 115.62Z"/>
</mask>
<path d="M181.582 69.9709H166.664V65.0743C166.664 64.4005 166.118 63.8543 165.444 63.8543C164.77 63.8543 164.224 64.4005 164.224 65.0743V69.9709H159.17C158.496 69.9709 157.95 70.5171 157.95 71.1909C157.95 71.8647 158.496 72.4109 159.17 72.4109H164.224V77.5771H163.308C162.03 77.5771 160.989 78.6174 160.989 79.8958V94.2587C160.989 95.5373 162.03 96.5775 163.308 96.5775H164.224V106.257C164.224 106.93 164.77 107.477 165.444 107.477C166.118 107.477 166.664 106.93 166.664 106.257V96.5775H167.58C168.858 96.5775 169.898 95.5372 169.898 94.2587V79.8958C169.898 78.6172 168.858 77.5771 167.58 77.5771H166.664V72.4109H181.582C184.513 72.4109 186.899 74.796 186.899 77.7277V119.485H108.744V77.7279C108.744 74.7962 111.129 72.4111 114.061 72.4111H135.447V74.7921H134.532C133.253 74.7921 132.213 75.8324 132.213 77.1109V91.4738C132.213 92.7524 133.253 93.7925 134.532 93.7925H135.447V104.573C135.447 105.247 135.994 105.793 136.667 105.793C137.341 105.793 137.887 105.247 137.887 104.573V93.7925H138.803C140.082 93.7925 141.122 92.7522 141.122 91.4738V77.1109C141.122 75.8323 140.082 74.7921 138.803 74.7921H137.887V72.4109H142.941C143.615 72.4109 144.161 71.8647 144.161 71.1909C144.161 70.5171 143.615 69.9709 142.941 69.9709H137.887V69.3683C137.887 68.6945 137.341 68.1483 136.667 68.1483C135.994 68.1483 135.447 68.6945 135.447 69.3683V69.9709H114.061C109.783 69.9709 106.304 73.4506 106.304 77.7277V120.705C106.304 124.982 109.783 128.462 114.061 128.462H132.633V134.665L128.7 139.226H127.14C126.466 139.226 125.919 139.773 125.919 140.446C125.919 141.12 126.466 141.666 127.14 141.666H168.39C169.064 141.666 169.61 141.12 169.61 140.446C169.61 139.773 169.064 139.226 168.39 139.226H166.942L163.01 134.665V128.462H181.582C185.859 128.462 189.339 124.982 189.339 120.705V77.7279C189.339 73.4507 185.859 69.9709 181.582 69.9709ZM167.458 94.1377H163.43V80.0173H167.459L167.458 94.1377ZM138.682 91.3525H134.653V77.2322H138.682V91.3525ZM181.582 126.022H156.89C156.216 126.022 155.67 126.568 155.67 127.242C155.67 127.915 156.216 128.462 156.89 128.462H160.57V133.898H157.531C156.857 133.898 156.31 134.445 156.31 135.118C156.31 135.792 156.857 136.338 157.531 136.338H161.23L163.72 139.226H131.922L134.412 136.338H138.112C138.786 136.338 139.332 135.792 139.332 135.118C139.332 134.445 138.786 133.898 138.112 133.898H135.073V128.462H151.69C152.364 128.462 152.91 127.915 152.91 127.242C152.91 126.568 152.364 126.022 151.69 126.022H114.061C111.549 126.022 109.44 124.27 108.887 121.925H186.756C186.203 124.27 184.094 126.022 181.582 126.022Z" stroke="#88FF2A" stroke-width="5.40697" mask="url(#path-2-inside-1_4743_34731)"/>
<path d="M119.044 93.9521C118.371 93.9521 117.824 94.4984 117.824 95.1721V98.1175C117.824 99.3961 118.865 100.436 120.143 100.436H121.059V106.933C121.059 107.607 121.605 108.154 122.279 108.154C122.953 108.154 123.499 107.607 123.499 106.933V100.436H124.415C125.693 100.436 126.733 99.3961 126.733 98.1175V83.7545C126.733 82.4759 125.693 81.4357 124.415 81.4357H123.499V79.4842C123.499 78.8105 122.953 78.2642 122.279 78.2642C121.605 78.2642 121.059 78.8105 121.059 79.4842V81.4357H120.143C118.865 81.4357 117.824 82.4759 117.824 83.7545V89.9728C117.824 90.6466 118.371 91.1929 119.044 91.1929C119.718 91.1929 120.265 90.6466 120.265 89.9728V83.8759H122.279C122.279 83.8759 122.28 83.8759 122.281 83.8759H124.294V97.9963H120.265V95.1723C120.265 94.4984 119.718 93.9521 119.044 93.9521Z" stroke="#88FF2A" stroke-width="5.40697" mask="url(#path-2-inside-1_4743_34731)"/>
<path d="M148.92 91.3783H149.836V97.8754C149.836 98.5492 150.382 99.0955 151.056 99.0955C151.73 99.0955 152.276 98.5492 152.276 97.8754V91.3783H153.191C154.47 91.3783 155.51 90.338 155.51 89.0594V79.4899C155.51 78.8162 154.964 78.2699 154.29 78.2699C153.616 78.2699 153.07 78.8162 153.07 79.4899V88.9382H149.041V66.8469H153.07V74.2906C153.07 74.9644 153.616 75.5107 154.29 75.5107C154.964 75.5107 155.51 74.9644 155.51 74.2906V66.7256C155.51 65.4471 154.47 64.4068 153.191 64.4068H152.276V59.553C152.276 58.8793 151.73 58.333 151.056 58.333C150.382 58.333 149.836 58.8793 149.836 59.553V64.4068H148.92C147.641 64.4068 146.601 65.4471 146.601 66.7256V89.0594C146.601 90.3382 147.641 91.3783 148.92 91.3783Z" stroke="#88FF2A" stroke-width="5.40697" mask="url(#path-2-inside-1_4743_34731)"/>
<path d="M172.485 91.7811C172.705 92.19 173.126 92.4223 173.56 92.4223C173.755 92.4223 173.954 92.3752 174.138 92.2759L179.757 89.2458L179.353 90.3068C179.113 90.9365 179.429 91.6414 180.059 91.8813C180.202 91.9356 180.349 91.9615 180.493 91.9615C180.985 91.9615 181.448 91.6622 181.634 91.1755L183.007 87.5697C183.247 86.94 182.931 86.2351 182.301 85.9952L178.474 84.5372C177.845 84.2974 177.14 84.6133 176.9 85.243C176.66 85.8727 176.976 86.5775 177.606 86.8175L178.493 87.1555L172.98 90.1282C172.387 90.448 172.165 91.188 172.485 91.7811Z" stroke="#88FF2A" stroke-width="5.40697" mask="url(#path-2-inside-1_4743_34731)"/>
<path d="M113.518 115.62C113.716 116.082 114.166 116.36 114.64 116.36C114.8 116.36 114.963 116.328 115.119 116.261L130.862 109.523L132.293 113.272C132.418 113.6 132.679 113.858 133.008 113.98C133.337 114.103 133.703 114.077 134.012 113.911L160.02 99.8875C160.613 99.5677 160.835 98.8277 160.515 98.2346C160.196 97.6417 159.456 97.4199 158.862 97.7398L134.077 111.103L132.689 107.467C132.571 107.157 132.331 106.908 132.026 106.779C131.72 106.649 131.375 106.65 131.069 106.78L114.159 114.018C113.54 114.283 113.253 115 113.518 115.62Z" stroke="#88FF2A" stroke-width="5.40697" mask="url(#path-2-inside-1_4743_34731)"/>
</g>
<g style="mix-blend-mode:hard-light" filter="url(#filter2_f_4743_34731)">
<mask id="path-3-inside-2_4743_34731" fill="white">
<path d="M181.582 69.9709H166.664V65.0743C166.664 64.4005 166.118 63.8543 165.444 63.8543C164.77 63.8543 164.224 64.4005 164.224 65.0743V69.9709H159.17C158.496 69.9709 157.95 70.5171 157.95 71.1909C157.95 71.8647 158.496 72.4109 159.17 72.4109H164.224V77.5771H163.308C162.03 77.5771 160.989 78.6174 160.989 79.8958V94.2587C160.989 95.5373 162.03 96.5775 163.308 96.5775H164.224V106.257C164.224 106.93 164.77 107.477 165.444 107.477C166.118 107.477 166.664 106.93 166.664 106.257V96.5775H167.58C168.858 96.5775 169.898 95.5372 169.898 94.2587V79.8958C169.898 78.6172 168.858 77.5771 167.58 77.5771H166.664V72.4109H181.582C184.513 72.4109 186.899 74.796 186.899 77.7277V119.485H108.744V77.7279C108.744 74.7962 111.129 72.4111 114.061 72.4111H135.447V74.7921H134.532C133.253 74.7921 132.213 75.8324 132.213 77.1109V91.4738C132.213 92.7524 133.253 93.7925 134.532 93.7925H135.447V104.573C135.447 105.247 135.994 105.793 136.667 105.793C137.341 105.793 137.887 105.247 137.887 104.573V93.7925H138.803C140.082 93.7925 141.122 92.7522 141.122 91.4738V77.1109C141.122 75.8323 140.082 74.7921 138.803 74.7921H137.887V72.4109H142.941C143.615 72.4109 144.161 71.8647 144.161 71.1909C144.161 70.5171 143.615 69.9709 142.941 69.9709H137.887V69.3683C137.887 68.6945 137.341 68.1483 136.667 68.1483C135.994 68.1483 135.447 68.6945 135.447 69.3683V69.9709H114.061C109.783 69.9709 106.304 73.4506 106.304 77.7277V120.705C106.304 124.982 109.783 128.462 114.061 128.462H132.633V134.665L128.7 139.226H127.14C126.466 139.226 125.919 139.773 125.919 140.446C125.919 141.12 126.466 141.666 127.14 141.666H168.39C169.064 141.666 169.61 141.12 169.61 140.446C169.61 139.773 169.064 139.226 168.39 139.226H166.942L163.01 134.665V128.462H181.582C185.859 128.462 189.339 124.982 189.339 120.705V77.7279C189.339 73.4507 185.859 69.9709 181.582 69.9709ZM167.458 94.1377H163.43V80.0173H167.459L167.458 94.1377ZM138.682 91.3525H134.653V77.2322H138.682V91.3525ZM181.582 126.022H156.89C156.216 126.022 155.67 126.568 155.67 127.242C155.67 127.915 156.216 128.462 156.89 128.462H160.57V133.898H157.531C156.857 133.898 156.31 134.445 156.31 135.118C156.31 135.792 156.857 136.338 157.531 136.338H161.23L163.72 139.226H131.922L134.412 136.338H138.112C138.786 136.338 139.332 135.792 139.332 135.118C139.332 134.445 138.786 133.898 138.112 133.898H135.073V128.462H151.69C152.364 128.462 152.91 127.915 152.91 127.242C152.91 126.568 152.364 126.022 151.69 126.022H114.061C111.549 126.022 109.44 124.27 108.887 121.925H186.756C186.203 124.27 184.094 126.022 181.582 126.022Z"/>
<path d="M119.044 93.9521C118.371 93.9521 117.824 94.4984 117.824 95.1721V98.1175C117.824 99.3961 118.865 100.436 120.143 100.436H121.059V106.933C121.059 107.607 121.605 108.154 122.279 108.154C122.953 108.154 123.499 107.607 123.499 106.933V100.436H124.415C125.693 100.436 126.733 99.3961 126.733 98.1175V83.7545C126.733 82.4759 125.693 81.4357 124.415 81.4357H123.499V79.4842C123.499 78.8105 122.953 78.2642 122.279 78.2642C121.605 78.2642 121.059 78.8105 121.059 79.4842V81.4357H120.143C118.865 81.4357 117.824 82.4759 117.824 83.7545V89.9728C117.824 90.6466 118.371 91.1929 119.044 91.1929C119.718 91.1929 120.265 90.6466 120.265 89.9728V83.8759H122.279C122.279 83.8759 122.28 83.8759 122.281 83.8759H124.294V97.9963H120.265V95.1723C120.265 94.4984 119.718 93.9521 119.044 93.9521Z"/>
<path d="M148.92 91.3783H149.836V97.8754C149.836 98.5492 150.382 99.0955 151.056 99.0955C151.73 99.0955 152.276 98.5492 152.276 97.8754V91.3783H153.191C154.47 91.3783 155.51 90.338 155.51 89.0594V79.4899C155.51 78.8162 154.964 78.2699 154.29 78.2699C153.616 78.2699 153.07 78.8162 153.07 79.4899V88.9382H149.041V66.8469H153.07V74.2906C153.07 74.9644 153.616 75.5107 154.29 75.5107C154.964 75.5107 155.51 74.9644 155.51 74.2906V66.7256C155.51 65.4471 154.47 64.4068 153.191 64.4068H152.276V59.553C152.276 58.8793 151.73 58.333 151.056 58.333C150.382 58.333 149.836 58.8793 149.836 59.553V64.4068H148.92C147.641 64.4068 146.601 65.4471 146.601 66.7256V89.0594C146.601 90.3382 147.641 91.3783 148.92 91.3783Z"/>
<path d="M172.485 91.7811C172.705 92.19 173.126 92.4223 173.56 92.4223C173.755 92.4223 173.954 92.3752 174.138 92.2759L179.757 89.2458L179.353 90.3068C179.113 90.9365 179.429 91.6414 180.059 91.8813C180.202 91.9356 180.349 91.9615 180.493 91.9615C180.985 91.9615 181.448 91.6622 181.634 91.1755L183.007 87.5697C183.247 86.94 182.931 86.2351 182.301 85.9952L178.474 84.5372C177.845 84.2974 177.14 84.6133 176.9 85.243C176.66 85.8727 176.976 86.5775 177.606 86.8175L178.493 87.1555L172.98 90.1282C172.387 90.448 172.165 91.188 172.485 91.7811Z"/>
<path d="M113.518 115.62C113.716 116.082 114.166 116.36 114.64 116.36C114.8 116.36 114.963 116.328 115.119 116.261L130.862 109.523L132.293 113.272C132.418 113.6 132.679 113.858 133.008 113.98C133.337 114.103 133.703 114.077 134.012 113.911L160.02 99.8875C160.613 99.5677 160.835 98.8277 160.515 98.2346C160.196 97.6417 159.456 97.4199 158.862 97.7398L134.077 111.103L132.689 107.467C132.571 107.157 132.331 106.908 132.026 106.779C131.72 106.649 131.375 106.65 131.069 106.78L114.159 114.018C113.54 114.283 113.253 115 113.518 115.62Z"/>
</mask>
<path d="M181.582 69.9709H166.664V65.0743C166.664 64.4005 166.118 63.8543 165.444 63.8543C164.77 63.8543 164.224 64.4005 164.224 65.0743V69.9709H159.17C158.496 69.9709 157.95 70.5171 157.95 71.1909C157.95 71.8647 158.496 72.4109 159.17 72.4109H164.224V77.5771H163.308C162.03 77.5771 160.989 78.6174 160.989 79.8958V94.2587C160.989 95.5373 162.03 96.5775 163.308 96.5775H164.224V106.257C164.224 106.93 164.77 107.477 165.444 107.477C166.118 107.477 166.664 106.93 166.664 106.257V96.5775H167.58C168.858 96.5775 169.898 95.5372 169.898 94.2587V79.8958C169.898 78.6172 168.858 77.5771 167.58 77.5771H166.664V72.4109H181.582C184.513 72.4109 186.899 74.796 186.899 77.7277V119.485H108.744V77.7279C108.744 74.7962 111.129 72.4111 114.061 72.4111H135.447V74.7921H134.532C133.253 74.7921 132.213 75.8324 132.213 77.1109V91.4738C132.213 92.7524 133.253 93.7925 134.532 93.7925H135.447V104.573C135.447 105.247 135.994 105.793 136.667 105.793C137.341 105.793 137.887 105.247 137.887 104.573V93.7925H138.803C140.082 93.7925 141.122 92.7522 141.122 91.4738V77.1109C141.122 75.8323 140.082 74.7921 138.803 74.7921H137.887V72.4109H142.941C143.615 72.4109 144.161 71.8647 144.161 71.1909C144.161 70.5171 143.615 69.9709 142.941 69.9709H137.887V69.3683C137.887 68.6945 137.341 68.1483 136.667 68.1483C135.994 68.1483 135.447 68.6945 135.447 69.3683V69.9709H114.061C109.783 69.9709 106.304 73.4506 106.304 77.7277V120.705C106.304 124.982 109.783 128.462 114.061 128.462H132.633V134.665L128.7 139.226H127.14C126.466 139.226 125.919 139.773 125.919 140.446C125.919 141.12 126.466 141.666 127.14 141.666H168.39C169.064 141.666 169.61 141.12 169.61 140.446C169.61 139.773 169.064 139.226 168.39 139.226H166.942L163.01 134.665V128.462H181.582C185.859 128.462 189.339 124.982 189.339 120.705V77.7279C189.339 73.4507 185.859 69.9709 181.582 69.9709ZM167.458 94.1377H163.43V80.0173H167.459L167.458 94.1377ZM138.682 91.3525H134.653V77.2322H138.682V91.3525ZM181.582 126.022H156.89C156.216 126.022 155.67 126.568 155.67 127.242C155.67 127.915 156.216 128.462 156.89 128.462H160.57V133.898H157.531C156.857 133.898 156.31 134.445 156.31 135.118C156.31 135.792 156.857 136.338 157.531 136.338H161.23L163.72 139.226H131.922L134.412 136.338H138.112C138.786 136.338 139.332 135.792 139.332 135.118C139.332 134.445 138.786 133.898 138.112 133.898H135.073V128.462H151.69C152.364 128.462 152.91 127.915 152.91 127.242C152.91 126.568 152.364 126.022 151.69 126.022H114.061C111.549 126.022 109.44 124.27 108.887 121.925H186.756C186.203 124.27 184.094 126.022 181.582 126.022Z" stroke="#88FF2A" stroke-opacity="0.91" stroke-width="4" mask="url(#path-3-inside-2_4743_34731)"/>
<path d="M119.044 93.9521C118.371 93.9521 117.824 94.4984 117.824 95.1721V98.1175C117.824 99.3961 118.865 100.436 120.143 100.436H121.059V106.933C121.059 107.607 121.605 108.154 122.279 108.154C122.953 108.154 123.499 107.607 123.499 106.933V100.436H124.415C125.693 100.436 126.733 99.3961 126.733 98.1175V83.7545C126.733 82.4759 125.693 81.4357 124.415 81.4357H123.499V79.4842C123.499 78.8105 122.953 78.2642 122.279 78.2642C121.605 78.2642 121.059 78.8105 121.059 79.4842V81.4357H120.143C118.865 81.4357 117.824 82.4759 117.824 83.7545V89.9728C117.824 90.6466 118.371 91.1929 119.044 91.1929C119.718 91.1929 120.265 90.6466 120.265 89.9728V83.8759H122.279C122.279 83.8759 122.28 83.8759 122.281 83.8759H124.294V97.9963H120.265V95.1723C120.265 94.4984 119.718 93.9521 119.044 93.9521Z" stroke="#88FF2A" stroke-opacity="0.91" stroke-width="4" mask="url(#path-3-inside-2_4743_34731)"/>
<path d="M148.92 91.3783H149.836V97.8754C149.836 98.5492 150.382 99.0955 151.056 99.0955C151.73 99.0955 152.276 98.5492 152.276 97.8754V91.3783H153.191C154.47 91.3783 155.51 90.338 155.51 89.0594V79.4899C155.51 78.8162 154.964 78.2699 154.29 78.2699C153.616 78.2699 153.07 78.8162 153.07 79.4899V88.9382H149.041V66.8469H153.07V74.2906C153.07 74.9644 153.616 75.5107 154.29 75.5107C154.964 75.5107 155.51 74.9644 155.51 74.2906V66.7256C155.51 65.4471 154.47 64.4068 153.191 64.4068H152.276V59.553C152.276 58.8793 151.73 58.333 151.056 58.333C150.382 58.333 149.836 58.8793 149.836 59.553V64.4068H148.92C147.641 64.4068 146.601 65.4471 146.601 66.7256V89.0594C146.601 90.3382 147.641 91.3783 148.92 91.3783Z" stroke="#88FF2A" stroke-opacity="0.91" stroke-width="4" mask="url(#path-3-inside-2_4743_34731)"/>
<path d="M172.485 91.7811C172.705 92.19 173.126 92.4223 173.56 92.4223C173.755 92.4223 173.954 92.3752 174.138 92.2759L179.757 89.2458L179.353 90.3068C179.113 90.9365 179.429 91.6414 180.059 91.8813C180.202 91.9356 180.349 91.9615 180.493 91.9615C180.985 91.9615 181.448 91.6622 181.634 91.1755L183.007 87.5697C183.247 86.94 182.931 86.2351 182.301 85.9952L178.474 84.5372C177.845 84.2974 177.14 84.6133 176.9 85.243C176.66 85.8727 176.976 86.5775 177.606 86.8175L178.493 87.1555L172.98 90.1282C172.387 90.448 172.165 91.188 172.485 91.7811Z" stroke="#88FF2A" stroke-opacity="0.91" stroke-width="4" mask="url(#path-3-inside-2_4743_34731)"/>
<path d="M113.518 115.62C113.716 116.082 114.166 116.36 114.64 116.36C114.8 116.36 114.963 116.328 115.119 116.261L130.862 109.523L132.293 113.272C132.418 113.6 132.679 113.858 133.008 113.98C133.337 114.103 133.703 114.077 134.012 113.911L160.02 99.8875C160.613 99.5677 160.835 98.8277 160.515 98.2346C160.196 97.6417 159.456 97.4199 158.862 97.7398L134.077 111.103L132.689 107.467C132.571 107.157 132.331 106.908 132.026 106.779C131.72 106.649 131.375 106.65 131.069 106.78L114.159 114.018C113.54 114.283 113.253 115 113.518 115.62Z" stroke="#88FF2A" stroke-opacity="0.91" stroke-width="4" mask="url(#path-3-inside-2_4743_34731)"/>
</g>
<g style="mix-blend-mode:hard-light" filter="url(#filter3_ddi_4743_34731)">
<mask id="path-4-inside-3_4743_34731" fill="white">
<path d="M181.582 69.9709H166.664V65.0743C166.664 64.4005 166.118 63.8543 165.444 63.8543C164.77 63.8543 164.224 64.4005 164.224 65.0743V69.9709H159.17C158.496 69.9709 157.95 70.5171 157.95 71.1909C157.95 71.8647 158.496 72.4109 159.17 72.4109H164.224V77.5771H163.308C162.03 77.5771 160.989 78.6174 160.989 79.8958V94.2587C160.989 95.5373 162.03 96.5775 163.308 96.5775H164.224V106.257C164.224 106.93 164.77 107.477 165.444 107.477C166.118 107.477 166.664 106.93 166.664 106.257V96.5775H167.58C168.858 96.5775 169.898 95.5372 169.898 94.2587V79.8958C169.898 78.6172 168.858 77.5771 167.58 77.5771H166.664V72.4109H181.582C184.513 72.4109 186.899 74.796 186.899 77.7277V119.485H108.744V77.7279C108.744 74.7962 111.129 72.4111 114.061 72.4111H135.447V74.7921H134.532C133.253 74.7921 132.213 75.8324 132.213 77.1109V91.4738C132.213 92.7524 133.253 93.7925 134.532 93.7925H135.447V104.573C135.447 105.247 135.994 105.793 136.667 105.793C137.341 105.793 137.887 105.247 137.887 104.573V93.7925H138.803C140.082 93.7925 141.122 92.7522 141.122 91.4738V77.1109C141.122 75.8323 140.082 74.7921 138.803 74.7921H137.887V72.4109H142.941C143.615 72.4109 144.161 71.8647 144.161 71.1909C144.161 70.5171 143.615 69.9709 142.941 69.9709H137.887V69.3683C137.887 68.6945 137.341 68.1483 136.667 68.1483C135.994 68.1483 135.447 68.6945 135.447 69.3683V69.9709H114.061C109.783 69.9709 106.304 73.4506 106.304 77.7277V120.705C106.304 124.982 109.783 128.462 114.061 128.462H132.633V134.665L128.7 139.226H127.14C126.466 139.226 125.919 139.773 125.919 140.446C125.919 141.12 126.466 141.666 127.14 141.666H168.39C169.064 141.666 169.61 141.12 169.61 140.446C169.61 139.773 169.064 139.226 168.39 139.226H166.942L163.01 134.665V128.462H181.582C185.859 128.462 189.339 124.982 189.339 120.705V77.7279C189.339 73.4507 185.859 69.9709 181.582 69.9709ZM167.458 94.1377H163.43V80.0173H167.459L167.458 94.1377ZM138.682 91.3525H134.653V77.2322H138.682V91.3525ZM181.582 126.022H156.89C156.216 126.022 155.67 126.568 155.67 127.242C155.67 127.915 156.216 128.462 156.89 128.462H160.57V133.898H157.531C156.857 133.898 156.31 134.445 156.31 135.118C156.31 135.792 156.857 136.338 157.531 136.338H161.23L163.72 139.226H131.922L134.412 136.338H138.112C138.786 136.338 139.332 135.792 139.332 135.118C139.332 134.445 138.786 133.898 138.112 133.898H135.073V128.462H151.69C152.364 128.462 152.91 127.915 152.91 127.242C152.91 126.568 152.364 126.022 151.69 126.022H114.061C111.549 126.022 109.44 124.27 108.887 121.925H186.756C186.203 124.27 184.094 126.022 181.582 126.022Z"/>
<path d="M119.044 93.9521C118.371 93.9521 117.824 94.4984 117.824 95.1721V98.1175C117.824 99.3961 118.865 100.436 120.143 100.436H121.059V106.933C121.059 107.607 121.605 108.154 122.279 108.154C122.953 108.154 123.499 107.607 123.499 106.933V100.436H124.415C125.693 100.436 126.733 99.3961 126.733 98.1175V83.7545C126.733 82.4759 125.693 81.4357 124.415 81.4357H123.499V79.4842C123.499 78.8105 122.953 78.2642 122.279 78.2642C121.605 78.2642 121.059 78.8105 121.059 79.4842V81.4357H120.143C118.865 81.4357 117.824 82.4759 117.824 83.7545V89.9728C117.824 90.6466 118.371 91.1929 119.044 91.1929C119.718 91.1929 120.265 90.6466 120.265 89.9728V83.8759H122.279C122.279 83.8759 122.28 83.8759 122.281 83.8759H124.294V97.9963H120.265V95.1723C120.265 94.4984 119.718 93.9521 119.044 93.9521Z"/>
<path d="M148.92 91.3783H149.836V97.8754C149.836 98.5492 150.382 99.0955 151.056 99.0955C151.73 99.0955 152.276 98.5492 152.276 97.8754V91.3783H153.191C154.47 91.3783 155.51 90.338 155.51 89.0594V79.4899C155.51 78.8162 154.964 78.2699 154.29 78.2699C153.616 78.2699 153.07 78.8162 153.07 79.4899V88.9382H149.041V66.8469H153.07V74.2906C153.07 74.9644 153.616 75.5107 154.29 75.5107C154.964 75.5107 155.51 74.9644 155.51 74.2906V66.7256C155.51 65.4471 154.47 64.4068 153.191 64.4068H152.276V59.553C152.276 58.8793 151.73 58.333 151.056 58.333C150.382 58.333 149.836 58.8793 149.836 59.553V64.4068H148.92C147.641 64.4068 146.601 65.4471 146.601 66.7256V89.0594C146.601 90.3382 147.641 91.3783 148.92 91.3783Z"/>
<path d="M172.485 91.7811C172.705 92.19 173.126 92.4223 173.56 92.4223C173.755 92.4223 173.954 92.3752 174.138 92.2759L179.757 89.2458L179.353 90.3068C179.113 90.9365 179.429 91.6414 180.059 91.8813C180.202 91.9356 180.349 91.9615 180.493 91.9615C180.985 91.9615 181.448 91.6622 181.634 91.1755L183.007 87.5697C183.247 86.94 182.931 86.2351 182.301 85.9952L178.474 84.5372C177.845 84.2974 177.14 84.6133 176.9 85.243C176.66 85.8727 176.976 86.5775 177.606 86.8175L178.493 87.1555L172.98 90.1282C172.387 90.448 172.165 91.188 172.485 91.7811Z"/>
<path d="M113.518 115.62C113.716 116.082 114.166 116.36 114.64 116.36C114.8 116.36 114.963 116.328 115.119 116.261L130.862 109.523L132.293 113.272C132.418 113.6 132.679 113.858 133.008 113.98C133.337 114.103 133.703 114.077 134.012 113.911L160.02 99.8875C160.613 99.5677 160.835 98.8277 160.515 98.2346C160.196 97.6417 159.456 97.4199 158.862 97.7398L134.077 111.103L132.689 107.467C132.571 107.157 132.331 106.908 132.026 106.779C131.72 106.649 131.375 106.65 131.069 106.78L114.159 114.018C113.54 114.283 113.253 115 113.518 115.62Z"/>
</mask>
<path d="M181.582 69.9709H166.664V65.0743C166.664 64.4005 166.118 63.8543 165.444 63.8543C164.77 63.8543 164.224 64.4005 164.224 65.0743V69.9709H159.17C158.496 69.9709 157.95 70.5171 157.95 71.1909C157.95 71.8647 158.496 72.4109 159.17 72.4109H164.224V77.5771H163.308C162.03 77.5771 160.989 78.6174 160.989 79.8958V94.2587C160.989 95.5373 162.03 96.5775 163.308 96.5775H164.224V106.257C164.224 106.93 164.77 107.477 165.444 107.477C166.118 107.477 166.664 106.93 166.664 106.257V96.5775H167.58C168.858 96.5775 169.898 95.5372 169.898 94.2587V79.8958C169.898 78.6172 168.858 77.5771 167.58 77.5771H166.664V72.4109H181.582C184.513 72.4109 186.899 74.796 186.899 77.7277V119.485H108.744V77.7279C108.744 74.7962 111.129 72.4111 114.061 72.4111H135.447V74.7921H134.532C133.253 74.7921 132.213 75.8324 132.213 77.1109V91.4738C132.213 92.7524 133.253 93.7925 134.532 93.7925H135.447V104.573C135.447 105.247 135.994 105.793 136.667 105.793C137.341 105.793 137.887 105.247 137.887 104.573V93.7925H138.803C140.082 93.7925 141.122 92.7522 141.122 91.4738V77.1109C141.122 75.8323 140.082 74.7921 138.803 74.7921H137.887V72.4109H142.941C143.615 72.4109 144.161 71.8647 144.161 71.1909C144.161 70.5171 143.615 69.9709 142.941 69.9709H137.887V69.3683C137.887 68.6945 137.341 68.1483 136.667 68.1483C135.994 68.1483 135.447 68.6945 135.447 69.3683V69.9709H114.061C109.783 69.9709 106.304 73.4506 106.304 77.7277V120.705C106.304 124.982 109.783 128.462 114.061 128.462H132.633V134.665L128.7 139.226H127.14C126.466 139.226 125.919 139.773 125.919 140.446C125.919 141.12 126.466 141.666 127.14 141.666H168.39C169.064 141.666 169.61 141.12 169.61 140.446C169.61 139.773 169.064 139.226 168.39 139.226H166.942L163.01 134.665V128.462H181.582C185.859 128.462 189.339 124.982 189.339 120.705V77.7279C189.339 73.4507 185.859 69.9709 181.582 69.9709ZM167.458 94.1377H163.43V80.0173H167.459L167.458 94.1377ZM138.682 91.3525H134.653V77.2322H138.682V91.3525ZM181.582 126.022H156.89C156.216 126.022 155.67 126.568 155.67 127.242C155.67 127.915 156.216 128.462 156.89 128.462H160.57V133.898H157.531C156.857 133.898 156.31 134.445 156.31 135.118C156.31 135.792 156.857 136.338 157.531 136.338H161.23L163.72 139.226H131.922L134.412 136.338H138.112C138.786 136.338 139.332 135.792 139.332 135.118C139.332 134.445 138.786 133.898 138.112 133.898H135.073V128.462H151.69C152.364 128.462 152.91 127.915 152.91 127.242C152.91 126.568 152.364 126.022 151.69 126.022H114.061C111.549 126.022 109.44 124.27 108.887 121.925H186.756C186.203 124.27 184.094 126.022 181.582 126.022Z" stroke="#88FF2A" stroke-opacity="0.2" stroke-width="3" mask="url(#path-4-inside-3_4743_34731)"/>
<path d="M119.044 93.9521C118.371 93.9521 117.824 94.4984 117.824 95.1721V98.1175C117.824 99.3961 118.865 100.436 120.143 100.436H121.059V106.933C121.059 107.607 121.605 108.154 122.279 108.154C122.953 108.154 123.499 107.607 123.499 106.933V100.436H124.415C125.693 100.436 126.733 99.3961 126.733 98.1175V83.7545C126.733 82.4759 125.693 81.4357 124.415 81.4357H123.499V79.4842C123.499 78.8105 122.953 78.2642 122.279 78.2642C121.605 78.2642 121.059 78.8105 121.059 79.4842V81.4357H120.143C118.865 81.4357 117.824 82.4759 117.824 83.7545V89.9728C117.824 90.6466 118.371 91.1929 119.044 91.1929C119.718 91.1929 120.265 90.6466 120.265 89.9728V83.8759H122.279C122.279 83.8759 122.28 83.8759 122.281 83.8759H124.294V97.9963H120.265V95.1723C120.265 94.4984 119.718 93.9521 119.044 93.9521Z" stroke="#88FF2A" stroke-opacity="0.2" stroke-width="3" mask="url(#path-4-inside-3_4743_34731)"/>
<path d="M148.92 91.3783H149.836V97.8754C149.836 98.5492 150.382 99.0955 151.056 99.0955C151.73 99.0955 152.276 98.5492 152.276 97.8754V91.3783H153.191C154.47 91.3783 155.51 90.338 155.51 89.0594V79.4899C155.51 78.8162 154.964 78.2699 154.29 78.2699C153.616 78.2699 153.07 78.8162 153.07 79.4899V88.9382H149.041V66.8469H153.07V74.2906C153.07 74.9644 153.616 75.5107 154.29 75.5107C154.964 75.5107 155.51 74.9644 155.51 74.2906V66.7256C155.51 65.4471 154.47 64.4068 153.191 64.4068H152.276V59.553C152.276 58.8793 151.73 58.333 151.056 58.333C150.382 58.333 149.836 58.8793 149.836 59.553V64.4068H148.92C147.641 64.4068 146.601 65.4471 146.601 66.7256V89.0594C146.601 90.3382 147.641 91.3783 148.92 91.3783Z" stroke="#88FF2A" stroke-opacity="0.2" stroke-width="3" mask="url(#path-4-inside-3_4743_34731)"/>
<path d="M172.485 91.7811C172.705 92.19 173.126 92.4223 173.56 92.4223C173.755 92.4223 173.954 92.3752 174.138 92.2759L179.757 89.2458L179.353 90.3068C179.113 90.9365 179.429 91.6414 180.059 91.8813C180.202 91.9356 180.349 91.9615 180.493 91.9615C180.985 91.9615 181.448 91.6622 181.634 91.1755L183.007 87.5697C183.247 86.94 182.931 86.2351 182.301 85.9952L178.474 84.5372C177.845 84.2974 177.14 84.6133 176.9 85.243C176.66 85.8727 176.976 86.5775 177.606 86.8175L178.493 87.1555L172.98 90.1282C172.387 90.448 172.165 91.188 172.485 91.7811Z" stroke="#88FF2A" stroke-opacity="0.2" stroke-width="3" mask="url(#path-4-inside-3_4743_34731)"/>
<path d="M113.518 115.62C113.716 116.082 114.166 116.36 114.64 116.36C114.8 116.36 114.963 116.328 115.119 116.261L130.862 109.523L132.293 113.272C132.418 113.6 132.679 113.858 133.008 113.98C133.337 114.103 133.703 114.077 134.012 113.911L160.02 99.8875C160.613 99.5677 160.835 98.8277 160.515 98.2346C160.196 97.6417 159.456 97.4199 158.862 97.7398L134.077 111.103L132.689 107.467C132.571 107.157 132.331 106.908 132.026 106.779C131.72 106.649 131.375 106.65 131.069 106.78L114.159 114.018C113.54 114.283 113.253 115 113.518 115.62Z" stroke="#88FF2A" stroke-opacity="0.2" stroke-width="3" mask="url(#path-4-inside-3_4743_34731)"/>
</g>
<g opacity="0.3" filter="url(#filter4_f_4743_34731)">
<mask id="path-5-inside-4_4743_34731" fill="white">
<path d="M181.582 69.9709H166.664V65.0743C166.664 64.4005 166.118 63.8543 165.444 63.8543C164.77 63.8543 164.224 64.4005 164.224 65.0743V69.9709H159.17C158.496 69.9709 157.95 70.5171 157.95 71.1909C157.95 71.8647 158.496 72.4109 159.17 72.4109H164.224V77.5771H163.308C162.03 77.5771 160.989 78.6174 160.989 79.8958V94.2587C160.989 95.5373 162.03 96.5775 163.308 96.5775H164.224V106.257C164.224 106.93 164.77 107.477 165.444 107.477C166.118 107.477 166.664 106.93 166.664 106.257V96.5775H167.58C168.858 96.5775 169.898 95.5372 169.898 94.2587V79.8958C169.898 78.6172 168.858 77.5771 167.58 77.5771H166.664V72.4109H181.582C184.513 72.4109 186.899 74.796 186.899 77.7277V119.485H108.744V77.7279C108.744 74.7962 111.129 72.4111 114.061 72.4111H135.447V74.7921H134.532C133.253 74.7921 132.213 75.8324 132.213 77.1109V91.4738C132.213 92.7524 133.253 93.7925 134.532 93.7925H135.447V104.573C135.447 105.247 135.994 105.793 136.667 105.793C137.341 105.793 137.887 105.247 137.887 104.573V93.7925H138.803C140.082 93.7925 141.122 92.7522 141.122 91.4738V77.1109C141.122 75.8323 140.082 74.7921 138.803 74.7921H137.887V72.4109H142.941C143.615 72.4109 144.161 71.8647 144.161 71.1909C144.161 70.5171 143.615 69.9709 142.941 69.9709H137.887V69.3683C137.887 68.6945 137.341 68.1483 136.667 68.1483C135.994 68.1483 135.447 68.6945 135.447 69.3683V69.9709H114.061C109.783 69.9709 106.304 73.4506 106.304 77.7277V120.705C106.304 124.982 109.783 128.462 114.061 128.462H132.633V134.665L128.7 139.226H127.14C126.466 139.226 125.919 139.773 125.919 140.446C125.919 141.12 126.466 141.666 127.14 141.666H168.39C169.064 141.666 169.61 141.12 169.61 140.446C169.61 139.773 169.064 139.226 168.39 139.226H166.942L163.01 134.665V128.462H181.582C185.859 128.462 189.339 124.982 189.339 120.705V77.7279C189.339 73.4507 185.859 69.9709 181.582 69.9709ZM167.458 94.1377H163.43V80.0173H167.459L167.458 94.1377ZM138.682 91.3525H134.653V77.2322H138.682V91.3525ZM181.582 126.022H156.89C156.216 126.022 155.67 126.568 155.67 127.242C155.67 127.915 156.216 128.462 156.89 128.462H160.57V133.898H157.531C156.857 133.898 156.31 134.445 156.31 135.118C156.31 135.792 156.857 136.338 157.531 136.338H161.23L163.72 139.226H131.922L134.412 136.338H138.112C138.786 136.338 139.332 135.792 139.332 135.118C139.332 134.445 138.786 133.898 138.112 133.898H135.073V128.462H151.69C152.364 128.462 152.91 127.915 152.91 127.242C152.91 126.568 152.364 126.022 151.69 126.022H114.061C111.549 126.022 109.44 124.27 108.887 121.925H186.756C186.203 124.27 184.094 126.022 181.582 126.022Z"/>
<path d="M119.044 93.9521C118.371 93.9521 117.824 94.4984 117.824 95.1721V98.1175C117.824 99.3961 118.865 100.436 120.143 100.436H121.059V106.933C121.059 107.607 121.605 108.154 122.279 108.154C122.953 108.154 123.499 107.607 123.499 106.933V100.436H124.415C125.693 100.436 126.733 99.3961 126.733 98.1175V83.7545C126.733 82.4759 125.693 81.4357 124.415 81.4357H123.499V79.4842C123.499 78.8105 122.953 78.2642 122.279 78.2642C121.605 78.2642 121.059 78.8105 121.059 79.4842V81.4357H120.143C118.865 81.4357 117.824 82.4759 117.824 83.7545V89.9728C117.824 90.6466 118.371 91.1929 119.044 91.1929C119.718 91.1929 120.265 90.6466 120.265 89.9728V83.8759H122.279C122.279 83.8759 122.28 83.8759 122.281 83.8759H124.294V97.9963H120.265V95.1723C120.265 94.4984 119.718 93.9521 119.044 93.9521Z"/>
<path d="M148.92 91.3783H149.836V97.8754C149.836 98.5492 150.382 99.0955 151.056 99.0955C151.73 99.0955 152.276 98.5492 152.276 97.8754V91.3783H153.191C154.47 91.3783 155.51 90.338 155.51 89.0594V79.4899C155.51 78.8162 154.964 78.2699 154.29 78.2699C153.616 78.2699 153.07 78.8162 153.07 79.4899V88.9382H149.041V66.8469H153.07V74.2906C153.07 74.9644 153.616 75.5107 154.29 75.5107C154.964 75.5107 155.51 74.9644 155.51 74.2906V66.7256C155.51 65.4471 154.47 64.4068 153.191 64.4068H152.276V59.553C152.276 58.8793 151.73 58.333 151.056 58.333C150.382 58.333 149.836 58.8793 149.836 59.553V64.4068H148.92C147.641 64.4068 146.601 65.4471 146.601 66.7256V89.0594C146.601 90.3382 147.641 91.3783 148.92 91.3783Z"/>
<path d="M172.485 91.7811C172.705 92.19 173.126 92.4223 173.56 92.4223C173.755 92.4223 173.954 92.3752 174.138 92.2759L179.757 89.2458L179.353 90.3068C179.113 90.9365 179.429 91.6414 180.059 91.8813C180.202 91.9356 180.349 91.9615 180.493 91.9615C180.985 91.9615 181.448 91.6622 181.634 91.1755L183.007 87.5697C183.247 86.94 182.931 86.2351 182.301 85.9952L178.474 84.5372C177.845 84.2974 177.14 84.6133 176.9 85.243C176.66 85.8727 176.976 86.5775 177.606 86.8175L178.493 87.1555L172.98 90.1282C172.387 90.448 172.165 91.188 172.485 91.7811Z"/>
<path d="M113.518 115.62C113.716 116.082 114.166 116.36 114.64 116.36C114.8 116.36 114.963 116.328 115.119 116.261L130.862 109.523L132.293 113.272C132.418 113.6 132.679 113.858 133.008 113.98C133.337 114.103 133.703 114.077 134.012 113.911L160.02 99.8875C160.613 99.5677 160.835 98.8277 160.515 98.2346C160.196 97.6417 159.456 97.4199 158.862 97.7398L134.077 111.103L132.689 107.467C132.571 107.157 132.331 106.908 132.026 106.779C131.72 106.649 131.375 106.65 131.069 106.78L114.159 114.018C113.54 114.283 113.253 115 113.518 115.62Z"/>
</mask>
<path d="M181.582 69.9709H166.664V65.0743C166.664 64.4005 166.118 63.8543 165.444 63.8543C164.77 63.8543 164.224 64.4005 164.224 65.0743V69.9709H159.17C158.496 69.9709 157.95 70.5171 157.95 71.1909C157.95 71.8647 158.496 72.4109 159.17 72.4109H164.224V77.5771H163.308C162.03 77.5771 160.989 78.6174 160.989 79.8958V94.2587C160.989 95.5373 162.03 96.5775 163.308 96.5775H164.224V106.257C164.224 106.93 164.77 107.477 165.444 107.477C166.118 107.477 166.664 106.93 166.664 106.257V96.5775H167.58C168.858 96.5775 169.898 95.5372 169.898 94.2587V79.8958C169.898 78.6172 168.858 77.5771 167.58 77.5771H166.664V72.4109H181.582C184.513 72.4109 186.899 74.796 186.899 77.7277V119.485H108.744V77.7279C108.744 74.7962 111.129 72.4111 114.061 72.4111H135.447V74.7921H134.532C133.253 74.7921 132.213 75.8324 132.213 77.1109V91.4738C132.213 92.7524 133.253 93.7925 134.532 93.7925H135.447V104.573C135.447 105.247 135.994 105.793 136.667 105.793C137.341 105.793 137.887 105.247 137.887 104.573V93.7925H138.803C140.082 93.7925 141.122 92.7522 141.122 91.4738V77.1109C141.122 75.8323 140.082 74.7921 138.803 74.7921H137.887V72.4109H142.941C143.615 72.4109 144.161 71.8647 144.161 71.1909C144.161 70.5171 143.615 69.9709 142.941 69.9709H137.887V69.3683C137.887 68.6945 137.341 68.1483 136.667 68.1483C135.994 68.1483 135.447 68.6945 135.447 69.3683V69.9709H114.061C109.783 69.9709 106.304 73.4506 106.304 77.7277V120.705C106.304 124.982 109.783 128.462 114.061 128.462H132.633V134.665L128.7 139.226H127.14C126.466 139.226 125.919 139.773 125.919 140.446C125.919 141.12 126.466 141.666 127.14 141.666H168.39C169.064 141.666 169.61 141.12 169.61 140.446C169.61 139.773 169.064 139.226 168.39 139.226H166.942L163.01 134.665V128.462H181.582C185.859 128.462 189.339 124.982 189.339 120.705V77.7279C189.339 73.4507 185.859 69.9709 181.582 69.9709ZM167.458 94.1377H163.43V80.0173H167.459L167.458 94.1377ZM138.682 91.3525H134.653V77.2322H138.682V91.3525ZM181.582 126.022H156.89C156.216 126.022 155.67 126.568 155.67 127.242C155.67 127.915 156.216 128.462 156.89 128.462H160.57V133.898H157.531C156.857 133.898 156.31 134.445 156.31 135.118C156.31 135.792 156.857 136.338 157.531 136.338H161.23L163.72 139.226H131.922L134.412 136.338H138.112C138.786 136.338 139.332 135.792 139.332 135.118C139.332 134.445 138.786 133.898 138.112 133.898H135.073V128.462H151.69C152.364 128.462 152.91 127.915 152.91 127.242C152.91 126.568 152.364 126.022 151.69 126.022H114.061C111.549 126.022 109.44 124.27 108.887 121.925H186.756C186.203 124.27 184.094 126.022 181.582 126.022Z" stroke="#88FF2A" stroke-width="2" mask="url(#path-5-inside-4_4743_34731)"/>
<path d="M119.044 93.9521C118.371 93.9521 117.824 94.4984 117.824 95.1721V98.1175C117.824 99.3961 118.865 100.436 120.143 100.436H121.059V106.933C121.059 107.607 121.605 108.154 122.279 108.154C122.953 108.154 123.499 107.607 123.499 106.933V100.436H124.415C125.693 100.436 126.733 99.3961 126.733 98.1175V83.7545C126.733 82.4759 125.693 81.4357 124.415 81.4357H123.499V79.4842C123.499 78.8105 122.953 78.2642 122.279 78.2642C121.605 78.2642 121.059 78.8105 121.059 79.4842V81.4357H120.143C118.865 81.4357 117.824 82.4759 117.824 83.7545V89.9728C117.824 90.6466 118.371 91.1929 119.044 91.1929C119.718 91.1929 120.265 90.6466 120.265 89.9728V83.8759H122.279C122.279 83.8759 122.28 83.8759 122.281 83.8759H124.294V97.9963H120.265V95.1723C120.265 94.4984 119.718 93.9521 119.044 93.9521Z" stroke="#88FF2A" stroke-width="2" mask="url(#path-5-inside-4_4743_34731)"/>
<path d="M148.92 91.3783H149.836V97.8754C149.836 98.5492 150.382 99.0955 151.056 99.0955C151.73 99.0955 152.276 98.5492 152.276 97.8754V91.3783H153.191C154.47 91.3783 155.51 90.338 155.51 89.0594V79.4899C155.51 78.8162 154.964 78.2699 154.29 78.2699C153.616 78.2699 153.07 78.8162 153.07 79.4899V88.9382H149.041V66.8469H153.07V74.2906C153.07 74.9644 153.616 75.5107 154.29 75.5107C154.964 75.5107 155.51 74.9644 155.51 74.2906V66.7256C155.51 65.4471 154.47 64.4068 153.191 64.4068H152.276V59.553C152.276 58.8793 151.73 58.333 151.056 58.333C150.382 58.333 149.836 58.8793 149.836 59.553V64.4068H148.92C147.641 64.4068 146.601 65.4471 146.601 66.7256V89.0594C146.601 90.3382 147.641 91.3783 148.92 91.3783Z" stroke="#88FF2A" stroke-width="2" mask="url(#path-5-inside-4_4743_34731)"/>
<path d="M172.485 91.7811C172.705 92.19 173.126 92.4223 173.56 92.4223C173.755 92.4223 173.954 92.3752 174.138 92.2759L179.757 89.2458L179.353 90.3068C179.113 90.9365 179.429 91.6414 180.059 91.8813C180.202 91.9356 180.349 91.9615 180.493 91.9615C180.985 91.9615 181.448 91.6622 181.634 91.1755L183.007 87.5697C183.247 86.94 182.931 86.2351 182.301 85.9952L178.474 84.5372C177.845 84.2974 177.14 84.6133 176.9 85.243C176.66 85.8727 176.976 86.5775 177.606 86.8175L178.493 87.1555L172.98 90.1282C172.387 90.448 172.165 91.188 172.485 91.7811Z" stroke="#88FF2A" stroke-width="2" mask="url(#path-5-inside-4_4743_34731)"/>
<path d="M113.518 115.62C113.716 116.082 114.166 116.36 114.64 116.36C114.8 116.36 114.963 116.328 115.119 116.261L130.862 109.523L132.293 113.272C132.418 113.6 132.679 113.858 133.008 113.98C133.337 114.103 133.703 114.077 134.012 113.911L160.02 99.8875C160.613 99.5677 160.835 98.8277 160.515 98.2346C160.196 97.6417 159.456 97.4199 158.862 97.7398L134.077 111.103L132.689 107.467C132.571 107.157 132.331 106.908 132.026 106.779C131.72 106.649 131.375 106.65 131.069 106.78L114.159 114.018C113.54 114.283 113.253 115 113.518 115.62Z" stroke="#88FF2A" stroke-width="2" mask="url(#path-5-inside-4_4743_34731)"/>
</g>
<g opacity="0.8" filter="url(#filter5_f_4743_34731)">
<mask id="path-6-inside-5_4743_34731" fill="white">
<path d="M181.582 69.9709H166.664V65.0743C166.664 64.4005 166.118 63.8543 165.444 63.8543C164.77 63.8543 164.224 64.4005 164.224 65.0743V69.9709H159.17C158.496 69.9709 157.95 70.5171 157.95 71.1909C157.95 71.8647 158.496 72.4109 159.17 72.4109H164.224V77.5771H163.308C162.03 77.5771 160.989 78.6174 160.989 79.8958V94.2587C160.989 95.5373 162.03 96.5775 163.308 96.5775H164.224V106.257C164.224 106.93 164.77 107.477 165.444 107.477C166.118 107.477 166.664 106.93 166.664 106.257V96.5775H167.58C168.858 96.5775 169.898 95.5372 169.898 94.2587V79.8958C169.898 78.6172 168.858 77.5771 167.58 77.5771H166.664V72.4109H181.582C184.513 72.4109 186.899 74.796 186.899 77.7277V119.485H108.744V77.7279C108.744 74.7962 111.129 72.4111 114.061 72.4111H135.447V74.7921H134.532C133.253 74.7921 132.213 75.8324 132.213 77.1109V91.4738C132.213 92.7524 133.253 93.7925 134.532 93.7925H135.447V104.573C135.447 105.247 135.994 105.793 136.667 105.793C137.341 105.793 137.887 105.247 137.887 104.573V93.7925H138.803C140.082 93.7925 141.122 92.7522 141.122 91.4738V77.1109C141.122 75.8323 140.082 74.7921 138.803 74.7921H137.887V72.4109H142.941C143.615 72.4109 144.161 71.8647 144.161 71.1909C144.161 70.5171 143.615 69.9709 142.941 69.9709H137.887V69.3683C137.887 68.6945 137.341 68.1483 136.667 68.1483C135.994 68.1483 135.447 68.6945 135.447 69.3683V69.9709H114.061C109.783 69.9709 106.304 73.4506 106.304 77.7277V120.705C106.304 124.982 109.783 128.462 114.061 128.462H132.633V134.665L128.7 139.226H127.14C126.466 139.226 125.919 139.773 125.919 140.446C125.919 141.12 126.466 141.666 127.14 141.666H168.39C169.064 141.666 169.61 141.12 169.61 140.446C169.61 139.773 169.064 139.226 168.39 139.226H166.942L163.01 134.665V128.462H181.582C185.859 128.462 189.339 124.982 189.339 120.705V77.7279C189.339 73.4507 185.859 69.9709 181.582 69.9709ZM167.458 94.1377H163.43V80.0173H167.459L167.458 94.1377ZM138.682 91.3525H134.653V77.2322H138.682V91.3525ZM181.582 126.022H156.89C156.216 126.022 155.67 126.568 155.67 127.242C155.67 127.915 156.216 128.462 156.89 128.462H160.57V133.898H157.531C156.857 133.898 156.31 134.445 156.31 135.118C156.31 135.792 156.857 136.338 157.531 136.338H161.23L163.72 139.226H131.922L134.412 136.338H138.112C138.786 136.338 139.332 135.792 139.332 135.118C139.332 134.445 138.786 133.898 138.112 133.898H135.073V128.462H151.69C152.364 128.462 152.91 127.915 152.91 127.242C152.91 126.568 152.364 126.022 151.69 126.022H114.061C111.549 126.022 109.44 124.27 108.887 121.925H186.756C186.203 124.27 184.094 126.022 181.582 126.022Z"/>
<path d="M119.044 93.9521C118.371 93.9521 117.824 94.4984 117.824 95.1721V98.1175C117.824 99.3961 118.865 100.436 120.143 100.436H121.059V106.933C121.059 107.607 121.605 108.154 122.279 108.154C122.953 108.154 123.499 107.607 123.499 106.933V100.436H124.415C125.693 100.436 126.733 99.3961 126.733 98.1175V83.7545C126.733 82.4759 125.693 81.4357 124.415 81.4357H123.499V79.4842C123.499 78.8105 122.953 78.2642 122.279 78.2642C121.605 78.2642 121.059 78.8105 121.059 79.4842V81.4357H120.143C118.865 81.4357 117.824 82.4759 117.824 83.7545V89.9728C117.824 90.6466 118.371 91.1929 119.044 91.1929C119.718 91.1929 120.265 90.6466 120.265 89.9728V83.8759H122.279C122.279 83.8759 122.28 83.8759 122.281 83.8759H124.294V97.9963H120.265V95.1723C120.265 94.4984 119.718 93.9521 119.044 93.9521Z"/>
<path d="M148.92 91.3783H149.836V97.8754C149.836 98.5492 150.382 99.0955 151.056 99.0955C151.73 99.0955 152.276 98.5492 152.276 97.8754V91.3783H153.191C154.47 91.3783 155.51 90.338 155.51 89.0594V79.4899C155.51 78.8162 154.964 78.2699 154.29 78.2699C153.616 78.2699 153.07 78.8162 153.07 79.4899V88.9382H149.041V66.8469H153.07V74.2906C153.07 74.9644 153.616 75.5107 154.29 75.5107C154.964 75.5107 155.51 74.9644 155.51 74.2906V66.7256C155.51 65.4471 154.47 64.4068 153.191 64.4068H152.276V59.553C152.276 58.8793 151.73 58.333 151.056 58.333C150.382 58.333 149.836 58.8793 149.836 59.553V64.4068H148.92C147.641 64.4068 146.601 65.4471 146.601 66.7256V89.0594C146.601 90.3382 147.641 91.3783 148.92 91.3783Z"/>
<path d="M172.485 91.7811C172.705 92.1901 173.126 92.4223 173.56 92.4223C173.755 92.4223 173.954 92.3752 174.138 92.2759L179.757 89.2458L179.353 90.3068C179.113 90.9365 179.429 91.6414 180.059 91.8813C180.202 91.9356 180.349 91.9615 180.493 91.9615C180.985 91.9615 181.448 91.6622 181.634 91.1755L183.007 87.5697C183.247 86.94 182.931 86.2351 182.301 85.9952L178.474 84.5372C177.845 84.2974 177.14 84.6133 176.9 85.243C176.66 85.8727 176.976 86.5775 177.606 86.8175L178.493 87.1555L172.98 90.1282C172.387 90.448 172.165 91.188 172.485 91.7811Z"/>
<path d="M113.518 115.62C113.716 116.082 114.166 116.36 114.64 116.36C114.8 116.36 114.963 116.328 115.119 116.261L130.862 109.523L132.293 113.272C132.418 113.6 132.679 113.858 133.008 113.98C133.337 114.103 133.703 114.077 134.012 113.911L160.02 99.8875C160.613 99.5677 160.835 98.8277 160.515 98.2346C160.196 97.6417 159.456 97.4199 158.862 97.7398L134.077 111.103L132.689 107.467C132.571 107.157 132.331 106.908 132.026 106.779C131.72 106.649 131.375 106.65 131.069 106.78L114.159 114.018C113.54 114.283 113.253 115 113.518 115.62Z"/>
</mask>
<path d="M181.582 69.9709H166.664V65.0743C166.664 64.4005 166.118 63.8543 165.444 63.8543C164.77 63.8543 164.224 64.4005 164.224 65.0743V69.9709H159.17C158.496 69.9709 157.95 70.5171 157.95 71.1909C157.95 71.8647 158.496 72.4109 159.17 72.4109H164.224V77.5771H163.308C162.03 77.5771 160.989 78.6174 160.989 79.8958V94.2587C160.989 95.5373 162.03 96.5775 163.308 96.5775H164.224V106.257C164.224 106.93 164.77 107.477 165.444 107.477C166.118 107.477 166.664 106.93 166.664 106.257V96.5775H167.58C168.858 96.5775 169.898 95.5372 169.898 94.2587V79.8958C169.898 78.6172 168.858 77.5771 167.58 77.5771H166.664V72.4109H181.582C184.513 72.4109 186.899 74.796 186.899 77.7277V119.485H108.744V77.7279C108.744 74.7962 111.129 72.4111 114.061 72.4111H135.447V74.7921H134.532C133.253 74.7921 132.213 75.8324 132.213 77.1109V91.4738C132.213 92.7524 133.253 93.7925 134.532 93.7925H135.447V104.573C135.447 105.247 135.994 105.793 136.667 105.793C137.341 105.793 137.887 105.247 137.887 104.573V93.7925H138.803C140.082 93.7925 141.122 92.7522 141.122 91.4738V77.1109C141.122 75.8323 140.082 74.7921 138.803 74.7921H137.887V72.4109H142.941C143.615 72.4109 144.161 71.8647 144.161 71.1909C144.161 70.5171 143.615 69.9709 142.941 69.9709H137.887V69.3683C137.887 68.6945 137.341 68.1483 136.667 68.1483C135.994 68.1483 135.447 68.6945 135.447 69.3683V69.9709H114.061C109.783 69.9709 106.304 73.4506 106.304 77.7277V120.705C106.304 124.982 109.783 128.462 114.061 128.462H132.633V134.665L128.7 139.226H127.14C126.466 139.226 125.919 139.773 125.919 140.446C125.919 141.12 126.466 141.666 127.14 141.666H168.39C169.064 141.666 169.61 141.12 169.61 140.446C169.61 139.773 169.064 139.226 168.39 139.226H166.942L163.01 134.665V128.462H181.582C185.859 128.462 189.339 124.982 189.339 120.705V77.7279C189.339 73.4507 185.859 69.9709 181.582 69.9709ZM167.458 94.1377H163.43V80.0173H167.459L167.458 94.1377ZM138.682 91.3525H134.653V77.2322H138.682V91.3525ZM181.582 126.022H156.89C156.216 126.022 155.67 126.568 155.67 127.242C155.67 127.915 156.216 128.462 156.89 128.462H160.57V133.898H157.531C156.857 133.898 156.31 134.445 156.31 135.118C156.31 135.792 156.857 136.338 157.531 136.338H161.23L163.72 139.226H131.922L134.412 136.338H138.112C138.786 136.338 139.332 135.792 139.332 135.118C139.332 134.445 138.786 133.898 138.112 133.898H135.073V128.462H151.69C152.364 128.462 152.91 127.915 152.91 127.242C152.91 126.568 152.364 126.022 151.69 126.022H114.061C111.549 126.022 109.44 124.27 108.887 121.925H186.756C186.203 124.27 184.094 126.022 181.582 126.022Z" stroke="white" stroke-width="1.6" mask="url(#path-6-inside-5_4743_34731)"/>
<path d="M119.044 93.9521C118.371 93.9521 117.824 94.4984 117.824 95.1721V98.1175C117.824 99.3961 118.865 100.436 120.143 100.436H121.059V106.933C121.059 107.607 121.605 108.154 122.279 108.154C122.953 108.154 123.499 107.607 123.499 106.933V100.436H124.415C125.693 100.436 126.733 99.3961 126.733 98.1175V83.7545C126.733 82.4759 125.693 81.4357 124.415 81.4357H123.499V79.4842C123.499 78.8105 122.953 78.2642 122.279 78.2642C121.605 78.2642 121.059 78.8105 121.059 79.4842V81.4357H120.143C118.865 81.4357 117.824 82.4759 117.824 83.7545V89.9728C117.824 90.6466 118.371 91.1929 119.044 91.1929C119.718 91.1929 120.265 90.6466 120.265 89.9728V83.8759H122.279C122.279 83.8759 122.28 83.8759 122.281 83.8759H124.294V97.9963H120.265V95.1723C120.265 94.4984 119.718 93.9521 119.044 93.9521Z" stroke="white" stroke-width="1.6" mask="url(#path-6-inside-5_4743_34731)"/>
<path d="M148.92 91.3783H149.836V97.8754C149.836 98.5492 150.382 99.0955 151.056 99.0955C151.73 99.0955 152.276 98.5492 152.276 97.8754V91.3783H153.191C154.47 91.3783 155.51 90.338 155.51 89.0594V79.4899C155.51 78.8162 154.964 78.2699 154.29 78.2699C153.616 78.2699 153.07 78.8162 153.07 79.4899V88.9382H149.041V66.8469H153.07V74.2906C153.07 74.9644 153.616 75.5107 154.29 75.5107C154.964 75.5107 155.51 74.9644 155.51 74.2906V66.7256C155.51 65.4471 154.47 64.4068 153.191 64.4068H152.276V59.553C152.276 58.8793 151.73 58.333 151.056 58.333C150.382 58.333 149.836 58.8793 149.836 59.553V64.4068H148.92C147.641 64.4068 146.601 65.4471 146.601 66.7256V89.0594C146.601 90.3382 147.641 91.3783 148.92 91.3783Z" stroke="white" stroke-width="1.6" mask="url(#path-6-inside-5_4743_34731)"/>
<path d="M172.485 91.7811C172.705 92.1901 173.126 92.4223 173.56 92.4223C173.755 92.4223 173.954 92.3752 174.138 92.2759L179.757 89.2458L179.353 90.3068C179.113 90.9365 179.429 91.6414 180.059 91.8813C180.202 91.9356 180.349 91.9615 180.493 91.9615C180.985 91.9615 181.448 91.6622 181.634 91.1755L183.007 87.5697C183.247 86.94 182.931 86.2351 182.301 85.9952L178.474 84.5372C177.845 84.2974 177.14 84.6133 176.9 85.243C176.66 85.8727 176.976 86.5775 177.606 86.8175L178.493 87.1555L172.98 90.1282C172.387 90.448 172.165 91.188 172.485 91.7811Z" stroke="white" stroke-width="1.6" mask="url(#path-6-inside-5_4743_34731)"/>
<path d="M113.518 115.62C113.716 116.082 114.166 116.36 114.64 116.36C114.8 116.36 114.963 116.328 115.119 116.261L130.862 109.523L132.293 113.272C132.418 113.6 132.679 113.858 133.008 113.98C133.337 114.103 133.703 114.077 134.012 113.911L160.02 99.8875C160.613 99.5677 160.835 98.8277 160.515 98.2346C160.196 97.6417 159.456 97.4199 158.862 97.7398L134.077 111.103L132.689 107.467C132.571 107.157 132.331 106.908 132.026 106.779C131.72 106.649 131.375 106.65 131.069 106.78L114.159 114.018C113.54 114.283 113.253 115 113.518 115.62Z" stroke="white" stroke-width="1.6" mask="url(#path-6-inside-5_4743_34731)"/>
</g>
<defs>
<filter id="filter0_f_4743_34731" x="0.300003" y="-47.4324" width="295.4" height="295.4" filterUnits="userSpaceOnUse" color-interpolation-filters="sRGB">
<feFlood flood-opacity="0" result="BackgroundImageFix"/>
<feBlend mode="normal" in="SourceGraphic" in2="BackgroundImageFix" result="shape"/>
<feGaussianBlur stdDeviation="38.85" result="effect1_foregroundBlur_4743_34731"/>
</filter>
<filter id="filter1_f_4743_34731" x="92.5783" y="44.6076" width="110.486" height="110.784" filterUnits="userSpaceOnUse" color-interpolation-filters="sRGB">
<feFlood flood-opacity="0" result="BackgroundImageFix"/>
<feBlend mode="normal" in="SourceGraphic" in2="BackgroundImageFix" result="shape"/>
<feGaussianBlur stdDeviation="6.86269" result="effect1_foregroundBlur_4743_34731"/>
</filter>
<filter id="filter2_f_4743_34731" x="102.404" y="54.433" width="90.8352" height="91.133" filterUnits="userSpaceOnUse" color-interpolation-filters="sRGB">
<feFlood flood-opacity="0" result="BackgroundImageFix"/>
<feBlend mode="normal" in="SourceGraphic" in2="BackgroundImageFix" result="shape"/>
<feGaussianBlur stdDeviation="1.95" result="effect1_foregroundBlur_4743_34731"/>
</filter>
<filter id="filter3_ddi_4743_34731" x="100.356" y="56.9605" width="94.9305" height="95.2283" filterUnits="userSpaceOnUse" color-interpolation-filters="sRGB">
<feFlood flood-opacity="0" result="BackgroundImageFix"/>
<feColorMatrix in="SourceAlpha" type="matrix" values="0 0 0 0 0 0 0 0 0 0 0 0 0 0 0 0 0 0 127 0" result="hardAlpha"/>
<feOffset dy="2.70349"/>
<feGaussianBlur stdDeviation="1.0398"/>
<feColorMatrix type="matrix" values="0 0 0 0 0.0455282 0 0 0 0 0.1 0 0 0 0 0.0025 0 0 0 0.7 0"/>
<feBlend mode="multiply" in2="BackgroundImageFix" result="effect1_dropShadow_4743_34731"/>
<feColorMatrix in="SourceAlpha" type="matrix" values="0 0 0 0 0 0 0 0 0 0 0 0 0 0 0 0 0 0 127 0" result="hardAlpha"/>
<feOffset dy="4.57513"/>
<feGaussianBlur stdDeviation="2.97383"/>
<feColorMatrix type="matrix" values="0 0 0 0 0.15963 0 0 0 0 0.3 0 0 0 0 0.04875 0 0 0 1 0"/>
<feBlend mode="color-dodge" in2="effect1_dropShadow_4743_34731" result="effect2_dropShadow_4743_34731"/>
<feBlend mode="normal" in="SourceGraphic" in2="effect2_dropShadow_4743_34731" result="shape"/>
<feColorMatrix in="SourceAlpha" type="matrix" values="0 0 0 0 0 0 0 0 0 0 0 0 0 0 0 0 0 0 127 0" result="hardAlpha"/>
<feOffset dx="-0.270349" dy="0.540697"/>
<feGaussianBlur stdDeviation="0.135174"/>
<feComposite in2="hardAlpha" operator="arithmetic" k2="-1" k3="1"/>
<feColorMatrix type="matrix" values="0 0 0 0 1 0 0 0 0 1 0 0 0 0 1 0 0 0 0.5 0"/>
<feBlend mode="normal" in2="shape" result="effect3_innerShadow_4743_34731"/>
</filter>
<filter id="filter4_f_4743_34731" x="105.888" y="57.9171" width="83.867" height="84.1648" filterUnits="userSpaceOnUse" color-interpolation-filters="sRGB">
<feFlood flood-opacity="0" result="BackgroundImageFix"/>
<feBlend mode="normal" in="SourceGraphic" in2="BackgroundImageFix" result="shape"/>
<feGaussianBlur stdDeviation="0.20796" result="effect1_foregroundBlur_4743_34731"/>
</filter>
<filter id="filter5_f_4743_34731" x="106.026" y="58.0557" width="83.5897" height="83.8876" filterUnits="userSpaceOnUse" color-interpolation-filters="sRGB">
<feFlood flood-opacity="0" result="BackgroundImageFix"/>
<feBlend mode="normal" in="SourceGraphic" in2="BackgroundImageFix" result="shape"/>
<feGaussianBlur stdDeviation="0.13864" result="effect1_foregroundBlur_4743_34731"/>
</filter>
</defs>
</svg>
