<svg width="46" height="46" viewBox="0 0 46 46" fill="none" xmlns="http://www.w3.org/2000/svg">
<g clip-path="url(#clip0_5761_18728)">
<path fill-rule="evenodd" clip-rule="evenodd" d="M28.4915 25.689C27.6209 26.0448 27.0648 27.4077 26.5006 28.104C26.2113 28.4607 25.8663 28.5164 25.4215 28.3376C22.1539 27.0358 19.6491 24.8553 17.8459 21.8482C17.5404 21.3819 17.5952 21.0136 17.9636 20.5805C18.5081 19.939 19.1927 19.2104 19.34 18.3461C19.667 16.4342 17.1676 10.5036 13.8667 13.1909C4.36844 20.9309 29.7116 41.4593 34.2855 30.3564C35.5793 27.2092 29.9344 25.0979 28.4915 25.689ZM23.0002 41.9822C19.641 41.9822 16.3356 41.0891 13.4418 39.3983C12.9773 39.1261 12.4157 39.0542 11.8965 39.1952L5.60829 40.9211L7.79868 36.0956C8.09696 35.4389 8.02059 34.6743 7.59923 34.0903C5.2561 30.8425 4.01715 27.0079 4.01715 23C4.01715 12.5323 12.5325 4.01691 23.0002 4.01691C33.4679 4.01691 41.9824 12.5323 41.9824 23C41.9824 33.4668 33.467 41.9822 23.0002 41.9822ZM23.0002 0C10.3179 0 0.000240451 10.3177 0.000240451 23C0.000240451 27.4616 1.26704 31.7463 3.67395 35.4649L0.179928 43.16C-0.142611 43.8707 -0.0249158 44.7027 0.480006 45.2947C0.868131 45.7484 1.42965 46 2.00915 46C3.30469 46 10.3691 43.78 12.1669 43.2867C15.4902 45.0647 19.2178 46 23.0002 46C35.6817 46 46.0002 35.6814 46.0002 23C46.0002 10.3177 35.6817 0 23.0002 0Z" fill="#39AE41"/>
</g>
<defs>
<clipPath id="clip0_5761_18728">
<rect width="46" height="46" fill="white"/>
</clipPath>
</defs>
</svg>
