<svg width="54" height="54" viewBox="0 0 54 54" fill="none" xmlns="http://www.w3.org/2000/svg">
<g opacity="0.6">
<rect x="5" y="5" width="44" height="44" rx="8.8" fill="white" fill-opacity="0.25"/>
<rect x="5.33" y="5.33" width="43.34" height="43.34" rx="8.47" stroke="white" stroke-opacity="0.3" stroke-width="0.66"/>
<g filter="url(#filter0_f_5456_20631)">
<rect x="5.33" y="5.33" width="43.34" height="43.34" rx="8.47" stroke="white" stroke-width="0.66"/>
</g>
<path d="M22.7696 20.7125C27.7237 15.7949 33.7337 14.5186 36.1388 17.8704C38.5439 21.2223 36.4301 27.997 31.4761 32.9146C26.522 37.8687 20.512 39.1431 18.0705 35.7549C15.7036 32.3684 17.8174 25.6283 22.7696 20.7125Z" fill="#F06321"/>
<path d="M26.0486 18.0889C25.5024 18.4895 24.9562 18.9629 24.41 19.4745C20.075 23.7712 18.2525 29.672 20.4027 32.6233C22.6239 35.5728 27.9421 34.4804 32.3864 30.1454C34.7915 27.815 36.3936 25.1185 37.0491 22.606C37.2312 20.7489 36.9763 19.1085 36.1388 17.8705C34.2453 15.2487 30.1652 15.4653 26.0486 18.0889Z" fill="#AE282E"/>
<path d="M32.3133 18.6351V18.7443C32.277 19.3633 31.9128 20.128 31.2573 20.7834C30.2742 21.7302 28.9633 22.0943 28.4153 21.5499C27.7962 20.9673 28.1622 19.691 29.1454 18.6715C30.1649 17.6883 31.4758 17.3606 32.022 17.9432C32.2041 18.1253 32.3133 18.3437 32.3133 18.6351ZM28.5263 35.3543C26.194 37.1021 23.7908 37.9779 21.4585 37.6137C22.4417 37.6501 23.2446 36.5559 23.9 35.0994C24.5554 33.6064 24.9196 32.2227 25.2473 30.91C25.7207 28.8344 25.7571 27.3779 25.5022 27.0502C25.1016 26.5386 24.2277 26.6496 23.2063 27.2323C22.6965 27.5236 22.0411 27.3415 22.8076 26.3947C23.6087 25.448 26.7038 23.1885 27.7962 22.8244C29.0361 22.4967 30.4198 22.9701 29.9465 24.3174C29.6169 25.3005 25.3201 36.5195 28.5263 35.3543Z" fill="white"/>
</g>
<defs>
<filter id="filter0_f_5456_20631" x="0.599998" y="0.599998" width="52.8" height="52.8" filterUnits="userSpaceOnUse" color-interpolation-filters="sRGB">
<feFlood flood-opacity="0" result="BackgroundImageFix"/>
<feBlend mode="normal" in="SourceGraphic" in2="BackgroundImageFix" result="shape"/>
<feGaussianBlur stdDeviation="2.2" result="effect1_foregroundBlur_5456_20631"/>
</filter>
</defs>
</svg>
